<svg width="423" height="15" viewBox="0 0 423 15" fill="none" xmlns="http://www.w3.org/2000/svg">
<path d="M1 11.9183C25.4383 12.7937 50.2113 15.1356 74.6573 13.7061C86.8708 12.9919 98.9008 10.4792 110.995 8.85353C142.522 4.61585 174.351 4.96137 206.109 5.24602C243.36 5.5799 280.566 6.91722 317.805 7.70424C335.451 8.07717 352.347 8.08533 369.777 5.53334C387.238 2.97688 404.307 1.41991 421.945 1" stroke="#0F0F0F" stroke-linecap="round"/>
<path d="M1 11.9183C25.4383 12.7937 50.2113 15.1356 74.6573 13.7061C86.8708 12.9919 98.9008 10.4792 110.995 8.85353C142.522 4.61585 174.351 4.96137 206.109 5.24602C243.36 5.5799 280.566 6.91722 317.805 7.70424C335.451 8.07717 352.347 8.08533 369.777 5.53334C387.238 2.97688 404.307 1.41991 421.945 1" stroke="black" stroke-opacity="0.2" stroke-linecap="round"/>
</svg>
