<svg width="50" height="62" fill="none" xmlns="http://www.w3.org/2000/svg"><path d="M9.997 61.571a1 1 0 0 1-1.392.25l-7.387-5.142a1 1 0 0 1 1.142-1.641l6.566 4.57 4.57-6.566a1 1 0 0 1 1.642 1.142l-5.141 7.387Zm39.319-59.58c-.318.044-.642.094-.97.149l-.33-1.973c.345-.057.685-.11 1.02-.157l.28 1.98Zm-2.93.524c-.633.137-1.282.29-1.943.463l-.504-1.936c.689-.18 1.365-.34 2.027-.482l.42 1.955Zm-3.861 1.003c-.625.19-1.258.395-1.898.617l-.655-1.89c.665-.23 1.323-.444 1.972-.64l.58 1.913Zm-3.773 1.306c-.612.239-1.229.492-1.848.76L36.11 3.75a54.884 54.884 0 0 1 1.917-.788l.726 1.863Zm-3.666 1.59c-.594.285-1.19.584-1.785.898l-.933-1.769a54.169 54.169 0 0 1 1.854-.932l.864 1.803Zm-3.534 1.864c-.57.33-1.14.674-1.706 1.032l-1.07-1.69c.59-.372 1.182-.73 1.775-1.073l1.001 1.731Zm-3.37 2.132a48.18 48.18 0 0 0-1.616 1.165l-1.204-1.597c.557-.42 1.119-.824 1.684-1.214l1.136 1.646ZM25 12.808c-.51.419-1.014.851-1.511 1.298l-1.336-1.489c.519-.466 1.045-.917 1.577-1.354L25 12.808Zm-2.964 2.66a43.95 43.95 0 0 0-1.39 1.427l-1.464-1.363c.477-.511.961-1.008 1.454-1.491l1.4 1.428Zm-2.712 2.915a42.43 42.43 0 0 0-1.25 1.544l-1.583-1.22c.426-.554.862-1.092 1.308-1.617l1.525 1.293ZM16.9 21.53c-.377.539-.743 1.09-1.099 1.656l-1.692-1.066a43.73 43.73 0 0 1 1.15-1.735l1.64 1.145Zm-2.119 3.364a41.957 41.957 0 0 0-.937 1.757l-1.786-.9c.315-.627.643-1.24.982-1.84l1.741.983Zm-1.787 3.548c-.267.6-.523 1.21-.767 1.833l-1.862-.729a44.76 44.76 0 0 1 .802-1.919l1.827.815Zm-1.45 3.705c-.212.622-.412 1.256-.6 1.901l-1.92-.558c.196-.674.405-1.336.625-1.986l1.894.643Zm-1.111 3.819c-.156.638-.3 1.287-.432 1.947L8.04 37.52c.137-.688.287-1.364.45-2.03l1.943.475Zm-.784 3.918c-.102.646-.193 1.301-.271 1.967l-1.987-.235c.082-.691.176-1.373.282-2.044l1.976.312Zm-.469 3.958a55.612 55.612 0 0 0-.124 1.998l-1.998-.088c.031-.7.074-1.389.129-2.07l1.993.16Zm-.177 3.99c-.007.664-.002 1.337.014 2.019l-2 .046a63.123 63.123 0 0 1-.014-2.085l2 .02Zm.09 4.004c.037.662.083 1.332.14 2.01l-1.993.168a69.403 69.403 0 0 1-.143-2.07l1.997-.108Zm.336 4c.074.657.158 1.322.253 1.995l-1.981.278a76.53 76.53 0 0 1-.26-2.049l1.988-.224Zm.557 3.98c.055.334.114.67.174 1.009l-1.969.352c-.062-.346-.121-.69-.178-1.033l1.973-.328Z" fill="#0F0F0F"/><path d="M9.997 61.571a1 1 0 0 1-1.392.25l-7.387-5.142a1 1 0 0 1 1.142-1.641l6.566 4.57 4.57-6.566a1 1 0 0 1 1.642 1.142l-5.141 7.387Zm39.319-59.58c-.318.044-.642.094-.97.149l-.33-1.973c.345-.057.685-.11 1.02-.157l.28 1.98Zm-2.93.524c-.633.137-1.282.29-1.943.463l-.504-1.936c.689-.18 1.365-.34 2.027-.482l.42 1.955Zm-3.861 1.003c-.625.19-1.258.395-1.898.617l-.655-1.89c.665-.23 1.323-.444 1.972-.64l.58 1.913Zm-3.773 1.306c-.612.239-1.229.492-1.848.76L36.11 3.75a54.884 54.884 0 0 1 1.917-.788l.726 1.863Zm-3.666 1.59c-.594.285-1.19.584-1.785.898l-.933-1.769a54.169 54.169 0 0 1 1.854-.932l.864 1.803Zm-3.534 1.864c-.57.33-1.14.674-1.706 1.032l-1.07-1.69c.59-.372 1.182-.73 1.775-1.073l1.001 1.731Zm-3.37 2.132a48.18 48.18 0 0 0-1.616 1.165l-1.204-1.597c.557-.42 1.119-.824 1.684-1.214l1.136 1.646ZM25 12.808c-.51.419-1.014.851-1.511 1.298l-1.336-1.489c.519-.466 1.045-.917 1.577-1.354L25 12.808Zm-2.964 2.66a43.95 43.95 0 0 0-1.39 1.427l-1.464-1.363c.477-.511.961-1.008 1.454-1.491l1.4 1.428Zm-2.712 2.915a42.43 42.43 0 0 0-1.25 1.544l-1.583-1.22c.426-.554.862-1.092 1.308-1.617l1.525 1.293ZM16.9 21.53c-.377.539-.743 1.09-1.099 1.656l-1.692-1.066a43.73 43.73 0 0 1 1.15-1.735l1.64 1.145Zm-2.119 3.364a41.957 41.957 0 0 0-.937 1.757l-1.786-.9c.315-.627.643-1.24.982-1.84l1.741.983Zm-1.787 3.548c-.267.6-.523 1.21-.767 1.833l-1.862-.729a44.76 44.76 0 0 1 .802-1.919l1.827.815Zm-1.45 3.705c-.212.622-.412 1.256-.6 1.901l-1.92-.558c.196-.674.405-1.336.625-1.986l1.894.643Zm-1.111 3.819c-.156.638-.3 1.287-.432 1.947L8.04 37.52c.137-.688.287-1.364.45-2.03l1.943.475Zm-.784 3.918c-.102.646-.193 1.301-.271 1.967l-1.987-.235c.082-.691.176-1.373.282-2.044l1.976.312Zm-.469 3.958a55.612 55.612 0 0 0-.124 1.998l-1.998-.088c.031-.7.074-1.389.129-2.07l1.993.16Zm-.177 3.99c-.007.664-.002 1.337.014 2.019l-2 .046a63.123 63.123 0 0 1-.014-2.085l2 .02Zm.09 4.004c.037.662.083 1.332.14 2.01l-1.993.168a69.403 69.403 0 0 1-.143-2.07l1.997-.108Zm.336 4c.074.657.158 1.322.253 1.995l-1.981.278a76.53 76.53 0 0 1-.26-2.049l1.988-.224Zm.557 3.98c.055.334.114.67.174 1.009l-1.969.352c-.062-.346-.121-.69-.178-1.033l1.973-.328Z" fill="#000" fill-opacity=".2"/></svg>