<svg width="28" height="28" viewBox="0 0 28 28" fill="none" xmlns="http://www.w3.org/2000/svg">
<path d="M14.5646 27.581L13.9526 27.761C13.9046 27.785 13.8566 27.785 13.8086 27.761C13.7846 27.737 13.7486 27.713 13.7006 27.689C13.7006 27.689 13.6886 27.689 13.6646 27.689L13.0886 27.869C13.0166 27.893 12.9566 27.881 12.9086 27.833L12.5846 27.977C12.4886 28.025 12.4166 28.001 12.3686 27.905C12.3686 27.905 12.3686 27.893 12.3686 27.869C12.3206 27.869 12.2846 27.833 12.2606 27.761C12.2366 27.665 12.2726 27.605 12.3686 27.581L13.0886 27.329C12.9206 27.329 12.7766 27.329 12.6566 27.329L12.1526 27.581C12.1526 27.581 12.1406 27.581 12.1166 27.581L11.5046 27.833C11.4086 27.857 11.3366 27.821 11.2886 27.725C11.2406 27.629 11.2766 27.557 11.3966 27.509L11.8646 27.365L11.3606 27.473L10.8206 27.689C10.7246 27.713 10.6526 27.677 10.6046 27.581L9.95657 27.833C9.86057 27.881 9.78857 27.857 9.74057 27.761C9.71657 27.665 9.75257 27.593 9.84857 27.545L10.4606 27.293L10.8206 27.113C10.7726 27.113 10.7126 27.101 10.6406 27.077C10.5686 27.077 10.4846 27.077 10.3886 27.077L9.77657 27.293L9.27257 27.509C9.15257 27.533 9.08057 27.497 9.05657 27.401C9.00857 27.305 9.03257 27.233 9.12857 27.185L9.66857 27.005L9.88457 26.897C9.88457 26.897 9.87257 26.897 9.84857 26.897L9.59657 27.005L8.98457 27.221L8.40857 27.437C8.31257 27.461 8.24057 27.425 8.19257 27.329C8.16857 27.257 8.19257 27.197 8.26457 27.149L7.83257 27.293C7.73657 27.317 7.66457 27.281 7.61657 27.185C7.59257 27.089 7.62857 27.017 7.72457 26.969L8.30057 26.789L8.84057 26.501C8.84057 26.501 8.85257 26.501 8.87657 26.501C8.85257 26.477 8.82857 26.465 8.80457 26.465L8.26457 26.717L7.68857 26.897L7.14857 27.149C7.05257 27.197 6.98057 27.173 6.93257 27.077C6.88457 26.981 6.90857 26.909 7.00457 26.861L7.54457 26.609C7.56857 26.609 7.58057 26.609 7.58057 26.609L8.44457 26.285C8.37257 26.237 8.30057 26.201 8.22857 26.177C8.18057 26.129 8.12057 26.093 8.04857 26.069L7.43657 26.321C7.43657 26.321 7.42457 26.321 7.40057 26.321L6.78857 26.465L6.17657 26.753C6.08057 26.801 6.00857 26.777 5.96057 26.681C5.91257 26.561 5.93657 26.489 6.03257 26.465L6.68057 26.177L7.32857 25.997L7.72457 25.853C7.65257 25.829 7.55657 25.829 7.43657 25.853L6.89657 26.033L6.32057 26.285L5.81657 26.537C5.72057 26.561 5.64857 26.525 5.60057 26.429C5.55257 26.333 5.57657 26.261 5.67257 26.213L6.17657 25.997C6.20057 25.997 6.21257 25.997 6.21257 25.997L6.78857 25.745L7.25657 25.565C7.16057 25.517 7.07657 25.469 7.00457 25.421L6.71657 25.529L6.14057 25.781L5.56457 25.925L4.95257 26.213C4.85657 26.261 4.78457 26.237 4.73657 26.141C4.68857 26.045 4.71257 25.973 4.80857 25.925L5.45657 25.637C5.48057 25.637 5.49257 25.637 5.49257 25.637L6.03257 25.457L6.68057 25.205C6.56057 25.133 6.45257 25.049 6.35657 24.953L5.60057 25.205L5.02457 25.385L4.48457 25.601C4.38857 25.649 4.31657 25.625 4.26857 25.529C4.24457 25.409 4.28057 25.337 4.37657 25.313L4.91657 25.097L5.49257 24.881L6.03257 24.737C5.93657 24.665 5.84057 24.593 5.74457 24.521L5.45657 24.593L4.84457 24.845L4.34057 25.025L3.69257 25.241C3.59657 25.265 3.53657 25.229 3.51257 25.133C3.46457 25.037 3.50057 24.965 3.62057 24.917L4.23257 24.737L4.73657 24.521L5.34857 24.305C5.34857 24.305 5.34857 24.293 5.34857 24.269C5.34857 24.269 5.38457 24.269 5.45657 24.269C5.36057 24.197 5.27657 24.125 5.20457 24.053L4.98857 24.089L4.48457 24.341L3.94457 24.557L3.44057 24.701C3.32057 24.749 3.24857 24.713 3.22457 24.593C3.20057 24.497 3.23657 24.437 3.33257 24.413L4.34057 24.053L4.88057 23.801C4.88057 23.801 4.89257 23.801 4.91657 23.801C4.89257 23.753 4.85657 23.717 4.80857 23.693C4.76057 23.645 4.71257 23.597 4.66457 23.549L4.44857 23.621L3.87257 23.873L3.29657 24.053L2.72057 24.197C2.62457 24.245 2.55257 24.209 2.50457 24.089C2.48057 23.993 2.52857 23.933 2.64857 23.909L3.22457 23.729L3.76457 23.585L4.44857 23.261C4.37657 23.165 4.30457 23.069 4.23257 22.973L4.01657 23.081C3.99257 23.081 3.98057 23.081 3.98057 23.081L3.36857 23.297L2.75657 23.585L2.14457 23.801C2.04857 23.849 1.97657 23.825 1.92857 23.729C1.90457 23.609 1.94057 23.537 2.03657 23.513L2.61257 23.261L3.26057 23.009C3.26057 23.009 3.26057 22.997 3.26057 22.973L4.05257 22.685C3.98057 22.565 3.90857 22.445 3.83657 22.325L3.47657 22.469L2.90057 22.649L2.32457 22.793L1.82057 23.045C1.72457 23.093 1.65257 23.069 1.60457 22.973C1.55657 22.877 1.58057 22.805 1.67657 22.757L2.18057 22.505C2.18057 22.505 2.19257 22.505 2.21657 22.505L2.82857 22.325L3.36857 22.181L3.69257 22.001C3.64457 21.881 3.59657 21.761 3.54857 21.641L3.18857 21.821L2.61257 22.001L2.07257 22.289L1.49657 22.541C1.40057 22.565 1.34057 22.529 1.31657 22.433C1.26857 22.337 1.29257 22.265 1.38857 22.217L1.92857 22.001L2.50457 21.713L3.04457 21.533L3.40457 21.353C3.35657 21.209 3.30857 21.065 3.26057 20.921L2.79257 21.137L2.18057 21.389L1.67657 21.677C1.67657 21.677 1.66457 21.677 1.64057 21.677L1.10057 21.857C0.980571 21.881 0.908571 21.845 0.884571 21.749C0.860571 21.653 0.896571 21.581 0.992571 21.533L1.53257 21.389L2.03657 21.101L2.68457 20.849L3.15257 20.633C3.10457 20.489 3.05657 20.345 3.00857 20.201L2.64857 20.309L2.10857 20.597L1.53257 20.777L0.920571 21.029C0.824571 21.077 0.752571 21.053 0.704571 20.957C0.656571 20.861 0.680571 20.789 0.776572 20.741L1.42457 20.453C1.44857 20.453 1.46057 20.453 1.46057 20.453L2.00057 20.309L2.54057 20.021L2.93657 19.877C2.88857 19.781 2.84057 19.649 2.79257 19.481L2.43257 19.589L1.85657 19.805L1.31657 20.057L0.812571 20.345C0.716571 20.393 0.644571 20.369 0.596571 20.273C0.548571 20.177 0.572571 20.105 0.668571 20.057L1.17257 19.769L1.71257 19.517C1.71257 19.493 1.71257 19.481 1.71257 19.481L2.32457 19.301L2.72057 19.157C2.67257 19.013 2.63657 18.893 2.61257 18.797L2.32457 18.905L1.74857 19.157C1.72457 19.157 1.71257 19.157 1.71257 19.157C1.71257 19.181 1.71257 19.193 1.71257 19.193L1.10057 19.337L0.524571 19.553C0.428571 19.577 0.356571 19.541 0.308571 19.445C0.284571 19.349 0.320571 19.277 0.416571 19.229L0.992571 19.049L1.60457 18.869L2.18057 18.617C2.18057 18.617 2.18057 18.605 2.18057 18.581C2.20457 18.581 2.21657 18.581 2.21657 18.581L2.50457 18.473C2.48057 18.353 2.45657 18.221 2.43257 18.077L2.10857 18.221L1.49657 18.473L0.920571 18.653C0.920571 18.653 0.920571 18.665 0.920571 18.689L0.308571 18.833C0.212571 18.857 0.152571 18.821 0.128572 18.725C0.104571 18.629 0.140571 18.569 0.236571 18.545L0.812571 18.365L1.35257 18.149L2.00057 17.933L2.36057 17.753C2.33657 17.585 2.27657 17.477 2.18057 17.429C2.15657 17.453 2.14457 17.465 2.14457 17.465L1.60457 17.609L1.02857 17.861C1.02857 17.861 1.01657 17.861 0.992571 17.861L0.416571 18.005C0.296571 18.053 0.224571 18.017 0.200571 17.897C0.176571 17.801 0.212571 17.741 0.308571 17.717L0.920571 17.537L1.49657 17.321L2.03657 17.141L2.28857 17.033C2.26457 16.865 2.25257 16.685 2.25257 16.493L2.03657 16.529L1.53257 16.817L0.992571 17.069L0.344571 17.249C0.248571 17.297 0.188571 17.261 0.164571 17.141C0.116571 17.045 0.140571 16.985 0.236571 16.961L0.884571 16.745L1.38857 16.529L1.89257 16.241C1.89257 16.241 1.90457 16.241 1.92857 16.241L2.21657 16.169C2.21657 15.977 2.16857 15.857 2.07257 15.809L1.49657 15.953L0.920571 16.169L0.344571 16.349C0.248571 16.397 0.176571 16.373 0.128572 16.277C0.104571 16.157 0.140571 16.085 0.236571 16.061L0.812571 15.845L1.96457 15.485L2.21657 15.413C2.21657 15.317 2.20457 15.233 2.18057 15.161C2.18057 15.089 2.14457 15.029 2.07257 14.981L1.46057 15.125L0.848571 15.377L0.200571 15.593C0.104571 15.617 0.0445715 15.581 0.0205714 15.485C-0.0274286 15.365 0.00857145 15.293 0.128572 15.269L0.740571 15.089L1.31657 14.837C1.31657 14.837 1.32857 14.837 1.35257 14.837L1.96457 14.657L2.18057 14.585C2.18057 14.513 2.16857 14.441 2.14457 14.369C2.12057 14.297 2.07257 14.237 2.00057 14.189L1.35257 14.369L0.812571 14.585L0.272571 14.765C0.176572 14.789 0.116571 14.753 0.0925714 14.657C0.0445714 14.561 0.0805714 14.489 0.200571 14.441L0.704571 14.297L1.24457 14.045C1.24457 14.045 1.25657 14.045 1.28057 14.045L1.89257 13.865L2.10857 13.829C2.08457 13.661 2.06057 13.541 2.03657 13.469L1.49657 13.721L0.884571 13.901L0.344571 14.153C0.248571 14.201 0.176571 14.165 0.128572 14.045C0.0805715 13.949 0.104571 13.889 0.200571 13.865L0.776572 13.613L1.35257 13.397L2.03657 13.109C2.03657 12.965 2.02457 12.845 2.00057 12.749L1.56857 12.929L0.992571 13.109L0.488571 13.289C0.368571 13.313 0.296571 13.277 0.272571 13.181C0.248571 13.085 0.284571 13.025 0.380571 13.001L0.884571 12.821L1.46057 12.605L1.96457 12.425C1.96457 12.281 1.95257 12.137 1.92857 11.993L1.56857 12.173L0.560571 12.605C0.440571 12.653 0.368571 12.629 0.344571 12.533C0.296571 12.437 0.320571 12.365 0.416571 12.317L0.956571 12.065L1.46057 11.885L1.92857 11.669C1.90457 11.525 1.89257 11.393 1.89257 11.273L1.60457 11.417L0.992571 11.705C0.992571 11.705 0.980571 11.705 0.956571 11.705L0.380571 11.849C0.260571 11.897 0.188571 11.861 0.164571 11.741C0.140571 11.645 0.176572 11.585 0.272571 11.561L0.848571 11.381L1.46057 11.129L1.89257 10.913C1.89257 10.745 1.89257 10.577 1.89257 10.409L1.71257 10.481L1.06457 10.697L0.524571 10.949C0.428571 10.997 0.356571 10.973 0.308571 10.877C0.260571 10.781 0.284571 10.709 0.380571 10.661L0.956571 10.409C0.956571 10.409 0.956571 10.397 0.956571 10.373L1.60457 10.193L1.92857 10.049C1.92857 10.049 1.92857 10.037 1.92857 10.013C1.92857 9.91695 1.94057 9.80895 1.96457 9.68895L1.64057 9.79695L0.992571 10.085L0.380571 10.373C0.284571 10.397 0.212571 10.361 0.164571 10.265C0.116571 10.169 0.140571 10.097 0.236571 10.049L0.884571 9.79695L1.49657 9.50895L2.00057 9.29295C2.02457 9.14895 2.04857 9.00495 2.07257 8.86095L1.74857 8.96895L1.20857 9.18495L0.632571 9.47295C0.536571 9.52095 0.464571 9.49695 0.416571 9.40095C0.368571 9.30495 0.392571 9.23295 0.488571 9.18495L1.10057 8.89695L1.60457 8.64495C1.60457 8.64495 1.61657 8.64495 1.64057 8.64495L2.14457 8.50095C2.19257 8.38095 2.19257 8.29695 2.14457 8.24895L1.60457 8.53695L0.956571 8.82495C0.860571 8.84895 0.788572 8.81295 0.740571 8.71695C0.716571 8.62095 0.752571 8.54895 0.848571 8.50095L1.46057 8.24895L2.00057 7.96095C2.00057 7.96095 2.01257 7.96095 2.03657 7.96095L2.32457 7.85295C2.37257 7.73295 2.37257 7.66095 2.32457 7.63695L1.78457 7.78095L1.24457 8.03295C1.14857 8.08095 1.07657 8.04495 1.02857 7.92495C0.980571 7.82895 1.01657 7.76895 1.13657 7.74495L1.67657 7.49295C1.70057 7.49295 1.71257 7.49295 1.71257 7.49295L2.21657 7.31295L2.57657 7.16895C2.57657 7.12095 2.58857 7.07295 2.61257 7.02495L2.07257 7.24095L1.53257 7.42095C1.43657 7.44495 1.36457 7.40895 1.31657 7.31295C1.29257 7.19295 1.32857 7.12095 1.42457 7.09695L1.96457 6.91695L2.54057 6.70095L2.79257 6.59295C2.84057 6.52095 2.87657 6.44895 2.90057 6.37695L2.46857 6.48495L1.92857 6.66495C1.80857 6.68895 1.73657 6.65295 1.71257 6.55695C1.68857 6.46095 1.72457 6.38895 1.82057 6.34095L2.39657 6.19695L3.15257 5.94495C3.17657 5.89695 3.21257 5.83695 3.26057 5.76495L2.86457 5.90895L2.36057 6.05295C2.24057 6.10095 2.16857 6.06495 2.14457 5.94495C2.12057 5.84895 2.15657 5.78895 2.25257 5.76495L2.75657 5.58495L3.22457 5.44095L2.68457 5.62095C2.58857 5.64495 2.51657 5.60895 2.46857 5.51295C2.44457 5.39295 2.48057 5.32095 2.57657 5.29695L3.00857 5.15295C2.98457 5.15295 2.97257 5.15295 2.97257 5.15295C2.92457 5.05695 2.94857 4.98495 3.04457 4.93695L4.12457 4.43295L4.48457 4.28895C4.53257 4.24095 4.58057 4.19295 4.62857 4.14495L4.12457 4.39695L3.58457 4.61295C3.48857 4.66095 3.41657 4.63695 3.36857 4.54095C3.32057 4.44495 3.34457 4.37295 3.44057 4.32495L4.16057 4.03695C4.18457 3.98895 4.20857 3.96495 4.23257 3.96495L4.77257 3.74895L5.24057 3.56895C5.28857 3.52095 5.31257 3.48495 5.31257 3.46095L4.73657 3.74895C4.64057 3.79695 4.56857 3.77295 4.52057 3.67695C4.47257 3.58095 4.49657 3.50895 4.59257 3.46095L5.09657 3.20895C5.09657 3.11295 5.14457 3.05295 5.24057 3.02895L5.85257 2.88495L6.32057 2.59695C6.32057 2.59695 6.33257 2.59695 6.35657 2.59695C6.38057 2.59695 6.39257 2.59695 6.39257 2.59695C6.53657 2.47695 6.68057 2.36895 6.82457 2.27295C6.82457 2.27295 6.83657 2.27295 6.86057 2.27295C6.86057 2.24895 6.86057 2.23695 6.86057 2.23695C7.29257 1.99695 7.73657 1.79295 8.19257 1.62495C8.67257 1.43295 9.15257 1.26495 9.63257 1.12095C10.3526 0.784952 11.2286 0.568952 12.2606 0.472952C13.2926 0.376953 14.2046 0.352953 14.9966 0.400953C15.1406 0.400953 15.2846 0.400953 15.4286 0.400953C15.5966 0.400953 15.7526 0.400953 15.8966 0.400953C16.5926 0.424953 17.3006 0.460953 18.0206 0.508954C18.7646 0.556953 19.4366 0.724953 20.0366 1.01295C20.0366 1.01295 20.0606 1.03695 20.1086 1.08495C20.1566 1.10895 20.1806 1.12095 20.1806 1.12095C21.2846 2.22495 22.3766 3.38895 23.4566 4.61295C24.5606 5.83695 25.5926 7.06095 26.5526 8.28495C26.5526 8.28495 26.5646 8.30895 26.5886 8.35695C26.6126 8.38095 26.6246 8.39295 26.6246 8.39295C26.9126 9.04095 27.0686 9.78495 27.0926 10.625C27.1406 11.465 27.1646 12.293 27.1646 13.109C27.1406 13.373 27.1286 13.637 27.1286 13.901C27.1286 14.141 27.1406 14.381 27.1646 14.621C27.1646 15.101 27.1526 15.713 27.1286 16.457C27.1046 17.201 27.0326 17.981 26.9126 18.797C26.8166 19.613 26.6606 20.357 26.4446 21.029C26.2526 21.701 25.9766 22.217 25.6166 22.577C24.8486 23.345 23.9726 24.053 22.9886 24.701C22.0286 25.349 21.0926 25.961 20.1806 26.537C20.1806 26.537 20.1686 26.537 20.1446 26.537C20.1446 26.561 20.1446 26.573 20.1446 26.573C19.7126 26.789 19.2086 26.957 18.6326 27.077C18.0806 27.197 17.4806 27.293 16.8326 27.365L16.2206 27.581C16.1246 27.605 16.0646 27.569 16.0406 27.473C16.0166 27.425 16.0166 27.377 16.0406 27.329C15.9686 27.353 15.8966 27.365 15.8246 27.365L15.4646 27.437C15.4166 27.461 15.3686 27.461 15.3206 27.437C15.2966 27.437 15.2486 27.425 15.1766 27.401C15.1766 27.425 15.1766 27.437 15.1766 27.437L14.5646 27.581ZM10.7846 26.213C10.8086 26.213 10.8206 26.225 10.8206 26.249C11.3006 26.321 11.7806 26.381 12.2606 26.429C12.7646 26.453 13.2446 26.489 13.7006 26.537H14.7086C15.4526 26.513 16.3046 26.477 17.2646 26.429C18.2486 26.357 19.0646 26.153 19.7126 25.817C20.6006 25.241 21.5126 24.641 22.4486 24.017C23.4086 23.393 24.2606 22.709 25.0046 21.965C25.2926 21.677 25.5206 21.221 25.6886 20.597C25.8806 19.949 26.0126 19.253 26.0846 18.509C26.1806 17.741 26.2406 17.009 26.2646 16.313C26.2886 15.617 26.3006 15.065 26.3006 14.657C26.2766 14.417 26.2646 14.177 26.2646 13.937C26.2886 13.673 26.3006 13.409 26.3006 13.145C26.3006 12.377 26.2886 11.609 26.2646 10.841C26.2406 10.049 26.0966 9.36495 25.8326 8.78895C24.8966 7.58895 23.8886 6.38895 22.8086 5.18895C21.7526 3.98895 20.6846 2.84895 19.6046 1.76895C19.0766 1.52895 18.4766 1.38495 17.8046 1.33695C17.1566 1.28895 16.5206 1.26495 15.8966 1.26495C15.7286 1.26495 15.5606 1.26495 15.3926 1.26495C15.2486 1.26495 15.1046 1.26495 14.9606 1.26495C14.2406 1.21695 13.3886 1.24095 12.4046 1.33695C11.4206 1.40895 10.6046 1.60095 9.95657 1.91295C9.95657 1.91295 9.94457 1.91295 9.92057 1.91295C9.46457 2.05695 9.02057 2.21295 8.58857 2.38095C8.15657 2.54895 7.73657 2.75295 7.32857 2.99295C6.08057 3.88095 5.01257 4.90095 4.12457 6.05295C3.90857 6.34095 3.71657 6.66495 3.54857 7.02495C3.54857 7.09695 3.52457 7.15695 3.47657 7.20495C3.40457 7.34895 3.34457 7.50495 3.29657 7.67295C3.29657 7.67295 3.29657 7.68495 3.29657 7.70895C3.32057 7.78095 3.29657 7.84095 3.22457 7.88895C3.17657 8.03295 3.12857 8.18895 3.08057 8.35695C3.08057 8.35695 3.08057 8.36895 3.08057 8.39295C3.12857 8.46495 3.11657 8.52495 3.04457 8.57295C2.99657 8.74095 2.96057 8.89695 2.93657 9.04095C2.93657 9.06495 2.93657 9.07695 2.93657 9.07695C2.98457 9.17295 2.97257 9.23295 2.90057 9.25695C2.85257 9.42495 2.82857 9.59295 2.82857 9.76095C2.82857 9.76095 2.82857 9.77295 2.82857 9.79695C2.87657 9.86895 2.86457 9.92895 2.79257 9.97695C2.79257 10.025 2.79257 10.061 2.79257 10.085C2.76857 10.277 2.75657 10.457 2.75657 10.625C2.75657 10.625 2.75657 10.637 2.75657 10.661C2.80457 10.709 2.80457 10.757 2.75657 10.805C2.75657 11.213 2.76857 11.609 2.79257 11.993C2.84057 12.377 2.87657 12.761 2.90057 13.145C2.92457 13.265 2.93657 13.373 2.93657 13.469C2.96057 13.565 2.97257 13.661 2.97257 13.757C2.99657 14.045 3.00857 14.333 3.00857 14.621C3.03257 14.909 3.05657 15.197 3.08057 15.485C3.08057 15.965 3.09257 16.445 3.11657 16.925C3.16457 17.405 3.24857 17.873 3.36857 18.329C3.60857 19.097 3.86057 19.937 4.12457 20.849C4.41257 21.761 4.84457 22.505 5.42057 23.081C5.99657 23.633 6.64457 24.149 7.36457 24.629C8.10857 25.109 8.84057 25.529 9.56057 25.889C9.72857 25.937 9.89657 25.997 10.0646 26.069C10.0886 26.069 10.1006 26.069 10.1006 26.069C10.3166 26.141 10.5446 26.189 10.7846 26.213ZM9.38057 26.717C9.35657 26.717 9.34457 26.717 9.34457 26.717L8.98457 26.825L8.48057 27.077L8.87657 26.933L9.38057 26.717Z" fill="#0F0F0F"/>
<path d="M14.5646 27.581L13.9526 27.761C13.9046 27.785 13.8566 27.785 13.8086 27.761C13.7846 27.737 13.7486 27.713 13.7006 27.689C13.7006 27.689 13.6886 27.689 13.6646 27.689L13.0886 27.869C13.0166 27.893 12.9566 27.881 12.9086 27.833L12.5846 27.977C12.4886 28.025 12.4166 28.001 12.3686 27.905C12.3686 27.905 12.3686 27.893 12.3686 27.869C12.3206 27.869 12.2846 27.833 12.2606 27.761C12.2366 27.665 12.2726 27.605 12.3686 27.581L13.0886 27.329C12.9206 27.329 12.7766 27.329 12.6566 27.329L12.1526 27.581C12.1526 27.581 12.1406 27.581 12.1166 27.581L11.5046 27.833C11.4086 27.857 11.3366 27.821 11.2886 27.725C11.2406 27.629 11.2766 27.557 11.3966 27.509L11.8646 27.365L11.3606 27.473L10.8206 27.689C10.7246 27.713 10.6526 27.677 10.6046 27.581L9.95657 27.833C9.86057 27.881 9.78857 27.857 9.74057 27.761C9.71657 27.665 9.75257 27.593 9.84857 27.545L10.4606 27.293L10.8206 27.113C10.7726 27.113 10.7126 27.101 10.6406 27.077C10.5686 27.077 10.4846 27.077 10.3886 27.077L9.77657 27.293L9.27257 27.509C9.15257 27.533 9.08057 27.497 9.05657 27.401C9.00857 27.305 9.03257 27.233 9.12857 27.185L9.66857 27.005L9.88457 26.897C9.88457 26.897 9.87257 26.897 9.84857 26.897L9.59657 27.005L8.98457 27.221L8.40857 27.437C8.31257 27.461 8.24057 27.425 8.19257 27.329C8.16857 27.257 8.19257 27.197 8.26457 27.149L7.83257 27.293C7.73657 27.317 7.66457 27.281 7.61657 27.185C7.59257 27.089 7.62857 27.017 7.72457 26.969L8.30057 26.789L8.84057 26.501C8.84057 26.501 8.85257 26.501 8.87657 26.501C8.85257 26.477 8.82857 26.465 8.80457 26.465L8.26457 26.717L7.68857 26.897L7.14857 27.149C7.05257 27.197 6.98057 27.173 6.93257 27.077C6.88457 26.981 6.90857 26.909 7.00457 26.861L7.54457 26.609C7.56857 26.609 7.58057 26.609 7.58057 26.609L8.44457 26.285C8.37257 26.237 8.30057 26.201 8.22857 26.177C8.18057 26.129 8.12057 26.093 8.04857 26.069L7.43657 26.321C7.43657 26.321 7.42457 26.321 7.40057 26.321L6.78857 26.465L6.17657 26.753C6.08057 26.801 6.00857 26.777 5.96057 26.681C5.91257 26.561 5.93657 26.489 6.03257 26.465L6.68057 26.177L7.32857 25.997L7.72457 25.853C7.65257 25.829 7.55657 25.829 7.43657 25.853L6.89657 26.033L6.32057 26.285L5.81657 26.537C5.72057 26.561 5.64857 26.525 5.60057 26.429C5.55257 26.333 5.57657 26.261 5.67257 26.213L6.17657 25.997C6.20057 25.997 6.21257 25.997 6.21257 25.997L6.78857 25.745L7.25657 25.565C7.16057 25.517 7.07657 25.469 7.00457 25.421L6.71657 25.529L6.14057 25.781L5.56457 25.925L4.95257 26.213C4.85657 26.261 4.78457 26.237 4.73657 26.141C4.68857 26.045 4.71257 25.973 4.80857 25.925L5.45657 25.637C5.48057 25.637 5.49257 25.637 5.49257 25.637L6.03257 25.457L6.68057 25.205C6.56057 25.133 6.45257 25.049 6.35657 24.953L5.60057 25.205L5.02457 25.385L4.48457 25.601C4.38857 25.649 4.31657 25.625 4.26857 25.529C4.24457 25.409 4.28057 25.337 4.37657 25.313L4.91657 25.097L5.49257 24.881L6.03257 24.737C5.93657 24.665 5.84057 24.593 5.74457 24.521L5.45657 24.593L4.84457 24.845L4.34057 25.025L3.69257 25.241C3.59657 25.265 3.53657 25.229 3.51257 25.133C3.46457 25.037 3.50057 24.965 3.62057 24.917L4.23257 24.737L4.73657 24.521L5.34857 24.305C5.34857 24.305 5.34857 24.293 5.34857 24.269C5.34857 24.269 5.38457 24.269 5.45657 24.269C5.36057 24.197 5.27657 24.125 5.20457 24.053L4.98857 24.089L4.48457 24.341L3.94457 24.557L3.44057 24.701C3.32057 24.749 3.24857 24.713 3.22457 24.593C3.20057 24.497 3.23657 24.437 3.33257 24.413L4.34057 24.053L4.88057 23.801C4.88057 23.801 4.89257 23.801 4.91657 23.801C4.89257 23.753 4.85657 23.717 4.80857 23.693C4.76057 23.645 4.71257 23.597 4.66457 23.549L4.44857 23.621L3.87257 23.873L3.29657 24.053L2.72057 24.197C2.62457 24.245 2.55257 24.209 2.50457 24.089C2.48057 23.993 2.52857 23.933 2.64857 23.909L3.22457 23.729L3.76457 23.585L4.44857 23.261C4.37657 23.165 4.30457 23.069 4.23257 22.973L4.01657 23.081C3.99257 23.081 3.98057 23.081 3.98057 23.081L3.36857 23.297L2.75657 23.585L2.14457 23.801C2.04857 23.849 1.97657 23.825 1.92857 23.729C1.90457 23.609 1.94057 23.537 2.03657 23.513L2.61257 23.261L3.26057 23.009C3.26057 23.009 3.26057 22.997 3.26057 22.973L4.05257 22.685C3.98057 22.565 3.90857 22.445 3.83657 22.325L3.47657 22.469L2.90057 22.649L2.32457 22.793L1.82057 23.045C1.72457 23.093 1.65257 23.069 1.60457 22.973C1.55657 22.877 1.58057 22.805 1.67657 22.757L2.18057 22.505C2.18057 22.505 2.19257 22.505 2.21657 22.505L2.82857 22.325L3.36857 22.181L3.69257 22.001C3.64457 21.881 3.59657 21.761 3.54857 21.641L3.18857 21.821L2.61257 22.001L2.07257 22.289L1.49657 22.541C1.40057 22.565 1.34057 22.529 1.31657 22.433C1.26857 22.337 1.29257 22.265 1.38857 22.217L1.92857 22.001L2.50457 21.713L3.04457 21.533L3.40457 21.353C3.35657 21.209 3.30857 21.065 3.26057 20.921L2.79257 21.137L2.18057 21.389L1.67657 21.677C1.67657 21.677 1.66457 21.677 1.64057 21.677L1.10057 21.857C0.980571 21.881 0.908571 21.845 0.884571 21.749C0.860571 21.653 0.896571 21.581 0.992571 21.533L1.53257 21.389L2.03657 21.101L2.68457 20.849L3.15257 20.633C3.10457 20.489 3.05657 20.345 3.00857 20.201L2.64857 20.309L2.10857 20.597L1.53257 20.777L0.920571 21.029C0.824571 21.077 0.752571 21.053 0.704571 20.957C0.656571 20.861 0.680571 20.789 0.776572 20.741L1.42457 20.453C1.44857 20.453 1.46057 20.453 1.46057 20.453L2.00057 20.309L2.54057 20.021L2.93657 19.877C2.88857 19.781 2.84057 19.649 2.79257 19.481L2.43257 19.589L1.85657 19.805L1.31657 20.057L0.812571 20.345C0.716571 20.393 0.644571 20.369 0.596571 20.273C0.548571 20.177 0.572571 20.105 0.668571 20.057L1.17257 19.769L1.71257 19.517C1.71257 19.493 1.71257 19.481 1.71257 19.481L2.32457 19.301L2.72057 19.157C2.67257 19.013 2.63657 18.893 2.61257 18.797L2.32457 18.905L1.74857 19.157C1.72457 19.157 1.71257 19.157 1.71257 19.157C1.71257 19.181 1.71257 19.193 1.71257 19.193L1.10057 19.337L0.524571 19.553C0.428571 19.577 0.356571 19.541 0.308571 19.445C0.284571 19.349 0.320571 19.277 0.416571 19.229L0.992571 19.049L1.60457 18.869L2.18057 18.617C2.18057 18.617 2.18057 18.605 2.18057 18.581C2.20457 18.581 2.21657 18.581 2.21657 18.581L2.50457 18.473C2.48057 18.353 2.45657 18.221 2.43257 18.077L2.10857 18.221L1.49657 18.473L0.920571 18.653C0.920571 18.653 0.920571 18.665 0.920571 18.689L0.308571 18.833C0.212571 18.857 0.152571 18.821 0.128572 18.725C0.104571 18.629 0.140571 18.569 0.236571 18.545L0.812571 18.365L1.35257 18.149L2.00057 17.933L2.36057 17.753C2.33657 17.585 2.27657 17.477 2.18057 17.429C2.15657 17.453 2.14457 17.465 2.14457 17.465L1.60457 17.609L1.02857 17.861C1.02857 17.861 1.01657 17.861 0.992571 17.861L0.416571 18.005C0.296571 18.053 0.224571 18.017 0.200571 17.897C0.176571 17.801 0.212571 17.741 0.308571 17.717L0.920571 17.537L1.49657 17.321L2.03657 17.141L2.28857 17.033C2.26457 16.865 2.25257 16.685 2.25257 16.493L2.03657 16.529L1.53257 16.817L0.992571 17.069L0.344571 17.249C0.248571 17.297 0.188571 17.261 0.164571 17.141C0.116571 17.045 0.140571 16.985 0.236571 16.961L0.884571 16.745L1.38857 16.529L1.89257 16.241C1.89257 16.241 1.90457 16.241 1.92857 16.241L2.21657 16.169C2.21657 15.977 2.16857 15.857 2.07257 15.809L1.49657 15.953L0.920571 16.169L0.344571 16.349C0.248571 16.397 0.176571 16.373 0.128572 16.277C0.104571 16.157 0.140571 16.085 0.236571 16.061L0.812571 15.845L1.96457 15.485L2.21657 15.413C2.21657 15.317 2.20457 15.233 2.18057 15.161C2.18057 15.089 2.14457 15.029 2.07257 14.981L1.46057 15.125L0.848571 15.377L0.200571 15.593C0.104571 15.617 0.0445715 15.581 0.0205714 15.485C-0.0274286 15.365 0.00857145 15.293 0.128572 15.269L0.740571 15.089L1.31657 14.837C1.31657 14.837 1.32857 14.837 1.35257 14.837L1.96457 14.657L2.18057 14.585C2.18057 14.513 2.16857 14.441 2.14457 14.369C2.12057 14.297 2.07257 14.237 2.00057 14.189L1.35257 14.369L0.812571 14.585L0.272571 14.765C0.176572 14.789 0.116571 14.753 0.0925714 14.657C0.0445714 14.561 0.0805714 14.489 0.200571 14.441L0.704571 14.297L1.24457 14.045C1.24457 14.045 1.25657 14.045 1.28057 14.045L1.89257 13.865L2.10857 13.829C2.08457 13.661 2.06057 13.541 2.03657 13.469L1.49657 13.721L0.884571 13.901L0.344571 14.153C0.248571 14.201 0.176571 14.165 0.128572 14.045C0.0805715 13.949 0.104571 13.889 0.200571 13.865L0.776572 13.613L1.35257 13.397L2.03657 13.109C2.03657 12.965 2.02457 12.845 2.00057 12.749L1.56857 12.929L0.992571 13.109L0.488571 13.289C0.368571 13.313 0.296571 13.277 0.272571 13.181C0.248571 13.085 0.284571 13.025 0.380571 13.001L0.884571 12.821L1.46057 12.605L1.96457 12.425C1.96457 12.281 1.95257 12.137 1.92857 11.993L1.56857 12.173L0.560571 12.605C0.440571 12.653 0.368571 12.629 0.344571 12.533C0.296571 12.437 0.320571 12.365 0.416571 12.317L0.956571 12.065L1.46057 11.885L1.92857 11.669C1.90457 11.525 1.89257 11.393 1.89257 11.273L1.60457 11.417L0.992571 11.705C0.992571 11.705 0.980571 11.705 0.956571 11.705L0.380571 11.849C0.260571 11.897 0.188571 11.861 0.164571 11.741C0.140571 11.645 0.176572 11.585 0.272571 11.561L0.848571 11.381L1.46057 11.129L1.89257 10.913C1.89257 10.745 1.89257 10.577 1.89257 10.409L1.71257 10.481L1.06457 10.697L0.524571 10.949C0.428571 10.997 0.356571 10.973 0.308571 10.877C0.260571 10.781 0.284571 10.709 0.380571 10.661L0.956571 10.409C0.956571 10.409 0.956571 10.397 0.956571 10.373L1.60457 10.193L1.92857 10.049C1.92857 10.049 1.92857 10.037 1.92857 10.013C1.92857 9.91695 1.94057 9.80895 1.96457 9.68895L1.64057 9.79695L0.992571 10.085L0.380571 10.373C0.284571 10.397 0.212571 10.361 0.164571 10.265C0.116571 10.169 0.140571 10.097 0.236571 10.049L0.884571 9.79695L1.49657 9.50895L2.00057 9.29295C2.02457 9.14895 2.04857 9.00495 2.07257 8.86095L1.74857 8.96895L1.20857 9.18495L0.632571 9.47295C0.536571 9.52095 0.464571 9.49695 0.416571 9.40095C0.368571 9.30495 0.392571 9.23295 0.488571 9.18495L1.10057 8.89695L1.60457 8.64495C1.60457 8.64495 1.61657 8.64495 1.64057 8.64495L2.14457 8.50095C2.19257 8.38095 2.19257 8.29695 2.14457 8.24895L1.60457 8.53695L0.956571 8.82495C0.860571 8.84895 0.788572 8.81295 0.740571 8.71695C0.716571 8.62095 0.752571 8.54895 0.848571 8.50095L1.46057 8.24895L2.00057 7.96095C2.00057 7.96095 2.01257 7.96095 2.03657 7.96095L2.32457 7.85295C2.37257 7.73295 2.37257 7.66095 2.32457 7.63695L1.78457 7.78095L1.24457 8.03295C1.14857 8.08095 1.07657 8.04495 1.02857 7.92495C0.980571 7.82895 1.01657 7.76895 1.13657 7.74495L1.67657 7.49295C1.70057 7.49295 1.71257 7.49295 1.71257 7.49295L2.21657 7.31295L2.57657 7.16895C2.57657 7.12095 2.58857 7.07295 2.61257 7.02495L2.07257 7.24095L1.53257 7.42095C1.43657 7.44495 1.36457 7.40895 1.31657 7.31295C1.29257 7.19295 1.32857 7.12095 1.42457 7.09695L1.96457 6.91695L2.54057 6.70095L2.79257 6.59295C2.84057 6.52095 2.87657 6.44895 2.90057 6.37695L2.46857 6.48495L1.92857 6.66495C1.80857 6.68895 1.73657 6.65295 1.71257 6.55695C1.68857 6.46095 1.72457 6.38895 1.82057 6.34095L2.39657 6.19695L3.15257 5.94495C3.17657 5.89695 3.21257 5.83695 3.26057 5.76495L2.86457 5.90895L2.36057 6.05295C2.24057 6.10095 2.16857 6.06495 2.14457 5.94495C2.12057 5.84895 2.15657 5.78895 2.25257 5.76495L2.75657 5.58495L3.22457 5.44095L2.68457 5.62095C2.58857 5.64495 2.51657 5.60895 2.46857 5.51295C2.44457 5.39295 2.48057 5.32095 2.57657 5.29695L3.00857 5.15295C2.98457 5.15295 2.97257 5.15295 2.97257 5.15295C2.92457 5.05695 2.94857 4.98495 3.04457 4.93695L4.12457 4.43295L4.48457 4.28895C4.53257 4.24095 4.58057 4.19295 4.62857 4.14495L4.12457 4.39695L3.58457 4.61295C3.48857 4.66095 3.41657 4.63695 3.36857 4.54095C3.32057 4.44495 3.34457 4.37295 3.44057 4.32495L4.16057 4.03695C4.18457 3.98895 4.20857 3.96495 4.23257 3.96495L4.77257 3.74895L5.24057 3.56895C5.28857 3.52095 5.31257 3.48495 5.31257 3.46095L4.73657 3.74895C4.64057 3.79695 4.56857 3.77295 4.52057 3.67695C4.47257 3.58095 4.49657 3.50895 4.59257 3.46095L5.09657 3.20895C5.09657 3.11295 5.14457 3.05295 5.24057 3.02895L5.85257 2.88495L6.32057 2.59695C6.32057 2.59695 6.33257 2.59695 6.35657 2.59695C6.38057 2.59695 6.39257 2.59695 6.39257 2.59695C6.53657 2.47695 6.68057 2.36895 6.82457 2.27295C6.82457 2.27295 6.83657 2.27295 6.86057 2.27295C6.86057 2.24895 6.86057 2.23695 6.86057 2.23695C7.29257 1.99695 7.73657 1.79295 8.19257 1.62495C8.67257 1.43295 9.15257 1.26495 9.63257 1.12095C10.3526 0.784952 11.2286 0.568952 12.2606 0.472952C13.2926 0.376953 14.2046 0.352953 14.9966 0.400953C15.1406 0.400953 15.2846 0.400953 15.4286 0.400953C15.5966 0.400953 15.7526 0.400953 15.8966 0.400953C16.5926 0.424953 17.3006 0.460953 18.0206 0.508954C18.7646 0.556953 19.4366 0.724953 20.0366 1.01295C20.0366 1.01295 20.0606 1.03695 20.1086 1.08495C20.1566 1.10895 20.1806 1.12095 20.1806 1.12095C21.2846 2.22495 22.3766 3.38895 23.4566 4.61295C24.5606 5.83695 25.5926 7.06095 26.5526 8.28495C26.5526 8.28495 26.5646 8.30895 26.5886 8.35695C26.6126 8.38095 26.6246 8.39295 26.6246 8.39295C26.9126 9.04095 27.0686 9.78495 27.0926 10.625C27.1406 11.465 27.1646 12.293 27.1646 13.109C27.1406 13.373 27.1286 13.637 27.1286 13.901C27.1286 14.141 27.1406 14.381 27.1646 14.621C27.1646 15.101 27.1526 15.713 27.1286 16.457C27.1046 17.201 27.0326 17.981 26.9126 18.797C26.8166 19.613 26.6606 20.357 26.4446 21.029C26.2526 21.701 25.9766 22.217 25.6166 22.577C24.8486 23.345 23.9726 24.053 22.9886 24.701C22.0286 25.349 21.0926 25.961 20.1806 26.537C20.1806 26.537 20.1686 26.537 20.1446 26.537C20.1446 26.561 20.1446 26.573 20.1446 26.573C19.7126 26.789 19.2086 26.957 18.6326 27.077C18.0806 27.197 17.4806 27.293 16.8326 27.365L16.2206 27.581C16.1246 27.605 16.0646 27.569 16.0406 27.473C16.0166 27.425 16.0166 27.377 16.0406 27.329C15.9686 27.353 15.8966 27.365 15.8246 27.365L15.4646 27.437C15.4166 27.461 15.3686 27.461 15.3206 27.437C15.2966 27.437 15.2486 27.425 15.1766 27.401C15.1766 27.425 15.1766 27.437 15.1766 27.437L14.5646 27.581ZM10.7846 26.213C10.8086 26.213 10.8206 26.225 10.8206 26.249C11.3006 26.321 11.7806 26.381 12.2606 26.429C12.7646 26.453 13.2446 26.489 13.7006 26.537H14.7086C15.4526 26.513 16.3046 26.477 17.2646 26.429C18.2486 26.357 19.0646 26.153 19.7126 25.817C20.6006 25.241 21.5126 24.641 22.4486 24.017C23.4086 23.393 24.2606 22.709 25.0046 21.965C25.2926 21.677 25.5206 21.221 25.6886 20.597C25.8806 19.949 26.0126 19.253 26.0846 18.509C26.1806 17.741 26.2406 17.009 26.2646 16.313C26.2886 15.617 26.3006 15.065 26.3006 14.657C26.2766 14.417 26.2646 14.177 26.2646 13.937C26.2886 13.673 26.3006 13.409 26.3006 13.145C26.3006 12.377 26.2886 11.609 26.2646 10.841C26.2406 10.049 26.0966 9.36495 25.8326 8.78895C24.8966 7.58895 23.8886 6.38895 22.8086 5.18895C21.7526 3.98895 20.6846 2.84895 19.6046 1.76895C19.0766 1.52895 18.4766 1.38495 17.8046 1.33695C17.1566 1.28895 16.5206 1.26495 15.8966 1.26495C15.7286 1.26495 15.5606 1.26495 15.3926 1.26495C15.2486 1.26495 15.1046 1.26495 14.9606 1.26495C14.2406 1.21695 13.3886 1.24095 12.4046 1.33695C11.4206 1.40895 10.6046 1.60095 9.95657 1.91295C9.95657 1.91295 9.94457 1.91295 9.92057 1.91295C9.46457 2.05695 9.02057 2.21295 8.58857 2.38095C8.15657 2.54895 7.73657 2.75295 7.32857 2.99295C6.08057 3.88095 5.01257 4.90095 4.12457 6.05295C3.90857 6.34095 3.71657 6.66495 3.54857 7.02495C3.54857 7.09695 3.52457 7.15695 3.47657 7.20495C3.40457 7.34895 3.34457 7.50495 3.29657 7.67295C3.29657 7.67295 3.29657 7.68495 3.29657 7.70895C3.32057 7.78095 3.29657 7.84095 3.22457 7.88895C3.17657 8.03295 3.12857 8.18895 3.08057 8.35695C3.08057 8.35695 3.08057 8.36895 3.08057 8.39295C3.12857 8.46495 3.11657 8.52495 3.04457 8.57295C2.99657 8.74095 2.96057 8.89695 2.93657 9.04095C2.93657 9.06495 2.93657 9.07695 2.93657 9.07695C2.98457 9.17295 2.97257 9.23295 2.90057 9.25695C2.85257 9.42495 2.82857 9.59295 2.82857 9.76095C2.82857 9.76095 2.82857 9.77295 2.82857 9.79695C2.87657 9.86895 2.86457 9.92895 2.79257 9.97695C2.79257 10.025 2.79257 10.061 2.79257 10.085C2.76857 10.277 2.75657 10.457 2.75657 10.625C2.75657 10.625 2.75657 10.637 2.75657 10.661C2.80457 10.709 2.80457 10.757 2.75657 10.805C2.75657 11.213 2.76857 11.609 2.79257 11.993C2.84057 12.377 2.87657 12.761 2.90057 13.145C2.92457 13.265 2.93657 13.373 2.93657 13.469C2.96057 13.565 2.97257 13.661 2.97257 13.757C2.99657 14.045 3.00857 14.333 3.00857 14.621C3.03257 14.909 3.05657 15.197 3.08057 15.485C3.08057 15.965 3.09257 16.445 3.11657 16.925C3.16457 17.405 3.24857 17.873 3.36857 18.329C3.60857 19.097 3.86057 19.937 4.12457 20.849C4.41257 21.761 4.84457 22.505 5.42057 23.081C5.99657 23.633 6.64457 24.149 7.36457 24.629C8.10857 25.109 8.84057 25.529 9.56057 25.889C9.72857 25.937 9.89657 25.997 10.0646 26.069C10.0886 26.069 10.1006 26.069 10.1006 26.069C10.3166 26.141 10.5446 26.189 10.7846 26.213ZM9.38057 26.717C9.35657 26.717 9.34457 26.717 9.34457 26.717L8.98457 26.825L8.48057 27.077L8.87657 26.933L9.38057 26.717Z" fill="black" fill-opacity="0.2"/>
</svg>
