<svg width="28" height="28" fill="none" xmlns="http://www.w3.org/2000/svg"><path d="m14.565 27.581-.612.18a.153.153 0 0 1-.144 0 .419.419 0 0 0-.108-.072h-.036l-.576.18c-.072.024-.132.012-.18-.036l-.324.144c-.096.048-.168.024-.216-.072v-.036c-.048 0-.084-.036-.108-.108-.024-.096.012-.156.108-.18l.72-.252h-.432l-.504.252h-.036l-.612.252c-.096.024-.168-.012-.216-.108-.048-.096-.012-.168.108-.216l.468-.144-.504.108-.54.216c-.096.024-.168-.012-.216-.108l-.648.252c-.096.048-.168.024-.216-.072-.024-.096.012-.168.108-.216l.612-.252.36-.18a.592.592 0 0 1-.18-.036h-.252l-.612.216-.504.216c-.12.024-.192-.012-.216-.108-.048-.096-.024-.168.072-.216l.54-.18.216-.108h-.036l-.252.108-.612.216-.576.216c-.096.024-.168-.012-.216-.108-.024-.072 0-.132.072-.18l-.432.144c-.096.024-.168-.012-.216-.108-.024-.096.012-.168.108-.216l.576-.18.54-.288h.036c-.024-.024-.048-.036-.072-.036l-.54.252-.576.18-.54.252c-.096.048-.168.024-.216-.072-.048-.096-.024-.168.072-.216l.54-.252h.036l.864-.324a.909.909 0 0 0-.216-.108.452.452 0 0 0-.18-.108l-.612.252H7.4l-.612.144-.612.288c-.096.048-.168.024-.216-.072-.048-.12-.024-.192.072-.216l.648-.288.648-.18.396-.144a.576.576 0 0 0-.288 0l-.54.18-.576.252-.504.252c-.096.024-.168-.012-.216-.108-.048-.096-.024-.168.072-.216l.504-.216h.036l.576-.252.468-.18a2.354 2.354 0 0 1-.252-.144l-.288.108-.576.252-.576.144-.612.288c-.096.048-.168.024-.216-.072-.048-.096-.024-.168.072-.216l.648-.288h.036l.54-.18.648-.252a1.674 1.674 0 0 1-.324-.252l-.756.252-.576.18-.54.216c-.096.048-.168.024-.216-.072-.024-.12.012-.192.108-.216l.54-.216.576-.216.54-.144-.288-.216-.288.072-.612.252-.504.18-.648.216c-.096.024-.156-.012-.18-.108-.048-.096-.012-.168.108-.216l.612-.18.504-.216.612-.216v-.036h.108a2.35 2.35 0 0 1-.252-.216l-.216.036-.504.252-.54.216-.504.144c-.12.048-.192.012-.216-.108-.024-.096.012-.156.108-.18l1.008-.36.54-.252h.036a.235.235 0 0 0-.108-.108l-.144-.144-.216.072-.576.252-.576.18-.576.144c-.096.048-.168.012-.216-.108-.024-.096.024-.156.144-.18l.576-.18.54-.144.684-.324-.216-.288-.216.108H3.98l-.612.216-.612.288-.612.216c-.096.048-.168.024-.216-.072-.024-.12.012-.192.108-.216l.576-.252.648-.252v-.036l.792-.288-.216-.36-.36.144-.576.18-.576.144-.504.252c-.096.048-.168.024-.216-.072-.048-.096-.024-.168.072-.216l.504-.252h.036l.612-.18.54-.144.324-.18-.144-.36-.36.18-.576.18-.54.288-.576.252c-.096.024-.156-.012-.18-.108-.048-.096-.024-.168.072-.216l.54-.216.576-.288.54-.18.36-.18-.144-.432-.468.216-.612.252-.504.288H1.64l-.54.18c-.12.024-.192-.012-.216-.108-.024-.096.012-.168.108-.216l.54-.144.504-.288.648-.252.468-.216-.144-.432-.36.108-.54.288-.576.18-.612.252c-.096.048-.168.024-.216-.072-.048-.096-.024-.168.072-.216l.648-.288h.036l.54-.144.54-.288.396-.144a2.375 2.375 0 0 1-.144-.396l-.36.108-.576.216-.54.252-.504.288c-.096.048-.168.024-.216-.072-.048-.096-.024-.168.072-.216l.504-.288.54-.252v-.036l.612-.18.396-.144a5.066 5.066 0 0 1-.108-.36l-.288.108-.576.252h-.036v.036l-.612.144-.576.216c-.096.024-.168-.012-.216-.108-.024-.096.012-.168.108-.216l.576-.18.612-.18.576-.252v-.036h.036l.288-.108c-.024-.12-.048-.252-.072-.396l-.324.144-.612.252-.576.18v.036l-.612.144c-.096.024-.156-.012-.18-.108-.024-.096.012-.156.108-.18l.576-.18.54-.216.648-.216.36-.18c-.024-.168-.084-.276-.18-.324l-.036.036-.54.144-.576.252H.993l-.576.144c-.12.048-.192.012-.216-.108-.024-.096.012-.156.108-.18l.612-.18.576-.216.54-.18.252-.108a3.823 3.823 0 0 1-.036-.54l-.216.036-.504.288-.54.252-.648.18c-.096.048-.156.012-.18-.108-.048-.096-.024-.156.072-.18l.648-.216.504-.216.504-.288h.036l.288-.072c0-.192-.048-.312-.144-.36l-.576.144-.576.216-.576.18c-.096.048-.168.024-.216-.072-.024-.12.012-.192.108-.216l.576-.216 1.152-.36.252-.072a.798.798 0 0 0-.036-.252c0-.072-.036-.132-.108-.18l-.612.144-.612.252-.648.216c-.096.024-.156-.012-.18-.108-.048-.12-.012-.192.108-.216l.612-.18.576-.252h.036l.612-.18.216-.072a.68.68 0 0 0-.036-.216.347.347 0 0 0-.144-.18l-.648.18-.54.216-.54.18c-.096.024-.156-.012-.18-.108-.048-.096-.012-.168.108-.216l.504-.144.54-.252h.036l.612-.18.216-.036a2.302 2.302 0 0 0-.072-.36l-.54.252-.612.18-.54.252c-.096.048-.168.012-.216-.108-.048-.096-.024-.156.072-.18l.576-.252.576-.216.684-.288c0-.144-.012-.264-.036-.36l-.432.18-.576.18-.504.18c-.12.024-.192-.012-.216-.108-.024-.096.012-.156.108-.18l.504-.18.576-.216.504-.18c0-.144-.012-.288-.036-.432l-.36.18-1.008.432c-.12.048-.192.024-.216-.072-.048-.096-.024-.168.072-.216l.54-.252.504-.18.468-.216a2.424 2.424 0 0 1-.036-.396l-.288.144-.612.288H.957l-.576.144c-.12.048-.192.012-.216-.108-.024-.096.012-.156.108-.18l.576-.18.612-.252.432-.216v-.504l-.18.072-.648.216-.54.252c-.096.048-.168.024-.216-.072-.048-.096-.024-.168.072-.216l.576-.252v-.036l.648-.18.324-.144v-.036c0-.096.012-.204.036-.324l-.324.108-.648.288-.612.288c-.096.024-.168-.012-.216-.108-.048-.096-.024-.168.072-.216l.648-.252.612-.288L2 9.293l.072-.432-.324.108-.54.216-.576.288c-.096.048-.168.024-.216-.072-.048-.096-.024-.168.072-.216l.612-.288.504-.252h.036l.504-.144c.048-.12.048-.204 0-.252l-.54.288-.648.288C.86 8.849.789 8.813.74 8.717c-.024-.096.012-.168.108-.216l.612-.252.54-.288h.036l.288-.108c.048-.12.048-.192 0-.216l-.54.144-.54.252c-.096.048-.168.012-.216-.108-.048-.096-.012-.156.108-.18l.54-.252h.036l.504-.18.36-.144a.32.32 0 0 1 .036-.144l-.54.216-.54.18c-.096.024-.168-.012-.216-.108-.024-.12.012-.192.108-.216l.54-.18.576-.216.252-.108a.909.909 0 0 0 .108-.216l-.432.108-.54.18c-.12.024-.192-.012-.216-.108-.024-.096.012-.168.108-.216l.576-.144.756-.252c.024-.048.06-.108.108-.18l-.396.144-.504.144c-.12.048-.192.012-.216-.108-.024-.096.012-.156.108-.18l.504-.18.468-.144-.54.18c-.096.024-.168-.012-.216-.108-.024-.12.012-.192.108-.216l.432-.144h-.036c-.048-.096-.024-.168.072-.216l1.08-.504.36-.144.144-.144-.504.252-.54.216c-.096.048-.168.024-.216-.072-.048-.096-.024-.168.072-.216l.72-.288c.024-.048.048-.072.072-.072l.54-.216.468-.18c.048-.048.072-.084.072-.108l-.576.288c-.096.048-.168.024-.216-.072-.048-.096-.024-.168.072-.216l.504-.252c0-.096.048-.156.144-.18l.612-.144.468-.288h.072c.144-.12.288-.228.432-.324h.036v-.036c.432-.24.876-.444 1.332-.612.48-.192.96-.36 1.44-.504.72-.336 1.596-.552 2.628-.648 1.032-.096 1.944-.12 2.736-.072h.9c.696.024 1.404.06 2.124.108a5.421 5.421 0 0 1 2.016.504l.072.072.072.036a76.732 76.732 0 0 1 3.276 3.492 69.854 69.854 0 0 1 3.096 3.672l.036.072.036.036c.288.648.444 1.392.468 2.232.048.84.072 1.668.072 2.484a8.744 8.744 0 0 0-.036.792c0 .24.012.48.036.72 0 .48-.012 1.092-.036 1.836a20.691 20.691 0 0 1-.216 2.34c-.096.816-.252 1.56-.468 2.232-.192.672-.468 1.188-.828 1.548a16.648 16.648 0 0 1-2.628 2.124c-.96.648-1.896 1.26-2.808 1.836h-.036v.036a6.208 6.208 0 0 1-1.512.504c-.552.12-1.152.216-1.8.288l-.612.216c-.096.024-.156-.012-.18-.108a.153.153 0 0 1 0-.144.68.68 0 0 1-.216.036l-.36.072a.153.153 0 0 1-.144 0 .59.59 0 0 1-.144-.036v.036l-.612.144Zm-3.78-1.368c.024 0 .036.012.036.036.48.072.96.132 1.44.18.504.024.984.06 1.44.108h1.008c.744-.024 1.596-.06 2.556-.108.984-.072 1.8-.276 2.448-.612.888-.576 1.8-1.176 2.736-1.8a15.688 15.688 0 0 0 2.556-2.052c.288-.288.516-.744.684-1.368.192-.648.324-1.344.396-2.088.096-.768.156-1.5.18-2.196.024-.696.036-1.248.036-1.656a7.232 7.232 0 0 1-.036-.72c.024-.264.036-.528.036-.792 0-.768-.012-1.536-.036-2.304-.024-.792-.168-1.476-.432-2.052a66.83 66.83 0 0 0-3.024-3.6 73.542 73.542 0 0 0-3.204-3.42c-.528-.24-1.128-.384-1.8-.432a25.828 25.828 0 0 0-1.908-.072H14.96c-.72-.048-1.572-.024-2.556.072-.984.072-1.8.264-2.448.576H9.92c-.456.144-.9.3-1.332.468a8.706 8.706 0 0 0-1.26.612 14.965 14.965 0 0 0-3.204 3.06 5.467 5.467 0 0 0-.576.972.244.244 0 0 1-.072.18c-.072.144-.132.3-.18.468v.036c.024.072 0 .132-.072.18-.048.144-.096.3-.144.468v.036c.048.072.036.132-.036.18a4.27 4.27 0 0 0-.108.468v.036c.048.096.036.156-.036.18a1.827 1.827 0 0 0-.072.504v.036c.048.072.036.132-.036.18v.108a4.367 4.367 0 0 0-.036.54v.036c.048.048.048.096 0 .144 0 .408.012.804.036 1.188.048.384.084.768.108 1.152.024.12.036.228.036.324.024.096.036.192.036.288.024.288.036.576.036.864l.072.864c0 .48.012.96.036 1.44.048.48.132.948.252 1.404.24.768.492 1.608.756 2.52.288.912.72 1.656 1.296 2.232a14.118 14.118 0 0 0 1.944 1.548c.744.48 1.476.9 2.196 1.26.168.048.336.108.504.18h.036c.216.072.444.12.684.144Zm-1.404.504h-.036l-.36.108-.504.252.396-.144.504-.216Z" fill="#0F0F0F"/><path d="m14.565 27.581-.612.18a.153.153 0 0 1-.144 0 .419.419 0 0 0-.108-.072h-.036l-.576.18c-.072.024-.132.012-.18-.036l-.324.144c-.096.048-.168.024-.216-.072v-.036c-.048 0-.084-.036-.108-.108-.024-.096.012-.156.108-.18l.72-.252h-.432l-.504.252h-.036l-.612.252c-.096.024-.168-.012-.216-.108-.048-.096-.012-.168.108-.216l.468-.144-.504.108-.54.216c-.096.024-.168-.012-.216-.108l-.648.252c-.096.048-.168.024-.216-.072-.024-.096.012-.168.108-.216l.612-.252.36-.18a.592.592 0 0 1-.18-.036h-.252l-.612.216-.504.216c-.12.024-.192-.012-.216-.108-.048-.096-.024-.168.072-.216l.54-.18.216-.108h-.036l-.252.108-.612.216-.576.216c-.096.024-.168-.012-.216-.108-.024-.072 0-.132.072-.18l-.432.144c-.096.024-.168-.012-.216-.108-.024-.096.012-.168.108-.216l.576-.18.54-.288h.036c-.024-.024-.048-.036-.072-.036l-.54.252-.576.18-.54.252c-.096.048-.168.024-.216-.072-.048-.096-.024-.168.072-.216l.54-.252h.036l.864-.324a.909.909 0 0 0-.216-.108.452.452 0 0 0-.18-.108l-.612.252H7.4l-.612.144-.612.288c-.096.048-.168.024-.216-.072-.048-.12-.024-.192.072-.216l.648-.288.648-.18.396-.144a.576.576 0 0 0-.288 0l-.54.18-.576.252-.504.252c-.096.024-.168-.012-.216-.108-.048-.096-.024-.168.072-.216l.504-.216h.036l.576-.252.468-.18a2.354 2.354 0 0 1-.252-.144l-.288.108-.576.252-.576.144-.612.288c-.096.048-.168.024-.216-.072-.048-.096-.024-.168.072-.216l.648-.288h.036l.54-.18.648-.252a1.674 1.674 0 0 1-.324-.252l-.756.252-.576.18-.54.216c-.096.048-.168.024-.216-.072-.024-.12.012-.192.108-.216l.54-.216.576-.216.54-.144-.288-.216-.288.072-.612.252-.504.18-.648.216c-.096.024-.156-.012-.18-.108-.048-.096-.012-.168.108-.216l.612-.18.504-.216.612-.216v-.036h.108a2.35 2.35 0 0 1-.252-.216l-.216.036-.504.252-.54.216-.504.144c-.12.048-.192.012-.216-.108-.024-.096.012-.156.108-.18l1.008-.36.54-.252h.036a.235.235 0 0 0-.108-.108l-.144-.144-.216.072-.576.252-.576.18-.576.144c-.096.048-.168.012-.216-.108-.024-.096.024-.156.144-.18l.576-.18.54-.144.684-.324-.216-.288-.216.108H3.98l-.612.216-.612.288-.612.216c-.096.048-.168.024-.216-.072-.024-.12.012-.192.108-.216l.576-.252.648-.252v-.036l.792-.288-.216-.36-.36.144-.576.18-.576.144-.504.252c-.096.048-.168.024-.216-.072-.048-.096-.024-.168.072-.216l.504-.252h.036l.612-.18.54-.144.324-.18-.144-.36-.36.18-.576.18-.54.288-.576.252c-.096.024-.156-.012-.18-.108-.048-.096-.024-.168.072-.216l.54-.216.576-.288.54-.18.36-.18-.144-.432-.468.216-.612.252-.504.288H1.64l-.54.18c-.12.024-.192-.012-.216-.108-.024-.096.012-.168.108-.216l.54-.144.504-.288.648-.252.468-.216-.144-.432-.36.108-.54.288-.576.18-.612.252c-.096.048-.168.024-.216-.072-.048-.096-.024-.168.072-.216l.648-.288h.036l.54-.144.54-.288.396-.144a2.375 2.375 0 0 1-.144-.396l-.36.108-.576.216-.54.252-.504.288c-.096.048-.168.024-.216-.072-.048-.096-.024-.168.072-.216l.504-.288.54-.252v-.036l.612-.18.396-.144a5.066 5.066 0 0 1-.108-.36l-.288.108-.576.252h-.036v.036l-.612.144-.576.216c-.096.024-.168-.012-.216-.108-.024-.096.012-.168.108-.216l.576-.18.612-.18.576-.252v-.036h.036l.288-.108c-.024-.12-.048-.252-.072-.396l-.324.144-.612.252-.576.18v.036l-.612.144c-.096.024-.156-.012-.18-.108-.024-.096.012-.156.108-.18l.576-.18.54-.216.648-.216.36-.18c-.024-.168-.084-.276-.18-.324l-.036.036-.54.144-.576.252H.993l-.576.144c-.12.048-.192.012-.216-.108-.024-.096.012-.156.108-.18l.612-.18.576-.216.54-.18.252-.108a3.823 3.823 0 0 1-.036-.54l-.216.036-.504.288-.54.252-.648.18c-.096.048-.156.012-.18-.108-.048-.096-.024-.156.072-.18l.648-.216.504-.216.504-.288h.036l.288-.072c0-.192-.048-.312-.144-.36l-.576.144-.576.216-.576.18c-.096.048-.168.024-.216-.072-.024-.12.012-.192.108-.216l.576-.216 1.152-.36.252-.072a.798.798 0 0 0-.036-.252c0-.072-.036-.132-.108-.18l-.612.144-.612.252-.648.216c-.096.024-.156-.012-.18-.108-.048-.12-.012-.192.108-.216l.612-.18.576-.252h.036l.612-.18.216-.072a.68.68 0 0 0-.036-.216.347.347 0 0 0-.144-.18l-.648.18-.54.216-.54.18c-.096.024-.156-.012-.18-.108-.048-.096-.012-.168.108-.216l.504-.144.54-.252h.036l.612-.18.216-.036a2.302 2.302 0 0 0-.072-.36l-.54.252-.612.18-.54.252c-.096.048-.168.012-.216-.108-.048-.096-.024-.156.072-.18l.576-.252.576-.216.684-.288c0-.144-.012-.264-.036-.36l-.432.18-.576.18-.504.18c-.12.024-.192-.012-.216-.108-.024-.096.012-.156.108-.18l.504-.18.576-.216.504-.18c0-.144-.012-.288-.036-.432l-.36.18-1.008.432c-.12.048-.192.024-.216-.072-.048-.096-.024-.168.072-.216l.54-.252.504-.18.468-.216a2.424 2.424 0 0 1-.036-.396l-.288.144-.612.288H.957l-.576.144c-.12.048-.192.012-.216-.108-.024-.096.012-.156.108-.18l.576-.18.612-.252.432-.216v-.504l-.18.072-.648.216-.54.252c-.096.048-.168.024-.216-.072-.048-.096-.024-.168.072-.216l.576-.252v-.036l.648-.18.324-.144v-.036c0-.096.012-.204.036-.324l-.324.108-.648.288-.612.288c-.096.024-.168-.012-.216-.108-.048-.096-.024-.168.072-.216l.648-.252.612-.288L2 9.293l.072-.432-.324.108-.54.216-.576.288c-.096.048-.168.024-.216-.072-.048-.096-.024-.168.072-.216l.612-.288.504-.252h.036l.504-.144c.048-.12.048-.204 0-.252l-.54.288-.648.288C.86 8.849.789 8.813.74 8.717c-.024-.096.012-.168.108-.216l.612-.252.54-.288h.036l.288-.108c.048-.12.048-.192 0-.216l-.54.144-.54.252c-.096.048-.168.012-.216-.108-.048-.096-.012-.156.108-.18l.54-.252h.036l.504-.18.36-.144a.32.32 0 0 1 .036-.144l-.54.216-.54.18c-.096.024-.168-.012-.216-.108-.024-.12.012-.192.108-.216l.54-.18.576-.216.252-.108a.909.909 0 0 0 .108-.216l-.432.108-.54.18c-.12.024-.192-.012-.216-.108-.024-.096.012-.168.108-.216l.576-.144.756-.252c.024-.048.06-.108.108-.18l-.396.144-.504.144c-.12.048-.192.012-.216-.108-.024-.096.012-.156.108-.18l.504-.18.468-.144-.54.18c-.096.024-.168-.012-.216-.108-.024-.12.012-.192.108-.216l.432-.144h-.036c-.048-.096-.024-.168.072-.216l1.08-.504.36-.144.144-.144-.504.252-.54.216c-.096.048-.168.024-.216-.072-.048-.096-.024-.168.072-.216l.72-.288c.024-.048.048-.072.072-.072l.54-.216.468-.18c.048-.048.072-.084.072-.108l-.576.288c-.096.048-.168.024-.216-.072-.048-.096-.024-.168.072-.216l.504-.252c0-.096.048-.156.144-.18l.612-.144.468-.288h.072c.144-.12.288-.228.432-.324h.036v-.036c.432-.24.876-.444 1.332-.612.48-.192.96-.36 1.44-.504.72-.336 1.596-.552 2.628-.648 1.032-.096 1.944-.12 2.736-.072h.9c.696.024 1.404.06 2.124.108a5.421 5.421 0 0 1 2.016.504l.072.072.072.036a76.732 76.732 0 0 1 3.276 3.492 69.854 69.854 0 0 1 3.096 3.672l.036.072.036.036c.288.648.444 1.392.468 2.232.048.84.072 1.668.072 2.484a8.744 8.744 0 0 0-.036.792c0 .24.012.48.036.72 0 .48-.012 1.092-.036 1.836a20.691 20.691 0 0 1-.216 2.34c-.096.816-.252 1.56-.468 2.232-.192.672-.468 1.188-.828 1.548a16.648 16.648 0 0 1-2.628 2.124c-.96.648-1.896 1.26-2.808 1.836h-.036v.036a6.208 6.208 0 0 1-1.512.504c-.552.12-1.152.216-1.8.288l-.612.216c-.096.024-.156-.012-.18-.108a.153.153 0 0 1 0-.144.68.68 0 0 1-.216.036l-.36.072a.153.153 0 0 1-.144 0 .59.59 0 0 1-.144-.036v.036l-.612.144Zm-3.78-1.368c.024 0 .036.012.036.036.48.072.96.132 1.44.18.504.024.984.06 1.44.108h1.008c.744-.024 1.596-.06 2.556-.108.984-.072 1.8-.276 2.448-.612.888-.576 1.8-1.176 2.736-1.8a15.688 15.688 0 0 0 2.556-2.052c.288-.288.516-.744.684-1.368.192-.648.324-1.344.396-2.088.096-.768.156-1.5.18-2.196.024-.696.036-1.248.036-1.656a7.232 7.232 0 0 1-.036-.72c.024-.264.036-.528.036-.792 0-.768-.012-1.536-.036-2.304-.024-.792-.168-1.476-.432-2.052a66.83 66.83 0 0 0-3.024-3.6 73.542 73.542 0 0 0-3.204-3.42c-.528-.24-1.128-.384-1.8-.432a25.828 25.828 0 0 0-1.908-.072H14.96c-.72-.048-1.572-.024-2.556.072-.984.072-1.8.264-2.448.576H9.92c-.456.144-.9.3-1.332.468a8.706 8.706 0 0 0-1.26.612 14.965 14.965 0 0 0-3.204 3.06 5.467 5.467 0 0 0-.576.972.244.244 0 0 1-.072.18c-.072.144-.132.3-.18.468v.036c.024.072 0 .132-.072.18-.048.144-.096.3-.144.468v.036c.048.072.036.132-.036.18a4.27 4.27 0 0 0-.108.468v.036c.048.096.036.156-.036.18a1.827 1.827 0 0 0-.072.504v.036c.048.072.036.132-.036.18v.108a4.367 4.367 0 0 0-.036.54v.036c.048.048.048.096 0 .144 0 .408.012.804.036 1.188.048.384.084.768.108 1.152.024.12.036.228.036.324.024.096.036.192.036.288.024.288.036.576.036.864l.072.864c0 .48.012.96.036 1.44.048.48.132.948.252 1.404.24.768.492 1.608.756 2.52.288.912.72 1.656 1.296 2.232a14.118 14.118 0 0 0 1.944 1.548c.744.48 1.476.9 2.196 1.26.168.048.336.108.504.18h.036c.216.072.444.12.684.144Zm-1.404.504h-.036l-.36.108-.504.252.396-.144.504-.216Z" fill="#000" fill-opacity=".2"/></svg>