<svg width="24" height="24" fill="none" xmlns="http://www.w3.org/2000/svg"><g stroke-width="1.5" stroke-linecap="round" stroke-linejoin="round"><path d="M14 11v6" stroke="#0F0F0F"/><path d="M14 11v6" stroke="#000" stroke-opacity=".2"/><path d="M10 11v6" stroke="#0F0F0F"/><path d="M10 11v6" stroke="#000" stroke-opacity=".2"/><path d="M6 7v12a2 2 0 0 0 2 2h8a2 2 0 0 0 2-2V7" stroke="#0F0F0F"/><path d="M6 7v12a2 2 0 0 0 2 2h8a2 2 0 0 0 2-2V7" stroke="#000" stroke-opacity=".2"/><path d="M4 7h16" stroke="#0F0F0F"/><path d="M4 7h16" stroke="#000" stroke-opacity=".2"/><path d="m7 7 2-4h6l2 4" stroke="#0F0F0F"/><path d="m7 7 2-4h6l2 4" stroke="#000" stroke-opacity=".2"/></g></svg>