<svg width="72" height="86" viewBox="0 0 72 86" fill="none" xmlns="http://www.w3.org/2000/svg">
<g id="Vector">
<path d="M3.2 83.3332V75.3996H7.9488V76.2774H4.208V78.7553H5.3952C6.19413 78.7553 6.81387 78.8553 7.2544 79.0553C7.69493 79.2479 8.00107 79.5146 8.1728 79.8553C8.34453 80.1887 8.4304 80.5739 8.4304 81.0109C8.4304 81.4924 8.33333 81.9073 8.1392 82.2554C7.95253 82.6036 7.6464 82.8703 7.2208 83.0555C6.7952 83.2406 6.2352 83.3332 5.5408 83.3332H3.2ZM5.44 82.4776C6.1568 82.4776 6.6608 82.3591 6.952 82.1221C7.2432 81.8776 7.3888 81.5072 7.3888 81.0109C7.3888 80.6702 7.31787 80.3998 7.176 80.1998C7.0416 79.9924 6.8176 79.8442 6.504 79.7553C6.19787 79.6664 5.7872 79.622 5.272 79.622H4.208V82.4776H5.44Z" fill="#0F0F0F"/>
<path d="M3.2 83.3332V75.3996H7.9488V76.2774H4.208V78.7553H5.3952C6.19413 78.7553 6.81387 78.8553 7.2544 79.0553C7.69493 79.2479 8.00107 79.5146 8.1728 79.8553C8.34453 80.1887 8.4304 80.5739 8.4304 81.0109C8.4304 81.4924 8.33333 81.9073 8.1392 82.2554C7.95253 82.6036 7.6464 82.8703 7.2208 83.0555C6.7952 83.2406 6.2352 83.3332 5.5408 83.3332H3.2ZM5.44 82.4776C6.1568 82.4776 6.6608 82.3591 6.952 82.1221C7.2432 81.8776 7.3888 81.5072 7.3888 81.0109C7.3888 80.6702 7.31787 80.3998 7.176 80.1998C7.0416 79.9924 6.8176 79.8442 6.504 79.7553C6.19787 79.6664 5.7872 79.622 5.272 79.622H4.208V82.4776H5.44Z" fill="black" fill-opacity="0.2"/>
<path d="M12.2746 77.2663C12.7898 77.2663 13.2304 77.3775 13.5962 77.5997C13.9696 77.8219 14.2533 78.1367 14.4474 78.5442C14.649 78.9442 14.7498 79.4146 14.7498 79.9553V80.5442H10.6394C10.6544 81.2183 10.8261 81.7332 11.1546 82.0887C11.4906 82.4369 11.9573 82.611 12.5546 82.611C12.9354 82.611 13.2714 82.5777 13.5626 82.511C13.8613 82.4369 14.1674 82.3332 14.481 82.1999V83.0555C14.1749 83.1888 13.8725 83.2851 13.5738 83.3443C13.2752 83.411 12.9205 83.4444 12.5098 83.4444C11.9424 83.4444 11.4384 83.3295 10.9978 83.0999C10.5648 82.8703 10.225 82.5295 9.97863 82.0776C9.73969 81.6184 9.62022 81.0591 9.62022 80.3998C9.62022 79.7479 9.72849 79.1886 9.94503 78.7219C10.169 78.2553 10.4789 77.896 10.8746 77.6441C11.2778 77.3923 11.7445 77.2663 12.2746 77.2663ZM12.2634 78.0664C11.793 78.0664 11.4197 78.2182 11.1434 78.5219C10.8746 78.8183 10.7141 79.2331 10.6618 79.7664H13.7194C13.7194 79.4257 13.6672 79.1294 13.5626 78.8775C13.4581 78.6257 13.2976 78.4293 13.081 78.2886C12.872 78.1404 12.5994 78.0664 12.2634 78.0664Z" fill="#0F0F0F"/>
<path d="M12.2746 77.2663C12.7898 77.2663 13.2304 77.3775 13.5962 77.5997C13.9696 77.8219 14.2533 78.1367 14.4474 78.5442C14.649 78.9442 14.7498 79.4146 14.7498 79.9553V80.5442H10.6394C10.6544 81.2183 10.8261 81.7332 11.1546 82.0887C11.4906 82.4369 11.9573 82.611 12.5546 82.611C12.9354 82.611 13.2714 82.5777 13.5626 82.511C13.8613 82.4369 14.1674 82.3332 14.481 82.1999V83.0555C14.1749 83.1888 13.8725 83.2851 13.5738 83.3443C13.2752 83.411 12.9205 83.4444 12.5098 83.4444C11.9424 83.4444 11.4384 83.3295 10.9978 83.0999C10.5648 82.8703 10.225 82.5295 9.97863 82.0776C9.73969 81.6184 9.62022 81.0591 9.62022 80.3998C9.62022 79.7479 9.72849 79.1886 9.94503 78.7219C10.169 78.2553 10.4789 77.896 10.8746 77.6441C11.2778 77.3923 11.7445 77.2663 12.2746 77.2663ZM12.2634 78.0664C11.793 78.0664 11.4197 78.2182 11.1434 78.5219C10.8746 78.8183 10.7141 79.2331 10.6618 79.7664H13.7194C13.7194 79.4257 13.6672 79.1294 13.5626 78.8775C13.4581 78.6257 13.2976 78.4293 13.081 78.2886C12.872 78.1404 12.5994 78.0664 12.2634 78.0664Z" fill="black" fill-opacity="0.2"/>
<path d="M17.8573 77.2663C18.3128 77.2663 18.7085 77.3293 19.0445 77.4552C19.3805 77.5738 19.6418 77.7515 19.8285 77.9886C20.0152 78.2182 20.1085 78.4997 20.1085 78.8331C20.1085 79.196 20.0077 79.4849 19.8061 79.6998C19.6045 79.9072 19.3282 80.059 18.9773 80.1553V80.1998C19.2162 80.2665 19.4365 80.3591 19.6381 80.4776C19.8397 80.5961 20.0002 80.7517 20.1197 80.9443C20.2466 81.1369 20.3101 81.385 20.3101 81.6887C20.3101 82.0147 20.2168 82.311 20.0301 82.5777C19.8509 82.8443 19.5709 83.0555 19.1901 83.211C18.8168 83.3666 18.3352 83.4444 17.7453 83.4444C17.4616 83.4444 17.189 83.4295 16.9277 83.3999C16.6738 83.3703 16.4424 83.3258 16.2333 83.2666C16.0317 83.2073 15.8525 83.1369 15.6957 83.0555V82.1776C15.9496 82.2962 16.2482 82.4036 16.5917 82.4999C16.9426 82.5962 17.3234 82.6443 17.7341 82.6443C18.0328 82.6443 18.3016 82.611 18.5405 82.5443C18.7869 82.4776 18.981 82.3739 19.1229 82.2332C19.2648 82.085 19.3357 81.885 19.3357 81.6332C19.3357 81.4035 19.2722 81.2183 19.1453 81.0776C19.0184 80.9294 18.828 80.8183 18.5741 80.7442C18.3277 80.6702 18.0104 80.6331 17.6221 80.6331H16.8157V79.8331H17.4653C17.9805 79.8331 18.3912 79.7664 18.6973 79.6331C19.0109 79.4923 19.1677 79.2553 19.1677 78.922C19.1677 78.6405 19.0482 78.4293 18.8093 78.2886C18.5778 78.1479 18.2418 78.0775 17.8013 78.0775C17.4728 78.0775 17.1816 78.1108 16.9277 78.1775C16.6813 78.2367 16.4088 78.3293 16.1101 78.4553L15.7629 77.6775C16.084 77.5367 16.42 77.433 16.7709 77.3663C17.1218 77.2997 17.484 77.2663 17.8573 77.2663Z" fill="#0F0F0F"/>
<path d="M17.8573 77.2663C18.3128 77.2663 18.7085 77.3293 19.0445 77.4552C19.3805 77.5738 19.6418 77.7515 19.8285 77.9886C20.0152 78.2182 20.1085 78.4997 20.1085 78.8331C20.1085 79.196 20.0077 79.4849 19.8061 79.6998C19.6045 79.9072 19.3282 80.059 18.9773 80.1553V80.1998C19.2162 80.2665 19.4365 80.3591 19.6381 80.4776C19.8397 80.5961 20.0002 80.7517 20.1197 80.9443C20.2466 81.1369 20.3101 81.385 20.3101 81.6887C20.3101 82.0147 20.2168 82.311 20.0301 82.5777C19.8509 82.8443 19.5709 83.0555 19.1901 83.211C18.8168 83.3666 18.3352 83.4444 17.7453 83.4444C17.4616 83.4444 17.189 83.4295 16.9277 83.3999C16.6738 83.3703 16.4424 83.3258 16.2333 83.2666C16.0317 83.2073 15.8525 83.1369 15.6957 83.0555V82.1776C15.9496 82.2962 16.2482 82.4036 16.5917 82.4999C16.9426 82.5962 17.3234 82.6443 17.7341 82.6443C18.0328 82.6443 18.3016 82.611 18.5405 82.5443C18.7869 82.4776 18.981 82.3739 19.1229 82.2332C19.2648 82.085 19.3357 81.885 19.3357 81.6332C19.3357 81.4035 19.2722 81.2183 19.1453 81.0776C19.0184 80.9294 18.828 80.8183 18.5741 80.7442C18.3277 80.6702 18.0104 80.6331 17.6221 80.6331H16.8157V79.8331H17.4653C17.9805 79.8331 18.3912 79.7664 18.6973 79.6331C19.0109 79.4923 19.1677 79.2553 19.1677 78.922C19.1677 78.6405 19.0482 78.4293 18.8093 78.2886C18.5778 78.1479 18.2418 78.0775 17.8013 78.0775C17.4728 78.0775 17.1816 78.1108 16.9277 78.1775C16.6813 78.2367 16.4088 78.3293 16.1101 78.4553L15.7629 77.6775C16.084 77.5367 16.42 77.433 16.7709 77.3663C17.1218 77.2997 17.484 77.2663 17.8573 77.2663Z" fill="black" fill-opacity="0.2"/>
<path d="M28.4171 77.3775V78.1997H25.7403V83.3332H24.7547V77.3775H28.4171Z" fill="#0F0F0F"/>
<path d="M28.4171 77.3775V78.1997H25.7403V83.3332H24.7547V77.3775H28.4171Z" fill="black" fill-opacity="0.2"/>
<path d="M33.8305 83.3332H32.8337V78.1886H31.0641C30.9894 79.1294 30.8961 79.9331 30.7841 80.5998C30.6721 81.2591 30.5302 81.7961 30.3585 82.211C30.1868 82.6258 29.9814 82.9295 29.7425 83.1221C29.5036 83.3147 29.2236 83.411 28.9025 83.411C28.8054 83.411 28.7084 83.4036 28.6113 83.3888C28.5217 83.3814 28.447 83.3629 28.3873 83.3332V82.5999C28.4321 82.6147 28.4806 82.6258 28.5329 82.6332C28.5852 82.6406 28.6374 82.6443 28.6897 82.6443C28.854 82.6443 29.0033 82.5777 29.1377 82.4443C29.2721 82.311 29.3916 82.1073 29.4961 81.8332C29.6081 81.5591 29.7089 81.2146 29.7985 80.7998C29.8881 80.3776 29.9665 79.8813 30.0337 79.3109C30.1009 78.7405 30.1606 78.096 30.2129 77.3775H33.8305V83.3332Z" fill="#0F0F0F"/>
<path d="M33.8305 83.3332H32.8337V78.1886H31.0641C30.9894 79.1294 30.8961 79.9331 30.7841 80.5998C30.6721 81.2591 30.5302 81.7961 30.3585 82.211C30.1868 82.6258 29.9814 82.9295 29.7425 83.1221C29.5036 83.3147 29.2236 83.411 28.9025 83.411C28.8054 83.411 28.7084 83.4036 28.6113 83.3888C28.5217 83.3814 28.447 83.3629 28.3873 83.3332V82.5999C28.4321 82.6147 28.4806 82.6258 28.5329 82.6332C28.5852 82.6406 28.6374 82.6443 28.6897 82.6443C28.854 82.6443 29.0033 82.5777 29.1377 82.4443C29.2721 82.311 29.3916 82.1073 29.4961 81.8332C29.6081 81.5591 29.7089 81.2146 29.7985 80.7998C29.8881 80.3776 29.9665 79.8813 30.0337 79.3109C30.1009 78.7405 30.1606 78.096 30.2129 77.3775H33.8305V83.3332Z" fill="black" fill-opacity="0.2"/>
<path d="M43.5311 80.3442C43.5311 81.0035 43.4228 81.5665 43.2063 82.0332C42.9898 82.4925 42.6836 82.8443 42.2879 83.0888C41.8922 83.3258 41.4218 83.4444 40.8767 83.4444C40.369 83.4444 39.9247 83.3406 39.5439 83.1332C39.1631 82.9184 38.8607 82.6073 38.6367 82.1999C38.4127 81.785 38.282 81.2776 38.2447 80.6776H36.7215V83.3332H35.7359V77.3775H36.7215V79.8553H38.2559C38.3082 79.2923 38.4463 78.822 38.6703 78.4442C38.9018 78.059 39.2042 77.7664 39.5775 77.5664C39.9583 77.3663 40.3988 77.2663 40.8991 77.2663C41.4143 77.2663 41.8698 77.3886 42.2655 77.633C42.6612 77.8701 42.9711 78.2182 43.1951 78.6775C43.4191 79.1294 43.5311 79.685 43.5311 80.3442ZM39.2527 80.3442C39.2527 80.8406 39.3087 81.2591 39.4207 81.5998C39.5402 81.9406 39.7194 82.1999 39.9583 82.3776C40.1972 82.548 40.5071 82.6332 40.8879 82.6332C41.2687 82.6332 41.5786 82.548 41.8175 82.3776C42.0564 82.1999 42.2319 81.9406 42.3439 81.5998C42.4559 81.2591 42.5119 80.8406 42.5119 80.3442C42.5119 79.8479 42.4559 79.4331 42.3439 79.0997C42.2319 78.7664 42.0564 78.5145 41.8175 78.3442C41.5786 78.1738 41.2687 78.0886 40.8879 78.0886C40.5071 78.0886 40.1972 78.1738 39.9583 78.3442C39.7194 78.5145 39.5402 78.7664 39.4207 79.0997C39.3087 79.4331 39.2527 79.8479 39.2527 80.3442Z" fill="#0F0F0F"/>
<path d="M43.5311 80.3442C43.5311 81.0035 43.4228 81.5665 43.2063 82.0332C42.9898 82.4925 42.6836 82.8443 42.2879 83.0888C41.8922 83.3258 41.4218 83.4444 40.8767 83.4444C40.369 83.4444 39.9247 83.3406 39.5439 83.1332C39.1631 82.9184 38.8607 82.6073 38.6367 82.1999C38.4127 81.785 38.282 81.2776 38.2447 80.6776H36.7215V83.3332H35.7359V77.3775H36.7215V79.8553H38.2559C38.3082 79.2923 38.4463 78.822 38.6703 78.4442C38.9018 78.059 39.2042 77.7664 39.5775 77.5664C39.9583 77.3663 40.3988 77.2663 40.8991 77.2663C41.4143 77.2663 41.8698 77.3886 42.2655 77.633C42.6612 77.8701 42.9711 78.2182 43.1951 78.6775C43.4191 79.1294 43.5311 79.685 43.5311 80.3442ZM39.2527 80.3442C39.2527 80.8406 39.3087 81.2591 39.4207 81.5998C39.5402 81.9406 39.7194 82.1999 39.9583 82.3776C40.1972 82.548 40.5071 82.6332 40.8879 82.6332C41.2687 82.6332 41.5786 82.548 41.8175 82.3776C42.0564 82.1999 42.2319 81.9406 42.3439 81.5998C42.4559 81.2591 42.5119 80.8406 42.5119 80.3442C42.5119 79.8479 42.4559 79.4331 42.3439 79.0997C42.2319 78.7664 42.0564 78.5145 41.8175 78.3442C41.5786 78.1738 41.2687 78.0886 40.8879 78.0886C40.5071 78.0886 40.1972 78.1738 39.9583 78.3442C39.7194 78.5145 39.5402 78.7664 39.4207 79.0997C39.3087 79.4331 39.2527 79.8479 39.2527 80.3442Z" fill="black" fill-opacity="0.2"/>
<path d="M49.133 78.1997H47.173V83.3332H46.1986V78.1997H44.261V77.3775H49.133V78.1997Z" fill="#0F0F0F"/>
<path d="M49.133 78.1997H47.173V83.3332H46.1986V78.1997H44.261V77.3775H49.133V78.1997Z" fill="black" fill-opacity="0.2"/>
<path d="M52.5246 77.2663C53.0398 77.2663 53.4804 77.3775 53.8462 77.5997C54.2196 77.8219 54.5033 78.1367 54.6974 78.5442C54.899 78.9442 54.9998 79.4146 54.9998 79.9553V80.5442H50.8894C50.9044 81.2183 51.0761 81.7332 51.4046 82.0887C51.7406 82.4369 52.2073 82.611 52.8046 82.611C53.1854 82.611 53.5214 82.5777 53.8126 82.511C54.1113 82.4369 54.4174 82.3332 54.731 82.1999V83.0555C54.4249 83.1888 54.1225 83.2851 53.8238 83.3443C53.5252 83.411 53.1705 83.4444 52.7598 83.4444C52.1924 83.4444 51.6884 83.3295 51.2478 83.0999C50.8148 82.8703 50.475 82.5295 50.2286 82.0776C49.9897 81.6184 49.8702 81.0591 49.8702 80.3998C49.8702 79.7479 49.9785 79.1886 50.195 78.7219C50.419 78.2553 50.7289 77.896 51.1246 77.6441C51.5278 77.3923 51.9945 77.2663 52.5246 77.2663ZM52.5134 78.0664C52.043 78.0664 51.6697 78.2182 51.3934 78.5219C51.1246 78.8183 50.9641 79.2331 50.9118 79.7664H53.9694C53.9694 79.4257 53.9172 79.1294 53.8126 78.8775C53.7081 78.6257 53.5476 78.4293 53.331 78.2886C53.122 78.1404 52.8494 78.0664 52.5134 78.0664Z" fill="#0F0F0F"/>
<path d="M52.5246 77.2663C53.0398 77.2663 53.4804 77.3775 53.8462 77.5997C54.2196 77.8219 54.5033 78.1367 54.6974 78.5442C54.899 78.9442 54.9998 79.4146 54.9998 79.9553V80.5442H50.8894C50.9044 81.2183 51.0761 81.7332 51.4046 82.0887C51.7406 82.4369 52.2073 82.611 52.8046 82.611C53.1854 82.611 53.5214 82.5777 53.8126 82.511C54.1113 82.4369 54.4174 82.3332 54.731 82.1999V83.0555C54.4249 83.1888 54.1225 83.2851 53.8238 83.3443C53.5252 83.411 53.1705 83.4444 52.7598 83.4444C52.1924 83.4444 51.6884 83.3295 51.2478 83.0999C50.8148 82.8703 50.475 82.5295 50.2286 82.0776C49.9897 81.6184 49.8702 81.0591 49.8702 80.3998C49.8702 79.7479 49.9785 79.1886 50.195 78.7219C50.419 78.2553 50.7289 77.896 51.1246 77.6441C51.5278 77.3923 51.9945 77.2663 52.5246 77.2663ZM52.5134 78.0664C52.043 78.0664 51.6697 78.2182 51.3934 78.5219C51.1246 78.8183 50.9641 79.2331 50.9118 79.7664H53.9694C53.9694 79.4257 53.9172 79.1294 53.8126 78.8775C53.7081 78.6257 53.5476 78.4293 53.331 78.2886C53.122 78.1404 52.8494 78.0664 52.5134 78.0664Z" fill="black" fill-opacity="0.2"/>
<path d="M57.5137 77.3775V79.8553H60.7729V77.3775H61.7585V83.3332H60.7729V80.6776H57.5137V83.3332H56.5281V77.3775H57.5137Z" fill="#0F0F0F"/>
<path d="M57.5137 77.3775V79.8553H60.7729V77.3775H61.7585V83.3332H60.7729V80.6776H57.5137V83.3332H56.5281V77.3775H57.5137Z" fill="black" fill-opacity="0.2"/>
<path d="M62.7185 77.3775H63.7714L65.0705 80.7665C65.1452 80.9665 65.2124 81.1591 65.2721 81.3443C65.3393 81.5295 65.3991 81.711 65.4513 81.8887C65.5036 82.0591 65.5447 82.2258 65.5745 82.3888H65.6193C65.6641 82.2036 65.7351 81.9628 65.8321 81.6665C65.9292 81.3628 66.03 81.0591 66.1346 80.7554L67.3554 77.3775H68.4193L65.8321 84.1555C65.6903 84.5259 65.5223 84.8481 65.3281 85.1222C65.1415 85.4037 64.91 85.6185 64.6338 85.7667C64.365 85.9222 64.0364 86 63.6482 86C63.469 86 63.3122 85.9889 63.1778 85.9667C63.0434 85.9519 62.9276 85.9333 62.8305 85.9111V85.1333C62.9127 85.1481 63.0098 85.1629 63.1218 85.1777C63.2412 85.1926 63.3644 85.2 63.4914 85.2C63.7228 85.2 63.9207 85.1555 64.085 85.0666C64.2567 84.9851 64.4023 84.8629 64.5218 84.7C64.6412 84.5444 64.742 84.3592 64.8242 84.1444L65.1377 83.3555L62.7185 77.3775Z" fill="#0F0F0F"/>
<path d="M62.7185 77.3775H63.7714L65.0705 80.7665C65.1452 80.9665 65.2124 81.1591 65.2721 81.3443C65.3393 81.5295 65.3991 81.711 65.4513 81.8887C65.5036 82.0591 65.5447 82.2258 65.5745 82.3888H65.6193C65.6641 82.2036 65.7351 81.9628 65.8321 81.6665C65.9292 81.3628 66.03 81.0591 66.1346 80.7554L67.3554 77.3775H68.4193L65.8321 84.1555C65.6903 84.5259 65.5223 84.8481 65.3281 85.1222C65.1415 85.4037 64.91 85.6185 64.6338 85.7667C64.365 85.9222 64.0364 86 63.6482 86C63.469 86 63.3122 85.9889 63.1778 85.9667C63.0434 85.9519 62.9276 85.9333 62.8305 85.9111V85.1333C62.9127 85.1481 63.0098 85.1629 63.1218 85.1777C63.2412 85.1926 63.3644 85.2 63.4914 85.2C63.7228 85.2 63.9207 85.1555 64.085 85.0666C64.2567 84.9851 64.4023 84.8629 64.5218 84.7C64.6412 84.5444 64.742 84.3592 64.8242 84.1444L65.1377 83.3555L62.7185 77.3775Z" fill="black" fill-opacity="0.2"/>
<path d="M30.4635 51.6211C28.2715 51.6211 26.1195 50.9544 24.2475 49.6925C21.1835 47.6289 19.3275 44.2161 19.4155 40.7715C19.4155 40.462 19.6155 40.1842 19.9035 40.0652C21.1275 39.5493 22.4475 39.2794 23.8235 39.2794C26.0155 39.2794 28.1675 39.9461 30.0395 41.2081C33.1035 43.2716 34.9595 46.6844 34.8715 50.129C34.8715 50.4386 34.6715 50.7163 34.3835 50.8354C33.1595 51.3592 31.8395 51.6211 30.4635 51.6211ZM21.0155 41.335C21.1275 44.0653 22.6795 46.7241 25.1435 48.3829C26.7515 49.4623 28.5915 50.0417 30.4635 50.0417C31.4395 50.0417 32.3835 49.883 33.2715 49.5734C33.1515 46.8432 31.6075 44.1844 29.1435 42.5256C27.5355 41.4462 25.6955 40.8747 23.8235 40.8747C22.8475 40.8747 21.9035 41.0334 21.0155 41.343V41.335Z" fill="black"/>
<path d="M36.6244 51.8356C35.7444 51.8356 34.8804 51.7245 34.0564 51.5023C33.7524 51.4229 33.5284 51.1689 33.4804 50.8673C32.9124 47.4624 34.2724 43.8194 37.0244 41.3511C39.0884 39.5018 41.6964 38.478 44.3604 38.478C45.2404 38.478 46.1044 38.5891 46.9284 38.8113C47.2324 38.8907 47.4564 39.1447 47.5044 39.4463C48.0724 42.8512 46.7124 46.4941 43.9604 48.9625C41.8964 50.8118 39.2884 51.8356 36.6244 51.8356ZM34.9844 50.0895C35.5204 50.1927 36.0644 50.2483 36.6244 50.2483C38.8884 50.2483 41.1124 49.3752 42.8884 47.7878C45.1044 45.8036 46.2644 42.9464 46.0004 40.2241C45.4644 40.1209 44.9204 40.0653 44.3604 40.0653C42.0964 40.0653 39.8724 40.9384 38.0964 42.5258C35.8804 44.51 34.7204 47.3672 34.9844 50.0895Z" fill="black"/>
<path d="M31.8563 42.5177C28.7043 42.5177 25.5203 41.105 23.3523 38.7398C20.7683 35.9302 19.7443 32.0491 20.6723 28.6125C20.7523 28.3109 21.0003 28.0886 21.3123 28.0331C21.8563 27.9378 22.4163 27.8982 22.9763 27.8982C26.0483 27.8982 29.0563 29.2554 31.2243 31.6285C33.4803 34.0889 34.4403 37.3668 34.1603 41.6526C34.1363 42.0177 33.8643 42.3193 33.4963 42.3828C32.9683 42.4701 32.4163 42.5177 31.8563 42.5177ZM22.0963 29.5331C21.5363 32.3269 22.4403 35.3984 24.5363 37.6763C26.5843 39.9065 29.7043 41.1526 32.6003 40.8986C32.7203 37.3826 31.8803 34.6921 30.0483 32.692C27.9683 30.4221 24.9763 29.2315 22.1043 29.5252L22.0963 29.5331Z" fill="black"/>
<path d="M36.1766 41.7555C35.2006 41.7555 34.2406 41.6206 33.3286 41.3507C33.0326 41.2634 32.8086 41.0094 32.7606 40.6999C32.2646 37.2236 33.7366 33.5409 36.6006 31.0964C38.6726 29.3264 41.2646 28.3423 43.8966 28.3423C44.8726 28.3423 45.8326 28.4772 46.7446 28.7471C47.0406 28.8344 47.2646 29.0883 47.3126 29.3979C47.8086 32.8742 46.3366 36.5569 43.4726 39.0014C41.4006 40.7713 38.8086 41.7555 36.1766 41.7555ZM34.2886 39.9618C34.8966 40.0967 35.5286 40.1681 36.1766 40.1681C38.4246 40.1681 40.6406 39.3268 42.4246 37.803C44.7366 35.8267 45.9926 32.9298 45.7846 30.1439C45.1766 30.009 44.5446 29.9376 43.8966 29.9376C41.6566 29.9376 39.4326 30.7789 37.6486 32.3027C35.3366 34.279 34.0806 37.1759 34.2886 39.9618Z" fill="black"/>
<path d="M33.7837 33.1917H33.7677C30.8397 33.1361 27.9997 31.4694 26.3517 28.8265C24.7117 26.1835 24.4797 22.9135 25.7437 20.2944C25.8797 20.0166 26.1277 19.8499 26.4797 19.842C29.4077 19.8976 32.2477 21.5643 33.8957 24.2072C35.5357 26.8502 35.7677 30.1202 34.5037 32.7393C34.3677 33.0171 34.0877 33.1917 33.7837 33.1917ZM26.9837 21.4611C26.1917 23.5088 26.4557 25.9692 27.7197 27.9931C28.9757 30.017 31.0717 31.3504 33.2717 31.5726C34.0637 29.5249 33.7997 27.0645 32.5357 25.0406C31.2797 23.0167 29.1837 21.6833 26.9837 21.4611Z" fill="black"/>
<path d="M37.1365 30.6755C36.2405 30.6755 35.4005 30.5486 34.6245 30.3025C34.3125 30.1993 34.0885 29.9216 34.0725 29.5882C33.9925 28.1993 35.1765 23.6753 37.7045 21.6197C39.2725 20.3498 41.2645 19.6513 43.3285 19.6513C44.2805 19.6513 45.2165 19.7942 46.1045 20.0799C46.4005 20.1752 46.6165 20.4371 46.6485 20.7466C46.9845 23.5959 45.7045 26.5722 43.3205 28.5167C41.6245 29.8898 39.3685 30.6835 37.1285 30.6835L37.1365 30.6755ZM35.7125 28.9453C36.1605 29.0406 36.6405 29.0882 37.1365 29.0882C39.0165 29.0882 40.8965 28.4294 42.3125 27.2865C44.1365 25.8024 45.1765 23.6118 45.1045 21.453C44.5285 21.3101 43.9365 21.2387 43.3285 21.2387C41.6405 21.2387 40.0005 21.8101 38.7205 22.8499C36.9285 24.3023 35.9205 27.485 35.7045 28.9453H35.7125Z" fill="black"/>
<path d="M35.2393 26.374C35.1353 26.374 35.0313 26.3502 34.9273 26.3105C32.4313 25.2708 30.5673 22.8738 30.0713 20.0563C29.5753 17.2387 30.4953 14.3497 32.4873 12.5322C32.7193 12.3179 33.0473 12.2623 33.3353 12.3814C35.8313 13.4211 37.6953 15.818 38.1913 18.6356C38.6873 21.4532 37.7673 24.3421 35.7753 26.1597C35.6233 26.2946 35.4313 26.366 35.2313 26.366L35.2393 26.374ZM33.1993 14.0719C31.8633 15.5323 31.2713 17.6752 31.6473 19.7785C32.0233 21.8817 33.3113 23.6913 35.0713 24.6199C36.4073 23.1596 36.9993 21.0166 36.6233 18.9134C36.2473 16.8101 34.9593 15.0005 33.1993 14.0719Z" fill="black"/>
<path d="M38.136 22.1912C37.952 22.1912 37.768 22.1833 37.592 22.1674C37.224 22.1357 36.928 21.85 36.872 21.4849C36.576 19.2864 36.872 16.1513 38.632 13.9449C40.312 11.8258 42.944 10.6511 45.488 10.8892C45.8 10.921 46.064 11.1273 46.168 11.421C47.008 13.8179 46.48 16.6275 44.8 18.7546C43.168 20.8182 40.488 22.1992 38.136 22.1992V22.1912ZM44.808 12.4448C42.96 12.4448 41.12 13.3734 39.896 14.9211C38.624 16.5244 38.296 18.8419 38.4 20.5959C40.2 20.4928 42.28 19.3578 43.544 17.7625C44.776 16.2069 45.24 14.2147 44.808 12.4369V12.4448Z" fill="black"/>
<path d="M41.3113 60.9304C39.6633 60.9304 38.1593 60.2241 36.8793 58.8272C30.9353 52.3428 31.2073 33.0167 35.7353 23.8497C35.9273 23.4529 36.4073 23.2941 36.8073 23.4846C37.2073 23.6751 37.3673 24.1513 37.1753 24.5481C32.5273 33.9453 33.0233 52.2555 38.0633 57.7557C39.4953 59.3193 41.1513 59.724 43.1353 58.978C43.5433 58.8192 44.0073 59.0256 44.1673 59.4383C44.3273 59.851 44.1113 60.3034 43.7033 60.4622C42.8793 60.7717 42.0793 60.9225 41.3193 60.9225L41.3113 60.9304Z" fill="black"/>
<path d="M36 71.4312C16.152 71.4312 0 55.4068 0 35.7156C0 16.0244 16.152 0 36 0C55.848 0 72 16.0244 72 35.7156C72 55.4068 55.848 71.4312 36 71.4312ZM36 1.58736C17.032 1.58736 1.6 16.8974 1.6 35.7156C1.6 54.5338 17.032 69.8438 36 69.8438C54.968 69.8438 70.4 54.5338 70.4 35.7156C70.4 16.8974 54.968 1.58736 36 1.58736ZM36 67.3676C28.12 67.3676 20.552 64.4944 14.688 59.2641C14.528 59.1212 14.432 58.9149 14.424 58.6926C14.424 58.4783 14.504 58.2641 14.656 58.1133L24.36 48.4859C24.672 48.1764 25.176 48.1764 25.488 48.4859C25.8 48.7955 25.8 49.2955 25.488 49.605L16.392 58.6292C21.864 63.2404 28.792 65.7723 36 65.7723C52.704 65.7723 66.304 52.2876 66.304 35.7077C66.304 28.5645 63.752 21.6913 59.104 16.2546L45.64 29.6122C45.328 29.9217 44.824 29.9217 44.512 29.6122C44.2 29.3027 44.2 28.8027 44.512 28.4931L58.584 14.5402C58.736 14.3894 58.952 14.3021 59.168 14.3101C59.384 14.3101 59.592 14.4132 59.744 14.572C65.008 20.3896 67.912 27.8979 67.912 35.7156C67.912 53.1686 53.6 67.3676 36.008 67.3676H36ZM12.952 57.2323H12.936C12.72 57.2323 12.512 57.1291 12.36 56.9704C7.032 51.1368 4.096 43.5968 4.096 35.7156C4.096 18.2626 18.408 4.06364 36 4.06364C43.936 4.06364 51.544 6.97645 57.416 12.2624C57.576 12.4052 57.672 12.6116 57.68 12.8338C57.68 13.0481 57.6 13.2624 57.448 13.4132L45.96 24.8104C45.648 25.12 45.144 25.12 44.832 24.8104C44.52 24.5009 44.52 24.0009 44.832 23.6914L55.712 12.8973C50.224 8.22253 43.256 5.66688 36 5.66688C19.296 5.651 5.696 19.1436 5.696 35.7156C5.696 42.9143 8.28 49.8272 12.984 55.2719L21.648 46.6763C21.96 46.3668 22.464 46.3668 22.776 46.6763C23.088 46.9859 23.088 47.4859 22.776 47.7954L13.512 56.9862C13.36 57.137 13.16 57.2164 12.944 57.2164L12.952 57.2323Z" fill="black"/>
</g>
</svg>
