<svg width="83" height="83" viewBox="0 0 83 83" fill="none" xmlns="http://www.w3.org/2000/svg">
<g id="Group 50">
<g id="Group 45">
<path id="Vector 152" d="M9.71597 69.1008L0 54.8127L81.7284 27.9512L82.3 45.6684L9.71597 69.1008Z" fill="black"/>
<g id="&#208;&#157;.&#208;&#144;.&#208;&#161;.&#208;&#161;.&#208;&#160;.">
<path d="M16.3899 58.1763L17.26 60.8513C17.4036 61.2929 17.5167 61.5613 17.5993 61.6565C17.6862 61.7504 17.8135 61.8169 17.9812 61.8563C18.1518 61.89 18.3581 61.8675 18.6002 61.7888L18.8868 61.6956L18.9634 61.9312L14.4477 63.4L14.371 63.1643L14.6577 63.0711C14.9082 62.9896 15.0954 62.8794 15.2192 62.7405C15.3103 62.6452 15.3621 62.5156 15.3746 62.3519C15.3881 62.2349 15.3245 61.9598 15.1836 61.5267L13.3358 55.8454C13.1922 55.4038 13.079 55.1354 12.9964 55.0402C12.9138 54.945 12.7872 54.8805 12.6166 54.8468C12.4488 54.8075 12.244 54.8271 12.0019 54.9059L11.7153 54.9991L11.6387 54.7634L16.1544 53.2947L16.2311 53.5304L15.9445 53.6236C15.6939 53.7051 15.5067 53.8152 15.3829 53.9541C15.2918 54.0495 15.2379 54.1797 15.2212 54.3448C15.2076 54.4619 15.2713 54.737 15.4121 55.1701L16.2076 57.6158L19.2584 56.6236L18.463 54.1778C18.3193 53.7362 18.2062 53.4678 18.1236 53.3726C18.041 53.2774 17.9144 53.2129 17.7438 53.1792C17.5718 53.1413 17.3648 53.1616 17.1227 53.2404L16.8425 53.3315L16.7659 53.0958L21.2752 51.6292L21.3519 51.8649L21.0716 51.956C20.8169 52.0389 20.6297 52.149 20.5101 52.2866C20.419 52.3819 20.3651 52.5121 20.3484 52.6772C20.3348 52.7943 20.3985 53.0694 20.5393 53.5025L22.3871 59.1838C22.5308 59.6253 22.6439 59.8937 22.7265 59.989C22.8091 60.0842 22.9364 60.1507 23.1084 60.1887C23.279 60.2224 23.4853 60.1999 23.7274 60.1212L24.0076 60.0301L24.0842 60.2657L19.5749 61.7324L19.4982 61.4967L19.7785 61.4056C20.0332 61.3227 20.2204 61.2125 20.34 61.075C20.4311 60.9797 20.485 60.8495 20.5017 60.6844C20.5153 60.5673 20.4517 60.2922 20.3108 59.8591L19.4407 57.184L16.3899 58.1763Z" fill="#FBFBFB"/>
<path d="M25.3188 57.695C25.616 57.5983 25.9003 57.6209 26.1718 57.7627C26.4475 57.903 26.6331 58.1197 26.7284 58.4127C26.8236 58.7057 26.8011 58.99 26.6607 59.2658C26.5189 59.5373 26.3016 59.7206 26.0086 59.8159C25.7156 59.9112 25.4319 59.8908 25.1576 59.7547C24.8861 59.6129 24.7027 59.3955 24.6074 59.1025C24.5121 58.8095 24.5326 58.5259 24.6687 58.2515C24.8091 57.9758 25.0258 57.7903 25.3188 57.695Z" fill="#FBFBFB"/>
<path d="M32.2142 54.903L29.1634 55.8952L29.0738 56.854C29.046 57.1729 29.0619 57.4237 29.1212 57.6063C29.2 57.8483 29.3556 57.9949 29.5882 58.046C29.725 58.0766 30.0239 58.0357 30.4851 57.9233L30.5617 58.159L27.6892 59.0932L27.6126 58.8576C27.9073 58.7101 28.1207 58.4998 28.2526 58.2269C28.3831 57.9496 28.4878 57.4343 28.5667 56.6809L29.4144 48.7848L29.5354 48.7455L34.9535 54.8149C35.4689 55.3891 35.8505 55.7322 36.0982 55.8442C36.2853 55.9288 36.514 55.939 36.7842 55.8746L36.8608 56.1102L32.6826 57.4692L32.606 57.2335L32.778 57.1776C33.1134 57.0685 33.3339 56.9451 33.4394 56.8075C33.5107 56.7092 33.5256 56.5963 33.4842 56.469C33.4593 56.3925 33.421 56.3181 33.3693 56.2457C33.3484 56.2103 33.2329 56.0718 33.0229 55.8302L32.2142 54.903ZM31.8444 54.5021L29.5904 51.9462L29.233 55.3514L31.8444 54.5021Z" fill="#FBFBFB"/>
<path d="M38.0061 53.5685C38.3034 53.4719 38.5877 53.4944 38.8592 53.6362C39.1349 53.7766 39.3205 53.9932 39.4158 54.2862C39.511 54.5792 39.4885 54.8636 39.3481 55.1393C39.2063 55.4108 38.989 55.5942 38.696 55.6894C38.403 55.7847 38.1193 55.7643 37.845 55.6282C37.5735 55.4864 37.3901 55.269 37.2948 54.976C37.1995 54.6831 37.2199 54.3994 37.3561 54.1251C37.4965 53.8493 37.7132 53.6638 38.0061 53.5685Z" fill="#FBFBFB"/>
<path d="M46.1081 43.3342L47.0817 46.3276L46.8334 46.4084C46.3924 45.6879 45.8495 45.2025 45.2046 44.9521C44.5598 44.7017 43.9146 44.6814 43.2692 44.8914C42.7299 45.0667 42.2857 45.3826 41.9364 45.839C41.5871 46.2953 41.3899 46.8078 41.3449 47.3766C41.2859 48.1047 41.3841 48.8616 41.6396 49.6471C41.891 50.4199 42.2179 51.093 42.6204 51.6663C43.0215 52.2355 43.4832 52.6159 44.0057 52.8075C44.5268 52.9948 45.1185 52.9808 45.7809 52.7654C46.3244 52.5886 46.7825 52.3081 47.1553 51.9239C47.5323 51.5384 47.8767 50.9733 48.1885 50.2286L48.4309 50.9738C48.1112 51.6365 47.7254 52.1681 47.2734 52.5687C46.8243 52.9636 46.2495 53.275 45.5489 53.5028C44.6275 53.8025 43.7479 53.8844 42.9102 53.7483C42.0767 53.6109 41.3521 53.2597 40.7363 52.6947C40.1248 52.1282 39.692 51.4544 39.4379 50.6731C39.17 49.8493 39.1303 48.9983 39.3188 48.12C39.5116 47.2403 39.9069 46.4779 40.5047 45.8328C41.1067 45.1862 41.8195 44.729 42.6433 44.4611C43.2505 44.2636 43.9345 44.1867 44.6952 44.2304C45.1356 44.2562 45.4088 44.2518 45.515 44.2173C45.6509 44.1731 45.7518 44.0863 45.8176 43.9568C45.8864 43.8218 45.9004 43.6412 45.8597 43.4149L46.1081 43.3342Z" fill="#FBFBFB"/>
<path d="M50.6935 49.442C50.9908 49.3454 51.2751 49.3679 51.5466 49.5097C51.8223 49.6501 52.0079 49.8668 52.1031 50.1597C52.1984 50.4527 52.1759 50.7371 52.0355 51.0128C51.8937 51.2843 51.6763 51.4677 51.3834 51.563C51.0904 51.6583 50.8067 51.6378 50.5324 51.5017C50.2609 51.3599 50.0775 51.1425 49.9822 50.8496C49.8869 50.5566 49.9073 50.2729 50.0435 49.9986C50.1839 49.7228 50.4006 49.5373 50.6935 49.442Z" fill="#FBFBFB"/>
<path d="M58.7955 39.2077L59.7691 42.2012L59.5207 42.282C59.0798 41.5614 58.5369 41.076 57.892 40.8256C57.2472 40.5752 56.602 40.555 55.9566 40.7649C55.4173 40.9403 54.9731 41.2561 54.6238 41.7125C54.2745 42.1688 54.0773 42.6814 54.0322 43.2501C53.9733 43.9782 54.0715 44.7351 54.327 45.5206C54.5784 46.2934 54.9053 46.9665 55.3078 47.5399C55.7089 48.109 56.1706 48.4894 56.6931 48.681C57.2142 48.8683 57.8059 48.8543 58.4683 48.6389C59.0118 48.4621 59.4699 48.1816 59.8427 47.7975C60.2197 47.4119 60.5641 46.8468 60.8759 46.1021L61.1183 46.8473C60.7986 47.51 60.4128 48.0417 59.9608 48.4422C59.5117 48.8371 58.9369 49.1485 58.2363 49.3764C57.3149 49.676 56.4353 49.7579 55.5976 49.6219C54.7641 49.4845 54.0394 49.1332 53.4237 48.5682C52.8122 48.0017 52.3794 47.3279 52.1253 46.5466C51.8574 45.7229 51.8177 44.8718 52.0062 43.9935C52.199 43.1139 52.5943 42.3514 53.1921 41.7063C53.7941 41.0597 54.5069 40.6025 55.3307 40.3346C55.9379 40.1371 56.6219 40.0602 57.3826 40.1039C57.823 40.1297 58.0962 40.1253 58.2024 40.0908C58.3383 40.0466 58.4391 39.9598 58.505 39.8304C58.5738 39.6953 58.5878 39.5147 58.5471 39.2885L58.7955 39.2077Z" fill="#FBFBFB"/>
<path d="M63.3809 45.3156C63.6782 45.2189 63.9625 45.2414 64.234 45.3832C64.5097 45.5236 64.6953 45.7403 64.7905 46.0333C64.8858 46.3262 64.8633 46.6106 64.7229 46.8863C64.5811 47.1578 64.3638 47.3412 64.0708 47.4365C63.7778 47.5318 63.4941 47.5113 63.2198 47.3752C62.9483 47.2334 62.7649 47.0161 62.6696 46.7231C62.5743 46.4301 62.5947 46.1464 62.7309 45.8721C62.8713 45.5964 63.088 45.4109 63.3809 45.3156Z" fill="#FBFBFB"/>
<path d="M67.8997 41.6907L68.6786 44.0855C68.8305 44.5526 68.9541 44.8387 69.0494 44.9439C69.1475 45.0435 69.2805 45.1059 69.4483 45.1311C69.6204 45.1549 69.9018 45.1033 70.2924 44.9763L70.369 45.2119L65.9807 46.6392L65.904 46.4036C66.3032 46.2738 66.5611 46.15 66.6777 46.0322C66.7972 45.9088 66.8652 45.7787 66.8818 45.6419C66.9025 45.5036 66.837 45.201 66.6851 44.7339L64.8621 39.1291C64.7102 38.662 64.5852 38.3787 64.4871 38.2792C64.3918 38.174 64.2603 38.1088 64.0924 38.0835C63.9246 38.0583 63.6432 38.1099 63.2483 38.2384L63.1717 38.0027L66.9359 36.7784C68.1757 36.3752 69.1371 36.3066 69.82 36.5728C70.5029 36.839 70.952 37.3033 71.1675 37.9657C71.3498 38.5262 71.3317 39.0626 71.1134 39.575C70.895 40.0874 70.5036 40.5152 69.9391 40.8584C69.5604 41.0943 68.8806 41.3717 67.8997 41.6907ZM66.5242 37.4617L67.7381 41.194C67.881 41.1569 67.9886 41.1266 68.0607 41.1031C68.5788 40.9346 68.9282 40.652 69.109 40.2551C69.2884 39.854 69.2732 39.3307 69.0633 38.6853C68.8547 38.0442 68.562 37.6205 68.1851 37.4145C67.8082 37.2084 67.3416 37.1958 66.7853 37.3767L66.5242 37.4617Z" fill="#FBFBFB"/>
<path d="M72.9857 42.1917C73.2829 42.095 73.5672 42.1176 73.8387 42.2593C74.1145 42.3997 74.3 42.6164 74.3953 42.9094C74.4906 43.2024 74.468 43.4867 74.3276 43.7625C74.1858 44.0339 73.9685 44.2173 73.6755 44.3126C73.3825 44.4079 73.0988 44.3875 72.8245 44.2513C72.553 44.1096 72.3696 43.8922 72.2743 43.5992C72.179 43.3062 72.1995 43.0226 72.3356 42.7482C72.476 42.4725 72.6927 42.287 72.9857 42.1917Z" fill="#FBFBFB"/>
</g>
</g>
<g id="Group 44">
<g id="Ellipse 76">
<path d="M77.6703 47.3622C77.6703 66.2439 62.3635 81.5506 43.4816 81.5506C24.5998 81.5506 9.29297 66.2439 9.29297 47.3622C9.29297 28.4805 24.5998 13.1738 43.4816 13.1738C62.3635 13.1738 77.6703 28.4805 77.6703 47.3622Z" stroke="#0F0F0F" stroke-width="1.5"/>
<path d="M77.6703 47.3622C77.6703 66.2439 62.3635 81.5506 43.4816 81.5506C24.5998 81.5506 9.29297 66.2439 9.29297 47.3622C9.29297 28.4805 24.5998 13.1738 43.4816 13.1738C62.3635 13.1738 77.6703 28.4805 77.6703 47.3622Z" stroke="black" stroke-opacity="0.2" stroke-width="1.5"/>
</g>
<g id="Ellipse 77">
<path d="M64.4705 46.9753C64.4705 58.7818 54.8993 68.3529 43.0927 68.3529C31.286 68.3529 21.7148 58.7818 21.7148 46.9753C21.7148 35.1688 31.286 25.5977 43.0927 25.5977C54.8993 25.5977 64.4705 35.1688 64.4705 46.9753Z" stroke="#0F0F0F" stroke-width="1.5"/>
<path d="M64.4705 46.9753C64.4705 58.7818 54.8993 68.3529 43.0927 68.3529C31.286 68.3529 21.7148 58.7818 21.7148 46.9753C21.7148 35.1688 31.286 25.5977 43.0927 25.5977C54.8993 25.5977 64.4705 35.1688 64.4705 46.9753Z" stroke="black" stroke-opacity="0.2" stroke-width="1.5"/>
</g>
</g>
<g id="&#209;&#132;&#209;&#128;&#209;&#131;&#208;&#186;&#209;&#130;&#208;&#184;">
<g id="Vector">
<path d="M15.5057 44.8655C14.9316 44.7202 14.4525 44.4668 14.0683 44.1053C13.6785 43.7423 13.4154 43.3086 13.2787 42.8042C13.138 42.2928 13.1389 41.7557 13.2814 41.1927C13.456 40.5027 13.7876 39.9582 14.2763 39.5592C14.7649 39.1601 15.3448 38.9575 16.0159 38.9511L15.622 40.5077C15.3498 40.5621 15.123 40.6809 14.9415 40.864C14.7615 41.0416 14.6372 41.2657 14.5688 41.5361C14.4584 41.9722 14.5208 42.3639 14.7559 42.7112C14.991 43.0584 15.3625 43.2964 15.8703 43.4249C16.3781 43.5534 16.818 43.5209 17.1901 43.3272C17.5621 43.1336 17.8033 42.8188 17.9137 42.3827C17.9821 42.1123 17.9794 41.8561 17.9056 41.6142C17.8331 41.3668 17.6901 41.1544 17.4766 40.9771L17.8705 39.4205C18.4579 39.7454 18.8715 40.1995 19.1115 40.783C19.3459 41.365 19.3758 42.001 19.2012 42.691C19.0587 43.254 18.8067 43.7276 18.4451 44.1118C18.0795 44.4891 17.6416 44.7454 17.1317 44.8806C16.6217 45.0158 16.0797 45.0108 15.5057 44.8655Z" fill="#0F0F0F"/>
<path d="M15.5057 44.8655C14.9316 44.7202 14.4525 44.4668 14.0683 44.1053C13.6785 43.7423 13.4154 43.3086 13.2787 42.8042C13.138 42.2928 13.1389 41.7557 13.2814 41.1927C13.456 40.5027 13.7876 39.9582 14.2763 39.5592C14.7649 39.1601 15.3448 38.9575 16.0159 38.9511L15.622 40.5077C15.3498 40.5621 15.123 40.6809 14.9415 40.864C14.7615 41.0416 14.6372 41.2657 14.5688 41.5361C14.4584 41.9722 14.5208 42.3639 14.7559 42.7112C14.991 43.0584 15.3625 43.2964 15.8703 43.4249C16.3781 43.5534 16.818 43.5209 17.1901 43.3272C17.5621 43.1336 17.8033 42.8188 17.9137 42.3827C17.9821 42.1123 17.9794 41.8561 17.9056 41.6142C17.8331 41.3668 17.6901 41.1544 17.4766 40.9771L17.8705 39.4205C18.4579 39.7454 18.8715 40.1995 19.1115 40.783C19.3459 41.365 19.3758 42.001 19.2012 42.691C19.0587 43.254 18.8067 43.7276 18.4451 44.1118C18.0795 44.4891 17.6416 44.7454 17.1317 44.8806C16.6217 45.0158 16.0797 45.0108 15.5057 44.8655Z" fill="black" fill-opacity="0.2"/>
<path d="M16.5556 34.6669L17.6422 35.2055L18.5108 33.4532L19.5209 33.9539L18.6522 35.7062L19.8306 36.2903L20.8131 34.3085L21.8614 34.8282L20.2303 38.1185L14.8586 35.4557L16.4897 32.1653L17.538 32.685L16.5556 34.6669Z" fill="#0F0F0F"/>
<path d="M16.5556 34.6669L17.6422 35.2055L18.5108 33.4532L19.5209 33.9539L18.6522 35.7062L19.8306 36.2903L20.8131 34.3085L21.8614 34.8282L20.2303 38.1185L14.8586 35.4557L16.4897 32.1653L17.538 32.685L16.5556 34.6669Z" fill="black" fill-opacity="0.2"/>
<path d="M24.8009 30.7434L22.2676 30.2339L22.0415 30.5013L23.7696 31.9628L22.8265 33.0779L18.2487 29.2063L19.8315 27.3348C20.1367 26.9739 20.4589 26.7208 20.7983 26.5752C21.1413 26.4254 21.4769 26.3812 21.8053 26.4426C22.1293 26.5004 22.4261 26.6432 22.6956 26.8712C22.9999 27.1285 23.1981 27.4453 23.2901 27.8214C23.3858 28.1932 23.3421 28.5887 23.159 29.008L25.8653 29.4848L24.8009 30.7434ZM21.2524 29.834L21.837 29.1427C22.0098 28.9384 22.0885 28.744 22.0731 28.5594C22.0614 28.3705 21.9642 28.1989 21.7816 28.0444C21.6077 27.8974 21.4266 27.8337 21.2384 27.8535C21.0539 27.8689 20.8752 27.9788 20.7024 28.1831L20.1178 28.8743L21.2524 29.834Z" fill="#0F0F0F"/>
<path d="M24.8009 30.7434L22.2676 30.2339L22.0415 30.5013L23.7696 31.9628L22.8265 33.0779L18.2487 29.2063L19.8315 27.3348C20.1367 26.9739 20.4589 26.7208 20.7983 26.5752C21.1413 26.4254 21.4769 26.3812 21.8053 26.4426C22.1293 26.5004 22.4261 26.6432 22.6956 26.8712C22.9999 27.1285 23.1981 27.4453 23.2901 27.8214C23.3858 28.1932 23.3421 28.5887 23.159 29.008L25.8653 29.4848L24.8009 30.7434ZM21.2524 29.834L21.837 29.1427C22.0098 28.9384 22.0885 28.744 22.0731 28.5594C22.0614 28.3705 21.9642 28.1989 21.7816 28.0444C21.6077 27.8974 21.4266 27.8337 21.2384 27.8535C21.0539 27.8689 20.8752 27.9788 20.7024 28.1831L20.1178 28.8743L21.2524 29.834Z" fill="black" fill-opacity="0.2"/>
<path d="M27.6141 20.9356L28.2737 21.9021L26.9616 22.7975L29.6817 26.7832L28.4754 27.6064L25.7553 23.6208L24.4432 24.5162L23.7836 23.5498L27.6141 20.9356Z" fill="#0F0F0F"/>
<path d="M27.6141 20.9356L28.2737 21.9021L26.9616 22.7975L29.6817 26.7832L28.4754 27.6064L25.7553 23.6208L24.4432 24.5162L23.7836 23.5498L27.6141 20.9356Z" fill="black" fill-opacity="0.2"/>
<path d="M31.8038 19.0283L34.0121 24.6021L32.6544 25.1401L30.446 19.5662L31.8038 19.0283Z" fill="#0F0F0F"/>
<path d="M31.8038 19.0283L34.0121 24.6021L32.6544 25.1401L30.446 19.5662L31.8038 19.0283Z" fill="black" fill-opacity="0.2"/>
<path d="M39.9673 16.6569L40.2106 17.8014L37.8215 18.3095L38.0844 19.5458L39.8721 19.1656L40.1084 20.2767L38.3207 20.6569L38.8252 23.0293L37.3967 23.3331L36.1496 17.4688L39.9673 16.6569Z" fill="#0F0F0F"/>
<path d="M39.9673 16.6569L40.2106 17.8014L37.8215 18.3095L38.0844 19.5458L39.8721 19.1656L40.1084 20.2767L38.3207 20.6569L38.8252 23.0293L37.3967 23.3331L36.1496 17.4688L39.9673 16.6569Z" fill="black" fill-opacity="0.2"/>
<path d="M46.7361 16.752L45.9582 22.6967L44.5101 22.5072L45.288 16.5625L46.7361 16.752Z" fill="#0F0F0F"/>
<path d="M46.7361 16.752L45.9582 22.6967L44.5101 22.5072L45.288 16.5625L46.7361 16.752Z" fill="black" fill-opacity="0.2"/>
<path d="M52.7487 19.6415L52.3701 20.7936L54.2281 21.4042L53.8762 22.4752L52.0181 21.8646L51.6075 23.1141L53.709 23.8047L53.3437 24.9162L49.8548 23.7698L51.7265 18.074L55.2154 19.2205L54.8501 20.332L52.7487 19.6415Z" fill="#0F0F0F"/>
<path d="M52.7487 19.6415L52.3701 20.7936L54.2281 21.4042L53.8762 22.4752L52.0181 21.8646L51.6075 23.1141L53.709 23.8047L53.3437 24.9162L49.8548 23.7698L51.7265 18.074L55.2154 19.2205L54.8501 20.332L52.7487 19.6415Z" fill="black" fill-opacity="0.2"/>
<path d="M61.4938 23.0783C61.9928 23.4661 62.3521 23.9039 62.5715 24.3917C62.791 24.8794 62.8621 25.3818 62.7849 25.8986C62.7158 26.4145 62.4995 26.9063 62.1362 27.3738C61.7763 27.8369 61.3533 28.1679 60.867 28.3669C60.3852 28.5694 59.8786 28.6228 59.3472 28.5272C58.8203 28.435 58.3096 28.1968 57.8151 27.8125L56.0414 26.4343L59.7201 21.7001L61.4938 23.0783ZM58.5164 26.7568C58.9526 27.0956 59.3846 27.2403 59.8125 27.1906C60.2405 27.141 60.6239 26.8981 60.9627 26.462C61.3016 26.0259 61.444 25.5922 61.3898 25.1607C61.3357 24.7293 61.0906 24.3441 60.6545 24.0053L60.1082 23.5808L57.9702 26.3323L58.5164 26.7568Z" fill="#0F0F0F"/>
<path d="M61.4938 23.0783C61.9928 23.4661 62.3521 23.9039 62.5715 24.3917C62.791 24.8794 62.8621 25.3818 62.7849 25.8986C62.7158 26.4145 62.4995 26.9063 62.1362 27.3738C61.7763 27.8369 61.3533 28.1679 60.867 28.3669C60.3852 28.5694 59.8786 28.6228 59.3472 28.5272C58.8203 28.435 58.3096 28.1968 57.8151 27.8125L56.0414 26.4343L59.7201 21.7001L61.4938 23.0783ZM58.5164 26.7568C58.9526 27.0956 59.3846 27.2403 59.8125 27.1906C60.2405 27.141 60.6239 26.8981 60.9627 26.462C61.3016 26.0259 61.444 25.5922 61.3898 25.1607C61.3357 24.7293 61.0906 24.3441 60.6545 24.0053L60.1082 23.5808L57.9702 26.3323L58.5164 26.7568Z" fill="black" fill-opacity="0.2"/>
</g>
</g>
<g id="Vector_2">
<path d="M28.3327 67.53L27.7271 68.2646L26.1204 67.0578L25.4662 67.8514L26.6683 68.7544L26.0804 69.4676L24.8782 68.5646L23.6227 70.0874L22.6621 69.3659L25.7655 65.6016L28.3327 67.53Z" fill="#0F0F0F"/>
<path d="M28.3327 67.53L27.7271 68.2646L26.1204 67.0578L25.4662 67.8514L26.6683 68.7544L26.0804 69.4676L24.8782 68.5646L23.6227 70.0874L22.6621 69.3659L25.7655 65.6016L28.3327 67.53Z" fill="black" fill-opacity="0.2"/>
<path d="M28.5767 74.0026C28.1698 73.7746 27.8513 73.4748 27.6211 73.1033C27.3951 72.734 27.2802 72.3321 27.2766 71.8975C27.2796 71.4614 27.4053 71.0413 27.6537 70.6372C27.9022 70.2331 28.224 69.9255 28.6191 69.7143C29.0183 69.5054 29.4418 69.4051 29.8898 69.4135C30.3419 69.4241 30.7714 69.5434 31.1783 69.7714C31.5852 69.9994 31.9017 70.298 32.1277 70.6673C32.3579 71.0388 32.4707 71.4396 32.466 71.8695C32.4655 72.3017 32.341 72.7199 32.0926 73.124C31.8441 73.5281 31.5211 73.8377 31.1236 74.0528C30.7285 74.264 30.307 74.3654 29.859 74.357C29.411 74.3487 28.9836 74.2305 28.5767 74.0026ZM29.1412 73.0845C29.4864 73.278 29.8293 73.3224 30.1699 73.2178C30.5146 73.1156 30.7979 72.884 31.0198 72.523C31.2442 72.1582 31.3179 71.8091 31.2409 71.4759C31.1705 71.1411 30.9627 70.877 30.6175 70.6835C30.2681 70.4878 29.9223 70.4391 29.58 70.5375C29.2418 70.6381 28.9594 70.8728 28.7326 71.2416C28.5083 71.6065 28.4313 71.9563 28.5017 72.2912C28.5787 72.6244 28.7918 72.8888 29.1412 73.0845Z" fill="#0F0F0F"/>
<path d="M28.5767 74.0026C28.1698 73.7746 27.8513 73.4748 27.6211 73.1033C27.3951 72.734 27.2802 72.3321 27.2766 71.8975C27.2796 71.4614 27.4053 71.0413 27.6537 70.6372C27.9022 70.2331 28.224 69.9255 28.6191 69.7143C29.0183 69.5054 29.4418 69.4051 29.8898 69.4135C30.3419 69.4241 30.7714 69.5434 31.1783 69.7714C31.5852 69.9994 31.9017 70.298 32.1277 70.6673C32.3579 71.0388 32.4707 71.4396 32.466 71.8695C32.4655 72.3017 32.341 72.7199 32.0926 73.124C31.8441 73.5281 31.5211 73.8377 31.1236 74.0528C30.7285 74.264 30.307 74.3654 29.859 74.357C29.411 74.3487 28.9836 74.2305 28.5767 74.0026ZM29.1412 73.0845C29.4864 73.278 29.8293 73.3224 30.1699 73.2178C30.5146 73.1156 30.7979 72.884 31.0198 72.523C31.2442 72.1582 31.3179 71.8091 31.2409 71.4759C31.1705 71.1411 30.9627 70.877 30.6175 70.6835C30.2681 70.4878 29.9223 70.4391 29.58 70.5375C29.2418 70.6381 28.9594 70.8728 28.7326 71.2416C28.5083 71.6065 28.4313 71.9563 28.5017 72.2912C28.5787 72.6244 28.7918 72.8888 29.1412 73.0845Z" fill="black" fill-opacity="0.2"/>
<path d="M35.1326 76.3641C34.6717 76.2678 34.2714 76.0772 33.9319 75.7921C33.5969 75.508 33.3572 75.1599 33.2125 74.7479C33.0736 74.3324 33.0565 73.8958 33.1614 73.438C33.2663 72.9803 33.4722 72.5926 33.7791 72.2748C34.0907 71.958 34.4608 71.7373 34.8894 71.6125C35.3227 71.4888 35.7698 71.475 36.2307 71.5712C36.6916 71.6674 37.0895 71.8576 37.4244 72.1417C37.764 72.4268 38.0014 72.7744 38.1368 73.1845C38.2767 73.5955 38.2943 74.0299 38.1894 74.4877C38.0846 74.9454 37.8781 75.3354 37.5702 75.6576C37.2632 75.9753 36.8954 76.1966 36.4668 76.3213C36.0382 76.446 35.5935 76.4603 35.1326 76.3641ZM35.3708 75.3242C35.7619 75.4058 36.1023 75.3465 36.3921 75.1462C36.6866 74.9469 36.8806 74.6429 36.9743 74.234C37.069 73.8207 37.0256 73.4671 36.8442 73.1731C36.6684 72.8756 36.385 72.6861 35.9939 72.6044C35.5982 72.5218 35.2536 72.578 34.9602 72.7728C34.6714 72.9686 34.4792 73.2754 34.3835 73.6932C34.2888 74.1064 34.3293 74.4618 34.5051 74.7593C34.6865 75.0533 34.9751 75.2416 35.3708 75.3242Z" fill="#0F0F0F"/>
<path d="M35.1326 76.3641C34.6717 76.2678 34.2714 76.0772 33.9319 75.7921C33.5969 75.508 33.3572 75.1599 33.2125 74.7479C33.0736 74.3324 33.0565 73.8958 33.1614 73.438C33.2663 72.9803 33.4722 72.5926 33.7791 72.2748C34.0907 71.958 34.4608 71.7373 34.8894 71.6125C35.3227 71.4888 35.7698 71.475 36.2307 71.5712C36.6916 71.6674 37.0895 71.8576 37.4244 72.1417C37.764 72.4268 38.0014 72.7744 38.1368 73.1845C38.2767 73.5955 38.2943 74.0299 38.1894 74.4877C38.0846 74.9454 37.8781 75.3354 37.5702 75.6576C37.2632 75.9753 36.8954 76.1966 36.4668 76.3213C36.0382 76.446 35.5935 76.4603 35.1326 76.3641ZM35.3708 75.3242C35.7619 75.4058 36.1023 75.3465 36.3921 75.1462C36.6866 74.9469 36.8806 74.6429 36.9743 74.234C37.069 73.8207 37.0256 73.4671 36.8442 73.1731C36.6684 72.8756 36.385 72.6861 35.9939 72.6044C35.5982 72.5218 35.2536 72.578 34.9602 72.7728C34.6714 72.9686 34.4792 73.2754 34.3835 73.6932C34.2888 74.1064 34.3293 74.4618 34.5051 74.7593C34.6865 75.0533 34.9751 75.2416 35.3708 75.3242Z" fill="black" fill-opacity="0.2"/>
<path d="M41.7802 72.7472C42.3058 72.804 42.7533 72.9531 43.1228 73.1945C43.4922 73.4358 43.762 73.7488 43.9322 74.1335C44.1077 74.5141 44.1676 74.9395 44.1118 75.4096C44.0566 75.8751 43.8986 76.277 43.6379 76.615C43.3819 76.9536 43.0433 77.2009 42.6219 77.3568C42.2053 77.5132 41.7365 77.5632 41.2156 77.5069L39.3475 77.305L39.9121 72.5453L41.7802 72.7472ZM41.2565 76.495C41.7158 76.5447 42.0876 76.4635 42.3717 76.2516C42.6558 76.0396 42.8239 75.7145 42.8759 75.276C42.9279 74.8375 42.8405 74.4825 42.6138 74.2107C42.387 73.939 42.044 73.7783 41.5846 73.7287L41.0093 73.6665L40.6812 76.4328L41.2565 76.495Z" fill="#0F0F0F"/>
<path d="M41.7802 72.7472C42.3058 72.804 42.7533 72.9531 43.1228 73.1945C43.4922 73.4358 43.762 73.7488 43.9322 74.1335C44.1077 74.5141 44.1676 74.9395 44.1118 75.4096C44.0566 75.8751 43.8986 76.277 43.6379 76.615C43.3819 76.9536 43.0433 77.2009 42.6219 77.3568C42.2053 77.5132 41.7365 77.5632 41.2156 77.5069L39.3475 77.305L39.9121 72.5453L41.7802 72.7472ZM41.2565 76.495C41.7158 76.5447 42.0876 76.4635 42.3717 76.2516C42.6558 76.0396 42.8239 75.7145 42.8759 75.276C42.9279 74.8375 42.8405 74.4825 42.6138 74.2107C42.387 73.939 42.044 73.7783 41.5846 73.7287L41.0093 73.6665L40.6812 76.4328L41.2565 76.495Z" fill="black" fill-opacity="0.2"/>
</g>
<g id="Vector_3">
<path d="M54.418 74.958C54.0939 75.0838 53.7822 75.146 53.483 75.1445C53.1838 75.1429 52.9147 75.0732 52.6757 74.9353C52.4409 74.7958 52.2607 74.588 52.135 74.3119L53.2841 73.8657C53.3672 74.017 53.475 74.1164 53.6075 74.1638C53.7382 74.2072 53.8815 74.1987 54.0372 74.1382C54.1972 74.0761 54.309 73.9926 54.3727 73.8879C54.4347 73.779 54.4394 73.6619 54.3867 73.5363C54.3425 73.4311 54.2681 73.3587 54.1635 73.3193C54.063 73.2783 53.9488 73.2567 53.8206 73.2547C53.6967 73.251 53.524 73.2593 53.3024 73.2794C52.9805 73.3055 52.7112 73.3112 52.4945 73.2965C52.2779 73.2817 52.0695 73.2167 51.8693 73.1014C51.6692 72.986 51.513 72.7948 51.4009 72.5276C51.2344 72.1308 51.2538 71.763 51.4592 71.4243C51.6629 71.0815 52.0046 70.817 52.4844 70.6307C52.9727 70.4411 53.4138 70.4016 53.8078 70.5123C54.2001 70.6189 54.4908 70.8686 54.6801 71.2612L53.5121 71.7148C53.4459 71.5804 53.3483 71.4935 53.2192 71.4542C53.0884 71.4108 52.9473 71.4185 52.7957 71.4774C52.6653 71.528 52.5745 71.6033 52.5234 71.7032C52.4706 71.799 52.4706 71.9097 52.5232 72.0352C52.581 72.1729 52.6934 72.254 52.8603 72.2786C53.0273 72.3033 53.2726 72.3045 53.5962 72.2825C53.9215 72.2644 54.1903 72.2636 54.4028 72.28C54.6195 72.2947 54.827 72.3577 55.0254 72.469C55.2239 72.5803 55.3766 72.7635 55.4837 73.0185C55.5856 73.2615 55.613 73.5075 55.5658 73.7565C55.5228 74.0039 55.4038 74.2337 55.209 74.446C55.0142 74.6582 54.7505 74.8288 54.418 74.958Z" fill="#0F0F0F"/>
<path d="M54.418 74.958C54.0939 75.0838 53.7822 75.146 53.483 75.1445C53.1838 75.1429 52.9147 75.0732 52.6757 74.9353C52.4409 74.7958 52.2607 74.588 52.135 74.3119L53.2841 73.8657C53.3672 74.017 53.475 74.1164 53.6075 74.1638C53.7382 74.2072 53.8815 74.1987 54.0372 74.1382C54.1972 74.0761 54.309 73.9926 54.3727 73.8879C54.4347 73.779 54.4394 73.6619 54.3867 73.5363C54.3425 73.4311 54.2681 73.3587 54.1635 73.3193C54.063 73.2783 53.9488 73.2567 53.8206 73.2547C53.6967 73.251 53.524 73.2593 53.3024 73.2794C52.9805 73.3055 52.7112 73.3112 52.4945 73.2965C52.2779 73.2817 52.0695 73.2167 51.8693 73.1014C51.6692 72.986 51.513 72.7948 51.4009 72.5276C51.2344 72.1308 51.2538 71.763 51.4592 71.4243C51.6629 71.0815 52.0046 70.817 52.4844 70.6307C52.9727 70.4411 53.4138 70.4016 53.8078 70.5123C54.2001 70.6189 54.4908 70.8686 54.6801 71.2612L53.5121 71.7148C53.4459 71.5804 53.3483 71.4935 53.2192 71.4542C53.0884 71.4108 52.9473 71.4185 52.7957 71.4774C52.6653 71.528 52.5745 71.6033 52.5234 71.7032C52.4706 71.799 52.4706 71.9097 52.5232 72.0352C52.581 72.1729 52.6934 72.254 52.8603 72.2786C53.0273 72.3033 53.2726 72.3045 53.5962 72.2825C53.9215 72.2644 54.1903 72.2636 54.4028 72.28C54.6195 72.2947 54.827 72.3577 55.0254 72.469C55.2239 72.5803 55.3766 72.7635 55.4837 73.0185C55.5856 73.2615 55.613 73.5075 55.5658 73.7565C55.5228 74.0039 55.4038 74.2337 55.209 74.446C55.0142 74.6582 54.7505 74.8288 54.418 74.958Z" fill="black" fill-opacity="0.2"/>
<path d="M59.9604 70.8106L58.4559 71.7325L58.6683 72.5653L57.6404 73.1951L56.5311 68.4237L57.6681 67.727L61.6945 70.7109L60.6551 71.3478L59.9604 70.8106ZM59.2249 70.2363L57.7852 69.1228L58.2314 70.8451L59.2249 70.2363Z" fill="#0F0F0F"/>
<path d="M59.9604 70.8106L58.4559 71.7325L58.6683 72.5653L57.6404 73.1951L56.5311 68.4237L57.6681 67.727L61.6945 70.7109L60.6551 71.3478L59.9604 70.8106ZM59.2249 70.2363L57.7852 69.1228L58.2314 70.8451L59.2249 70.2363Z" fill="black" fill-opacity="0.2"/>
<path d="M62.3744 63.603L63.0176 64.2529L61.6073 65.5444L62.3021 66.2464L63.3574 65.28L63.9818 65.9109L62.9265 66.8773L64.2598 68.2244L63.4166 68.9966L60.121 65.6668L62.3744 63.603Z" fill="#0F0F0F"/>
<path d="M62.3744 63.603L63.0176 64.2529L61.6073 65.5444L62.3021 66.2464L63.3574 65.28L63.9818 65.9109L62.9265 66.8773L64.2598 68.2244L63.4166 68.9966L60.121 65.6668L62.3744 63.603Z" fill="black" fill-opacity="0.2"/>
<path d="M64.5288 62.3814L65.3167 62.9203L66.2202 61.698L66.9526 62.199L66.0491 63.4213L66.9036 64.0058L67.9255 62.6234L68.6856 63.1433L66.9891 65.4384L63.0939 62.7742L64.7905 60.479L65.5506 60.999L64.5288 62.3814Z" fill="#0F0F0F"/>
<path d="M64.5288 62.3814L65.3167 62.9203L66.2202 61.698L66.9526 62.199L66.0491 63.4213L66.9036 64.0058L67.9255 62.6234L68.6856 63.1433L66.9891 65.4384L63.0939 62.7742L64.7905 60.479L65.5506 60.999L64.5288 62.3814Z" fill="black" fill-opacity="0.2"/>
<path d="M67.1091 56.0437L67.935 56.4607L67.3465 57.5393L70.7526 59.2589L70.2116 60.2506L66.8054 58.531L66.2169 59.6096L65.391 59.1926L67.1091 56.0437Z" fill="#0F0F0F"/>
<path d="M67.1091 56.0437L67.935 56.4607L67.3465 57.5393L70.7526 59.2589L70.2116 60.2506L66.8054 58.531L66.2169 59.6096L65.391 59.1926L67.1091 56.0437Z" fill="black" fill-opacity="0.2"/>
<path d="M68.5959 51.2891L71.2369 53.6457L72.7589 54.052L72.4476 55.1312L70.9256 54.7249L67.3997 55.4352L67.7529 54.2109L69.9293 53.8676L68.2464 52.5007L68.5959 51.2891Z" fill="#0F0F0F"/>
<path d="M68.5959 51.2891L71.2369 53.6457L72.7589 54.052L72.4476 55.1312L70.9256 54.7249L67.3997 55.4352L67.7529 54.2109L69.9293 53.8676L68.2464 52.5007L68.5959 51.2891Z" fill="black" fill-opacity="0.2"/>
</g>
</g>
</svg>
