<svg width="86" height="101" fill="none" xmlns="http://www.w3.org/2000/svg"><path d="M43.313 66.353h-5.99l6.682 19.352V99.99h5.76V85.705l6.22-19.352h-5.76L46.77 79.024l-3.456-12.671ZM63.358 66.123h-5.53v8.985l5.53-2.995v-5.99ZM82.25.236H67.505v34.559l14.745-4.377v-5.53l-9.216 2.534V19.36h7.834V14.52h-7.834V4.844h9.216V.236ZM43.544.236h-5.068v42.28l5.068-1.506V.236ZM16.589 10.137H11.75s-.026-1.485-.026-2.21c0-.691-.23-2.534-2.764-2.765-2.535-.23-4.583 3.132-3.226 6.682 1.843 2.304 5.437 3.271 7.834 4.377 2.396 1.106 3.148 3.38 3.225 4.377v27.554L.206 52.99V24.976h4.838V45.25l6.451-1.843V21.06c-2.027-1.106-6.887-3.088-8.27-4.24-5.068-4.839-3.48-12.809.436-15.343 2.995-1.843 6.22-2.074 9.677 0 2.97 1.781 3.712 5.436 3.25 8.661ZM81.993 75.656h-4.838v-1.843c0-.691-.23-2.534-2.764-2.765-2.535-.23-5.069 2.995-3.226 6.682C73.008 80.034 76.603 81 79 82.107c2.396 1.106 3.148 3.38 3.225 4.378V94c.025 1.382-3.016 6.22-7.808 6.22s-5.53-.921-5.53-.921c-.921-.538-3.271-2.58-3.455-4.608v-4.377h5.068c-.153 1.612.277 4.838 3.226 4.838s3.225-2.304 3.225-3.686c0 0 .23-4.147 0-4.378-.23-.23-.69-.46-.69-.46-2.028-1.107-5.786-2.678-7.169-3.83-5.759-5.529-3.916-12.901 0-15.436 2.995-1.843 6.22-2.073 9.677 0 2.97 1.782 3.456 6.144 3.225 8.294ZM25.573.236h-5.298l.23 47.455 14.975-4.608V25.12h-5.299v13.593l-4.608 1.152V.236ZM58.29 9.913h5.068c.23-3.917-.922-10.13-8.064-9.907-5.898.184-7.603 4.378-7.833 7.022v33.06l15.666-4.608.23-10.361H58.06v5.99l-5.53 1.612V9.913c0-2.073.23-5.068 2.996-5.068 2.764 0 2.841 3.378 2.764 5.068Z" fill="#0F0F0F"/><path fill-rule="evenodd" clip-rule="evenodd" d="m67.339 38.712 4.838-1.613c.307 1.613 1.06 4.884 1.613 5.069.553.184 1.856-1.613 2.47-2.535l.064-2.073v-1.383l4.378-1.152c.153 1.536.276 4.839-.461 5.76-.737.922-3.226 3.763-4.378 5.069l4.378 5.99 2.995-2.765 2.765 2.995-3.917 3.917 3.917 5.53h-5.53l-1.382-2.074c-.691.768-2.81 2.35-5.76 2.534-2.949.184-5.53-2.304-6.681-4.377-.922-2.304-1.383-6.451.921-8.986l2.765-3.225c-.922-1.69-2.81-5.391-2.995-6.681Zm5.385 10.137 4.378 6.45c-.461.922-1.797 2.72-3.456 2.535-1.66-.184-2.685-1.382-2.915-2.304a21.456 21.456 0 0 0-.051-.478c-.174-1.506-.379-3.292 2.044-6.203ZM0 66.127v34.324h9.583c1.169 0 5.843-2.116 6.544-6.583V72.945c-.233-2.194-2.15-6.677-7.946-7.053H0v.235Zm5.53 5.303c1.445-.075 4.373.315 4.524 2.48.15 2.164.063 13.225 0 18.486-.126.977-1.207 2.84-4.525 2.48V71.43ZM20.274 66.353h10.598c1.843.389 5.53 2.149 5.53 6.073v6.307c0 1.673-1.152 4.765-3.917 6.073l5.3 15.184h-5.76l-3.917-13.782h-2.765l-.23 13.782h-4.839V66.353Zm4.608 4.713v10.032c4.471-.227 4.727-.274 5.749-2.09 1.021-1.815.78-5.219.212-6.127l-.054-.088c-.563-.907-1.372-2.214-5.907-1.727Z" fill="#0F0F0F"/></svg>