<svg width="119" height="138" fill="none" xmlns="http://www.w3.org/2000/svg"><path d="M59.933 91.156h-8.289l9.246 26.587v19.624h7.97v-19.624l8.607-26.587h-7.97l-4.782 17.409-4.782-17.409ZM87.669 90.84h-7.651v12.344l7.65-4.115v-8.23ZM113.81.324H93.407v47.477l20.403-6.014v-7.596l-12.752 3.482V26.595h10.839v-6.647h-10.839V6.654h12.752V.324ZM60.253.324h-7.014v58.084l7.014-2.069V.324ZM22.954 13.926h-6.695s-.035-2.04-.035-3.036c0-.95-.319-3.482-3.825-3.798-3.507-.317-6.342 4.302-4.464 9.179 2.55 3.165 7.524 4.494 10.84 6.013 3.315 1.52 4.356 4.643 4.463 6.014v37.853L.284 72.798V34.312H6.98v27.853l8.926-2.532V28.93c-2.805-1.52-9.529-4.243-11.442-5.826C-2.551 16.46-.353 5.51 5.066 2.027c4.144-2.532 8.607-2.848 13.389 0 4.109 2.448 5.136 7.468 4.499 11.9ZM113.456 103.937l-6.694.001v-2.533c0-.949-.319-3.481-3.826-3.798-3.507-.316-7.013 4.115-4.463 9.179 2.55 3.165 7.524 4.495 10.839 6.014 3.316 1.519 4.357 4.642 4.463 6.014v10.324c.035 1.899-4.173 8.546-10.804 8.546-6.63 0-7.651-1.266-7.651-1.266-1.275-.739-4.527-3.545-4.782-6.33v-6.014h7.014c-.213 2.215.382 6.647 4.463 6.647 4.08 0 4.463-3.165 4.463-5.065 0 0 .319-5.697 0-6.013-.318-.315-.956-.633-.956-.633-2.806-1.52-8.005-3.678-9.919-5.261-7.969-7.596-5.418-17.724 0-21.206 4.145-2.532 8.608-2.849 13.39 0 4.109 2.447 4.782 8.44 4.463 11.394ZM35.386.324h-7.332l.319 65.194 20.721-6.33v-24.68h-7.332v18.674l-6.376 1.583V.325ZM80.655 13.618h7.014C87.988 8.238 86.394-.298 76.51.008c-8.161.253-10.52 6.014-10.84 9.647v45.418l21.679-6.33.319-14.235h-7.332v8.23l-7.652 2.215V13.618c0-2.848.32-6.963 4.145-6.963 3.825 0 3.932 4.642 3.825 6.963Z" fill="#FBFBFB"/><path fill-rule="evenodd" clip-rule="evenodd" d="m93.177 53.181 6.695-2.215c.425 2.215 1.466 6.71 2.231 6.963.766.253 2.568-2.215 3.419-3.482l.088-2.848v-1.9l6.057-1.582c.213 2.11.383 6.647-.637 7.913s-4.463 5.17-6.057 6.963l6.057 8.23 4.144-3.799L119 71.54l-5.42 5.38 5.42 7.597h-7.651l-1.913-2.848c-.957 1.055-3.89 3.228-7.97 3.481-4.08.254-7.651-3.165-9.245-6.014-1.276-3.165-1.913-8.862 1.275-12.344l3.825-4.43c-1.275-2.322-3.889-7.407-4.144-9.18Zm7.452 13.927 6.057 8.862c-.638 1.267-2.487 3.735-4.782 3.482-2.295-.253-3.715-1.899-4.033-3.165-.02-.216-.046-.434-.072-.658-.24-2.069-.523-4.521 2.83-8.521ZM0 90.846v47.155h13.26c1.617 0 8.086-2.907 9.056-9.044v-28.744c-.324-3.015-2.976-9.173-10.996-9.69H0v.323Zm7.651 7.285c2-.103 6.052.434 6.26 3.407.21 2.973.088 18.17 0 25.396-.173 1.342-1.669 3.903-6.26 3.407v-32.21ZM28.054 91.156h14.664c2.55.535 7.651 2.953 7.651 8.344v8.664c0 2.3-1.593 6.547-5.42 8.344l7.333 20.859h-7.97l-5.42-18.933h-3.825l-.319 18.933h-6.694v-46.21Zm6.376 6.476v13.781c6.186-.311 6.54-.376 7.954-2.87 1.414-2.494 1.08-7.17.294-8.417l-.075-.122c-.778-1.246-1.899-3.042-8.173-2.372Z" fill="#FBFBFB"/></svg>