<svg width="72" height="82" viewBox="0 0 72 82" fill="none" xmlns="http://www.w3.org/2000/svg">
<g id="Vector">
<path d="M13.8864 81.8894V73.9915H18.6352V74.8653H14.8944V77.3321H16.0816C16.8805 77.3321 17.5003 77.4316 17.9408 77.6307C18.3813 77.8224 18.6875 78.0879 18.8592 78.4271C19.0309 78.759 19.1168 79.1424 19.1168 79.5775C19.1168 80.0569 19.0197 80.4698 18.8256 80.8164C18.6389 81.163 18.3328 81.4285 17.9072 81.6128C17.4816 81.7972 16.9216 81.8894 16.2272 81.8894H13.8864ZM16.1264 81.0376C16.8432 81.0376 17.3472 80.9197 17.6384 80.6837C17.9296 80.4403 18.0752 80.0716 18.0752 79.5775C18.0752 79.2383 18.0043 78.9691 17.8624 78.77C17.728 78.5636 17.504 78.4161 17.1904 78.3276C16.8843 78.2391 16.4736 78.1948 15.9584 78.1948H14.8944V81.0376H16.1264Z" fill="#0F0F0F"/>
<path d="M13.8864 81.8894V73.9915H18.6352V74.8653H14.8944V77.3321H16.0816C16.8805 77.3321 17.5003 77.4316 17.9408 77.6307C18.3813 77.8224 18.6875 78.0879 18.8592 78.4271C19.0309 78.759 19.1168 79.1424 19.1168 79.5775C19.1168 80.0569 19.0197 80.4698 18.8256 80.8164C18.6389 81.163 18.3328 81.4285 17.9072 81.6128C17.4816 81.7972 16.9216 81.8894 16.2272 81.8894H13.8864ZM16.1264 81.0376C16.8432 81.0376 17.3472 80.9197 17.6384 80.6837C17.9296 80.4403 18.0752 80.0716 18.0752 79.5775C18.0752 79.2383 18.0043 78.9691 17.8624 78.77C17.728 78.5636 17.504 78.4161 17.1904 78.3276C16.8843 78.2391 16.4736 78.1948 15.9584 78.1948H14.8944V81.0376H16.1264Z" fill="black" fill-opacity="0.2"/>
<path d="M22.961 75.8498C23.4762 75.8498 23.9168 75.9604 24.2826 76.1817C24.656 76.4029 24.9397 76.7163 25.1338 77.1219C25.3354 77.5201 25.4362 77.9884 25.4362 78.5267V79.113H21.3258C21.3408 79.784 21.5125 80.2965 21.841 80.6505C22.177 80.9971 22.6437 81.1704 23.241 81.1704C23.6218 81.1704 23.9578 81.1372 24.249 81.0708C24.5477 80.9971 24.8538 80.8938 25.1674 80.7611V81.6128C24.8613 81.7456 24.5589 81.8414 24.2602 81.9004C23.9616 81.9668 23.6069 82 23.1962 82C22.6288 82 22.1248 81.8857 21.6842 81.6571C21.2512 81.4285 20.9114 81.0893 20.665 80.6394C20.4261 80.1822 20.3066 79.6255 20.3066 78.9692C20.3066 78.3202 20.4149 77.7635 20.6314 77.2989C20.8554 76.8343 21.1653 76.4766 21.561 76.2259C21.9642 75.9752 22.4309 75.8498 22.961 75.8498ZM22.9498 76.6462C22.4794 76.6462 22.1061 76.7974 21.8298 77.0998C21.561 77.3947 21.4005 77.8077 21.3482 78.3386H24.4058C24.4058 77.9994 24.3536 77.7045 24.249 77.4537C24.1445 77.203 23.984 77.0076 23.7674 76.8675C23.5584 76.72 23.2858 76.6462 22.9498 76.6462Z" fill="#0F0F0F"/>
<path d="M22.961 75.8498C23.4762 75.8498 23.9168 75.9604 24.2826 76.1817C24.656 76.4029 24.9397 76.7163 25.1338 77.1219C25.3354 77.5201 25.4362 77.9884 25.4362 78.5267V79.113H21.3258C21.3408 79.784 21.5125 80.2965 21.841 80.6505C22.177 80.9971 22.6437 81.1704 23.241 81.1704C23.6218 81.1704 23.9578 81.1372 24.249 81.0708C24.5477 80.9971 24.8538 80.8938 25.1674 80.7611V81.6128C24.8613 81.7456 24.5589 81.8414 24.2602 81.9004C23.9616 81.9668 23.6069 82 23.1962 82C22.6288 82 22.1248 81.8857 21.6842 81.6571C21.2512 81.4285 20.9114 81.0893 20.665 80.6394C20.4261 80.1822 20.3066 79.6255 20.3066 78.9692C20.3066 78.3202 20.4149 77.7635 20.6314 77.2989C20.8554 76.8343 21.1653 76.4766 21.561 76.2259C21.9642 75.9752 22.4309 75.8498 22.961 75.8498ZM22.9498 76.6462C22.4794 76.6462 22.1061 76.7974 21.8298 77.0998C21.561 77.3947 21.4005 77.8077 21.3482 78.3386H24.4058C24.4058 77.9994 24.3536 77.7045 24.249 77.4537C24.1445 77.203 23.984 77.0076 23.7674 76.8675C23.5584 76.72 23.2858 76.6462 22.9498 76.6462Z" fill="black" fill-opacity="0.2"/>
<path d="M28.5437 75.8498C28.9992 75.8498 29.3949 75.9125 29.7309 76.0379C30.0669 76.1559 30.3282 76.3328 30.5149 76.5688C30.7016 76.7974 30.7949 77.0776 30.7949 77.4095C30.7949 77.7708 30.6941 78.0584 30.4925 78.2723C30.2909 78.4788 30.0146 78.6299 29.6637 78.7258V78.77C29.9026 78.8364 30.1229 78.9286 30.3245 79.0466C30.5261 79.1646 30.6866 79.3194 30.8061 79.5112C30.933 79.7029 30.9965 79.9499 30.9965 80.2523C30.9965 80.5768 30.9032 80.8717 30.7165 81.1372C30.5373 81.4027 30.2573 81.6128 29.8765 81.7677C29.5032 81.9226 29.0216 82 28.4317 82C28.148 82 27.8754 81.9852 27.6141 81.9557C27.3602 81.9263 27.1288 81.882 26.9197 81.823C26.7181 81.764 26.5389 81.694 26.3821 81.6128V80.739C26.636 80.857 26.9346 80.9639 27.2781 81.0598C27.629 81.1556 28.0098 81.2036 28.4205 81.2036C28.7192 81.2036 28.988 81.1704 29.2269 81.104C29.4733 81.0376 29.6674 80.9344 29.8093 80.7943C29.9512 80.6468 30.0221 80.4477 30.0221 80.197C30.0221 79.9684 29.9586 79.784 29.8317 79.6439C29.7048 79.4964 29.5144 79.3858 29.2605 79.3121C29.0141 79.2383 28.6968 79.2014 28.3085 79.2014H27.5021V78.405H28.1517C28.6669 78.405 29.0776 78.3386 29.3837 78.2059C29.6973 78.0658 29.8541 77.8298 29.8541 77.498C29.8541 77.2178 29.7346 77.0076 29.4957 76.8675C29.2642 76.7274 28.9282 76.6573 28.4877 76.6573C28.1592 76.6573 27.868 76.6905 27.6141 76.7569C27.3677 76.8158 27.0952 76.908 26.7965 77.0334L26.4493 76.2591C26.7704 76.119 27.1064 76.0157 27.4573 75.9494C27.8082 75.883 28.1704 75.8498 28.5437 75.8498Z" fill="#0F0F0F"/>
<path d="M28.5437 75.8498C28.9992 75.8498 29.3949 75.9125 29.7309 76.0379C30.0669 76.1559 30.3282 76.3328 30.5149 76.5688C30.7016 76.7974 30.7949 77.0776 30.7949 77.4095C30.7949 77.7708 30.6941 78.0584 30.4925 78.2723C30.2909 78.4788 30.0146 78.6299 29.6637 78.7258V78.77C29.9026 78.8364 30.1229 78.9286 30.3245 79.0466C30.5261 79.1646 30.6866 79.3194 30.8061 79.5112C30.933 79.7029 30.9965 79.9499 30.9965 80.2523C30.9965 80.5768 30.9032 80.8717 30.7165 81.1372C30.5373 81.4027 30.2573 81.6128 29.8765 81.7677C29.5032 81.9226 29.0216 82 28.4317 82C28.148 82 27.8754 81.9852 27.6141 81.9557C27.3602 81.9263 27.1288 81.882 26.9197 81.823C26.7181 81.764 26.5389 81.694 26.3821 81.6128V80.739C26.636 80.857 26.9346 80.9639 27.2781 81.0598C27.629 81.1556 28.0098 81.2036 28.4205 81.2036C28.7192 81.2036 28.988 81.1704 29.2269 81.104C29.4733 81.0376 29.6674 80.9344 29.8093 80.7943C29.9512 80.6468 30.0221 80.4477 30.0221 80.197C30.0221 79.9684 29.9586 79.784 29.8317 79.6439C29.7048 79.4964 29.5144 79.3858 29.2605 79.3121C29.0141 79.2383 28.6968 79.2014 28.3085 79.2014H27.5021V78.405H28.1517C28.6669 78.405 29.0776 78.3386 29.3837 78.2059C29.6973 78.0658 29.8541 77.8298 29.8541 77.498C29.8541 77.2178 29.7346 77.0076 29.4957 76.8675C29.2642 76.7274 28.9282 76.6573 28.4877 76.6573C28.1592 76.6573 27.868 76.6905 27.6141 76.7569C27.3677 76.8158 27.0952 76.908 26.7965 77.0334L26.4493 76.2591C26.7704 76.119 27.1064 76.0157 27.4573 75.9494C27.8082 75.883 28.1704 75.8498 28.5437 75.8498Z" fill="black" fill-opacity="0.2"/>
<path d="M40.0891 73.9915V74.8764H36.5835V81.8894H35.5755V73.9915H40.0891Z" fill="#0F0F0F"/>
<path d="M40.0891 73.9915V74.8764H36.5835V81.8894H35.5755V73.9915H40.0891Z" fill="black" fill-opacity="0.2"/>
<path d="M44.9769 81.8894L42.3449 74.9649H42.3001C42.315 75.1124 42.3262 75.3004 42.3337 75.529C42.3486 75.7576 42.3598 76.0084 42.3673 76.2812C42.3748 76.5467 42.3785 76.8195 42.3785 77.0998V81.8894H41.4489V73.9915H42.9385L45.4025 80.4625H45.4473L47.9561 73.9915H49.4345V81.8894H48.4377V77.0334C48.4377 76.7753 48.4414 76.5209 48.4489 76.2701C48.4564 76.012 48.4676 75.7724 48.4825 75.5511C48.4974 75.3225 48.5086 75.1308 48.5161 74.976H48.4713L45.8057 81.8894H44.9769Z" fill="#0F0F0F"/>
<path d="M44.9769 81.8894L42.3449 74.9649H42.3001C42.315 75.1124 42.3262 75.3004 42.3337 75.529C42.3486 75.7576 42.3598 76.0084 42.3673 76.2812C42.3748 76.5467 42.3785 76.8195 42.3785 77.0998V81.8894H41.4489V73.9915H42.9385L45.4025 80.4625H45.4473L47.9561 73.9915H49.4345V81.8894H48.4377V77.0334C48.4377 76.7753 48.4414 76.5209 48.4489 76.2701C48.4564 76.012 48.4676 75.7724 48.4825 75.5511C48.4974 75.3225 48.5086 75.1308 48.5161 74.976H48.4713L45.8057 81.8894H44.9769Z" fill="black" fill-opacity="0.2"/>
<path d="M58.5874 77.9294C58.5874 78.5414 58.509 79.0982 58.3522 79.5997C58.1954 80.0937 57.9602 80.5214 57.6466 80.8828C57.3405 81.2441 56.956 81.5207 56.493 81.7124C56.0376 81.9041 55.5074 82 54.9026 82C54.2754 82 53.7304 81.9041 53.2674 81.7124C52.8045 81.5133 52.42 81.2367 52.1138 80.8828C51.8077 80.5214 51.58 80.09 51.4306 79.5886C51.2813 79.0871 51.2066 78.5304 51.2066 77.9183C51.2066 77.1071 51.341 76.3992 51.6098 75.7945C51.8786 75.1898 52.2856 74.7179 52.8306 74.3786C53.3832 74.0394 54.0776 73.8698 54.9138 73.8698C55.7128 73.8698 56.3848 74.0394 56.9298 74.3786C57.4749 74.7105 57.8856 75.1824 58.1618 75.7945C58.4456 76.3992 58.5874 77.1108 58.5874 77.9294ZM52.2706 77.9294C52.2706 78.5931 52.364 79.1646 52.5506 79.6439C52.7373 80.1232 53.0248 80.4919 53.413 80.75C53.8088 81.0081 54.3053 81.1372 54.9026 81.1372C55.5074 81.1372 56.0002 81.0081 56.381 80.75C56.7693 80.4919 57.0568 80.1232 57.2434 79.6439C57.4301 79.1646 57.5234 78.5931 57.5234 77.9294C57.5234 76.9338 57.3144 76.1558 56.8962 75.5954C56.4781 75.0276 55.8173 74.7437 54.9138 74.7437C54.309 74.7437 53.8088 74.8727 53.413 75.1308C53.0248 75.3815 52.7373 75.7466 52.5506 76.2259C52.364 76.6979 52.2706 77.2657 52.2706 77.9294Z" fill="#0F0F0F"/>
<path d="M58.5874 77.9294C58.5874 78.5414 58.509 79.0982 58.3522 79.5997C58.1954 80.0937 57.9602 80.5214 57.6466 80.8828C57.3405 81.2441 56.956 81.5207 56.493 81.7124C56.0376 81.9041 55.5074 82 54.9026 82C54.2754 82 53.7304 81.9041 53.2674 81.7124C52.8045 81.5133 52.42 81.2367 52.1138 80.8828C51.8077 80.5214 51.58 80.09 51.4306 79.5886C51.2813 79.0871 51.2066 78.5304 51.2066 77.9183C51.2066 77.1071 51.341 76.3992 51.6098 75.7945C51.8786 75.1898 52.2856 74.7179 52.8306 74.3786C53.3832 74.0394 54.0776 73.8698 54.9138 73.8698C55.7128 73.8698 56.3848 74.0394 56.9298 74.3786C57.4749 74.7105 57.8856 75.1824 58.1618 75.7945C58.4456 76.3992 58.5874 77.1108 58.5874 77.9294ZM52.2706 77.9294C52.2706 78.5931 52.364 79.1646 52.5506 79.6439C52.7373 80.1232 53.0248 80.4919 53.413 80.75C53.8088 81.0081 54.3053 81.1372 54.9026 81.1372C55.5074 81.1372 56.0002 81.0081 56.381 80.75C56.7693 80.4919 57.0568 80.1232 57.2434 79.6439C57.4301 79.1646 57.5234 78.5931 57.5234 77.9294C57.5234 76.9338 57.3144 76.1558 56.8962 75.5954C56.4781 75.0276 55.8173 74.7437 54.9138 74.7437C54.309 74.7437 53.8088 74.8727 53.413 75.1308C53.0248 75.3815 52.7373 75.7466 52.5506 76.2259C52.364 76.6979 52.2706 77.2657 52.2706 77.9294Z" fill="black" fill-opacity="0.2"/>
<path d="M36 71.1095C16.152 71.1095 0 55.1573 0 35.5548C0 15.9522 16.152 0 36 0C55.848 0 72 15.9522 72 35.5548C72 55.1573 55.848 71.1095 36 71.1095ZM36 1.58021C17.032 1.58021 1.6 16.8214 1.6 35.5548C1.6 54.2882 17.032 69.5293 36 69.5293C54.968 69.5293 70.4 54.2882 70.4 35.5548C70.4 16.8214 54.968 1.58021 36 1.58021ZM36 67.0642C28.12 67.0642 20.552 64.204 14.688 58.9972C14.528 58.855 14.432 58.6496 14.424 58.4283C14.424 58.215 14.504 58.0017 14.656 57.8516L21.52 51.0724C21.832 50.7643 22.336 50.7643 22.648 51.0724C22.96 51.3806 22.96 51.8784 22.648 52.1865L16.384 58.373C21.856 62.9635 28.784 65.484 35.992 65.484C52.696 65.484 66.288 52.0601 66.288 35.5548C66.288 28.2463 63.656 21.4909 58.848 16.4263L41.24 33.8165C40.928 34.1247 40.424 34.1247 40.112 33.8165C39.8 33.5084 39.8 33.0106 40.112 32.7025L58.296 14.7434C58.448 14.5933 58.648 14.5142 58.864 14.5142C59.072 14.5142 59.28 14.6012 59.432 14.7434C64.888 20.1556 67.896 27.551 67.896 35.5548C67.896 52.9292 53.584 67.0642 36 67.0642ZM12.952 56.9745H12.936C12.72 56.9745 12.512 56.8718 12.36 56.7138C7.032 50.9065 4.096 43.3926 4.096 35.5548C4.096 18.1803 18.408 4.04534 36 4.04534C43.936 4.04534 51.544 6.94503 57.424 12.2071C57.584 12.3494 57.68 12.5548 57.688 12.776C57.688 12.9893 57.608 13.2027 57.456 13.3528L39.448 31.1381C39.136 31.4462 38.632 31.4462 38.32 31.1381C38.008 30.8299 38.008 30.3322 38.32 30.024L55.728 12.8313C50.24 8.1776 43.272 5.63345 36.016 5.63345C19.296 5.62555 5.696 19.0574 5.696 35.5548C5.696 42.721 8.28 49.6028 12.984 55.023L20.336 47.7619C20.648 47.4538 21.152 47.4538 21.464 47.7619C21.776 48.07 21.776 48.5678 21.464 48.876L13.512 56.7296C13.36 56.8797 13.16 56.9587 12.944 56.9587L12.952 56.9745Z" fill="black"/>
<path d="M47.056 52.9134H24.616C22.2 52.9134 20.664 52.2813 20.056 51.0408C19.424 49.7372 19.944 48.0384 21.6 45.9921C24.44 42.484 31.272 31.2882 32.232 29.7001V18.4727H31.664C31.464 18.4727 31.288 18.4727 31.152 18.449C30.112 18.2831 29.416 17.5483 29.416 16.6159C29.416 15.6046 30.248 14.775 31.28 14.775H39.776C40.8 14.775 41.64 15.5967 41.64 16.6159C41.64 17.5324 40.944 18.2672 39.912 18.4411C39.784 18.4648 39.608 18.4727 39.408 18.4727H38.936V29.1786C39.936 30.7983 47.112 42.3497 50.072 45.9842C51.736 48.0226 52.256 49.7135 51.624 51.025C51.016 52.2734 49.48 52.9055 47.056 52.9055V52.9134ZM32.296 16.8925C33.312 16.8925 33.832 17.2243 33.832 17.8722V29.9213C33.832 30.0635 33.792 30.2057 33.72 30.3243C33.408 30.8457 25.968 43.1319 22.848 46.9797C21.664 48.4493 21.168 49.674 21.496 50.3534C21.8 50.9776 22.936 51.3332 24.608 51.3332H47.048C48.728 51.3332 49.864 50.9776 50.168 50.3534C50.496 49.674 50.008 48.4493 48.816 46.9876C45.576 43.0213 37.776 30.3638 37.44 29.8265C37.36 29.7001 37.32 29.5579 37.32 29.4156V17.8722C37.32 17.4297 37.576 16.8925 38.8 16.8925H39.392C39.48 16.8925 39.56 16.8925 39.624 16.8925C39.64 16.8925 40.024 16.8214 40.024 16.6238C40.024 16.4816 39.904 16.3631 39.76 16.3631H31.264C31.12 16.3631 31 16.4816 31 16.6238C31 16.8293 31.368 16.8925 31.384 16.8925C31.456 16.9004 31.544 16.9162 31.648 16.9004H32.28L32.296 16.8925Z" fill="black"/>
<path d="M29.128 47.3352C27.392 47.3352 25.448 47.0034 23.24 46.1264C22.832 45.9605 22.632 45.5022 22.792 45.0992C22.96 44.6963 23.424 44.4909 23.832 44.6568C29.32 46.8296 32.856 45.3363 36.264 43.8825C39.888 42.3418 43.632 40.7537 48.92 44.5541C49.28 44.8148 49.352 45.3047 49.096 45.6602C48.84 46.0158 48.336 46.0869 47.976 45.834C43.424 42.563 40.544 43.7877 36.896 45.3363C34.64 46.2923 32.184 47.3352 29.12 47.3352H29.128Z" fill="black"/>
</g>
</svg>
