<svg width="68" height="36" viewBox="0 0 68 36" fill="none" xmlns="http://www.w3.org/2000/svg">
<g id="&#208;&#158;">
<path d="M36.4589 35.4526L34.9269 35.6872C34.8068 35.7185 34.6866 35.7185 34.5665 35.6872C34.5064 35.656 34.4163 35.6247 34.2961 35.5934C34.2961 35.5934 34.2661 35.5934 34.206 35.5934L32.7641 35.828C32.5839 35.8593 32.4337 35.8436 32.3135 35.7811L31.5025 35.9687C31.2621 36.0313 31.0819 36 30.9618 35.8749C30.9618 35.8749 30.9618 35.8593 30.9618 35.828C30.8416 35.828 30.7515 35.7811 30.6914 35.6872C30.6313 35.5621 30.7214 35.4839 30.9618 35.4526L32.7641 35.1242C32.3436 35.1242 31.9831 35.1242 31.6827 35.1242L30.4211 35.4526C30.4211 35.4526 30.391 35.4526 30.3309 35.4526L28.7989 35.7811C28.5586 35.8123 28.3784 35.7654 28.2582 35.6403C28.1381 35.5152 28.2282 35.4214 28.5286 35.3588L29.7001 35.1712L28.4385 35.3119L27.0867 35.5934C26.8464 35.6247 26.6662 35.5778 26.546 35.4526L24.9239 35.7811C24.6836 35.8436 24.5033 35.8123 24.3832 35.6872C24.3231 35.5621 24.4132 35.4683 24.6535 35.4057L26.1855 35.0773L27.0867 34.8427C26.9666 34.8427 26.8164 34.8271 26.6361 34.7958C26.4559 34.7958 26.2456 34.7958 26.0053 34.7958L24.4733 35.0773L23.2117 35.3588C22.9113 35.3901 22.731 35.3432 22.671 35.2181C22.5508 35.093 22.6109 34.9991 22.8512 34.9366L24.203 34.702L24.7437 34.5612C24.7437 34.5612 24.7136 34.5612 24.6535 34.5612L24.0227 34.702L22.4907 34.9835L21.0488 35.265C20.8085 35.2963 20.6283 35.2493 20.5081 35.1242C20.4481 35.0304 20.5081 34.9522 20.6884 34.8897L19.607 35.0773C19.3667 35.1086 19.1864 35.0617 19.0663 34.9366C19.0062 34.8115 19.0963 34.7176 19.3366 34.6551L20.7785 34.4205L22.1303 34.0452C22.1303 34.0452 22.1603 34.0452 22.2204 34.0452C22.1603 34.0139 22.1002 33.9983 22.0401 33.9983L20.6884 34.3267L19.2465 34.5612L17.8947 34.8897C17.6544 34.9522 17.4742 34.9209 17.354 34.7958C17.2339 34.6707 17.294 34.5769 17.5343 34.5143L18.886 34.1859C18.9461 34.1859 18.9761 34.1859 18.9761 34.1859L21.139 33.7637C20.9587 33.7011 20.7785 33.6542 20.5983 33.6229C20.4781 33.5604 20.3279 33.5135 20.1477 33.4822L18.6157 33.8106C18.6157 33.8106 18.5856 33.8106 18.5256 33.8106L16.9936 33.9983L15.4616 34.3736C15.2213 34.4361 15.041 34.4049 14.9209 34.2798C14.8007 34.1234 14.8608 34.0295 15.1011 33.9983L16.7232 33.6229L18.3453 33.3884L19.3366 33.2007C19.1564 33.1694 18.9161 33.1694 18.6157 33.2007L17.2639 33.4353L15.822 33.7637L14.5604 34.0921C14.3201 34.1234 14.1398 34.0765 14.0197 33.9513C13.8995 33.8262 13.9596 33.7324 14.1999 33.6699L15.4616 33.3884C15.5216 33.3884 15.5517 33.3884 15.5517 33.3884L16.9936 33.0599L18.1651 32.8254C17.9248 32.7628 17.7145 32.7003 17.5343 32.6377L16.8133 32.7785L15.3714 33.1069L13.9296 33.2945L12.3976 33.6699C12.1573 33.7324 11.977 33.7011 11.8569 33.576C11.7367 33.4509 11.7968 33.3571 12.0371 33.2945L13.6592 32.9192C13.7193 32.9192 13.7493 32.9192 13.7493 32.9192L15.1011 32.6846L16.7232 32.3562C16.4228 32.2624 16.1525 32.1529 15.9122 32.0278L14.0197 32.3562L12.5778 32.5908L11.2261 32.8723C10.9857 32.9348 10.8055 32.9036 10.6853 32.7785C10.6253 32.6221 10.7154 32.5282 10.9557 32.497L12.3075 32.2155L13.7493 31.934L15.1011 31.7463C14.8608 31.6525 14.6205 31.5586 14.3802 31.4648L13.6592 31.5586L12.1272 31.8871L10.8656 32.1216L9.24347 32.4031C9.00315 32.4344 8.85296 32.3875 8.79288 32.2624C8.67272 32.1373 8.76284 32.0434 9.06323 31.9809L10.5952 31.7463L11.8569 31.4648L13.3889 31.1833C13.3889 31.1833 13.3889 31.1677 13.3889 31.1364C13.3889 31.1364 13.479 31.1364 13.6592 31.1364C13.4189 31.0426 13.2086 30.9487 13.0284 30.8549L12.4877 30.9018L11.2261 31.2302L9.87429 31.5117L8.61265 31.6994C8.31225 31.7619 8.13202 31.715 8.07194 31.5586C8.01186 31.4335 8.10198 31.3553 8.34229 31.3241L10.8656 30.8549L12.2173 30.5265C12.2173 30.5265 12.2474 30.5265 12.3075 30.5265C12.2474 30.4639 12.1573 30.417 12.0371 30.3857C11.917 30.3232 11.7968 30.2606 11.6766 30.1981L11.1359 30.2919L9.69406 30.6203L8.25218 30.8549L6.8103 31.0426C6.56999 31.1051 6.38975 31.0582 6.26959 30.9018C6.20952 30.7767 6.32967 30.6985 6.63006 30.6672L8.07194 30.4327L9.4237 30.245L11.1359 29.8228C10.9557 29.6977 10.7755 29.5725 10.5952 29.4474L10.0545 29.5882C9.99445 29.5882 9.96441 29.5882 9.96441 29.5882L8.43241 29.8697L6.90042 30.245L5.36842 30.5265C5.12811 30.5891 4.94787 30.5578 4.82772 30.4327C4.76764 30.2763 4.85776 30.1825 5.09807 30.1512L6.53995 29.8228L8.16206 29.4944C8.16206 29.4944 8.16206 29.4787 8.16206 29.4474L10.1446 29.0721C9.96441 28.9157 9.78417 28.7593 9.60394 28.603L8.70276 28.7906L7.26089 29.0252L5.81901 29.2129L4.55736 29.5413C4.31705 29.6038 4.13682 29.5725 4.01666 29.4474C3.8965 29.3223 3.95658 29.2285 4.1969 29.1659L5.45854 28.8375C5.45854 28.8375 5.48858 28.8375 5.54866 28.8375L7.08065 28.603L8.43241 28.4153L9.24347 28.1807C9.12331 28.0243 9.00315 27.8679 8.883 27.7116L7.98182 27.9461L6.53995 28.1807L5.18819 28.556L3.74631 28.8844C3.506 28.9157 3.3558 28.8688 3.29572 28.7437C3.17556 28.6186 3.23564 28.5248 3.47596 28.4622L4.82772 28.1807L6.26959 27.8054L7.62136 27.5708L8.52253 27.3362C8.40237 27.1486 8.28222 26.9609 8.16206 26.7732L6.99053 27.0547L5.45854 27.3831L4.1969 27.7585C4.1969 27.7585 4.16686 27.7585 4.10678 27.7585L2.75502 27.993C2.45463 28.0243 2.27439 27.9774 2.21431 27.8523C2.15423 27.7272 2.24435 27.6334 2.48466 27.5708L3.83643 27.3831L5.09807 27.0078L6.72018 26.6794L7.89171 26.3979C7.77155 26.2103 7.65139 26.0226 7.53124 25.8349L6.63006 25.9757L5.2783 26.351L3.83643 26.5856L2.30443 26.914C2.06412 26.9765 1.88388 26.9453 1.76373 26.8202C1.64357 26.695 1.70365 26.6012 1.94396 26.5387L3.56607 26.1633C3.62615 26.1633 3.65619 26.1633 3.65619 26.1633L5.00795 25.9757L6.35971 25.6003L7.351 25.4127C7.23085 25.2876 7.11069 25.1156 6.99053 24.8966L6.08936 25.0374L4.64748 25.3189L3.29572 25.6473L2.03408 26.0226C1.79376 26.0851 1.61353 26.0539 1.49337 25.9288C1.37322 25.8036 1.4333 25.7098 1.67361 25.6473L2.93525 25.2719L4.28701 24.9435C4.28701 24.9123 4.28701 24.8966 4.28701 24.8966L5.81901 24.662L6.8103 24.4744C6.69014 24.2867 6.60002 24.1303 6.53995 24.0052L5.81901 24.146L4.37713 24.4744C4.31705 24.4744 4.28701 24.4744 4.28701 24.4744C4.28701 24.5056 4.28701 24.5213 4.28701 24.5213L2.75502 24.709L1.31314 24.9904C1.07283 25.0217 0.892591 24.9748 0.772435 24.8497C0.712357 24.7246 0.802474 24.6308 1.04279 24.5682L2.48466 24.3336L4.01666 24.099L5.45854 23.7706C5.45854 23.7706 5.45854 23.755 5.45854 23.7237C5.51862 23.7237 5.54866 23.7237 5.54866 23.7237L6.26959 23.583C6.20952 23.4266 6.14944 23.2546 6.08936 23.0669L5.2783 23.2546L3.74631 23.583L2.30443 23.8176C2.30443 23.8176 2.30443 23.8332 2.30443 23.8645L0.772435 24.0521C0.532122 24.0834 0.381926 24.0365 0.321848 23.9114C0.26177 23.7863 0.351887 23.7081 0.5922 23.6768L2.03408 23.4422L3.38584 23.1607L5.00795 22.8792L5.90913 22.6447C5.84905 22.4257 5.69885 22.285 5.45854 22.2224C5.39846 22.2537 5.36842 22.2693 5.36842 22.2693L4.01666 22.457L2.57478 22.7854C2.57478 22.7854 2.54474 22.7854 2.48466 22.7854L1.04279 22.9731C0.742396 23.0356 0.562161 22.9887 0.502083 22.8323C0.442004 22.7072 0.532122 22.629 0.772435 22.5977L2.30443 22.3632L3.74631 22.0817L5.09807 21.8471L5.72889 21.7063C5.66881 21.4874 5.63877 21.2528 5.63877 21.0026L5.09807 21.0495L3.83643 21.4248L2.48466 21.7533L0.862552 21.9878C0.622239 22.0504 0.472043 22.0035 0.411965 21.8471C0.291809 21.722 0.351887 21.6438 0.5922 21.6125L2.21431 21.331L3.47596 21.0495L4.7376 20.6742C4.7376 20.6742 4.76764 20.6742 4.82772 20.6742L5.54866 20.5804C5.54866 20.3301 5.4285 20.1738 5.18819 20.1112L3.74631 20.2989L2.30443 20.5804L0.862552 20.8149C0.622239 20.8775 0.442004 20.8462 0.321848 20.7211C0.26177 20.5647 0.351887 20.4709 0.5922 20.4396L2.03408 20.1581L4.91783 19.689L5.54866 19.5951C5.54866 19.47 5.51862 19.3606 5.45854 19.2667C5.45854 19.1729 5.36842 19.0947 5.18819 19.0321L3.65619 19.2198L2.1242 19.5482L0.502083 19.8297C0.26177 19.861 0.111574 19.8141 0.0514956 19.689C-0.0686609 19.5326 0.0214566 19.4387 0.321848 19.4075L1.85384 19.1729L3.29572 18.8445C3.29572 18.8445 3.32576 18.8445 3.38584 18.8445L4.91783 18.6099L5.45854 18.5161C5.45854 18.4222 5.4285 18.3284 5.36842 18.2346C5.30834 18.1407 5.18819 18.0626 5.00795 18L3.38584 18.2346L2.03408 18.5161L0.682317 18.7507C0.442004 18.7819 0.291809 18.735 0.23173 18.6099C0.111574 18.4848 0.201691 18.391 0.502083 18.3284L1.76373 18.1407L3.11549 17.8123C3.11549 17.8123 3.14553 17.8123 3.2056 17.8123L4.7376 17.5778L5.2783 17.5308C5.21823 17.3119 5.15815 17.1555 5.09807 17.0617L3.74631 17.3901L2.21431 17.6247L0.862552 17.9531C0.622239 18.0156 0.442004 17.9687 0.321848 17.8123C0.201691 17.6872 0.26177 17.609 0.502083 17.5778L1.94396 17.2493L3.38584 16.9679L5.09807 16.5925C5.09807 16.4049 5.06803 16.2485 5.00795 16.1234L3.92654 16.3579L2.48466 16.5925L1.22302 16.8271C0.92263 16.8584 0.742396 16.8115 0.682317 16.6864C0.622239 16.5613 0.712357 16.4831 0.95267 16.4518L2.21431 16.2172L3.65619 15.9357L4.91783 15.7011C4.91783 15.5135 4.88779 15.3258 4.82772 15.1381L3.92654 15.3727L1.40326 15.9357C1.10287 15.9983 0.92263 15.967 0.862552 15.8419C0.742396 15.7168 0.802474 15.6229 1.04279 15.5604L2.39455 15.232L3.65619 14.9974L4.82772 14.7159C4.76764 14.5282 4.7376 14.3562 4.7376 14.1998L4.01666 14.3875L2.48466 14.7628C2.48466 14.7628 2.45463 14.7628 2.39455 14.7628L0.95267 14.9505C0.652278 15.013 0.472043 14.9661 0.411965 14.8097C0.351887 14.6846 0.442004 14.6064 0.682317 14.5752L2.1242 14.3406L3.65619 14.0122L4.7376 13.7307C4.7376 13.5117 4.7376 13.2928 4.7376 13.0738L4.28701 13.1677L2.6649 13.4492L1.31314 13.7776C1.07283 13.8401 0.892591 13.8089 0.772435 13.6838C0.652278 13.5586 0.712357 13.4648 0.95267 13.4023L2.39455 13.0738C2.39455 13.0738 2.39455 13.0582 2.39455 13.0269L4.01666 12.7924L4.82772 12.6047C4.82772 12.6047 4.82772 12.5891 4.82772 12.5578C4.82772 12.4327 4.85776 12.2919 4.91783 12.1355L4.10678 12.2763L2.48466 12.6516L0.95267 13.0269C0.712357 13.0582 0.532122 13.0113 0.411965 12.8862C0.291809 12.7611 0.351887 12.6672 0.5922 12.6047L2.21431 12.2763L3.74631 11.901L5.00795 11.6195C5.06803 11.4318 5.12811 11.2441 5.18819 11.0565L4.37713 11.1972L3.02537 11.4787L1.58349 11.854C1.34318 11.9166 1.16294 11.8853 1.04279 11.7602C0.92263 11.6351 0.982709 11.5413 1.22302 11.4787L2.75502 11.1034L4.01666 10.775C4.01666 10.775 4.0467 10.775 4.10678 10.775L5.36842 10.5873C5.48858 10.4309 5.48858 10.3215 5.36842 10.2589L4.01666 10.6342L2.39455 11.0096C2.15423 11.0408 1.974 10.9939 1.85384 10.8688C1.79377 10.7437 1.88388 10.6499 2.1242 10.5873L3.65619 10.2589L5.00795 9.88358C5.00795 9.88358 5.03799 9.88358 5.09807 9.88358L5.81901 9.74283C5.93916 9.58645 5.93916 9.49262 5.81901 9.46134L4.46725 9.649L3.11549 9.97741C2.87517 10.04 2.69494 9.99305 2.57478 9.83666C2.45463 9.71155 2.54474 9.63336 2.84513 9.60208L4.1969 9.27368C4.25697 9.27368 4.28701 9.27368 4.28701 9.27368L5.54866 9.0391L6.44983 8.85143C6.44983 8.78888 6.47987 8.72632 6.53995 8.66377L5.18819 8.94526L3.83643 9.17984C3.59611 9.21112 3.41588 9.16421 3.29572 9.0391C3.23564 8.88271 3.32576 8.78888 3.56607 8.7576L4.91783 8.52302L6.35971 8.24153L6.99053 8.10078C7.11069 8.00695 7.20081 7.91312 7.26089 7.81929L6.17948 7.96004L4.82772 8.19461C4.52733 8.22589 4.34709 8.17897 4.28701 8.05387C4.22693 7.92876 4.31705 7.83493 4.55736 7.77237L5.99924 7.58471L7.89171 7.2563C7.95179 7.19374 8.0419 7.11555 8.16206 7.02172L7.17077 7.20938L5.90913 7.39705C5.60873 7.4596 5.4285 7.41268 5.36842 7.2563C5.30834 7.13119 5.39846 7.053 5.63877 7.02172L6.90042 6.78714L8.07194 6.59948L6.72018 6.83406C6.47987 6.86533 6.29963 6.81842 6.17948 6.69331C6.1194 6.53692 6.20952 6.44309 6.44983 6.41182L7.53124 6.22415C7.47116 6.22415 7.44112 6.22415 7.44112 6.22415C7.32096 6.09904 7.38104 6.00521 7.62136 5.94266L10.3249 5.28584L11.2261 5.09817C11.3462 5.03562 11.4664 4.97307 11.5865 4.91051L10.3249 5.23892L8.97312 5.52042C8.7328 5.58297 8.55257 5.55169 8.43241 5.42659C8.31226 5.30148 8.37233 5.20765 8.61265 5.14509L10.415 4.76977C10.4751 4.70721 10.5352 4.67594 10.5952 4.67594L11.947 4.39444L13.1185 4.15986C13.2387 4.09731 13.2988 4.05039 13.2988 4.01911L11.8569 4.39444C11.6166 4.45699 11.4363 4.42572 11.3162 4.30061C11.196 4.1755 11.2561 4.08167 11.4964 4.01911L12.758 3.6907C12.758 3.56559 12.8782 3.4874 13.1185 3.45613L14.6505 3.26846L15.822 2.89314C15.822 2.89314 15.8521 2.89314 15.9122 2.89314C15.9722 2.89314 16.0023 2.89314 16.0023 2.89314C16.3627 2.73675 16.7232 2.596 17.0837 2.47089C17.0837 2.47089 17.1137 2.47089 17.1738 2.47089C17.1738 2.43962 17.1738 2.42398 17.1738 2.42398C18.2552 2.11121 19.3667 1.84535 20.5081 1.62641C21.7097 1.37619 22.9113 1.15725 24.1128 0.96959C25.9152 0.53171 28.108 0.250216 30.6914 0.125107C33.2748 0 35.5577 -0.0312767 37.5403 0.0312767C37.9008 0.0312767 38.2613 0.0312767 38.6217 0.0312767C39.0423 0.0312767 39.4328 0.0312767 39.7933 0.0312767C41.5355 0.0625535 43.3078 0.10947 45.1102 0.172025C46.9726 0.234578 48.6548 0.453518 50.1568 0.828845C50.1568 0.828845 50.2168 0.860122 50.337 0.922675C50.4571 0.953952 50.5172 0.96959 50.5172 0.96959C53.2808 2.40834 56.0144 3.92528 58.7179 5.52042C61.4815 7.11555 64.0649 8.71069 66.468 10.3058C66.468 10.3058 66.498 10.3371 66.5581 10.3997C66.6182 10.4309 66.6482 10.4466 66.6482 10.4466C67.3692 11.2911 67.7597 12.2606 67.8198 13.3553C67.9399 14.45 68 15.5291 68 16.5925C67.9399 16.9366 67.9099 17.2806 67.9099 17.6247C67.9099 17.9374 67.9399 18.2502 68 18.563C68 19.1885 67.97 19.9861 67.9099 20.9557C67.8498 21.9253 67.6696 22.9418 67.3692 24.0052C67.1289 25.0686 66.7384 26.0382 66.1976 26.914C65.717 27.7897 65.0261 28.4622 64.1249 28.9314C62.2024 29.9322 60.0096 30.8549 57.5464 31.6994C55.1433 32.5439 52.8002 33.3414 50.5172 34.0921C50.5172 34.0921 50.4872 34.0921 50.4271 34.0921C50.4271 34.1234 50.4271 34.139 50.4271 34.139C49.3457 34.4205 48.0841 34.6394 46.6422 34.7958C45.2604 34.9522 43.7584 35.0773 42.1363 35.1712L40.6043 35.4526C40.364 35.4839 40.2138 35.437 40.1537 35.3119C40.0936 35.2493 40.0936 35.1868 40.1537 35.1242C39.9735 35.1555 39.7933 35.1712 39.613 35.1712L38.7118 35.265C38.5917 35.2963 38.4715 35.2963 38.3514 35.265C38.2913 35.265 38.1711 35.2493 37.9909 35.2181C37.9909 35.2493 37.9909 35.265 37.9909 35.265L36.4589 35.4526ZM26.9966 33.6699C27.0567 33.6699 27.0867 33.6855 27.0867 33.7168C28.2883 33.8106 29.4898 33.8888 30.6914 33.9513C31.953 33.9826 33.1546 34.0295 34.2961 34.0921H36.8194C38.6818 34.0608 40.8146 34.0139 43.2177 33.9513C45.6809 33.8575 47.7236 33.5917 49.3457 33.1538C51.5686 32.4031 53.8516 31.6212 56.1946 30.808C58.5978 29.9948 60.7305 29.1034 62.593 28.1338C63.3139 27.7585 63.8846 27.1642 64.3052 26.351C64.7858 25.5065 65.1162 24.5995 65.2965 23.6299C65.5368 22.629 65.687 21.6751 65.7471 20.768C65.8071 19.861 65.8372 19.1416 65.8372 18.6099C65.7771 18.2971 65.7471 17.9844 65.7471 17.6716C65.8071 17.3275 65.8372 16.9835 65.8372 16.6394C65.8372 15.6386 65.8071 14.6377 65.7471 13.6368C65.687 12.6047 65.3265 11.7133 64.6657 10.9626C62.3226 9.39878 59.7993 7.83493 57.0958 6.27107C54.4524 4.70721 51.7789 3.22155 49.0753 1.81407C47.7536 1.5013 46.2517 1.31364 44.5695 1.25109C42.9474 1.18853 41.3553 1.15725 39.7933 1.15725C39.3727 1.15725 38.9522 1.15725 38.5316 1.15725C38.1711 1.15725 37.8107 1.15725 37.4502 1.15725C35.6479 1.0947 33.5151 1.12598 31.0519 1.25109C28.5887 1.34492 26.546 1.59513 24.9239 2.00174C24.9239 2.00174 24.8939 2.00174 24.8338 2.00174C23.6923 2.1894 22.5808 2.3927 21.4994 2.61164C20.418 2.83058 19.3667 3.09644 18.3453 3.40921C15.2213 4.56646 12.5478 5.89574 10.3249 7.39705C9.78417 7.77237 9.30355 8.19461 8.883 8.66377C8.883 8.7576 8.82292 8.8358 8.70276 8.89835C8.52253 9.08601 8.37233 9.28931 8.25218 9.50825C8.25218 9.50825 8.25218 9.52389 8.25218 9.55517C8.31226 9.649 8.25218 9.72719 8.07194 9.78975C7.95179 9.97741 7.83163 10.1807 7.71147 10.3997C7.71147 10.3997 7.71147 10.4153 7.71147 10.4466C7.83163 10.5404 7.80159 10.6186 7.62136 10.6811C7.5012 10.9001 7.41108 11.1034 7.351 11.291C7.351 11.3223 7.351 11.338 7.351 11.338C7.47116 11.4631 7.44112 11.5413 7.26089 11.5725C7.14073 11.7915 7.08065 12.0104 7.08065 12.2294C7.08065 12.2294 7.08065 12.245 7.08065 12.2763C7.20081 12.3701 7.17077 12.4483 6.99053 12.5109C6.99053 12.5734 6.99053 12.6203 6.99053 12.6516C6.93046 12.9018 6.90042 13.1364 6.90042 13.3553C6.90042 13.3553 6.90042 13.371 6.90042 13.4023C7.02057 13.4648 7.02057 13.5274 6.90042 13.5899C6.90042 14.1216 6.93046 14.6377 6.99053 15.1381C7.11069 15.6386 7.20081 16.139 7.26089 16.6394C7.32096 16.7958 7.351 16.9366 7.351 17.0617C7.41108 17.1868 7.44112 17.3119 7.44112 17.437C7.5012 17.8123 7.53124 18.1877 7.53124 18.563C7.59132 18.9383 7.65139 19.3136 7.71147 19.689C7.71147 20.3145 7.74151 20.9401 7.80159 21.5656C7.92175 22.1911 8.13202 22.801 8.43241 23.3953C9.03319 24.3962 9.66402 25.4909 10.3249 26.6794C11.0458 27.8679 12.1272 28.8375 13.5691 29.5882C15.011 30.3076 16.6331 30.98 18.4354 31.6056C20.2979 32.2311 22.1303 32.7785 23.9326 33.2476C24.3531 33.3102 24.7737 33.3884 25.1942 33.4822C25.2543 33.4822 25.2844 33.4822 25.2844 33.4822C25.8251 33.576 26.3958 33.6386 26.9966 33.6699ZM23.482 34.3267C23.4219 34.3267 23.3919 34.3267 23.3919 34.3267L22.4907 34.4674L21.2291 34.7958L22.2204 34.6082L23.482 34.3267Z" fill="#0F0F0F"/>
<path d="M36.4589 35.4526L34.9269 35.6872C34.8068 35.7185 34.6866 35.7185 34.5665 35.6872C34.5064 35.656 34.4163 35.6247 34.2961 35.5934C34.2961 35.5934 34.2661 35.5934 34.206 35.5934L32.7641 35.828C32.5839 35.8593 32.4337 35.8436 32.3135 35.7811L31.5025 35.9687C31.2621 36.0313 31.0819 36 30.9618 35.8749C30.9618 35.8749 30.9618 35.8593 30.9618 35.828C30.8416 35.828 30.7515 35.7811 30.6914 35.6872C30.6313 35.5621 30.7214 35.4839 30.9618 35.4526L32.7641 35.1242C32.3436 35.1242 31.9831 35.1242 31.6827 35.1242L30.4211 35.4526C30.4211 35.4526 30.391 35.4526 30.3309 35.4526L28.7989 35.7811C28.5586 35.8123 28.3784 35.7654 28.2582 35.6403C28.1381 35.5152 28.2282 35.4214 28.5286 35.3588L29.7001 35.1712L28.4385 35.3119L27.0867 35.5934C26.8464 35.6247 26.6662 35.5778 26.546 35.4526L24.9239 35.7811C24.6836 35.8436 24.5033 35.8123 24.3832 35.6872C24.3231 35.5621 24.4132 35.4683 24.6535 35.4057L26.1855 35.0773L27.0867 34.8427C26.9666 34.8427 26.8164 34.8271 26.6361 34.7958C26.4559 34.7958 26.2456 34.7958 26.0053 34.7958L24.4733 35.0773L23.2117 35.3588C22.9113 35.3901 22.731 35.3432 22.671 35.2181C22.5508 35.093 22.6109 34.9991 22.8512 34.9366L24.203 34.702L24.7437 34.5612C24.7437 34.5612 24.7136 34.5612 24.6535 34.5612L24.0227 34.702L22.4907 34.9835L21.0488 35.265C20.8085 35.2963 20.6283 35.2493 20.5081 35.1242C20.4481 35.0304 20.5081 34.9522 20.6884 34.8897L19.607 35.0773C19.3667 35.1086 19.1864 35.0617 19.0663 34.9366C19.0062 34.8115 19.0963 34.7176 19.3366 34.6551L20.7785 34.4205L22.1303 34.0452C22.1303 34.0452 22.1603 34.0452 22.2204 34.0452C22.1603 34.0139 22.1002 33.9983 22.0401 33.9983L20.6884 34.3267L19.2465 34.5612L17.8947 34.8897C17.6544 34.9522 17.4742 34.9209 17.354 34.7958C17.2339 34.6707 17.294 34.5769 17.5343 34.5143L18.886 34.1859C18.9461 34.1859 18.9761 34.1859 18.9761 34.1859L21.139 33.7637C20.9587 33.7011 20.7785 33.6542 20.5983 33.6229C20.4781 33.5604 20.3279 33.5135 20.1477 33.4822L18.6157 33.8106C18.6157 33.8106 18.5856 33.8106 18.5256 33.8106L16.9936 33.9983L15.4616 34.3736C15.2213 34.4361 15.041 34.4049 14.9209 34.2798C14.8007 34.1234 14.8608 34.0295 15.1011 33.9983L16.7232 33.6229L18.3453 33.3884L19.3366 33.2007C19.1564 33.1694 18.9161 33.1694 18.6157 33.2007L17.2639 33.4353L15.822 33.7637L14.5604 34.0921C14.3201 34.1234 14.1398 34.0765 14.0197 33.9513C13.8995 33.8262 13.9596 33.7324 14.1999 33.6699L15.4616 33.3884C15.5216 33.3884 15.5517 33.3884 15.5517 33.3884L16.9936 33.0599L18.1651 32.8254C17.9248 32.7628 17.7145 32.7003 17.5343 32.6377L16.8133 32.7785L15.3714 33.1069L13.9296 33.2945L12.3976 33.6699C12.1573 33.7324 11.977 33.7011 11.8569 33.576C11.7367 33.4509 11.7968 33.3571 12.0371 33.2945L13.6592 32.9192C13.7193 32.9192 13.7493 32.9192 13.7493 32.9192L15.1011 32.6846L16.7232 32.3562C16.4228 32.2624 16.1525 32.1529 15.9122 32.0278L14.0197 32.3562L12.5778 32.5908L11.2261 32.8723C10.9857 32.9348 10.8055 32.9036 10.6853 32.7785C10.6253 32.6221 10.7154 32.5282 10.9557 32.497L12.3075 32.2155L13.7493 31.934L15.1011 31.7463C14.8608 31.6525 14.6205 31.5586 14.3802 31.4648L13.6592 31.5586L12.1272 31.8871L10.8656 32.1216L9.24347 32.4031C9.00315 32.4344 8.85296 32.3875 8.79288 32.2624C8.67272 32.1373 8.76284 32.0434 9.06323 31.9809L10.5952 31.7463L11.8569 31.4648L13.3889 31.1833C13.3889 31.1833 13.3889 31.1677 13.3889 31.1364C13.3889 31.1364 13.479 31.1364 13.6592 31.1364C13.4189 31.0426 13.2086 30.9487 13.0284 30.8549L12.4877 30.9018L11.2261 31.2302L9.87429 31.5117L8.61265 31.6994C8.31225 31.7619 8.13202 31.715 8.07194 31.5586C8.01186 31.4335 8.10198 31.3553 8.34229 31.3241L10.8656 30.8549L12.2173 30.5265C12.2173 30.5265 12.2474 30.5265 12.3075 30.5265C12.2474 30.4639 12.1573 30.417 12.0371 30.3857C11.917 30.3232 11.7968 30.2606 11.6766 30.1981L11.1359 30.2919L9.69406 30.6203L8.25218 30.8549L6.8103 31.0426C6.56999 31.1051 6.38975 31.0582 6.26959 30.9018C6.20952 30.7767 6.32967 30.6985 6.63006 30.6672L8.07194 30.4327L9.4237 30.245L11.1359 29.8228C10.9557 29.6977 10.7755 29.5725 10.5952 29.4474L10.0545 29.5882C9.99445 29.5882 9.96441 29.5882 9.96441 29.5882L8.43241 29.8697L6.90042 30.245L5.36842 30.5265C5.12811 30.5891 4.94787 30.5578 4.82772 30.4327C4.76764 30.2763 4.85776 30.1825 5.09807 30.1512L6.53995 29.8228L8.16206 29.4944C8.16206 29.4944 8.16206 29.4787 8.16206 29.4474L10.1446 29.0721C9.96441 28.9157 9.78417 28.7593 9.60394 28.603L8.70276 28.7906L7.26089 29.0252L5.81901 29.2129L4.55736 29.5413C4.31705 29.6038 4.13682 29.5725 4.01666 29.4474C3.8965 29.3223 3.95658 29.2285 4.1969 29.1659L5.45854 28.8375C5.45854 28.8375 5.48858 28.8375 5.54866 28.8375L7.08065 28.603L8.43241 28.4153L9.24347 28.1807C9.12331 28.0243 9.00315 27.8679 8.883 27.7116L7.98182 27.9461L6.53995 28.1807L5.18819 28.556L3.74631 28.8844C3.506 28.9157 3.3558 28.8688 3.29572 28.7437C3.17556 28.6186 3.23564 28.5248 3.47596 28.4622L4.82772 28.1807L6.26959 27.8054L7.62136 27.5708L8.52253 27.3362C8.40237 27.1486 8.28222 26.9609 8.16206 26.7732L6.99053 27.0547L5.45854 27.3831L4.1969 27.7585C4.1969 27.7585 4.16686 27.7585 4.10678 27.7585L2.75502 27.993C2.45463 28.0243 2.27439 27.9774 2.21431 27.8523C2.15423 27.7272 2.24435 27.6334 2.48466 27.5708L3.83643 27.3831L5.09807 27.0078L6.72018 26.6794L7.89171 26.3979C7.77155 26.2103 7.65139 26.0226 7.53124 25.8349L6.63006 25.9757L5.2783 26.351L3.83643 26.5856L2.30443 26.914C2.06412 26.9765 1.88388 26.9453 1.76373 26.8202C1.64357 26.695 1.70365 26.6012 1.94396 26.5387L3.56607 26.1633C3.62615 26.1633 3.65619 26.1633 3.65619 26.1633L5.00795 25.9757L6.35971 25.6003L7.351 25.4127C7.23085 25.2876 7.11069 25.1156 6.99053 24.8966L6.08936 25.0374L4.64748 25.3189L3.29572 25.6473L2.03408 26.0226C1.79376 26.0851 1.61353 26.0539 1.49337 25.9288C1.37322 25.8036 1.4333 25.7098 1.67361 25.6473L2.93525 25.2719L4.28701 24.9435C4.28701 24.9123 4.28701 24.8966 4.28701 24.8966L5.81901 24.662L6.8103 24.4744C6.69014 24.2867 6.60002 24.1303 6.53995 24.0052L5.81901 24.146L4.37713 24.4744C4.31705 24.4744 4.28701 24.4744 4.28701 24.4744C4.28701 24.5056 4.28701 24.5213 4.28701 24.5213L2.75502 24.709L1.31314 24.9904C1.07283 25.0217 0.892591 24.9748 0.772435 24.8497C0.712357 24.7246 0.802474 24.6308 1.04279 24.5682L2.48466 24.3336L4.01666 24.099L5.45854 23.7706C5.45854 23.7706 5.45854 23.755 5.45854 23.7237C5.51862 23.7237 5.54866 23.7237 5.54866 23.7237L6.26959 23.583C6.20952 23.4266 6.14944 23.2546 6.08936 23.0669L5.2783 23.2546L3.74631 23.583L2.30443 23.8176C2.30443 23.8176 2.30443 23.8332 2.30443 23.8645L0.772435 24.0521C0.532122 24.0834 0.381926 24.0365 0.321848 23.9114C0.26177 23.7863 0.351887 23.7081 0.5922 23.6768L2.03408 23.4422L3.38584 23.1607L5.00795 22.8792L5.90913 22.6447C5.84905 22.4257 5.69885 22.285 5.45854 22.2224C5.39846 22.2537 5.36842 22.2693 5.36842 22.2693L4.01666 22.457L2.57478 22.7854C2.57478 22.7854 2.54474 22.7854 2.48466 22.7854L1.04279 22.9731C0.742396 23.0356 0.562161 22.9887 0.502083 22.8323C0.442004 22.7072 0.532122 22.629 0.772435 22.5977L2.30443 22.3632L3.74631 22.0817L5.09807 21.8471L5.72889 21.7063C5.66881 21.4874 5.63877 21.2528 5.63877 21.0026L5.09807 21.0495L3.83643 21.4248L2.48466 21.7533L0.862552 21.9878C0.622239 22.0504 0.472043 22.0035 0.411965 21.8471C0.291809 21.722 0.351887 21.6438 0.5922 21.6125L2.21431 21.331L3.47596 21.0495L4.7376 20.6742C4.7376 20.6742 4.76764 20.6742 4.82772 20.6742L5.54866 20.5804C5.54866 20.3301 5.4285 20.1738 5.18819 20.1112L3.74631 20.2989L2.30443 20.5804L0.862552 20.8149C0.622239 20.8775 0.442004 20.8462 0.321848 20.7211C0.26177 20.5647 0.351887 20.4709 0.5922 20.4396L2.03408 20.1581L4.91783 19.689L5.54866 19.5951C5.54866 19.47 5.51862 19.3606 5.45854 19.2667C5.45854 19.1729 5.36842 19.0947 5.18819 19.0321L3.65619 19.2198L2.1242 19.5482L0.502083 19.8297C0.26177 19.861 0.111574 19.8141 0.0514956 19.689C-0.0686609 19.5326 0.0214566 19.4387 0.321848 19.4075L1.85384 19.1729L3.29572 18.8445C3.29572 18.8445 3.32576 18.8445 3.38584 18.8445L4.91783 18.6099L5.45854 18.5161C5.45854 18.4222 5.4285 18.3284 5.36842 18.2346C5.30834 18.1407 5.18819 18.0626 5.00795 18L3.38584 18.2346L2.03408 18.5161L0.682317 18.7507C0.442004 18.7819 0.291809 18.735 0.23173 18.6099C0.111574 18.4848 0.201691 18.391 0.502083 18.3284L1.76373 18.1407L3.11549 17.8123C3.11549 17.8123 3.14553 17.8123 3.2056 17.8123L4.7376 17.5778L5.2783 17.5308C5.21823 17.3119 5.15815 17.1555 5.09807 17.0617L3.74631 17.3901L2.21431 17.6247L0.862552 17.9531C0.622239 18.0156 0.442004 17.9687 0.321848 17.8123C0.201691 17.6872 0.26177 17.609 0.502083 17.5778L1.94396 17.2493L3.38584 16.9679L5.09807 16.5925C5.09807 16.4049 5.06803 16.2485 5.00795 16.1234L3.92654 16.3579L2.48466 16.5925L1.22302 16.8271C0.92263 16.8584 0.742396 16.8115 0.682317 16.6864C0.622239 16.5613 0.712357 16.4831 0.95267 16.4518L2.21431 16.2172L3.65619 15.9357L4.91783 15.7011C4.91783 15.5135 4.88779 15.3258 4.82772 15.1381L3.92654 15.3727L1.40326 15.9357C1.10287 15.9983 0.92263 15.967 0.862552 15.8419C0.742396 15.7168 0.802474 15.6229 1.04279 15.5604L2.39455 15.232L3.65619 14.9974L4.82772 14.7159C4.76764 14.5282 4.7376 14.3562 4.7376 14.1998L4.01666 14.3875L2.48466 14.7628C2.48466 14.7628 2.45463 14.7628 2.39455 14.7628L0.95267 14.9505C0.652278 15.013 0.472043 14.9661 0.411965 14.8097C0.351887 14.6846 0.442004 14.6064 0.682317 14.5752L2.1242 14.3406L3.65619 14.0122L4.7376 13.7307C4.7376 13.5117 4.7376 13.2928 4.7376 13.0738L4.28701 13.1677L2.6649 13.4492L1.31314 13.7776C1.07283 13.8401 0.892591 13.8089 0.772435 13.6838C0.652278 13.5586 0.712357 13.4648 0.95267 13.4023L2.39455 13.0738C2.39455 13.0738 2.39455 13.0582 2.39455 13.0269L4.01666 12.7924L4.82772 12.6047C4.82772 12.6047 4.82772 12.5891 4.82772 12.5578C4.82772 12.4327 4.85776 12.2919 4.91783 12.1355L4.10678 12.2763L2.48466 12.6516L0.95267 13.0269C0.712357 13.0582 0.532122 13.0113 0.411965 12.8862C0.291809 12.7611 0.351887 12.6672 0.5922 12.6047L2.21431 12.2763L3.74631 11.901L5.00795 11.6195C5.06803 11.4318 5.12811 11.2441 5.18819 11.0565L4.37713 11.1972L3.02537 11.4787L1.58349 11.854C1.34318 11.9166 1.16294 11.8853 1.04279 11.7602C0.92263 11.6351 0.982709 11.5413 1.22302 11.4787L2.75502 11.1034L4.01666 10.775C4.01666 10.775 4.0467 10.775 4.10678 10.775L5.36842 10.5873C5.48858 10.4309 5.48858 10.3215 5.36842 10.2589L4.01666 10.6342L2.39455 11.0096C2.15423 11.0408 1.974 10.9939 1.85384 10.8688C1.79377 10.7437 1.88388 10.6499 2.1242 10.5873L3.65619 10.2589L5.00795 9.88358C5.00795 9.88358 5.03799 9.88358 5.09807 9.88358L5.81901 9.74283C5.93916 9.58645 5.93916 9.49262 5.81901 9.46134L4.46725 9.649L3.11549 9.97741C2.87517 10.04 2.69494 9.99305 2.57478 9.83666C2.45463 9.71155 2.54474 9.63336 2.84513 9.60208L4.1969 9.27368C4.25697 9.27368 4.28701 9.27368 4.28701 9.27368L5.54866 9.0391L6.44983 8.85143C6.44983 8.78888 6.47987 8.72632 6.53995 8.66377L5.18819 8.94526L3.83643 9.17984C3.59611 9.21112 3.41588 9.16421 3.29572 9.0391C3.23564 8.88271 3.32576 8.78888 3.56607 8.7576L4.91783 8.52302L6.35971 8.24153L6.99053 8.10078C7.11069 8.00695 7.20081 7.91312 7.26089 7.81929L6.17948 7.96004L4.82772 8.19461C4.52733 8.22589 4.34709 8.17897 4.28701 8.05387C4.22693 7.92876 4.31705 7.83493 4.55736 7.77237L5.99924 7.58471L7.89171 7.2563C7.95179 7.19374 8.0419 7.11555 8.16206 7.02172L7.17077 7.20938L5.90913 7.39705C5.60873 7.4596 5.4285 7.41268 5.36842 7.2563C5.30834 7.13119 5.39846 7.053 5.63877 7.02172L6.90042 6.78714L8.07194 6.59948L6.72018 6.83406C6.47987 6.86533 6.29963 6.81842 6.17948 6.69331C6.1194 6.53692 6.20952 6.44309 6.44983 6.41182L7.53124 6.22415C7.47116 6.22415 7.44112 6.22415 7.44112 6.22415C7.32096 6.09904 7.38104 6.00521 7.62136 5.94266L10.3249 5.28584L11.2261 5.09817C11.3462 5.03562 11.4664 4.97307 11.5865 4.91051L10.3249 5.23892L8.97312 5.52042C8.7328 5.58297 8.55257 5.55169 8.43241 5.42659C8.31226 5.30148 8.37233 5.20765 8.61265 5.14509L10.415 4.76977C10.4751 4.70721 10.5352 4.67594 10.5952 4.67594L11.947 4.39444L13.1185 4.15986C13.2387 4.09731 13.2988 4.05039 13.2988 4.01911L11.8569 4.39444C11.6166 4.45699 11.4363 4.42572 11.3162 4.30061C11.196 4.1755 11.2561 4.08167 11.4964 4.01911L12.758 3.6907C12.758 3.56559 12.8782 3.4874 13.1185 3.45613L14.6505 3.26846L15.822 2.89314C15.822 2.89314 15.8521 2.89314 15.9122 2.89314C15.9722 2.89314 16.0023 2.89314 16.0023 2.89314C16.3627 2.73675 16.7232 2.596 17.0837 2.47089C17.0837 2.47089 17.1137 2.47089 17.1738 2.47089C17.1738 2.43962 17.1738 2.42398 17.1738 2.42398C18.2552 2.11121 19.3667 1.84535 20.5081 1.62641C21.7097 1.37619 22.9113 1.15725 24.1128 0.96959C25.9152 0.53171 28.108 0.250216 30.6914 0.125107C33.2748 0 35.5577 -0.0312767 37.5403 0.0312767C37.9008 0.0312767 38.2613 0.0312767 38.6217 0.0312767C39.0423 0.0312767 39.4328 0.0312767 39.7933 0.0312767C41.5355 0.0625535 43.3078 0.10947 45.1102 0.172025C46.9726 0.234578 48.6548 0.453518 50.1568 0.828845C50.1568 0.828845 50.2168 0.860122 50.337 0.922675C50.4571 0.953952 50.5172 0.96959 50.5172 0.96959C53.2808 2.40834 56.0144 3.92528 58.7179 5.52042C61.4815 7.11555 64.0649 8.71069 66.468 10.3058C66.468 10.3058 66.498 10.3371 66.5581 10.3997C66.6182 10.4309 66.6482 10.4466 66.6482 10.4466C67.3692 11.2911 67.7597 12.2606 67.8198 13.3553C67.9399 14.45 68 15.5291 68 16.5925C67.9399 16.9366 67.9099 17.2806 67.9099 17.6247C67.9099 17.9374 67.9399 18.2502 68 18.563C68 19.1885 67.97 19.9861 67.9099 20.9557C67.8498 21.9253 67.6696 22.9418 67.3692 24.0052C67.1289 25.0686 66.7384 26.0382 66.1976 26.914C65.717 27.7897 65.0261 28.4622 64.1249 28.9314C62.2024 29.9322 60.0096 30.8549 57.5464 31.6994C55.1433 32.5439 52.8002 33.3414 50.5172 34.0921C50.5172 34.0921 50.4872 34.0921 50.4271 34.0921C50.4271 34.1234 50.4271 34.139 50.4271 34.139C49.3457 34.4205 48.0841 34.6394 46.6422 34.7958C45.2604 34.9522 43.7584 35.0773 42.1363 35.1712L40.6043 35.4526C40.364 35.4839 40.2138 35.437 40.1537 35.3119C40.0936 35.2493 40.0936 35.1868 40.1537 35.1242C39.9735 35.1555 39.7933 35.1712 39.613 35.1712L38.7118 35.265C38.5917 35.2963 38.4715 35.2963 38.3514 35.265C38.2913 35.265 38.1711 35.2493 37.9909 35.2181C37.9909 35.2493 37.9909 35.265 37.9909 35.265L36.4589 35.4526ZM26.9966 33.6699C27.0567 33.6699 27.0867 33.6855 27.0867 33.7168C28.2883 33.8106 29.4898 33.8888 30.6914 33.9513C31.953 33.9826 33.1546 34.0295 34.2961 34.0921H36.8194C38.6818 34.0608 40.8146 34.0139 43.2177 33.9513C45.6809 33.8575 47.7236 33.5917 49.3457 33.1538C51.5686 32.4031 53.8516 31.6212 56.1946 30.808C58.5978 29.9948 60.7305 29.1034 62.593 28.1338C63.3139 27.7585 63.8846 27.1642 64.3052 26.351C64.7858 25.5065 65.1162 24.5995 65.2965 23.6299C65.5368 22.629 65.687 21.6751 65.7471 20.768C65.8071 19.861 65.8372 19.1416 65.8372 18.6099C65.7771 18.2971 65.7471 17.9844 65.7471 17.6716C65.8071 17.3275 65.8372 16.9835 65.8372 16.6394C65.8372 15.6386 65.8071 14.6377 65.7471 13.6368C65.687 12.6047 65.3265 11.7133 64.6657 10.9626C62.3226 9.39878 59.7993 7.83493 57.0958 6.27107C54.4524 4.70721 51.7789 3.22155 49.0753 1.81407C47.7536 1.5013 46.2517 1.31364 44.5695 1.25109C42.9474 1.18853 41.3553 1.15725 39.7933 1.15725C39.3727 1.15725 38.9522 1.15725 38.5316 1.15725C38.1711 1.15725 37.8107 1.15725 37.4502 1.15725C35.6479 1.0947 33.5151 1.12598 31.0519 1.25109C28.5887 1.34492 26.546 1.59513 24.9239 2.00174C24.9239 2.00174 24.8939 2.00174 24.8338 2.00174C23.6923 2.1894 22.5808 2.3927 21.4994 2.61164C20.418 2.83058 19.3667 3.09644 18.3453 3.40921C15.2213 4.56646 12.5478 5.89574 10.3249 7.39705C9.78417 7.77237 9.30355 8.19461 8.883 8.66377C8.883 8.7576 8.82292 8.8358 8.70276 8.89835C8.52253 9.08601 8.37233 9.28931 8.25218 9.50825C8.25218 9.50825 8.25218 9.52389 8.25218 9.55517C8.31226 9.649 8.25218 9.72719 8.07194 9.78975C7.95179 9.97741 7.83163 10.1807 7.71147 10.3997C7.71147 10.3997 7.71147 10.4153 7.71147 10.4466C7.83163 10.5404 7.80159 10.6186 7.62136 10.6811C7.5012 10.9001 7.41108 11.1034 7.351 11.291C7.351 11.3223 7.351 11.338 7.351 11.338C7.47116 11.4631 7.44112 11.5413 7.26089 11.5725C7.14073 11.7915 7.08065 12.0104 7.08065 12.2294C7.08065 12.2294 7.08065 12.245 7.08065 12.2763C7.20081 12.3701 7.17077 12.4483 6.99053 12.5109C6.99053 12.5734 6.99053 12.6203 6.99053 12.6516C6.93046 12.9018 6.90042 13.1364 6.90042 13.3553C6.90042 13.3553 6.90042 13.371 6.90042 13.4023C7.02057 13.4648 7.02057 13.5274 6.90042 13.5899C6.90042 14.1216 6.93046 14.6377 6.99053 15.1381C7.11069 15.6386 7.20081 16.139 7.26089 16.6394C7.32096 16.7958 7.351 16.9366 7.351 17.0617C7.41108 17.1868 7.44112 17.3119 7.44112 17.437C7.5012 17.8123 7.53124 18.1877 7.53124 18.563C7.59132 18.9383 7.65139 19.3136 7.71147 19.689C7.71147 20.3145 7.74151 20.9401 7.80159 21.5656C7.92175 22.1911 8.13202 22.801 8.43241 23.3953C9.03319 24.3962 9.66402 25.4909 10.3249 26.6794C11.0458 27.8679 12.1272 28.8375 13.5691 29.5882C15.011 30.3076 16.6331 30.98 18.4354 31.6056C20.2979 32.2311 22.1303 32.7785 23.9326 33.2476C24.3531 33.3102 24.7737 33.3884 25.1942 33.4822C25.2543 33.4822 25.2844 33.4822 25.2844 33.4822C25.8251 33.576 26.3958 33.6386 26.9966 33.6699ZM23.482 34.3267C23.4219 34.3267 23.3919 34.3267 23.3919 34.3267L22.4907 34.4674L21.2291 34.7958L22.2204 34.6082L23.482 34.3267Z" fill="black" fill-opacity="0.2"/>
</g>
</svg>
