<svg width="57" height="57" viewBox="0 0 57 57" fill="none" xmlns="http://www.w3.org/2000/svg">
<g id="&#208;&#158;">
<path d="M30.2008 56.1334L28.9391 56.5048C28.8402 56.5543 28.7412 56.5543 28.6423 56.5048C28.5928 56.4553 28.5186 56.4057 28.4196 56.3562C28.4196 56.3562 28.3949 56.3562 28.3454 56.3562L27.158 56.7276C27.0096 56.7771 26.8859 56.7524 26.7869 56.6533L26.119 56.9505C25.9211 57.0495 25.7727 57 25.6737 56.8019C25.6737 56.8019 25.6737 56.7771 25.6737 56.7276C25.5747 56.7276 25.5005 56.6533 25.4511 56.5048C25.4016 56.3067 25.4758 56.1829 25.6737 56.1334L27.158 55.6134C26.8117 55.6134 26.5148 55.6134 26.2674 55.6134L25.2284 56.1334C25.2284 56.1334 25.2037 56.1334 25.1542 56.1334L23.8926 56.6533C23.6946 56.7029 23.5462 56.6286 23.4473 56.4305C23.3483 56.2324 23.4225 56.0838 23.6699 55.9848L24.6347 55.6877L23.5957 55.9105L22.4825 56.3562C22.2846 56.4057 22.1362 56.3315 22.0372 56.1334L20.7013 56.6533C20.5034 56.7524 20.355 56.7029 20.2561 56.5048C20.2066 56.3067 20.2808 56.1581 20.4787 56.0591L21.7403 55.5391L22.4825 55.1677C22.3835 55.1677 22.2598 55.1429 22.1114 55.0934C21.963 55.0934 21.7898 55.0934 21.5919 55.0934L20.3303 55.5391L19.2913 55.9848C19.0439 56.0343 18.8955 55.96 18.846 55.7619C18.747 55.5639 18.7965 55.4153 18.9944 55.3162L20.1076 54.9448L20.5529 54.722C20.5529 54.722 20.5282 54.722 20.4787 54.722L19.9592 54.9448L18.6976 55.3905L17.5101 55.8362C17.3122 55.8858 17.1638 55.8115 17.0648 55.6134C17.0154 55.4648 17.0648 55.341 17.2133 55.242L16.3227 55.5391C16.1248 55.5886 15.9764 55.5143 15.8774 55.3162C15.8279 55.1182 15.9021 54.9696 16.1001 54.8705L17.2875 54.4991L18.4007 53.9049C18.4007 53.9049 18.4254 53.9049 18.4749 53.9049C18.4254 53.8553 18.376 53.8306 18.3265 53.8306L17.2133 54.3506L16.0258 54.722L14.9126 55.242C14.7147 55.341 14.5663 55.2915 14.4673 55.0934C14.3684 54.8953 14.4179 54.7467 14.6158 54.6477L15.729 54.1277C15.7785 54.1277 15.8032 54.1277 15.8032 54.1277L17.5843 53.4592C17.4359 53.3601 17.2875 53.2858 17.1391 53.2363C17.0401 53.1373 16.9164 53.063 16.768 53.0135L15.5063 53.5335C15.5063 53.5335 15.4816 53.5335 15.4321 53.5335L14.1705 53.8306L12.9088 54.4249C12.7109 54.5239 12.5625 54.4744 12.4636 54.2763C12.3646 54.0287 12.4141 53.8801 12.612 53.8306L13.9478 53.2363L15.2837 52.8649L16.1001 52.5678C15.9516 52.5182 15.7537 52.5182 15.5063 52.5678L14.3931 52.9392L13.2057 53.4592L12.1667 53.9791C11.9688 54.0287 11.8204 53.9544 11.7214 53.7563C11.6225 53.5582 11.6719 53.4096 11.8698 53.3106L12.9088 52.8649C12.9583 52.8649 12.9831 52.8649 12.9831 52.8649L14.1705 52.3449L15.1353 51.9735C14.9374 51.8745 14.7642 51.7754 14.6158 51.6764L14.0221 51.8992L12.8346 52.4192L11.6472 52.7163L10.3856 53.3106C10.1876 53.4096 10.0392 53.3601 9.94026 53.162C9.84131 52.9639 9.89079 52.8154 10.0887 52.7163L11.4246 52.1221C11.474 52.1221 11.4988 52.1221 11.4988 52.1221L12.612 51.7507L13.9478 51.2307C13.7005 51.0821 13.4778 50.9088 13.2799 50.7107L11.7214 51.2307L10.534 51.6021L9.42076 52.0478C9.22286 52.1468 9.07443 52.0973 8.97548 51.8992C8.926 51.6516 9.00022 51.503 9.19812 51.4535L10.3113 51.0078L11.4988 50.5621L12.612 50.265C12.4141 50.1164 12.2162 49.9679 12.0183 49.8193L11.4246 49.9679L10.1629 50.4878L9.12391 50.8592L7.78805 51.305C7.59014 51.3545 7.46645 51.2802 7.41698 51.0821C7.31803 50.884 7.39224 50.7354 7.63962 50.6364L8.90126 50.265L9.94026 49.8193L11.2019 49.3736C11.2019 49.3736 11.2019 49.3488 11.2019 49.2993C11.2019 49.2993 11.2761 49.2993 11.4246 49.2993C11.2266 49.1507 11.0535 49.0022 10.9051 48.8536L10.4598 48.9279L9.42076 49.4479L8.30755 49.8936L7.26855 50.1907C7.02117 50.2897 6.87274 50.2155 6.82326 49.9679C6.77379 49.7698 6.848 49.646 7.04591 49.5964L9.12391 48.8536L10.2371 48.3336C10.2371 48.3336 10.2619 48.3336 10.3113 48.3336C10.2619 48.2346 10.1876 48.1603 10.0887 48.1108C9.98974 48.0117 9.89079 47.9127 9.79183 47.8136L9.34655 47.9622L8.15912 48.4822L6.97169 48.8536L5.78426 49.1507C5.58636 49.2498 5.43793 49.1755 5.33898 48.9279C5.2895 48.7298 5.38845 48.606 5.63583 48.5565L6.82326 48.1851L7.93648 47.8879L9.34655 47.2194C9.19812 47.0213 9.04969 46.8232 8.90126 46.6251L8.45598 46.848C8.4065 46.848 8.38176 46.848 8.38176 46.848L7.12012 47.2937L5.85848 47.8879L4.59683 48.3336C4.39893 48.4327 4.2505 48.3831 4.15155 48.1851C4.10207 47.9374 4.17629 47.7889 4.37419 47.7394L5.56162 47.2194L6.89748 46.6994C6.89748 46.6994 6.89748 46.6746 6.89748 46.6251L8.53019 46.0308C8.38176 45.7832 8.23333 45.5356 8.08491 45.288L7.34276 45.5851L6.15533 45.9566L4.96791 46.2537L3.92891 46.7737C3.731 46.8727 3.58257 46.8232 3.48362 46.6251C3.38467 46.427 3.43414 46.2785 3.63205 46.1794L4.67105 45.6594C4.67105 45.6594 4.69579 45.6594 4.74526 45.6594L6.00691 45.288L7.12012 44.9909L7.78805 44.6195C7.6891 44.3718 7.59014 44.1242 7.49119 43.8766L6.74905 44.248L5.56162 44.6195L4.4484 45.2137L3.26098 45.7337C3.06307 45.7832 2.93938 45.709 2.8899 45.5109C2.79095 45.3128 2.84043 45.1642 3.03833 45.0652L4.15155 44.6195L5.33898 44.0252L6.45219 43.6538L7.19433 43.2824C7.09538 42.9852 6.99643 42.6881 6.89748 42.391L5.93269 42.8367L4.67105 43.3566L3.63205 43.9509C3.63205 43.9509 3.60731 43.9509 3.55783 43.9509L2.44462 44.3223C2.19724 44.3719 2.04881 44.2976 1.99933 44.0995C1.94986 43.9014 2.02407 43.7528 2.22198 43.6538L3.33519 43.3566L4.37419 42.7624L5.71005 42.2424L6.67483 41.7967C6.57588 41.4996 6.47693 41.2024 6.37798 40.9053L5.63583 41.1281L4.52262 41.7224L3.33519 42.0938L2.07355 42.6138C1.87564 42.7129 1.72721 42.6633 1.62826 42.4652C1.52931 42.2672 1.57879 42.1186 1.77669 42.0195L3.11255 41.4253C3.16202 41.4253 3.18676 41.4253 3.18676 41.4253L4.29998 41.1281L5.41319 40.5339L6.22955 40.2367C6.1306 40.0387 6.03164 39.7663 5.93269 39.4196L5.19055 39.6425L4.00312 40.0882L2.8899 40.6082L1.8509 41.2024C1.653 41.3015 1.50457 41.252 1.40562 41.0539C1.30667 40.8558 1.35614 40.7072 1.55405 40.6082L2.59305 40.0139L3.70626 39.4939C3.70626 39.4444 3.70626 39.4196 3.70626 39.4196L4.96791 39.0482L5.78426 38.7511C5.68531 38.454 5.6111 38.2063 5.56162 38.0083L4.96791 38.2311L3.78048 38.7511C3.731 38.7511 3.70626 38.7511 3.70626 38.7511C3.70626 38.8006 3.70626 38.8254 3.70626 38.8254L2.44462 39.1225L1.25719 39.5682C1.05928 39.6177 0.910856 39.5434 0.811904 39.3454C0.762428 39.1473 0.836642 38.9987 1.03455 38.8997L2.22198 38.5282L3.48362 38.1568L4.67105 37.6368C4.67105 37.6368 4.67105 37.6121 4.67105 37.5626C4.72052 37.5626 4.74526 37.5626 4.74526 37.5626L5.33898 37.3397C5.2895 37.0921 5.24002 36.8197 5.19055 36.5226L4.52262 36.8197L3.26098 37.3397L2.07355 37.7111C2.07355 37.7111 2.07355 37.7359 2.07355 37.7854L0.811904 38.0825C0.613999 38.1321 0.490309 38.0578 0.440832 37.8597C0.391356 37.6616 0.46557 37.5378 0.663475 37.4883L1.8509 37.1169L2.96412 36.6712L4.29998 36.2255L5.04212 35.854C4.99264 35.5074 4.86895 35.2845 4.67105 35.1855C4.62157 35.235 4.59683 35.2598 4.59683 35.2598L3.48362 35.5569L2.29619 36.0769C2.29619 36.0769 2.27145 36.0769 2.22198 36.0769L1.03455 36.374C0.787166 36.4731 0.638737 36.3988 0.589261 36.1512C0.539785 35.9531 0.613999 35.8293 0.811904 35.7798L2.07355 35.4083L3.26098 34.9626L4.37419 34.5912L4.89369 34.3684C4.84421 34.0217 4.81948 33.6503 4.81948 33.2541L4.37419 33.3284L3.33519 33.9227L2.22198 34.4427L0.886118 34.8141C0.688213 34.9131 0.564523 34.8388 0.515047 34.5912C0.416094 34.3931 0.46557 34.2693 0.663475 34.2198L1.99933 33.7741L3.03833 33.3284L4.07733 32.7341C4.07733 32.7341 4.10207 32.7341 4.15155 32.7341L4.74526 32.5856C4.74526 32.1894 4.64631 31.9418 4.4484 31.8427L3.26098 32.1399L2.07355 32.5856L0.886118 32.957C0.688213 33.056 0.539785 33.0065 0.440832 32.8084C0.391356 32.5608 0.46557 32.4123 0.663475 32.3627L1.8509 31.917L4.22576 31.1742L4.74526 31.0256C4.74526 30.8275 4.72052 30.6542 4.67105 30.5056C4.67105 30.3571 4.59683 30.2333 4.4484 30.1342L3.18676 30.4314L1.92512 30.9513L0.589261 31.397C0.391356 31.4466 0.267666 31.3723 0.218189 31.1742C0.119237 30.9266 0.193451 30.778 0.440832 30.7285L1.70248 30.3571L2.8899 29.8371C2.8899 29.8371 2.91464 29.8371 2.96412 29.8371L4.22576 29.4657L4.67105 29.3171C4.67105 29.1685 4.64631 29.02 4.59683 28.8714C4.54736 28.7228 4.44841 28.599 4.29998 28.5L2.96412 28.8714L1.8509 29.3171L0.73769 29.6885C0.539785 29.7381 0.416094 29.6638 0.366618 29.4657C0.267666 29.2676 0.34188 29.119 0.589261 29.02L1.62826 28.7228L2.74148 28.2029C2.74148 28.2029 2.76621 28.2029 2.81569 28.2029L4.07733 27.8314L4.52262 27.7572C4.47314 27.4105 4.42367 27.1629 4.37419 27.0143L3.26098 27.5343L1.99933 27.9057L0.886118 28.4257C0.688213 28.5248 0.539785 28.4505 0.440832 28.2029C0.34188 28.0048 0.391356 27.881 0.589261 27.8314L1.77669 27.3115L2.96412 26.8658L4.37419 26.2715C4.37419 25.9744 4.34945 25.7268 4.29998 25.5287L3.4094 25.9001L2.22198 26.2715L1.18298 26.6429C0.935594 26.6924 0.787166 26.6182 0.73769 26.4201C0.688213 26.222 0.762428 26.0982 0.960333 26.0487L1.99933 25.6772L3.18676 25.2315L4.22576 24.8601C4.22576 24.563 4.20102 24.2659 4.15155 23.9687L3.4094 24.3401L1.3314 25.2315C1.08402 25.3306 0.935594 25.2811 0.886118 25.083C0.787166 24.8849 0.836642 24.7363 1.03455 24.6373L2.14776 24.1173L3.18676 23.7459L4.15155 23.3002C4.10207 23.003 4.07733 22.7307 4.07733 22.4831L3.48362 22.7802L2.22198 23.3745C2.22198 23.3745 2.19724 23.3745 2.14776 23.3745L0.960333 23.6716C0.712952 23.7706 0.564523 23.6964 0.515047 23.4487C0.465571 23.2507 0.539785 23.1268 0.73769 23.0773L1.92512 22.7059L3.18676 22.1859L4.07733 21.7402C4.07733 21.3936 4.07733 21.0469 4.07733 20.7003L3.70626 20.8488L2.3704 21.2945L1.25719 21.8145C1.05928 21.9136 0.910856 21.864 0.811904 21.6659C0.712952 21.4679 0.762428 21.3193 0.960333 21.2202L2.14776 20.7003C2.14776 20.7003 2.14776 20.6755 2.14776 20.626L3.48362 20.2546L4.15155 19.9574C4.15155 19.9574 4.15155 19.9327 4.15155 19.8831C4.15155 19.6851 4.17629 19.4622 4.22576 19.2146L3.55783 19.4374L2.22198 20.0317L0.960333 20.626C0.762428 20.6755 0.613999 20.6012 0.515047 20.4031C0.416094 20.205 0.46557 20.0565 0.663475 19.9574L1.99933 19.4374L3.26098 18.8432L4.29998 18.3975C4.34945 18.1003 4.39893 17.8032 4.4484 17.5061L3.78048 17.7289L2.66726 18.1746L1.47983 18.7689C1.28193 18.8679 1.1335 18.8184 1.03455 18.6203C0.935595 18.4222 0.985071 18.2737 1.18298 18.1746L2.44462 17.5804L3.48362 17.0604C3.48362 17.0604 3.50836 17.0604 3.55783 17.0604L4.59683 16.7633C4.69579 16.5156 4.69579 16.3423 4.59683 16.2433L3.48362 16.8375L2.14776 17.4318C1.94986 17.4813 1.80143 17.407 1.70248 17.2089C1.653 17.0109 1.72721 16.8623 1.92512 16.7633L3.18676 16.2433L4.29998 15.649C4.29998 15.649 4.32471 15.649 4.37419 15.649L4.96791 15.4262C5.06686 15.1785 5.06686 15.03 4.96791 14.9805L3.85469 15.2776L2.74148 15.7976C2.54357 15.8966 2.39514 15.8223 2.29619 15.5747C2.19724 15.3766 2.27145 15.2528 2.51883 15.2033L3.63205 14.6833C3.68152 14.6833 3.70626 14.6833 3.70626 14.6833L4.74526 14.3119L5.48741 14.0148C5.48741 13.9157 5.51214 13.8167 5.56162 13.7176L4.4484 14.1633L3.33519 14.5348C3.13729 14.5843 2.98886 14.51 2.8899 14.3119C2.84043 14.0643 2.91464 13.9157 3.11255 13.8662L4.22576 13.4948L5.41319 13.0491L5.93269 12.8262C6.03164 12.6777 6.10586 12.5291 6.15533 12.3805L5.26476 12.6034L4.15155 12.9748C3.90417 13.0243 3.75574 12.95 3.70626 12.752C3.65679 12.5539 3.731 12.4053 3.92891 12.3063L5.11633 12.0091L6.67483 11.4891C6.72431 11.3901 6.79852 11.2663 6.89748 11.1177L6.08112 11.4149L5.04212 11.712C4.79474 11.811 4.64631 11.7368 4.59683 11.4891C4.54736 11.2911 4.62157 11.1672 4.81948 11.1177L5.85848 10.7463L6.82326 10.4492L5.71005 10.8206C5.51214 10.8701 5.36372 10.7958 5.26476 10.5977C5.21529 10.3501 5.2895 10.2016 5.48741 10.152L6.37798 9.85491C6.3285 9.85491 6.30376 9.85491 6.30376 9.85491C6.20481 9.65682 6.25429 9.50825 6.45219 9.40921L8.67862 8.36924L9.42076 8.07211C9.51972 7.97307 9.61867 7.87402 9.71762 7.77498L8.67862 8.29496L7.56541 8.74066C7.3675 8.8397 7.21907 8.79018 7.12012 8.59209C7.02117 8.394 7.07064 8.24544 7.26855 8.1464L8.75284 7.55213C8.80231 7.45309 8.85179 7.40356 8.90126 7.40356L10.0145 6.95786L10.9793 6.58645C11.0782 6.4874 11.1277 6.41312 11.1277 6.36359L9.94026 6.95786C9.74236 7.05691 9.59393 7.00739 9.49498 6.8093C9.39603 6.61121 9.4455 6.46264 9.64341 6.36359L10.6824 5.84361C10.6824 5.64553 10.7814 5.52172 10.9793 5.4722L12.2409 5.17506L13.2057 4.5808C13.2057 4.5808 13.2304 4.5808 13.2799 4.5808C13.3294 4.5808 13.3541 4.5808 13.3541 4.5808C13.651 4.33319 13.9478 4.11034 14.2447 3.91225C14.2447 3.91225 14.2694 3.91225 14.3189 3.91225C14.3189 3.86273 14.3189 3.83797 14.3189 3.83797C15.2095 3.34275 16.1248 2.92181 17.0648 2.57515C18.0544 2.17897 19.0439 1.83232 20.0334 1.53518C21.5177 0.841875 23.3236 0.396175 25.4511 0.198086C27.5785 0 29.4586 -0.0495215 31.0913 0.0495215C31.3882 0.0495215 31.6851 0.0495215 31.9819 0.0495215C32.3282 0.0495215 32.6498 0.0495215 32.9467 0.0495215C34.3815 0.099043 35.8411 0.173327 37.3253 0.272373C38.8591 0.371416 40.2444 0.718071 41.4813 1.31234C41.4813 1.31234 41.5308 1.36186 41.6298 1.4609C41.7287 1.51042 41.7782 1.53518 41.7782 1.53518C44.0541 3.8132 46.3053 6.21503 48.5317 8.74066C50.8076 11.2663 52.9351 13.7919 54.9141 16.3176C54.9141 16.3176 54.9389 16.3671 54.9883 16.4661C55.0378 16.5156 55.0626 16.5404 55.0626 16.5404C55.6563 17.8775 55.9779 19.4127 56.0274 21.146C56.1263 22.8792 56.1758 24.5877 56.1758 26.2715C56.1263 26.8162 56.1016 27.361 56.1016 27.9057C56.1016 28.401 56.1263 28.8962 56.1758 29.3914C56.1758 30.3818 56.151 31.6447 56.1016 33.1798C56.0521 34.715 55.9037 36.3245 55.6563 38.0083C55.4584 39.692 55.1368 41.2272 54.6915 42.6138C54.2957 44.0004 53.7267 45.0652 52.9846 45.808C51.4013 47.3927 49.5954 48.8536 47.5669 50.1907C45.5879 51.5278 43.6583 52.7906 41.7782 53.9791C41.7782 53.9791 41.7535 53.9791 41.704 53.9791C41.704 54.0287 41.704 54.0534 41.704 54.0534C40.8134 54.4991 39.7744 54.8458 38.587 55.0934C37.449 55.341 36.2121 55.5391 34.8763 55.6877L33.6146 56.1334C33.4167 56.1829 33.293 56.1086 33.2436 55.9105C33.1941 55.8115 33.1941 55.7124 33.2436 55.6134C33.0951 55.6629 32.9467 55.6877 32.7983 55.6877L32.0561 55.8362C31.9572 55.8858 31.8582 55.8858 31.7593 55.8362C31.7098 55.8362 31.6108 55.8115 31.4624 55.7619C31.4624 55.8115 31.4624 55.8362 31.4624 55.8362L30.2008 56.1334ZM22.4083 53.3106C22.4577 53.3106 22.4825 53.3354 22.4825 53.3849C23.472 53.5335 24.4615 53.6573 25.4511 53.7563C26.4901 53.8058 27.4796 53.8801 28.4196 53.9791H30.4976C32.0314 53.9296 33.7878 53.8553 35.7668 53.7563C37.7954 53.6077 39.4776 53.1868 40.8134 52.4935C42.644 51.305 44.5241 50.0669 46.4537 48.7793C48.4328 47.4917 50.1892 46.0804 51.7229 44.5452C52.3166 43.9509 52.7867 43.01 53.133 41.7224C53.5288 40.3853 53.8009 38.9492 53.9493 37.414C54.1473 35.8293 54.2709 34.3189 54.3204 32.8827C54.3699 31.4466 54.3946 30.3076 54.3946 29.4657C54.3452 28.9705 54.3204 28.4752 54.3204 27.98C54.3699 27.4353 54.3946 26.8905 54.3946 26.3458C54.3946 24.7611 54.3699 23.1764 54.3204 21.5917C54.2709 19.9574 53.9741 18.546 53.4299 17.3575C51.5003 14.8814 49.4223 12.4053 47.1958 9.92919C45.0189 7.45308 42.8172 5.10078 40.5908 2.87228C39.5023 2.37706 38.2654 2.07993 36.8801 1.98089C35.5442 1.88184 34.2331 1.83232 32.9467 1.83232C32.6004 1.83232 32.254 1.83232 31.9077 1.83232C31.6108 1.83232 31.314 1.83232 31.0171 1.83232C29.5328 1.73328 27.7764 1.7828 25.7479 1.98089C23.7194 2.12945 22.0372 2.52563 20.7013 3.16942C20.7013 3.16942 20.6766 3.16942 20.6271 3.16942C19.6871 3.46655 18.7718 3.78844 17.8812 4.1351C16.9906 4.48175 16.1248 4.90269 15.2837 5.39792C12.7109 7.23024 10.5092 9.33493 8.67862 11.712C8.23334 12.3063 7.83753 12.9748 7.49119 13.7176C7.49119 13.8662 7.44172 13.99 7.34276 14.0891C7.19433 14.3862 7.07064 14.7081 6.97169 15.0547C6.97169 15.0547 6.97169 15.0795 6.97169 15.129C7.02117 15.2776 6.97169 15.4014 6.82326 15.5004C6.72431 15.7976 6.62536 16.1195 6.52641 16.4661C6.52641 16.4661 6.52641 16.4909 6.52641 16.5404C6.62536 16.689 6.60062 16.8128 6.45219 16.9118C6.35324 17.2585 6.27903 17.5804 6.22955 17.8775C6.22955 17.927 6.22955 17.9518 6.22955 17.9518C6.3285 18.1499 6.30376 18.2737 6.15533 18.3232C6.05638 18.6699 6.00691 19.0165 6.00691 19.3632C6.00691 19.3632 6.00691 19.3879 6.00691 19.4374C6.10586 19.586 6.08112 19.7098 5.93269 19.8089C5.93269 19.9079 5.93269 19.9822 5.93269 20.0317C5.88322 20.4279 5.85848 20.7993 5.85848 21.146C5.85848 21.146 5.85848 21.1707 5.85848 21.2202C5.95743 21.3193 5.95743 21.4183 5.85848 21.5174C5.85848 22.3593 5.88322 23.1764 5.93269 23.9687C6.03164 24.7611 6.10586 25.5534 6.15533 26.3458C6.20481 26.5934 6.22955 26.8162 6.22955 27.0143C6.27903 27.2124 6.30376 27.4105 6.30376 27.6086C6.35324 28.2029 6.37798 28.7971 6.37798 29.3914C6.42745 29.9857 6.47693 30.5799 6.52641 31.1742C6.52641 32.1646 6.55114 33.1551 6.60062 34.1455C6.69957 35.136 6.87274 36.1017 7.12012 37.0426C7.61488 38.6273 8.13438 40.3606 8.67862 42.2424C9.27234 44.1242 10.1629 45.6594 11.3503 46.848C12.5378 47.987 13.8736 49.0517 15.3579 50.0421C16.8917 51.0326 18.4007 51.8992 19.885 52.642C20.2313 52.7411 20.5777 52.8649 20.924 53.0135C20.9735 53.0135 20.9982 53.0135 20.9982 53.0135C21.4435 53.162 21.9135 53.2611 22.4083 53.3106ZM19.5139 54.3506C19.4644 54.3506 19.4397 54.3506 19.4397 54.3506L18.6976 54.5734L17.6586 55.0934L18.4749 54.7963L19.5139 54.3506Z" fill="#0F0F0F"/>
<path d="M30.2008 56.1334L28.9391 56.5048C28.8402 56.5543 28.7412 56.5543 28.6423 56.5048C28.5928 56.4553 28.5186 56.4057 28.4196 56.3562C28.4196 56.3562 28.3949 56.3562 28.3454 56.3562L27.158 56.7276C27.0096 56.7771 26.8859 56.7524 26.7869 56.6533L26.119 56.9505C25.9211 57.0495 25.7727 57 25.6737 56.8019C25.6737 56.8019 25.6737 56.7771 25.6737 56.7276C25.5747 56.7276 25.5005 56.6533 25.4511 56.5048C25.4016 56.3067 25.4758 56.1829 25.6737 56.1334L27.158 55.6134C26.8117 55.6134 26.5148 55.6134 26.2674 55.6134L25.2284 56.1334C25.2284 56.1334 25.2037 56.1334 25.1542 56.1334L23.8926 56.6533C23.6946 56.7029 23.5462 56.6286 23.4473 56.4305C23.3483 56.2324 23.4225 56.0838 23.6699 55.9848L24.6347 55.6877L23.5957 55.9105L22.4825 56.3562C22.2846 56.4057 22.1362 56.3315 22.0372 56.1334L20.7013 56.6533C20.5034 56.7524 20.355 56.7029 20.2561 56.5048C20.2066 56.3067 20.2808 56.1581 20.4787 56.0591L21.7403 55.5391L22.4825 55.1677C22.3835 55.1677 22.2598 55.1429 22.1114 55.0934C21.963 55.0934 21.7898 55.0934 21.5919 55.0934L20.3303 55.5391L19.2913 55.9848C19.0439 56.0343 18.8955 55.96 18.846 55.7619C18.747 55.5639 18.7965 55.4153 18.9944 55.3162L20.1076 54.9448L20.5529 54.722C20.5529 54.722 20.5282 54.722 20.4787 54.722L19.9592 54.9448L18.6976 55.3905L17.5101 55.8362C17.3122 55.8858 17.1638 55.8115 17.0648 55.6134C17.0154 55.4648 17.0648 55.341 17.2133 55.242L16.3227 55.5391C16.1248 55.5886 15.9764 55.5143 15.8774 55.3162C15.8279 55.1182 15.9021 54.9696 16.1001 54.8705L17.2875 54.4991L18.4007 53.9049C18.4007 53.9049 18.4254 53.9049 18.4749 53.9049C18.4254 53.8553 18.376 53.8306 18.3265 53.8306L17.2133 54.3506L16.0258 54.722L14.9126 55.242C14.7147 55.341 14.5663 55.2915 14.4673 55.0934C14.3684 54.8953 14.4179 54.7467 14.6158 54.6477L15.729 54.1277C15.7785 54.1277 15.8032 54.1277 15.8032 54.1277L17.5843 53.4592C17.4359 53.3601 17.2875 53.2858 17.1391 53.2363C17.0401 53.1373 16.9164 53.063 16.768 53.0135L15.5063 53.5335C15.5063 53.5335 15.4816 53.5335 15.4321 53.5335L14.1705 53.8306L12.9088 54.4249C12.7109 54.5239 12.5625 54.4744 12.4636 54.2763C12.3646 54.0287 12.4141 53.8801 12.612 53.8306L13.9478 53.2363L15.2837 52.8649L16.1001 52.5678C15.9516 52.5182 15.7537 52.5182 15.5063 52.5678L14.3931 52.9392L13.2057 53.4592L12.1667 53.9791C11.9688 54.0287 11.8204 53.9544 11.7214 53.7563C11.6225 53.5582 11.6719 53.4096 11.8698 53.3106L12.9088 52.8649C12.9583 52.8649 12.9831 52.8649 12.9831 52.8649L14.1705 52.3449L15.1353 51.9735C14.9374 51.8745 14.7642 51.7754 14.6158 51.6764L14.0221 51.8992L12.8346 52.4192L11.6472 52.7163L10.3856 53.3106C10.1876 53.4096 10.0392 53.3601 9.94026 53.162C9.84131 52.9639 9.89079 52.8154 10.0887 52.7163L11.4246 52.1221C11.474 52.1221 11.4988 52.1221 11.4988 52.1221L12.612 51.7507L13.9478 51.2307C13.7005 51.0821 13.4778 50.9088 13.2799 50.7107L11.7214 51.2307L10.534 51.6021L9.42076 52.0478C9.22286 52.1468 9.07443 52.0973 8.97548 51.8992C8.926 51.6516 9.00022 51.503 9.19812 51.4535L10.3113 51.0078L11.4988 50.5621L12.612 50.265C12.4141 50.1164 12.2162 49.9679 12.0183 49.8193L11.4246 49.9679L10.1629 50.4878L9.12391 50.8592L7.78805 51.305C7.59014 51.3545 7.46645 51.2802 7.41698 51.0821C7.31803 50.884 7.39224 50.7354 7.63962 50.6364L8.90126 50.265L9.94026 49.8193L11.2019 49.3736C11.2019 49.3736 11.2019 49.3488 11.2019 49.2993C11.2019 49.2993 11.2761 49.2993 11.4246 49.2993C11.2266 49.1507 11.0535 49.0022 10.9051 48.8536L10.4598 48.9279L9.42076 49.4479L8.30755 49.8936L7.26855 50.1907C7.02117 50.2897 6.87274 50.2155 6.82326 49.9679C6.77379 49.7698 6.848 49.646 7.04591 49.5964L9.12391 48.8536L10.2371 48.3336C10.2371 48.3336 10.2619 48.3336 10.3113 48.3336C10.2619 48.2346 10.1876 48.1603 10.0887 48.1108C9.98974 48.0117 9.89079 47.9127 9.79183 47.8136L9.34655 47.9622L8.15912 48.4822L6.97169 48.8536L5.78426 49.1507C5.58636 49.2498 5.43793 49.1755 5.33898 48.9279C5.2895 48.7298 5.38845 48.606 5.63583 48.5565L6.82326 48.1851L7.93648 47.8879L9.34655 47.2194C9.19812 47.0213 9.04969 46.8232 8.90126 46.6251L8.45598 46.848C8.4065 46.848 8.38176 46.848 8.38176 46.848L7.12012 47.2937L5.85848 47.8879L4.59683 48.3336C4.39893 48.4327 4.2505 48.3831 4.15155 48.1851C4.10207 47.9374 4.17629 47.7889 4.37419 47.7394L5.56162 47.2194L6.89748 46.6994C6.89748 46.6994 6.89748 46.6746 6.89748 46.6251L8.53019 46.0308C8.38176 45.7832 8.23333 45.5356 8.08491 45.288L7.34276 45.5851L6.15533 45.9566L4.96791 46.2537L3.92891 46.7737C3.731 46.8727 3.58257 46.8232 3.48362 46.6251C3.38467 46.427 3.43414 46.2785 3.63205 46.1794L4.67105 45.6594C4.67105 45.6594 4.69579 45.6594 4.74526 45.6594L6.00691 45.288L7.12012 44.9909L7.78805 44.6195C7.6891 44.3718 7.59014 44.1242 7.49119 43.8766L6.74905 44.248L5.56162 44.6195L4.4484 45.2137L3.26098 45.7337C3.06307 45.7832 2.93938 45.709 2.8899 45.5109C2.79095 45.3128 2.84043 45.1642 3.03833 45.0652L4.15155 44.6195L5.33898 44.0252L6.45219 43.6538L7.19433 43.2824C7.09538 42.9852 6.99643 42.6881 6.89748 42.391L5.93269 42.8367L4.67105 43.3566L3.63205 43.9509C3.63205 43.9509 3.60731 43.9509 3.55783 43.9509L2.44462 44.3223C2.19724 44.3719 2.04881 44.2976 1.99933 44.0995C1.94986 43.9014 2.02407 43.7528 2.22198 43.6538L3.33519 43.3566L4.37419 42.7624L5.71005 42.2424L6.67483 41.7967C6.57588 41.4996 6.47693 41.2024 6.37798 40.9053L5.63583 41.1281L4.52262 41.7224L3.33519 42.0938L2.07355 42.6138C1.87564 42.7129 1.72721 42.6633 1.62826 42.4652C1.52931 42.2672 1.57879 42.1186 1.77669 42.0195L3.11255 41.4253C3.16202 41.4253 3.18676 41.4253 3.18676 41.4253L4.29998 41.1281L5.41319 40.5339L6.22955 40.2367C6.1306 40.0387 6.03164 39.7663 5.93269 39.4196L5.19055 39.6425L4.00312 40.0882L2.8899 40.6082L1.8509 41.2024C1.653 41.3015 1.50457 41.252 1.40562 41.0539C1.30667 40.8558 1.35614 40.7072 1.55405 40.6082L2.59305 40.0139L3.70626 39.4939C3.70626 39.4444 3.70626 39.4196 3.70626 39.4196L4.96791 39.0482L5.78426 38.7511C5.68531 38.454 5.6111 38.2063 5.56162 38.0083L4.96791 38.2311L3.78048 38.7511C3.731 38.7511 3.70626 38.7511 3.70626 38.7511C3.70626 38.8006 3.70626 38.8254 3.70626 38.8254L2.44462 39.1225L1.25719 39.5682C1.05928 39.6177 0.910856 39.5434 0.811904 39.3454C0.762428 39.1473 0.836642 38.9987 1.03455 38.8997L2.22198 38.5282L3.48362 38.1568L4.67105 37.6368C4.67105 37.6368 4.67105 37.6121 4.67105 37.5626C4.72052 37.5626 4.74526 37.5626 4.74526 37.5626L5.33898 37.3397C5.2895 37.0921 5.24002 36.8197 5.19055 36.5226L4.52262 36.8197L3.26098 37.3397L2.07355 37.7111C2.07355 37.7111 2.07355 37.7359 2.07355 37.7854L0.811904 38.0825C0.613999 38.1321 0.490309 38.0578 0.440832 37.8597C0.391356 37.6616 0.46557 37.5378 0.663475 37.4883L1.8509 37.1169L2.96412 36.6712L4.29998 36.2255L5.04212 35.854C4.99264 35.5074 4.86895 35.2845 4.67105 35.1855C4.62157 35.235 4.59683 35.2598 4.59683 35.2598L3.48362 35.5569L2.29619 36.0769C2.29619 36.0769 2.27145 36.0769 2.22198 36.0769L1.03455 36.374C0.787166 36.4731 0.638737 36.3988 0.589261 36.1512C0.539785 35.9531 0.613999 35.8293 0.811904 35.7798L2.07355 35.4083L3.26098 34.9626L4.37419 34.5912L4.89369 34.3684C4.84421 34.0217 4.81948 33.6503 4.81948 33.2541L4.37419 33.3284L3.33519 33.9227L2.22198 34.4427L0.886118 34.8141C0.688213 34.9131 0.564523 34.8388 0.515047 34.5912C0.416094 34.3931 0.46557 34.2693 0.663475 34.2198L1.99933 33.7741L3.03833 33.3284L4.07733 32.7341C4.07733 32.7341 4.10207 32.7341 4.15155 32.7341L4.74526 32.5856C4.74526 32.1894 4.64631 31.9418 4.4484 31.8427L3.26098 32.1399L2.07355 32.5856L0.886118 32.957C0.688213 33.056 0.539785 33.0065 0.440832 32.8084C0.391356 32.5608 0.46557 32.4123 0.663475 32.3627L1.8509 31.917L4.22576 31.1742L4.74526 31.0256C4.74526 30.8275 4.72052 30.6542 4.67105 30.5056C4.67105 30.3571 4.59683 30.2333 4.4484 30.1342L3.18676 30.4314L1.92512 30.9513L0.589261 31.397C0.391356 31.4466 0.267666 31.3723 0.218189 31.1742C0.119237 30.9266 0.193451 30.778 0.440832 30.7285L1.70248 30.3571L2.8899 29.8371C2.8899 29.8371 2.91464 29.8371 2.96412 29.8371L4.22576 29.4657L4.67105 29.3171C4.67105 29.1685 4.64631 29.02 4.59683 28.8714C4.54736 28.7228 4.44841 28.599 4.29998 28.5L2.96412 28.8714L1.8509 29.3171L0.73769 29.6885C0.539785 29.7381 0.416094 29.6638 0.366618 29.4657C0.267666 29.2676 0.34188 29.119 0.589261 29.02L1.62826 28.7228L2.74148 28.2029C2.74148 28.2029 2.76621 28.2029 2.81569 28.2029L4.07733 27.8314L4.52262 27.7572C4.47314 27.4105 4.42367 27.1629 4.37419 27.0143L3.26098 27.5343L1.99933 27.9057L0.886118 28.4257C0.688213 28.5248 0.539785 28.4505 0.440832 28.2029C0.34188 28.0048 0.391356 27.881 0.589261 27.8314L1.77669 27.3115L2.96412 26.8658L4.37419 26.2715C4.37419 25.9744 4.34945 25.7268 4.29998 25.5287L3.4094 25.9001L2.22198 26.2715L1.18298 26.6429C0.935594 26.6924 0.787166 26.6182 0.73769 26.4201C0.688213 26.222 0.762428 26.0982 0.960333 26.0487L1.99933 25.6772L3.18676 25.2315L4.22576 24.8601C4.22576 24.563 4.20102 24.2659 4.15155 23.9687L3.4094 24.3401L1.3314 25.2315C1.08402 25.3306 0.935594 25.2811 0.886118 25.083C0.787166 24.8849 0.836642 24.7363 1.03455 24.6373L2.14776 24.1173L3.18676 23.7459L4.15155 23.3002C4.10207 23.003 4.07733 22.7307 4.07733 22.4831L3.48362 22.7802L2.22198 23.3745C2.22198 23.3745 2.19724 23.3745 2.14776 23.3745L0.960333 23.6716C0.712952 23.7706 0.564523 23.6964 0.515047 23.4487C0.465571 23.2507 0.539785 23.1268 0.73769 23.0773L1.92512 22.7059L3.18676 22.1859L4.07733 21.7402C4.07733 21.3936 4.07733 21.0469 4.07733 20.7003L3.70626 20.8488L2.3704 21.2945L1.25719 21.8145C1.05928 21.9136 0.910856 21.864 0.811904 21.6659C0.712952 21.4679 0.762428 21.3193 0.960333 21.2202L2.14776 20.7003C2.14776 20.7003 2.14776 20.6755 2.14776 20.626L3.48362 20.2546L4.15155 19.9574C4.15155 19.9574 4.15155 19.9327 4.15155 19.8831C4.15155 19.6851 4.17629 19.4622 4.22576 19.2146L3.55783 19.4374L2.22198 20.0317L0.960333 20.626C0.762428 20.6755 0.613999 20.6012 0.515047 20.4031C0.416094 20.205 0.46557 20.0565 0.663475 19.9574L1.99933 19.4374L3.26098 18.8432L4.29998 18.3975C4.34945 18.1003 4.39893 17.8032 4.4484 17.5061L3.78048 17.7289L2.66726 18.1746L1.47983 18.7689C1.28193 18.8679 1.1335 18.8184 1.03455 18.6203C0.935595 18.4222 0.985071 18.2737 1.18298 18.1746L2.44462 17.5804L3.48362 17.0604C3.48362 17.0604 3.50836 17.0604 3.55783 17.0604L4.59683 16.7633C4.69579 16.5156 4.69579 16.3423 4.59683 16.2433L3.48362 16.8375L2.14776 17.4318C1.94986 17.4813 1.80143 17.407 1.70248 17.2089C1.653 17.0109 1.72721 16.8623 1.92512 16.7633L3.18676 16.2433L4.29998 15.649C4.29998 15.649 4.32471 15.649 4.37419 15.649L4.96791 15.4262C5.06686 15.1785 5.06686 15.03 4.96791 14.9805L3.85469 15.2776L2.74148 15.7976C2.54357 15.8966 2.39514 15.8223 2.29619 15.5747C2.19724 15.3766 2.27145 15.2528 2.51883 15.2033L3.63205 14.6833C3.68152 14.6833 3.70626 14.6833 3.70626 14.6833L4.74526 14.3119L5.48741 14.0148C5.48741 13.9157 5.51214 13.8167 5.56162 13.7176L4.4484 14.1633L3.33519 14.5348C3.13729 14.5843 2.98886 14.51 2.8899 14.3119C2.84043 14.0643 2.91464 13.9157 3.11255 13.8662L4.22576 13.4948L5.41319 13.0491L5.93269 12.8262C6.03164 12.6777 6.10586 12.5291 6.15533 12.3805L5.26476 12.6034L4.15155 12.9748C3.90417 13.0243 3.75574 12.95 3.70626 12.752C3.65679 12.5539 3.731 12.4053 3.92891 12.3063L5.11633 12.0091L6.67483 11.4891C6.72431 11.3901 6.79852 11.2663 6.89748 11.1177L6.08112 11.4149L5.04212 11.712C4.79474 11.811 4.64631 11.7368 4.59683 11.4891C4.54736 11.2911 4.62157 11.1672 4.81948 11.1177L5.85848 10.7463L6.82326 10.4492L5.71005 10.8206C5.51214 10.8701 5.36372 10.7958 5.26476 10.5977C5.21529 10.3501 5.2895 10.2016 5.48741 10.152L6.37798 9.85491C6.3285 9.85491 6.30376 9.85491 6.30376 9.85491C6.20481 9.65682 6.25429 9.50825 6.45219 9.40921L8.67862 8.36924L9.42076 8.07211C9.51972 7.97307 9.61867 7.87402 9.71762 7.77498L8.67862 8.29496L7.56541 8.74066C7.3675 8.8397 7.21907 8.79018 7.12012 8.59209C7.02117 8.394 7.07064 8.24544 7.26855 8.1464L8.75284 7.55213C8.80231 7.45309 8.85179 7.40356 8.90126 7.40356L10.0145 6.95786L10.9793 6.58645C11.0782 6.4874 11.1277 6.41312 11.1277 6.36359L9.94026 6.95786C9.74236 7.05691 9.59393 7.00739 9.49498 6.8093C9.39603 6.61121 9.4455 6.46264 9.64341 6.36359L10.6824 5.84361C10.6824 5.64553 10.7814 5.52172 10.9793 5.4722L12.2409 5.17506L13.2057 4.5808C13.2057 4.5808 13.2304 4.5808 13.2799 4.5808C13.3294 4.5808 13.3541 4.5808 13.3541 4.5808C13.651 4.33319 13.9478 4.11034 14.2447 3.91225C14.2447 3.91225 14.2694 3.91225 14.3189 3.91225C14.3189 3.86273 14.3189 3.83797 14.3189 3.83797C15.2095 3.34275 16.1248 2.92181 17.0648 2.57515C18.0544 2.17897 19.0439 1.83232 20.0334 1.53518C21.5177 0.841875 23.3236 0.396175 25.4511 0.198086C27.5785 0 29.4586 -0.0495215 31.0913 0.0495215C31.3882 0.0495215 31.6851 0.0495215 31.9819 0.0495215C32.3282 0.0495215 32.6498 0.0495215 32.9467 0.0495215C34.3815 0.099043 35.8411 0.173327 37.3253 0.272373C38.8591 0.371416 40.2444 0.718071 41.4813 1.31234C41.4813 1.31234 41.5308 1.36186 41.6298 1.4609C41.7287 1.51042 41.7782 1.53518 41.7782 1.53518C44.0541 3.8132 46.3053 6.21503 48.5317 8.74066C50.8076 11.2663 52.9351 13.7919 54.9141 16.3176C54.9141 16.3176 54.9389 16.3671 54.9883 16.4661C55.0378 16.5156 55.0626 16.5404 55.0626 16.5404C55.6563 17.8775 55.9779 19.4127 56.0274 21.146C56.1263 22.8792 56.1758 24.5877 56.1758 26.2715C56.1263 26.8162 56.1016 27.361 56.1016 27.9057C56.1016 28.401 56.1263 28.8962 56.1758 29.3914C56.1758 30.3818 56.151 31.6447 56.1016 33.1798C56.0521 34.715 55.9037 36.3245 55.6563 38.0083C55.4584 39.692 55.1368 41.2272 54.6915 42.6138C54.2957 44.0004 53.7267 45.0652 52.9846 45.808C51.4013 47.3927 49.5954 48.8536 47.5669 50.1907C45.5879 51.5278 43.6583 52.7906 41.7782 53.9791C41.7782 53.9791 41.7535 53.9791 41.704 53.9791C41.704 54.0287 41.704 54.0534 41.704 54.0534C40.8134 54.4991 39.7744 54.8458 38.587 55.0934C37.449 55.341 36.2121 55.5391 34.8763 55.6877L33.6146 56.1334C33.4167 56.1829 33.293 56.1086 33.2436 55.9105C33.1941 55.8115 33.1941 55.7124 33.2436 55.6134C33.0951 55.6629 32.9467 55.6877 32.7983 55.6877L32.0561 55.8362C31.9572 55.8858 31.8582 55.8858 31.7593 55.8362C31.7098 55.8362 31.6108 55.8115 31.4624 55.7619C31.4624 55.8115 31.4624 55.8362 31.4624 55.8362L30.2008 56.1334ZM22.4083 53.3106C22.4577 53.3106 22.4825 53.3354 22.4825 53.3849C23.472 53.5335 24.4615 53.6573 25.4511 53.7563C26.4901 53.8058 27.4796 53.8801 28.4196 53.9791H30.4976C32.0314 53.9296 33.7878 53.8553 35.7668 53.7563C37.7954 53.6077 39.4776 53.1868 40.8134 52.4935C42.644 51.305 44.5241 50.0669 46.4537 48.7793C48.4328 47.4917 50.1892 46.0804 51.7229 44.5452C52.3166 43.9509 52.7867 43.01 53.133 41.7224C53.5288 40.3853 53.8009 38.9492 53.9493 37.414C54.1473 35.8293 54.2709 34.3189 54.3204 32.8827C54.3699 31.4466 54.3946 30.3076 54.3946 29.4657C54.3452 28.9705 54.3204 28.4752 54.3204 27.98C54.3699 27.4353 54.3946 26.8905 54.3946 26.3458C54.3946 24.7611 54.3699 23.1764 54.3204 21.5917C54.2709 19.9574 53.9741 18.546 53.4299 17.3575C51.5003 14.8814 49.4223 12.4053 47.1958 9.92919C45.0189 7.45308 42.8172 5.10078 40.5908 2.87228C39.5023 2.37706 38.2654 2.07993 36.8801 1.98089C35.5442 1.88184 34.2331 1.83232 32.9467 1.83232C32.6004 1.83232 32.254 1.83232 31.9077 1.83232C31.6108 1.83232 31.314 1.83232 31.0171 1.83232C29.5328 1.73328 27.7764 1.7828 25.7479 1.98089C23.7194 2.12945 22.0372 2.52563 20.7013 3.16942C20.7013 3.16942 20.6766 3.16942 20.6271 3.16942C19.6871 3.46655 18.7718 3.78844 17.8812 4.1351C16.9906 4.48175 16.1248 4.90269 15.2837 5.39792C12.7109 7.23024 10.5092 9.33493 8.67862 11.712C8.23334 12.3063 7.83753 12.9748 7.49119 13.7176C7.49119 13.8662 7.44172 13.99 7.34276 14.0891C7.19433 14.3862 7.07064 14.7081 6.97169 15.0547C6.97169 15.0547 6.97169 15.0795 6.97169 15.129C7.02117 15.2776 6.97169 15.4014 6.82326 15.5004C6.72431 15.7976 6.62536 16.1195 6.52641 16.4661C6.52641 16.4661 6.52641 16.4909 6.52641 16.5404C6.62536 16.689 6.60062 16.8128 6.45219 16.9118C6.35324 17.2585 6.27903 17.5804 6.22955 17.8775C6.22955 17.927 6.22955 17.9518 6.22955 17.9518C6.3285 18.1499 6.30376 18.2737 6.15533 18.3232C6.05638 18.6699 6.00691 19.0165 6.00691 19.3632C6.00691 19.3632 6.00691 19.3879 6.00691 19.4374C6.10586 19.586 6.08112 19.7098 5.93269 19.8089C5.93269 19.9079 5.93269 19.9822 5.93269 20.0317C5.88322 20.4279 5.85848 20.7993 5.85848 21.146C5.85848 21.146 5.85848 21.1707 5.85848 21.2202C5.95743 21.3193 5.95743 21.4183 5.85848 21.5174C5.85848 22.3593 5.88322 23.1764 5.93269 23.9687C6.03164 24.7611 6.10586 25.5534 6.15533 26.3458C6.20481 26.5934 6.22955 26.8162 6.22955 27.0143C6.27903 27.2124 6.30376 27.4105 6.30376 27.6086C6.35324 28.2029 6.37798 28.7971 6.37798 29.3914C6.42745 29.9857 6.47693 30.5799 6.52641 31.1742C6.52641 32.1646 6.55114 33.1551 6.60062 34.1455C6.69957 35.136 6.87274 36.1017 7.12012 37.0426C7.61488 38.6273 8.13438 40.3606 8.67862 42.2424C9.27234 44.1242 10.1629 45.6594 11.3503 46.848C12.5378 47.987 13.8736 49.0517 15.3579 50.0421C16.8917 51.0326 18.4007 51.8992 19.885 52.642C20.2313 52.7411 20.5777 52.8649 20.924 53.0135C20.9735 53.0135 20.9982 53.0135 20.9982 53.0135C21.4435 53.162 21.9135 53.2611 22.4083 53.3106ZM19.5139 54.3506C19.4644 54.3506 19.4397 54.3506 19.4397 54.3506L18.6976 54.5734L17.6586 55.0934L18.4749 54.7963L19.5139 54.3506Z" fill="black" fill-opacity="0.2"/>
</g>
</svg>
