<svg width="31" height="27" viewBox="0 0 31 27" fill="none" xmlns="http://www.w3.org/2000/svg">
<path d="M21.0209 24.8616L19.6452 25.4907C19.4006 25.6105 19.2172 25.5506 19.0949 25.311C19.0949 25.311 19.0949 25.281 19.0949 25.2211L17.8109 25.5806C17.5052 25.7004 17.3217 25.6405 17.2606 25.4008C17.1994 25.281 17.1994 25.1612 17.2606 25.0413L15.7932 25.5806C15.5486 25.7004 15.3957 25.6405 15.3346 25.4008C15.2123 25.1612 15.3957 24.9215 15.8849 24.6818C15.8237 24.6818 15.7015 24.7118 15.518 24.7717L14.0506 25.311C13.806 25.4308 13.6532 25.4008 13.592 25.2211L12.8583 25.4907C12.6137 25.6105 12.4303 25.5506 12.308 25.311C12.2469 25.1911 12.1246 25.1612 11.9412 25.2211L10.2903 25.7603C10.0458 25.8802 9.89289 25.8203 9.83175 25.5806C9.77061 25.4608 9.77061 25.3409 9.83175 25.2211L9.00632 25.4008C8.76175 25.5207 8.57833 25.4308 8.45604 25.1312C8.45604 25.0713 8.45604 24.9814 8.45604 24.8616L6.80519 25.2211C6.6829 25.281 6.53004 25.251 6.34662 25.1312L4.9709 25.4907C4.84862 25.5506 4.75691 25.5506 4.69576 25.4907L3.32005 25.9401C3.07548 26.0599 2.89205 26 2.76977 25.7603C2.76977 25.6405 2.76977 25.5207 2.76977 25.4008C2.76977 25.4008 2.73919 25.3709 2.67805 25.311C2.55577 25.0713 2.61691 24.8916 2.86148 24.7717L4.42062 24.0527C4.48176 24.0527 4.51233 24.0527 4.51233 24.0527L6.07147 23.6932L6.8969 23.4236C6.77461 23.2439 6.71347 23.124 6.71347 23.0641C6.65233 23.0641 6.62176 23.0641 6.62176 23.0641L5.97976 23.2439L4.60405 23.7831L3.13662 24.2325L1.76091 24.6818C1.51634 24.8017 1.33291 24.7418 1.21063 24.5021C1.08834 24.2025 1.18005 24.0228 1.48577 23.9629L2.86148 23.4236C2.92262 23.4236 2.95319 23.4236 2.95319 23.4236L4.32891 23.0641L5.70462 22.5249L6.34662 22.3451C6.28547 22.1654 6.19376 22.0156 6.07147 21.8957C6.01033 21.7759 5.85747 21.686 5.6129 21.6261L4.14548 22.3451L2.76977 23.0641C2.70862 23.0641 2.67805 23.0641 2.67805 23.0641L1.21063 23.4236C0.904913 23.5434 0.721484 23.4536 0.660342 23.154C0.599199 22.9143 0.690913 22.7645 0.935484 22.7046L2.40291 22.2552L3.77862 21.6261L5.79633 20.6375C5.79633 20.3379 5.79633 20.0084 5.79633 19.6489L5.33776 19.8286C5.33776 19.8286 5.30719 19.8286 5.24605 19.8286L3.87034 20.278L2.40291 20.9071L0.752056 21.5363C0.507485 21.6561 0.324056 21.5662 0.201771 21.2666C0.140628 21.027 0.232342 20.8772 0.476913 20.8173L2.03605 20.1881L3.50348 19.559C3.50348 19.4991 3.53405 19.4691 3.59519 19.4691L5.06262 19.1096L5.79633 18.7502C5.79633 18.7502 5.79633 18.7202 5.79633 18.6603C5.85747 18.2409 5.88804 17.9413 5.88804 17.7615L5.24605 17.9413L3.68691 18.5704C3.68691 18.6303 3.68691 18.6303 3.68691 18.5704L2.3112 19.0198L0.84377 19.7388C0.599199 19.8586 0.415771 19.7987 0.293485 19.559C0.1712 19.3194 0.232342 19.1396 0.476913 19.0198L1.94434 18.3008C2.00548 18.3008 2.03605 18.3008 2.03605 18.3008L3.41176 17.8514L4.9709 17.1324C4.9709 17.1324 5.00148 17.1324 5.06262 17.1324L5.88804 16.9527C5.88804 16.5932 5.76576 16.3835 5.52119 16.3235L3.96205 17.0425L2.49462 17.7615L1.11891 18.3008C0.874341 18.4206 0.690913 18.3607 0.568627 18.121C0.446342 17.8814 0.507485 17.7016 0.752056 17.5818L2.12777 16.9527L3.59519 16.3235L5.15433 15.6046L5.79633 15.3349C5.79633 15.0354 5.79633 14.7358 5.79633 14.4362L5.33776 14.6159L3.68691 15.2451L0.568627 16.5033C0.324056 16.6231 0.140628 16.5632 0.0183428 16.3235C-0.0427999 16.024 0.0489142 15.8442 0.293485 15.7843L1.76091 15.1552L3.41176 14.4362L4.9709 13.8969L5.79633 13.5374C5.79633 13.118 5.79633 12.8185 5.79633 12.6387L4.05376 13.0881L2.58634 13.6273L1.0272 14.1666C0.782627 14.2265 0.599199 14.1366 0.476913 13.8969C0.415771 13.6573 0.507485 13.4775 0.752056 13.3577L2.40291 12.9083L3.77862 12.3691L5.24605 11.9197L5.79633 11.74C5.79633 11.4404 5.70462 11.2307 5.52119 11.1108L3.87034 11.74L2.58634 12.459C2.52519 12.459 2.49462 12.459 2.49462 12.459L1.0272 12.8185C0.721484 12.9383 0.538056 12.8484 0.476913 12.5488C0.415771 12.3092 0.507485 12.1594 0.752056 12.0995L2.21948 11.6501L3.50348 11.021C3.50348 11.021 3.53405 11.021 3.59519 11.021L5.15433 10.3919L5.70462 10.1222C5.70462 9.76273 5.67405 9.52307 5.6129 9.40324C5.55176 9.40324 5.52119 9.40324 5.52119 9.40324L4.05376 9.94248L2.67805 10.302L1.11891 10.9311C0.874341 11.0509 0.690913 10.9611 0.568627 10.6615C0.507485 10.4218 0.599199 10.272 0.84377 10.2121L2.40291 9.58298C2.40291 9.58298 2.43348 9.58298 2.49462 9.58298L3.77862 9.13361L5.70462 8.50449C5.70462 8.02517 5.55176 7.72558 5.24605 7.60575L3.87034 8.05512L2.3112 8.59437L0.84377 9.31336C0.599199 9.43319 0.415771 9.37328 0.293485 9.13361C0.1712 8.89395 0.232342 8.7142 0.476913 8.59437L1.94434 7.87538C2.00548 7.87538 2.03605 7.87538 2.03605 7.87538L3.59519 7.33613L5.06262 6.79688L5.6129 6.61714C5.6129 6.31756 5.55176 6.10785 5.42947 5.98802C5.36833 6.04793 5.33776 6.07789 5.33776 6.07789L3.77862 6.43739L2.40291 7.06651C2.40291 7.06651 2.37234 7.06651 2.3112 7.06651L0.84377 7.426C0.538056 7.54584 0.354628 7.45596 0.293485 7.15638C0.232342 6.91672 0.324056 6.76693 0.568627 6.70701L2.03605 6.25764L3.50348 5.71839C3.50348 5.65848 3.50348 5.62852 3.50348 5.62852L5.06262 5.26902L5.6129 4.9994C5.67405 4.87957 5.70462 4.72978 5.70462 4.55003L4.9709 4.81965L3.68691 5.17915C3.62576 5.23907 3.44234 5.23907 3.13662 5.17915L1.76091 5.71839C1.51634 5.83823 1.33291 5.77831 1.21063 5.53865C1.14948 5.23907 1.2412 5.05932 1.48577 4.9994L2.76977 4.46016L4.23719 3.83104C4.23719 3.83104 4.26776 3.80108 4.32891 3.74116L6.07147 3.29179C6.2549 2.93229 6.49947 2.60276 6.80519 2.30318C7.47776 1.52427 8.27261 1.10485 9.18975 1.04494C10.168 0.985021 11.1463 0.985021 12.1246 1.04494C12.5526 1.04494 12.8889 1.04494 13.1335 1.04494C14.8455 1.10485 16.5575 1.19473 18.2694 1.31456C19.9814 1.43439 21.6934 1.49431 23.4054 1.49431C23.5277 1.49431 23.7112 1.49431 23.9557 1.49431C24.6894 1.43439 25.3926 1.46435 26.0651 1.58418C26.7377 1.6441 27.3491 1.94368 27.8994 2.48292C28.5109 3.08208 28.8471 3.74116 28.9083 4.46016C28.9694 5.11923 29 5.80827 29 6.52726C29 6.70701 28.9694 6.82684 28.9083 6.88676C28.9083 7.7855 28.8777 8.65428 28.8166 9.49311C28.7554 10.3319 28.6943 11.2007 28.6331 12.0995C28.6331 13.2379 28.6331 14.3763 28.6331 15.5147C28.6943 16.6531 28.7554 17.7915 28.8166 18.9299C28.8166 18.9898 28.8166 19.1396 28.8166 19.3793C28.8777 20.0983 28.8777 20.8173 28.8166 21.5363C28.7554 22.1953 28.4191 22.8544 27.8077 23.5135C27.1963 24.1726 26.432 24.5321 25.5149 24.592C24.6589 24.7118 23.8029 24.7717 22.9469 24.7717C22.7023 24.7118 22.4883 24.6818 22.3049 24.6818C22.1214 24.6818 21.938 24.6818 21.7546 24.6818C21.5712 24.6818 21.3266 24.7418 21.0209 24.8616ZM23.3137 22.6147C23.436 22.6147 23.5277 22.6147 23.5889 22.6147C24.078 22.6747 24.5672 22.6747 25.0563 22.6147C25.5454 22.4949 25.9429 22.2852 26.2486 21.9856C26.5543 21.686 26.7071 21.3265 26.7071 20.9071C26.7071 20.4278 26.6766 19.9784 26.6154 19.559C26.6154 19.3194 26.6154 19.1396 26.6154 19.0198C26.5543 17.8215 26.4931 16.6531 26.432 15.5147C26.432 14.3164 26.432 13.148 26.432 12.0096C26.4931 11.1108 26.5543 10.2421 26.6154 9.40324C26.6766 8.56441 26.7377 7.69563 26.7989 6.79688C26.7989 6.67705 26.7989 6.52726 26.7989 6.34751C26.86 5.9281 26.86 5.50869 26.7989 5.08928C26.7989 4.66986 26.6766 4.31037 26.432 4.01078C26.1263 3.77112 25.7594 3.65129 25.3314 3.65129C24.9034 3.59137 24.4754 3.56141 24.0474 3.56141C23.7417 3.62133 23.5277 3.65129 23.4054 3.65129C21.6323 3.65129 19.8897 3.59137 18.1777 3.47154C16.4657 3.35171 14.7537 3.26183 13.0417 3.20192C12.8583 3.20192 12.5526 3.17196 12.1246 3.11204C11.452 3.11204 10.7489 3.11204 10.0152 3.11204C9.34261 3.11204 8.79233 3.32175 8.36433 3.74116C7.99747 4.16058 7.78347 4.72978 7.72233 5.44877C7.72233 6.10785 7.7529 6.76693 7.81404 7.426C7.87518 7.96525 7.90576 8.3547 7.90576 8.59437C7.90576 10.0324 7.93633 11.5003 7.99747 12.9982C8.05861 14.4362 8.08918 15.9041 8.08918 17.402C8.08918 17.5818 8.08918 17.7615 8.08918 17.9413C8.08918 18.121 8.05861 18.3307 7.99747 18.5704C7.99747 18.9299 7.99747 19.2894 7.99747 19.6489C7.99747 20.0084 8.02804 20.3679 8.08918 20.7274C8.15033 20.967 8.21147 21.2067 8.27261 21.4464C8.3949 21.6261 8.51718 21.8059 8.63947 21.9856L9.4649 22.3451C11.4826 22.465 13.5003 22.5548 15.518 22.6147C17.5969 22.6147 19.6757 22.5848 21.7546 22.5249C21.938 22.5249 22.2743 22.5548 22.7634 22.6147C23.008 22.6147 23.1914 22.6147 23.3137 22.6147Z" fill="#0F0F0F"/>
<path d="M21.0209 24.8616L19.6452 25.4907C19.4006 25.6105 19.2172 25.5506 19.0949 25.311C19.0949 25.311 19.0949 25.281 19.0949 25.2211L17.8109 25.5806C17.5052 25.7004 17.3217 25.6405 17.2606 25.4008C17.1994 25.281 17.1994 25.1612 17.2606 25.0413L15.7932 25.5806C15.5486 25.7004 15.3957 25.6405 15.3346 25.4008C15.2123 25.1612 15.3957 24.9215 15.8849 24.6818C15.8237 24.6818 15.7015 24.7118 15.518 24.7717L14.0506 25.311C13.806 25.4308 13.6532 25.4008 13.592 25.2211L12.8583 25.4907C12.6137 25.6105 12.4303 25.5506 12.308 25.311C12.2469 25.1911 12.1246 25.1612 11.9412 25.2211L10.2903 25.7603C10.0458 25.8802 9.89289 25.8203 9.83175 25.5806C9.77061 25.4608 9.77061 25.3409 9.83175 25.2211L9.00632 25.4008C8.76175 25.5207 8.57833 25.4308 8.45604 25.1312C8.45604 25.0713 8.45604 24.9814 8.45604 24.8616L6.80519 25.2211C6.6829 25.281 6.53004 25.251 6.34662 25.1312L4.9709 25.4907C4.84862 25.5506 4.75691 25.5506 4.69576 25.4907L3.32005 25.9401C3.07548 26.0599 2.89205 26 2.76977 25.7603C2.76977 25.6405 2.76977 25.5207 2.76977 25.4008C2.76977 25.4008 2.73919 25.3709 2.67805 25.311C2.55577 25.0713 2.61691 24.8916 2.86148 24.7717L4.42062 24.0527C4.48176 24.0527 4.51233 24.0527 4.51233 24.0527L6.07147 23.6932L6.8969 23.4236C6.77461 23.2439 6.71347 23.124 6.71347 23.0641C6.65233 23.0641 6.62176 23.0641 6.62176 23.0641L5.97976 23.2439L4.60405 23.7831L3.13662 24.2325L1.76091 24.6818C1.51634 24.8017 1.33291 24.7418 1.21063 24.5021C1.08834 24.2025 1.18005 24.0228 1.48577 23.9629L2.86148 23.4236C2.92262 23.4236 2.95319 23.4236 2.95319 23.4236L4.32891 23.0641L5.70462 22.5249L6.34662 22.3451C6.28547 22.1654 6.19376 22.0156 6.07147 21.8957C6.01033 21.7759 5.85747 21.686 5.6129 21.6261L4.14548 22.3451L2.76977 23.0641C2.70862 23.0641 2.67805 23.0641 2.67805 23.0641L1.21063 23.4236C0.904913 23.5434 0.721484 23.4536 0.660342 23.154C0.599199 22.9143 0.690913 22.7645 0.935484 22.7046L2.40291 22.2552L3.77862 21.6261L5.79633 20.6375C5.79633 20.3379 5.79633 20.0084 5.79633 19.6489L5.33776 19.8286C5.33776 19.8286 5.30719 19.8286 5.24605 19.8286L3.87034 20.278L2.40291 20.9071L0.752056 21.5363C0.507485 21.6561 0.324056 21.5662 0.201771 21.2666C0.140628 21.027 0.232342 20.8772 0.476913 20.8173L2.03605 20.1881L3.50348 19.559C3.50348 19.4991 3.53405 19.4691 3.59519 19.4691L5.06262 19.1096L5.79633 18.7502C5.79633 18.7502 5.79633 18.7202 5.79633 18.6603C5.85747 18.2409 5.88804 17.9413 5.88804 17.7615L5.24605 17.9413L3.68691 18.5704C3.68691 18.6303 3.68691 18.6303 3.68691 18.5704L2.3112 19.0198L0.84377 19.7388C0.599199 19.8586 0.415771 19.7987 0.293485 19.559C0.1712 19.3194 0.232342 19.1396 0.476913 19.0198L1.94434 18.3008C2.00548 18.3008 2.03605 18.3008 2.03605 18.3008L3.41176 17.8514L4.9709 17.1324C4.9709 17.1324 5.00148 17.1324 5.06262 17.1324L5.88804 16.9527C5.88804 16.5932 5.76576 16.3835 5.52119 16.3235L3.96205 17.0425L2.49462 17.7615L1.11891 18.3008C0.874341 18.4206 0.690913 18.3607 0.568627 18.121C0.446342 17.8814 0.507485 17.7016 0.752056 17.5818L2.12777 16.9527L3.59519 16.3235L5.15433 15.6046L5.79633 15.3349C5.79633 15.0354 5.79633 14.7358 5.79633 14.4362L5.33776 14.6159L3.68691 15.2451L0.568627 16.5033C0.324056 16.6231 0.140628 16.5632 0.0183428 16.3235C-0.0427999 16.024 0.0489142 15.8442 0.293485 15.7843L1.76091 15.1552L3.41176 14.4362L4.9709 13.8969L5.79633 13.5374C5.79633 13.118 5.79633 12.8185 5.79633 12.6387L4.05376 13.0881L2.58634 13.6273L1.0272 14.1666C0.782627 14.2265 0.599199 14.1366 0.476913 13.8969C0.415771 13.6573 0.507485 13.4775 0.752056 13.3577L2.40291 12.9083L3.77862 12.3691L5.24605 11.9197L5.79633 11.74C5.79633 11.4404 5.70462 11.2307 5.52119 11.1108L3.87034 11.74L2.58634 12.459C2.52519 12.459 2.49462 12.459 2.49462 12.459L1.0272 12.8185C0.721484 12.9383 0.538056 12.8484 0.476913 12.5488C0.415771 12.3092 0.507485 12.1594 0.752056 12.0995L2.21948 11.6501L3.50348 11.021C3.50348 11.021 3.53405 11.021 3.59519 11.021L5.15433 10.3919L5.70462 10.1222C5.70462 9.76273 5.67405 9.52307 5.6129 9.40324C5.55176 9.40324 5.52119 9.40324 5.52119 9.40324L4.05376 9.94248L2.67805 10.302L1.11891 10.9311C0.874341 11.0509 0.690913 10.9611 0.568627 10.6615C0.507485 10.4218 0.599199 10.272 0.84377 10.2121L2.40291 9.58298C2.40291 9.58298 2.43348 9.58298 2.49462 9.58298L3.77862 9.13361L5.70462 8.50449C5.70462 8.02517 5.55176 7.72558 5.24605 7.60575L3.87034 8.05512L2.3112 8.59437L0.84377 9.31336C0.599199 9.43319 0.415771 9.37328 0.293485 9.13361C0.1712 8.89395 0.232342 8.7142 0.476913 8.59437L1.94434 7.87538C2.00548 7.87538 2.03605 7.87538 2.03605 7.87538L3.59519 7.33613L5.06262 6.79688L5.6129 6.61714C5.6129 6.31756 5.55176 6.10785 5.42947 5.98802C5.36833 6.04793 5.33776 6.07789 5.33776 6.07789L3.77862 6.43739L2.40291 7.06651C2.40291 7.06651 2.37234 7.06651 2.3112 7.06651L0.84377 7.426C0.538056 7.54584 0.354628 7.45596 0.293485 7.15638C0.232342 6.91672 0.324056 6.76693 0.568627 6.70701L2.03605 6.25764L3.50348 5.71839C3.50348 5.65848 3.50348 5.62852 3.50348 5.62852L5.06262 5.26902L5.6129 4.9994C5.67405 4.87957 5.70462 4.72978 5.70462 4.55003L4.9709 4.81965L3.68691 5.17915C3.62576 5.23907 3.44234 5.23907 3.13662 5.17915L1.76091 5.71839C1.51634 5.83823 1.33291 5.77831 1.21063 5.53865C1.14948 5.23907 1.2412 5.05932 1.48577 4.9994L2.76977 4.46016L4.23719 3.83104C4.23719 3.83104 4.26776 3.80108 4.32891 3.74116L6.07147 3.29179C6.2549 2.93229 6.49947 2.60276 6.80519 2.30318C7.47776 1.52427 8.27261 1.10485 9.18975 1.04494C10.168 0.985021 11.1463 0.985021 12.1246 1.04494C12.5526 1.04494 12.8889 1.04494 13.1335 1.04494C14.8455 1.10485 16.5575 1.19473 18.2694 1.31456C19.9814 1.43439 21.6934 1.49431 23.4054 1.49431C23.5277 1.49431 23.7112 1.49431 23.9557 1.49431C24.6894 1.43439 25.3926 1.46435 26.0651 1.58418C26.7377 1.6441 27.3491 1.94368 27.8994 2.48292C28.5109 3.08208 28.8471 3.74116 28.9083 4.46016C28.9694 5.11923 29 5.80827 29 6.52726C29 6.70701 28.9694 6.82684 28.9083 6.88676C28.9083 7.7855 28.8777 8.65428 28.8166 9.49311C28.7554 10.3319 28.6943 11.2007 28.6331 12.0995C28.6331 13.2379 28.6331 14.3763 28.6331 15.5147C28.6943 16.6531 28.7554 17.7915 28.8166 18.9299C28.8166 18.9898 28.8166 19.1396 28.8166 19.3793C28.8777 20.0983 28.8777 20.8173 28.8166 21.5363C28.7554 22.1953 28.4191 22.8544 27.8077 23.5135C27.1963 24.1726 26.432 24.5321 25.5149 24.592C24.6589 24.7118 23.8029 24.7717 22.9469 24.7717C22.7023 24.7118 22.4883 24.6818 22.3049 24.6818C22.1214 24.6818 21.938 24.6818 21.7546 24.6818C21.5712 24.6818 21.3266 24.7418 21.0209 24.8616ZM23.3137 22.6147C23.436 22.6147 23.5277 22.6147 23.5889 22.6147C24.078 22.6747 24.5672 22.6747 25.0563 22.6147C25.5454 22.4949 25.9429 22.2852 26.2486 21.9856C26.5543 21.686 26.7071 21.3265 26.7071 20.9071C26.7071 20.4278 26.6766 19.9784 26.6154 19.559C26.6154 19.3194 26.6154 19.1396 26.6154 19.0198C26.5543 17.8215 26.4931 16.6531 26.432 15.5147C26.432 14.3164 26.432 13.148 26.432 12.0096C26.4931 11.1108 26.5543 10.2421 26.6154 9.40324C26.6766 8.56441 26.7377 7.69563 26.7989 6.79688C26.7989 6.67705 26.7989 6.52726 26.7989 6.34751C26.86 5.9281 26.86 5.50869 26.7989 5.08928C26.7989 4.66986 26.6766 4.31037 26.432 4.01078C26.1263 3.77112 25.7594 3.65129 25.3314 3.65129C24.9034 3.59137 24.4754 3.56141 24.0474 3.56141C23.7417 3.62133 23.5277 3.65129 23.4054 3.65129C21.6323 3.65129 19.8897 3.59137 18.1777 3.47154C16.4657 3.35171 14.7537 3.26183 13.0417 3.20192C12.8583 3.20192 12.5526 3.17196 12.1246 3.11204C11.452 3.11204 10.7489 3.11204 10.0152 3.11204C9.34261 3.11204 8.79233 3.32175 8.36433 3.74116C7.99747 4.16058 7.78347 4.72978 7.72233 5.44877C7.72233 6.10785 7.7529 6.76693 7.81404 7.426C7.87518 7.96525 7.90576 8.3547 7.90576 8.59437C7.90576 10.0324 7.93633 11.5003 7.99747 12.9982C8.05861 14.4362 8.08918 15.9041 8.08918 17.402C8.08918 17.5818 8.08918 17.7615 8.08918 17.9413C8.08918 18.121 8.05861 18.3307 7.99747 18.5704C7.99747 18.9299 7.99747 19.2894 7.99747 19.6489C7.99747 20.0084 8.02804 20.3679 8.08918 20.7274C8.15033 20.967 8.21147 21.2067 8.27261 21.4464C8.3949 21.6261 8.51718 21.8059 8.63947 21.9856L9.4649 22.3451C11.4826 22.465 13.5003 22.5548 15.518 22.6147C17.5969 22.6147 19.6757 22.5848 21.7546 22.5249C21.938 22.5249 22.2743 22.5548 22.7634 22.6147C23.008 22.6147 23.1914 22.6147 23.3137 22.6147Z" fill="black" fill-opacity="0.2"/>
<path d="M7 23V3H27V23H7Z" fill="#0F0F0F"/>
<path d="M7 23V3H27V23H7Z" fill="black" fill-opacity="0.2"/>
</svg>
