<svg width="29" height="25" fill="none" xmlns="http://www.w3.org/2000/svg"><g clip-path="url(#a)" fill="#0F0F0F"><path d="m21.02 23.862-1.375.629c-.244.12-.428.06-.55-.18v-.09l-1.284.36c-.306.12-.49.06-.55-.18a.375.375 0 0 1 0-.36l-1.468.54c-.244.12-.397.06-.458-.18-.123-.24.06-.48.55-.72-.061 0-.184.03-.367.09l-1.467.54c-.245.12-.398.09-.459-.09l-.734.27c-.244.12-.428.06-.55-.18-.061-.12-.183-.15-.367-.09l-1.65.54c-.245.12-.398.06-.46-.18a.375.375 0 0 1 0-.36l-.825.18c-.244.12-.428.03-.55-.27v-.27l-1.65.36c-.123.06-.276.03-.46-.09l-1.375.36c-.122.06-.214.06-.275 0l-1.376.45c-.245.119-.428.059-.55-.18v-.36l-.092-.09c-.122-.24-.061-.42.183-.54l1.56-.718h.091l1.56-.36.825-.27c-.122-.18-.184-.299-.184-.359h-.091l-.642.18-1.376.54-1.467.449-1.376.449c-.245.12-.428.06-.55-.18-.123-.3-.031-.48.275-.54l1.375-.538h.092l1.376-.36 1.376-.54.642-.179a1.125 1.125 0 0 0-.276-.45c-.06-.12-.214-.209-.458-.269l-1.468.72-1.375.718h-.092l-1.467.36c-.306.12-.49.03-.55-.27-.062-.24.03-.39.274-.45l1.468-.449 1.376-.629 2.017-.989v-.988l-.458.18h-.092l-1.376.449-1.467.63-1.65.628c-.246.12-.429.03-.551-.27-.061-.239.03-.389.275-.449l1.559-.629 1.467-.629c0-.06.031-.09.092-.09l1.468-.36.733-.359v-.09c.061-.42.092-.719.092-.898l-.642.18-1.56.628c0 .06 0 .06 0 0l-1.375.45-1.467.719c-.245.12-.428.06-.55-.18-.123-.24-.062-.42.183-.54l1.467-.718h.092l1.376-.45 1.559-.719h.092l.825-.18c0-.359-.122-.569-.367-.629l-1.559.72-1.467.719-1.376.539c-.245.12-.428.06-.55-.18-.123-.24-.062-.42.183-.54l1.376-.628 1.467-.63 1.56-.718.641-.27v-.899l-.458.18-1.651.63-3.118 1.257c-.245.12-.428.06-.55-.18-.062-.299.03-.479.274-.539l1.468-.629 1.65-.719 1.56-.54.825-.359v-.898l-1.742.45-1.468.538-1.559.54c-.244.06-.428-.03-.55-.27-.061-.24.03-.42.275-.54l1.65-.449 1.377-.539 1.467-.45.55-.179c0-.3-.091-.51-.275-.63l-1.65.63-1.285.719h-.091l-1.468.36c-.306.12-.489.03-.55-.27-.061-.24.03-.39.275-.45l1.467-.449 1.284-.629h.092l1.56-.63.55-.269c0-.36-.03-.599-.092-.719H5.52l-1.467.54-1.376.359-1.56.63c-.244.119-.427.029-.55-.27-.06-.24.031-.39.276-.45l1.559-.629h.092l1.284-.45 1.926-.629c0-.479-.153-.778-.459-.898l-1.376.45-1.559.538-1.467.72c-.245.12-.428.06-.55-.18-.123-.24-.062-.42.183-.54l1.467-.719h.092l1.56-.539 1.467-.54.55-.179c0-.3-.061-.51-.184-.629l-.091.09-1.56.36-1.375.629H2.31l-1.467.359c-.306.12-.49.03-.55-.27-.062-.24.03-.39.275-.449l1.467-.45 1.467-.539v-.09l1.56-.359.55-.27a.983.983 0 0 0 .092-.449l-.734.27-1.284.36c-.061.06-.245.06-.55 0l-1.376.538c-.245.12-.428.06-.55-.18-.062-.299.03-.479.275-.539L2.77 3.46l1.467-.629.092-.09 1.742-.45c.184-.359.428-.688.734-.988C7.478.524 8.273.105 9.19.045c.978-.06 1.956-.06 2.935 0h1.008c1.713.06 3.425.15 5.136.27 1.712.12 3.424.18 5.136.18h.55a8.187 8.187 0 0 1 2.11.09c.673.06 1.284.359 1.834.898.612.6.948 1.258 1.01 1.977.06.66.091 1.348.091 2.067 0 .18-.03.3-.092.36 0 .899-.03 1.767-.091 2.606-.062.839-.123 1.708-.184 2.607v3.415l.184 3.415v.45c.06.718.06 1.437 0 2.156-.062.66-.398 1.318-1.01 1.977-.61.66-1.375 1.02-2.292 1.079-.856.12-1.712.18-2.568.18a2.748 2.748 0 0 0-.642-.09h-.55c-.184 0-.428.06-.734.18Zm2.294-2.247h.275c.489.06.978.06 1.467 0 .49-.12.887-.33 1.193-.63.305-.299.458-.659.458-1.078 0-.48-.03-.929-.092-1.348v-.54a1311.79 1311.79 0 0 0-.183-3.504V11.01c.061-.9.122-1.768.183-2.607.062-.839.123-1.707.184-2.606v-.45c.061-.419.061-.838 0-1.258 0-.42-.122-.779-.367-1.078-.306-.24-.673-.36-1.1-.36a9.25 9.25 0 0 0-1.285-.09c-.305.06-.52.09-.642.09-1.773 0-3.515-.06-5.227-.18-1.712-.12-3.424-.21-5.136-.27-.184 0-.49-.029-.917-.089h-2.11c-.672 0-1.223.21-1.65.63-.368.419-.582.988-.643 1.707 0 .659.03 1.318.092 1.977.061.54.092.929.092 1.168 0 1.438.03 2.906.091 4.404.062 1.438.092 2.906.092 4.404v.54c0 .179-.03.389-.092.628v1.079c0 .36.031.719.092 1.078l.184.72.366.539.826.36c2.018.119 4.035.209 6.053.269 2.079 0 4.158-.03 6.237-.09.183 0 .52.03 1.008.09h.55Z"/><path d="M7 22V2h20v20H7Z"/></g><defs><clipPath id="a"><path fill="#fff" d="M0 0h29v25H0z"/></clipPath></defs></svg>