<svg>
    <symbol id='haccp_certified' viewBox="0 0 83 83" fill="none" xmlns="http://www.w3.org/2000/svg">
        <g id="Group 50">
            <g id="Group 45">
                <path id="Vector 152" d="M9.71597 69.1008L0 54.8127L81.7284 27.9512L82.3 45.6684L9.71597 69.1008Z" fill="hsl(var(--foreground))"/>
                <g id="&#208;&#157;.&#208;&#144;.&#208;&#161;.&#208;&#161;.&#208;&#160;.">
                    <path d="M16.3899 58.1763L17.26 60.8513C17.4036 61.2929 17.5167 61.5613 17.5993 61.6565C17.6862 61.7504 17.8135 61.8169 17.9812 61.8563C18.1518 61.89 18.3581 61.8675 18.6002 61.7888L18.8868 61.6956L18.9634 61.9312L14.4477 63.4L14.371 63.1643L14.6577 63.0711C14.9082 62.9896 15.0954 62.8794 15.2192 62.7405C15.3103 62.6452 15.3621 62.5156 15.3746 62.3519C15.3881 62.2349 15.3245 61.9598 15.1836 61.5267L13.3358 55.8454C13.1922 55.4038 13.079 55.1354 12.9964 55.0402C12.9138 54.945 12.7872 54.8805 12.6166 54.8468C12.4488 54.8075 12.244 54.8271 12.0019 54.9059L11.7153 54.9991L11.6387 54.7634L16.1544 53.2947L16.2311 53.5304L15.9445 53.6236C15.6939 53.7051 15.5067 53.8152 15.3829 53.9541C15.2918 54.0495 15.2379 54.1797 15.2212 54.3448C15.2076 54.4619 15.2713 54.737 15.4121 55.1701L16.2076 57.6158L19.2584 56.6236L18.463 54.1778C18.3193 53.7362 18.2062 53.4678 18.1236 53.3726C18.041 53.2774 17.9144 53.2129 17.7438 53.1792C17.5718 53.1413 17.3648 53.1616 17.1227 53.2404L16.8425 53.3315L16.7659 53.0958L21.2752 51.6292L21.3519 51.8649L21.0716 51.956C20.8169 52.0389 20.6297 52.149 20.5101 52.2866C20.419 52.3819 20.3651 52.5121 20.3484 52.6772C20.3348 52.7943 20.3985 53.0694 20.5393 53.5025L22.3871 59.1838C22.5308 59.6253 22.6439 59.8937 22.7265 59.989C22.8091 60.0842 22.9364 60.1507 23.1084 60.1887C23.279 60.2224 23.4853 60.1999 23.7274 60.1212L24.0076 60.0301L24.0842 60.2657L19.5749 61.7324L19.4982 61.4967L19.7785 61.4056C20.0332 61.3227 20.2204 61.2125 20.34 61.075C20.4311 60.9797 20.485 60.8495 20.5017 60.6844C20.5153 60.5673 20.4517 60.2922 20.3108 59.8591L19.4407 57.184L16.3899 58.1763Z" fill="hsl(var(--background))"/>
                    <path d="M25.3188 57.695C25.616 57.5983 25.9003 57.6209 26.1718 57.7627C26.4475 57.903 26.6331 58.1197 26.7284 58.4127C26.8236 58.7057 26.8011 58.99 26.6607 59.2658C26.5189 59.5373 26.3016 59.7206 26.0086 59.8159C25.7156 59.9112 25.4319 59.8908 25.1576 59.7547C24.8861 59.6129 24.7027 59.3955 24.6074 59.1025C24.5121 58.8095 24.5326 58.5259 24.6687 58.2515C24.8091 57.9758 25.0258 57.7903 25.3188 57.695Z" fill="hsl(var(--background))"/>
                    <path d="M32.2142 54.903L29.1634 55.8952L29.0738 56.854C29.046 57.1729 29.0619 57.4237 29.1212 57.6063C29.2 57.8483 29.3556 57.9949 29.5882 58.046C29.725 58.0766 30.0239 58.0357 30.4851 57.9233L30.5617 58.159L27.6892 59.0932L27.6126 58.8576C27.9073 58.7101 28.1207 58.4998 28.2526 58.2269C28.3831 57.9496 28.4878 57.4343 28.5667 56.6809L29.4144 48.7848L29.5354 48.7455L34.9535 54.8149C35.4689 55.3891 35.8505 55.7322 36.0982 55.8442C36.2853 55.9288 36.514 55.939 36.7842 55.8746L36.8608 56.1102L32.6826 57.4692L32.606 57.2335L32.778 57.1776C33.1134 57.0685 33.3339 56.9451 33.4394 56.8075C33.5107 56.7092 33.5256 56.5963 33.4842 56.469C33.4593 56.3925 33.421 56.3181 33.3693 56.2457C33.3484 56.2103 33.2329 56.0718 33.0229 55.8302L32.2142 54.903ZM31.8444 54.5021L29.5904 51.9462L29.233 55.3514L31.8444 54.5021Z" fill="hsl(var(--background))"/>
                    <path d="M38.0061 53.5685C38.3034 53.4719 38.5877 53.4944 38.8592 53.6362C39.1349 53.7766 39.3205 53.9932 39.4158 54.2862C39.511 54.5792 39.4885 54.8636 39.3481 55.1393C39.2063 55.4108 38.989 55.5942 38.696 55.6894C38.403 55.7847 38.1193 55.7643 37.845 55.6282C37.5735 55.4864 37.3901 55.269 37.2948 54.976C37.1995 54.6831 37.2199 54.3994 37.3561 54.1251C37.4965 53.8493 37.7132 53.6638 38.0061 53.5685Z" fill="hsl(var(--background))"/>
                    <path d="M46.1081 43.3342L47.0817 46.3276L46.8334 46.4084C46.3924 45.6879 45.8495 45.2025 45.2046 44.9521C44.5598 44.7017 43.9146 44.6814 43.2692 44.8914C42.7299 45.0667 42.2857 45.3826 41.9364 45.839C41.5871 46.2953 41.3899 46.8078 41.3449 47.3766C41.2859 48.1047 41.3841 48.8616 41.6396 49.6471C41.891 50.4199 42.2179 51.093 42.6204 51.6663C43.0215 52.2355 43.4832 52.6159 44.0057 52.8075C44.5268 52.9948 45.1185 52.9808 45.7809 52.7654C46.3244 52.5886 46.7825 52.3081 47.1553 51.9239C47.5323 51.5384 47.8767 50.9733 48.1885 50.2286L48.4309 50.9738C48.1112 51.6365 47.7254 52.1681 47.2734 52.5687C46.8243 52.9636 46.2495 53.275 45.5489 53.5028C44.6275 53.8025 43.7479 53.8844 42.9102 53.7483C42.0767 53.6109 41.3521 53.2597 40.7363 52.6947C40.1248 52.1282 39.692 51.4544 39.4379 50.6731C39.17 49.8493 39.1303 48.9983 39.3188 48.12C39.5116 47.2403 39.9069 46.4779 40.5047 45.8328C41.1067 45.1862 41.8195 44.729 42.6433 44.4611C43.2505 44.2636 43.9345 44.1867 44.6952 44.2304C45.1356 44.2562 45.4088 44.2518 45.515 44.2173C45.6509 44.1731 45.7518 44.0863 45.8176 43.9568C45.8864 43.8218 45.9004 43.6412 45.8597 43.4149L46.1081 43.3342Z" fill="hsl(var(--background))"/>
                    <path d="M50.6935 49.442C50.9908 49.3454 51.2751 49.3679 51.5466 49.5097C51.8223 49.6501 52.0079 49.8668 52.1031 50.1597C52.1984 50.4527 52.1759 50.7371 52.0355 51.0128C51.8937 51.2843 51.6763 51.4677 51.3834 51.563C51.0904 51.6583 50.8067 51.6378 50.5324 51.5017C50.2609 51.3599 50.0775 51.1425 49.9822 50.8496C49.8869 50.5566 49.9073 50.2729 50.0435 49.9986C50.1839 49.7228 50.4006 49.5373 50.6935 49.442Z" fill="hsl(var(--background))"/>
                    <path d="M58.7955 39.2077L59.7691 42.2012L59.5207 42.282C59.0798 41.5614 58.5369 41.076 57.892 40.8256C57.2472 40.5752 56.602 40.555 55.9566 40.7649C55.4173 40.9403 54.9731 41.2561 54.6238 41.7125C54.2745 42.1688 54.0773 42.6814 54.0322 43.2501C53.9733 43.9782 54.0715 44.7351 54.327 45.5206C54.5784 46.2934 54.9053 46.9665 55.3078 47.5399C55.7089 48.109 56.1706 48.4894 56.6931 48.681C57.2142 48.8683 57.8059 48.8543 58.4683 48.6389C59.0118 48.4621 59.4699 48.1816 59.8427 47.7975C60.2197 47.4119 60.5641 46.8468 60.8759 46.1021L61.1183 46.8473C60.7986 47.51 60.4128 48.0417 59.9608 48.4422C59.5117 48.8371 58.9369 49.1485 58.2363 49.3764C57.3149 49.676 56.4353 49.7579 55.5976 49.6219C54.7641 49.4845 54.0394 49.1332 53.4237 48.5682C52.8122 48.0017 52.3794 47.3279 52.1253 46.5466C51.8574 45.7229 51.8177 44.8718 52.0062 43.9935C52.199 43.1139 52.5943 42.3514 53.1921 41.7063C53.7941 41.0597 54.5069 40.6025 55.3307 40.3346C55.9379 40.1371 56.6219 40.0602 57.3826 40.1039C57.823 40.1297 58.0962 40.1253 58.2024 40.0908C58.3383 40.0466 58.4391 39.9598 58.505 39.8304C58.5738 39.6953 58.5878 39.5147 58.5471 39.2885L58.7955 39.2077Z" fill="hsl(var(--background))"/>
                    <path d="M63.3809 45.3156C63.6782 45.2189 63.9625 45.2414 64.234 45.3832C64.5097 45.5236 64.6953 45.7403 64.7905 46.0333C64.8858 46.3262 64.8633 46.6106 64.7229 46.8863C64.5811 47.1578 64.3638 47.3412 64.0708 47.4365C63.7778 47.5318 63.4941 47.5113 63.2198 47.3752C62.9483 47.2334 62.7649 47.0161 62.6696 46.7231C62.5743 46.4301 62.5947 46.1464 62.7309 45.8721C62.8713 45.5964 63.088 45.4109 63.3809 45.3156Z" fill="hsl(var(--background))"/>
                    <path d="M67.8997 41.6907L68.6786 44.0855C68.8305 44.5526 68.9541 44.8387 69.0494 44.9439C69.1475 45.0435 69.2805 45.1059 69.4483 45.1311C69.6204 45.1549 69.9018 45.1033 70.2924 44.9763L70.369 45.2119L65.9807 46.6392L65.904 46.4036C66.3032 46.2738 66.5611 46.15 66.6777 46.0322C66.7972 45.9088 66.8652 45.7787 66.8818 45.6419C66.9025 45.5036 66.837 45.201 66.6851 44.7339L64.8621 39.1291C64.7102 38.662 64.5852 38.3787 64.4871 38.2792C64.3918 38.174 64.2603 38.1088 64.0924 38.0835C63.9246 38.0583 63.6432 38.1099 63.2483 38.2384L63.1717 38.0027L66.9359 36.7784C68.1757 36.3752 69.1371 36.3066 69.82 36.5728C70.5029 36.839 70.952 37.3033 71.1675 37.9657C71.3498 38.5262 71.3317 39.0626 71.1134 39.575C70.895 40.0874 70.5036 40.5152 69.9391 40.8584C69.5604 41.0943 68.8806 41.3717 67.8997 41.6907ZM66.5242 37.4617L67.7381 41.194C67.881 41.1569 67.9886 41.1266 68.0607 41.1031C68.5788 40.9346 68.9282 40.652 69.109 40.2551C69.2884 39.854 69.2732 39.3307 69.0633 38.6853C68.8547 38.0442 68.562 37.6205 68.1851 37.4145C67.8082 37.2084 67.3416 37.1958 66.7853 37.3767L66.5242 37.4617Z" fill="hsl(var(--background))"/>
                    <path d="M72.9857 42.1917C73.2829 42.095 73.5672 42.1176 73.8387 42.2593C74.1145 42.3997 74.3 42.6164 74.3953 42.9094C74.4906 43.2024 74.468 43.4867 74.3276 43.7625C74.1858 44.0339 73.9685 44.2173 73.6755 44.3126C73.3825 44.4079 73.0988 44.3875 72.8245 44.2513C72.553 44.1096 72.3696 43.8922 72.2743 43.5992C72.179 43.3062 72.1995 43.0226 72.3356 42.7482C72.476 42.4725 72.6927 42.287 72.9857 42.1917Z" fill="hsl(var(--background))"/>
                </g>
            </g>
            <g id="Group 44">
                <g id="Ellipse 76">
                    <path d="M77.6703 47.3622C77.6703 66.2439 62.3635 81.5506 43.4816 81.5506C24.5998 81.5506 9.29297 66.2439 9.29297 47.3622C9.29297 28.4805 24.5998 13.1738 43.4816 13.1738C62.3635 13.1738 77.6703 28.4805 77.6703 47.3622Z" stroke="hsl(var(--foreground))" stroke-width="1.5"/>
                </g>
                <g id="Ellipse 77">
                    <path d="M64.4705 46.9753C64.4705 58.7818 54.8993 68.3529 43.0927 68.3529C31.286 68.3529 21.7148 58.7818 21.7148 46.9753C21.7148 35.1688 31.286 25.5977 43.0927 25.5977C54.8993 25.5977 64.4705 35.1688 64.4705 46.9753Z" stroke="hsl(var(--foreground))" stroke-width="1.5"/>
                </g>
            </g>
            <g id="&#209;&#132;&#209;&#128;&#209;&#131;&#208;&#186;&#209;&#130;&#208;&#184;">
                <g id="Vector">
                    <path d="M15.5057 44.8655C14.9316 44.7202 14.4525 44.4668 14.0683 44.1053C13.6785 43.7423 13.4154 43.3086 13.2787 42.8042C13.138 42.2928 13.1389 41.7557 13.2814 41.1927C13.456 40.5027 13.7876 39.9582 14.2763 39.5592C14.7649 39.1601 15.3448 38.9575 16.0159 38.9511L15.622 40.5077C15.3498 40.5621 15.123 40.6809 14.9415 40.864C14.7615 41.0416 14.6372 41.2657 14.5688 41.5361C14.4584 41.9722 14.5208 42.3639 14.7559 42.7112C14.991 43.0584 15.3625 43.2964 15.8703 43.4249C16.3781 43.5534 16.818 43.5209 17.1901 43.3272C17.5621 43.1336 17.8033 42.8188 17.9137 42.3827C17.9821 42.1123 17.9794 41.8561 17.9056 41.6142C17.8331 41.3668 17.6901 41.1544 17.4766 40.9771L17.8705 39.4205C18.4579 39.7454 18.8715 40.1995 19.1115 40.783C19.3459 41.365 19.3758 42.001 19.2012 42.691C19.0587 43.254 18.8067 43.7276 18.4451 44.1118C18.0795 44.4891 17.6416 44.7454 17.1317 44.8806C16.6217 45.0158 16.0797 45.0108 15.5057 44.8655Z" fill="hsl(var(--foreground))"/>
                    <path d="M16.5556 34.6669L17.6422 35.2055L18.5108 33.4532L19.5209 33.9539L18.6522 35.7062L19.8306 36.2903L20.8131 34.3085L21.8614 34.8282L20.2303 38.1185L14.8586 35.4557L16.4897 32.1653L17.538 32.685L16.5556 34.6669Z" fill="hsl(var(--foreground))"/>
                    <path d="M24.8009 30.7434L22.2676 30.2339L22.0415 30.5013L23.7696 31.9628L22.8265 33.0779L18.2487 29.2063L19.8315 27.3348C20.1367 26.9739 20.4589 26.7208 20.7983 26.5752C21.1413 26.4254 21.4769 26.3812 21.8053 26.4426C22.1293 26.5004 22.4261 26.6432 22.6956 26.8712C22.9999 27.1285 23.1981 27.4453 23.2901 27.8214C23.3858 28.1932 23.3421 28.5887 23.159 29.008L25.8653 29.4848L24.8009 30.7434ZM21.2524 29.834L21.837 29.1427C22.0098 28.9384 22.0885 28.744 22.0731 28.5594C22.0614 28.3705 21.9642 28.1989 21.7816 28.0444C21.6077 27.8974 21.4266 27.8337 21.2384 27.8535C21.0539 27.8689 20.8752 27.9788 20.7024 28.1831L20.1178 28.8743L21.2524 29.834Z" fill="hsl(var(--foreground))"/>
                    <path d="M27.6141 20.9356L28.2737 21.9021L26.9616 22.7975L29.6817 26.7832L28.4754 27.6064L25.7553 23.6208L24.4432 24.5162L23.7836 23.5498L27.6141 20.9356Z" fill="hsl(var(--foreground))"/>
                    <path d="M31.8038 19.0283L34.0121 24.6021L32.6544 25.1401L30.446 19.5662L31.8038 19.0283Z" fill="hsl(var(--foreground))"/>
                    <path d="M39.9673 16.6569L40.2106 17.8014L37.8215 18.3095L38.0844 19.5458L39.8721 19.1656L40.1084 20.2767L38.3207 20.6569L38.8252 23.0293L37.3967 23.3331L36.1496 17.4688L39.9673 16.6569Z" fill="hsl(var(--foreground))"/>
                    <path d="M46.7361 16.752L45.9582 22.6967L44.5101 22.5072L45.288 16.5625L46.7361 16.752Z" fill="hsl(var(--foreground))"/>
                    <path d="M52.7487 19.6415L52.3701 20.7936L54.2281 21.4042L53.8762 22.4752L52.0181 21.8646L51.6075 23.1141L53.709 23.8047L53.3437 24.9162L49.8548 23.7698L51.7265 18.074L55.2154 19.2205L54.8501 20.332L52.7487 19.6415Z" fill="hsl(var(--foreground))"/>
                    <path d="M61.4938 23.0783C61.9928 23.4661 62.3521 23.9039 62.5715 24.3917C62.791 24.8794 62.8621 25.3818 62.7849 25.8986C62.7158 26.4145 62.4995 26.9063 62.1362 27.3738C61.7763 27.8369 61.3533 28.1679 60.867 28.3669C60.3852 28.5694 59.8786 28.6228 59.3472 28.5272C58.8203 28.435 58.3096 28.1968 57.8151 27.8125L56.0414 26.4343L59.7201 21.7001L61.4938 23.0783ZM58.5164 26.7568C58.9526 27.0956 59.3846 27.2403 59.8125 27.1906C60.2405 27.141 60.6239 26.8981 60.9627 26.462C61.3016 26.0259 61.444 25.5922 61.3898 25.1607C61.3357 24.7293 61.0906 24.3441 60.6545 24.0053L60.1082 23.5808L57.9702 26.3323L58.5164 26.7568Z" fill="hsl(var(--foreground))"/>
                </g>
            </g>
            <g id="Vector_2">
                <path d="M28.3327 67.53L27.7271 68.2646L26.1204 67.0578L25.4662 67.8514L26.6683 68.7544L26.0804 69.4676L24.8782 68.5646L23.6227 70.0874L22.6621 69.3659L25.7655 65.6016L28.3327 67.53Z" fill="hsl(var(--foreground))"/>
                <path d="M28.5767 74.0026C28.1698 73.7746 27.8513 73.4748 27.6211 73.1033C27.3951 72.734 27.2802 72.3321 27.2766 71.8975C27.2796 71.4614 27.4053 71.0413 27.6537 70.6372C27.9022 70.2331 28.224 69.9255 28.6191 69.7143C29.0183 69.5054 29.4418 69.4051 29.8898 69.4135C30.3419 69.4241 30.7714 69.5434 31.1783 69.7714C31.5852 69.9994 31.9017 70.298 32.1277 70.6673C32.3579 71.0388 32.4707 71.4396 32.466 71.8695C32.4655 72.3017 32.341 72.7199 32.0926 73.124C31.8441 73.5281 31.5211 73.8377 31.1236 74.0528C30.7285 74.264 30.307 74.3654 29.859 74.357C29.411 74.3487 28.9836 74.2305 28.5767 74.0026ZM29.1412 73.0845C29.4864 73.278 29.8293 73.3224 30.1699 73.2178C30.5146 73.1156 30.7979 72.884 31.0198 72.523C31.2442 72.1582 31.3179 71.8091 31.2409 71.4759C31.1705 71.1411 30.9627 70.877 30.6175 70.6835C30.2681 70.4878 29.9223 70.4391 29.58 70.5375C29.2418 70.6381 28.9594 70.8728 28.7326 71.2416C28.5083 71.6065 28.4313 71.9563 28.5017 72.2912C28.5787 72.6244 28.7918 72.8888 29.1412 73.0845Z" fill="hsl(var(--foreground))"/>
                <path d="M35.1326 76.3641C34.6717 76.2678 34.2714 76.0772 33.9319 75.7921C33.5969 75.508 33.3572 75.1599 33.2125 74.7479C33.0736 74.3324 33.0565 73.8958 33.1614 73.438C33.2663 72.9803 33.4722 72.5926 33.7791 72.2748C34.0907 71.958 34.4608 71.7373 34.8894 71.6125C35.3227 71.4888 35.7698 71.475 36.2307 71.5712C36.6916 71.6674 37.0895 71.8576 37.4244 72.1417C37.764 72.4268 38.0014 72.7744 38.1368 73.1845C38.2767 73.5955 38.2943 74.0299 38.1894 74.4877C38.0846 74.9454 37.8781 75.3354 37.5702 75.6576C37.2632 75.9753 36.8954 76.1966 36.4668 76.3213C36.0382 76.446 35.5935 76.4603 35.1326 76.3641ZM35.3708 75.3242C35.7619 75.4058 36.1023 75.3465 36.3921 75.1462C36.6866 74.9469 36.8806 74.6429 36.9743 74.234C37.069 73.8207 37.0256 73.4671 36.8442 73.1731C36.6684 72.8756 36.385 72.6861 35.9939 72.6044C35.5982 72.5218 35.2536 72.578 34.9602 72.7728C34.6714 72.9686 34.4792 73.2754 34.3835 73.6932C34.2888 74.1064 34.3293 74.4618 34.5051 74.7593C34.6865 75.0533 34.9751 75.2416 35.3708 75.3242Z" fill="hsl(var(--foreground))"/>
                <path d="M41.7802 72.7472C42.3058 72.804 42.7533 72.9531 43.1228 73.1945C43.4922 73.4358 43.762 73.7488 43.9322 74.1335C44.1077 74.5141 44.1676 74.9395 44.1118 75.4096C44.0566 75.8751 43.8986 76.277 43.6379 76.615C43.3819 76.9536 43.0433 77.2009 42.6219 77.3568C42.2053 77.5132 41.7365 77.5632 41.2156 77.5069L39.3475 77.305L39.9121 72.5453L41.7802 72.7472ZM41.2565 76.495C41.7158 76.5447 42.0876 76.4635 42.3717 76.2516C42.6558 76.0396 42.8239 75.7145 42.8759 75.276C42.9279 74.8375 42.8405 74.4825 42.6138 74.2107C42.387 73.939 42.044 73.7783 41.5846 73.7287L41.0093 73.6665L40.6812 76.4328L41.2565 76.495Z" fill="hsl(var(--foreground))"/>
            </g>
            <g id="Vector_3">
                <path d="M54.418 74.958C54.0939 75.0838 53.7822 75.146 53.483 75.1445C53.1838 75.1429 52.9147 75.0732 52.6757 74.9353C52.4409 74.7958 52.2607 74.588 52.135 74.3119L53.2841 73.8657C53.3672 74.017 53.475 74.1164 53.6075 74.1638C53.7382 74.2072 53.8815 74.1987 54.0372 74.1382C54.1972 74.0761 54.309 73.9926 54.3727 73.8879C54.4347 73.779 54.4394 73.6619 54.3867 73.5363C54.3425 73.4311 54.2681 73.3587 54.1635 73.3193C54.063 73.2783 53.9488 73.2567 53.8206 73.2547C53.6967 73.251 53.524 73.2593 53.3024 73.2794C52.9805 73.3055 52.7112 73.3112 52.4945 73.2965C52.2779 73.2817 52.0695 73.2167 51.8693 73.1014C51.6692 72.986 51.513 72.7948 51.4009 72.5276C51.2344 72.1308 51.2538 71.763 51.4592 71.4243C51.6629 71.0815 52.0046 70.817 52.4844 70.6307C52.9727 70.4411 53.4138 70.4016 53.8078 70.5123C54.2001 70.6189 54.4908 70.8686 54.6801 71.2612L53.5121 71.7148C53.4459 71.5804 53.3483 71.4935 53.2192 71.4542C53.0884 71.4108 52.9473 71.4185 52.7957 71.4774C52.6653 71.528 52.5745 71.6033 52.5234 71.7032C52.4706 71.799 52.4706 71.9097 52.5232 72.0352C52.581 72.1729 52.6934 72.254 52.8603 72.2786C53.0273 72.3033 53.2726 72.3045 53.5962 72.2825C53.9215 72.2644 54.1903 72.2636 54.4028 72.28C54.6195 72.2947 54.827 72.3577 55.0254 72.469C55.2239 72.5803 55.3766 72.7635 55.4837 73.0185C55.5856 73.2615 55.613 73.5075 55.5658 73.7565C55.5228 74.0039 55.4038 74.2337 55.209 74.446C55.0142 74.6582 54.7505 74.8288 54.418 74.958Z" fill="hsl(var(--foreground))"/>
                <path d="M59.9604 70.8106L58.4559 71.7325L58.6683 72.5653L57.6404 73.1951L56.5311 68.4237L57.6681 67.727L61.6945 70.7109L60.6551 71.3478L59.9604 70.8106ZM59.2249 70.2363L57.7852 69.1228L58.2314 70.8451L59.2249 70.2363Z" fill="hsl(var(--foreground))"/>
                <path d="M62.3744 63.603L63.0176 64.2529L61.6073 65.5444L62.3021 66.2464L63.3574 65.28L63.9818 65.9109L62.9265 66.8773L64.2598 68.2244L63.4166 68.9966L60.121 65.6668L62.3744 63.603Z" fill="hsl(var(--foreground))"/>
                <path d="M64.5288 62.3814L65.3167 62.9203L66.2202 61.698L66.9526 62.199L66.0491 63.4213L66.9036 64.0058L67.9255 62.6234L68.6856 63.1433L66.9891 65.4384L63.0939 62.7742L64.7905 60.479L65.5506 60.999L64.5288 62.3814Z" fill="hsl(var(--foreground))"/>
                <path d="M67.1091 56.0437L67.935 56.4607L67.3465 57.5393L70.7526 59.2589L70.2116 60.2506L66.8054 58.531L66.2169 59.6096L65.391 59.1926L67.1091 56.0437Z" fill="hsl(var(--foreground))"/>
                <path d="M68.5959 51.2891L71.2369 53.6457L72.7589 54.052L72.4476 55.1312L70.9256 54.7249L67.3997 55.4352L67.7529 54.2109L69.9293 53.8676L68.2464 52.5007L68.5959 51.2891Z" fill="hsl(var(--foreground))"/>
            </g>
        </g>
    </symbol>
    <symbol id='gluten_free' viewBox="0 0 72 86" fill="none" xmlns="http://www.w3.org/2000/svg">
        <path d="M3.2 83.3332V75.3996H7.9488V76.2774H4.208V78.7553H5.3952C6.19413 78.7553 6.81387 78.8553 7.2544 79.0553C7.69493 79.2479 8.00107 79.5146 8.1728 79.8553C8.34453 80.1887 8.4304 80.5739 8.4304 81.0109C8.4304 81.4924 8.33333 81.9073 8.1392 82.2554C7.95253 82.6036 7.6464 82.8703 7.2208 83.0555C6.7952 83.2406 6.2352 83.3332 5.5408 83.3332H3.2ZM5.44 82.4776C6.1568 82.4776 6.6608 82.3591 6.952 82.1221C7.2432 81.8776 7.3888 81.5072 7.3888 81.0109C7.3888 80.6702 7.31787 80.3998 7.176 80.1998C7.0416 79.9924 6.8176 79.8442 6.504 79.7553C6.19787 79.6664 5.7872 79.622 5.272 79.622H4.208V82.4776H5.44Z" fill="currentColor"/>
        <path d="M12.2746 77.2663C12.7898 77.2663 13.2304 77.3775 13.5962 77.5997C13.9696 77.8219 14.2533 78.1367 14.4474 78.5442C14.649 78.9442 14.7498 79.4146 14.7498 79.9553V80.5442H10.6394C10.6544 81.2183 10.8261 81.7332 11.1546 82.0887C11.4906 82.4369 11.9573 82.611 12.5546 82.611C12.9354 82.611 13.2714 82.5777 13.5626 82.511C13.8613 82.4369 14.1674 82.3332 14.481 82.1999V83.0555C14.1749 83.1888 13.8725 83.2851 13.5738 83.3443C13.2752 83.411 12.9205 83.4444 12.5098 83.4444C11.9424 83.4444 11.4384 83.3295 10.9978 83.0999C10.5648 82.8703 10.225 82.5295 9.97863 82.0776C9.73969 81.6184 9.62022 81.0591 9.62022 80.3998C9.62022 79.7479 9.72849 79.1886 9.94503 78.7219C10.169 78.2553 10.4789 77.896 10.8746 77.6441C11.2778 77.3923 11.7445 77.2663 12.2746 77.2663ZM12.2634 78.0664C11.793 78.0664 11.4197 78.2182 11.1434 78.5219C10.8746 78.8183 10.7141 79.2331 10.6618 79.7664H13.7194C13.7194 79.4257 13.6672 79.1294 13.5626 78.8775C13.4581 78.6257 13.2976 78.4293 13.081 78.2886C12.872 78.1404 12.5994 78.0664 12.2634 78.0664Z" fill="currentColor"/>
        <path d="M17.8573 77.2663C18.3128 77.2663 18.7085 77.3293 19.0445 77.4552C19.3805 77.5738 19.6418 77.7515 19.8285 77.9886C20.0152 78.2182 20.1085 78.4997 20.1085 78.8331C20.1085 79.196 20.0077 79.4849 19.8061 79.6998C19.6045 79.9072 19.3282 80.059 18.9773 80.1553V80.1998C19.2162 80.2665 19.4365 80.3591 19.6381 80.4776C19.8397 80.5961 20.0002 80.7517 20.1197 80.9443C20.2466 81.1369 20.3101 81.385 20.3101 81.6887C20.3101 82.0147 20.2168 82.311 20.0301 82.5777C19.8509 82.8443 19.5709 83.0555 19.1901 83.211C18.8168 83.3666 18.3352 83.4444 17.7453 83.4444C17.4616 83.4444 17.189 83.4295 16.9277 83.3999C16.6738 83.3703 16.4424 83.3258 16.2333 83.2666C16.0317 83.2073 15.8525 83.1369 15.6957 83.0555V82.1776C15.9496 82.2962 16.2482 82.4036 16.5917 82.4999C16.9426 82.5962 17.3234 82.6443 17.7341 82.6443C18.0328 82.6443 18.3016 82.611 18.5405 82.5443C18.7869 82.4776 18.981 82.3739 19.1229 82.2332C19.2648 82.085 19.3357 81.885 19.3357 81.6332C19.3357 81.4035 19.2722 81.2183 19.1453 81.0776C19.0184 80.9294 18.828 80.8183 18.5741 80.7442C18.3277 80.6702 18.0104 80.6331 17.6221 80.6331H16.8157V79.8331H17.4653C17.9805 79.8331 18.3912 79.7664 18.6973 79.6331C19.0109 79.4923 19.1677 79.2553 19.1677 78.922C19.1677 78.6405 19.0482 78.4293 18.8093 78.2886C18.5778 78.1479 18.2418 78.0775 17.8013 78.0775C17.4728 78.0775 17.1816 78.1108 16.9277 78.1775C16.6813 78.2367 16.4088 78.3293 16.1101 78.4553L15.7629 77.6775C16.084 77.5367 16.42 77.433 16.7709 77.3663C17.1218 77.2997 17.484 77.2663 17.8573 77.2663Z" fill="currentColor"/>
        <path d="M28.4171 77.3775V78.1997H25.7403V83.3332H24.7547V77.3775H28.4171Z" fill="currentColor"/>
        <path d="M33.8305 83.3332H32.8337V78.1886H31.0641C30.9894 79.1294 30.8961 79.9331 30.7841 80.5998C30.6721 81.2591 30.5302 81.7961 30.3585 82.211C30.1868 82.6258 29.9814 82.9295 29.7425 83.1221C29.5036 83.3147 29.2236 83.411 28.9025 83.411C28.8054 83.411 28.7084 83.4036 28.6113 83.3888C28.5217 83.3814 28.447 83.3629 28.3873 83.3332V82.5999C28.4321 82.6147 28.4806 82.6258 28.5329 82.6332C28.5852 82.6406 28.6374 82.6443 28.6897 82.6443C28.854 82.6443 29.0033 82.5777 29.1377 82.4443C29.2721 82.311 29.3916 82.1073 29.4961 81.8332C29.6081 81.5591 29.7089 81.2146 29.7985 80.7998C29.8881 80.3776 29.9665 79.8813 30.0337 79.3109C30.1009 78.7405 30.1606 78.096 30.2129 77.3775H33.8305V83.3332Z" fill="currentColor"/>
        <path d="M43.5311 80.3442C43.5311 81.0035 43.4228 81.5665 43.2063 82.0332C42.9898 82.4925 42.6836 82.8443 42.2879 83.0888C41.8922 83.3258 41.4218 83.4444 40.8767 83.4444C40.369 83.4444 39.9247 83.3406 39.5439 83.1332C39.1631 82.9184 38.8607 82.6073 38.6367 82.1999C38.4127 81.785 38.282 81.2776 38.2447 80.6776H36.7215V83.3332H35.7359V77.3775H36.7215V79.8553H38.2559C38.3082 79.2923 38.4463 78.822 38.6703 78.4442C38.9018 78.059 39.2042 77.7664 39.5775 77.5664C39.9583 77.3663 40.3988 77.2663 40.8991 77.2663C41.4143 77.2663 41.8698 77.3886 42.2655 77.633C42.6612 77.8701 42.9711 78.2182 43.1951 78.6775C43.4191 79.1294 43.5311 79.685 43.5311 80.3442ZM39.2527 80.3442C39.2527 80.8406 39.3087 81.2591 39.4207 81.5998C39.5402 81.9406 39.7194 82.1999 39.9583 82.3776C40.1972 82.548 40.5071 82.6332 40.8879 82.6332C41.2687 82.6332 41.5786 82.548 41.8175 82.3776C42.0564 82.1999 42.2319 81.9406 42.3439 81.5998C42.4559 81.2591 42.5119 80.8406 42.5119 80.3442C42.5119 79.8479 42.4559 79.4331 42.3439 79.0997C42.2319 78.7664 42.0564 78.5145 41.8175 78.3442C41.5786 78.1738 41.2687 78.0886 40.8879 78.0886C40.5071 78.0886 40.1972 78.1738 39.9583 78.3442C39.7194 78.5145 39.5402 78.7664 39.4207 79.0997C39.3087 79.4331 39.2527 79.8479 39.2527 80.3442Z" fill="currentColor"/>
        <path d="M49.133 78.1997H47.173V83.3332H46.1986V78.1997H44.261V77.3775H49.133V78.1997Z" fill="currentColor"/>
        <path d="M52.5246 77.2663C53.0398 77.2663 53.4804 77.3775 53.8462 77.5997C54.2196 77.8219 54.5033 78.1367 54.6974 78.5442C54.899 78.9442 54.9998 79.4146 54.9998 79.9553V80.5442H50.8894C50.9044 81.2183 51.0761 81.7332 51.4046 82.0887C51.7406 82.4369 52.2073 82.611 52.8046 82.611C53.1854 82.611 53.5214 82.5777 53.8126 82.511C54.1113 82.4369 54.4174 82.3332 54.731 82.1999V83.0555C54.4249 83.1888 54.1225 83.2851 53.8238 83.3443C53.5252 83.411 53.1705 83.4444 52.7598 83.4444C52.1924 83.4444 51.6884 83.3295 51.2478 83.0999C50.8148 82.8703 50.475 82.5295 50.2286 82.0776C49.9897 81.6184 49.8702 81.0591 49.8702 80.3998C49.8702 79.7479 49.9785 79.1886 50.195 78.7219C50.419 78.2553 50.7289 77.896 51.1246 77.6441C51.5278 77.3923 51.9945 77.2663 52.5246 77.2663ZM52.5134 78.0664C52.043 78.0664 51.6697 78.2182 51.3934 78.5219C51.1246 78.8183 50.9641 79.2331 50.9118 79.7664H53.9694C53.9694 79.4257 53.9172 79.1294 53.8126 78.8775C53.7081 78.6257 53.5476 78.4293 53.331 78.2886C53.122 78.1404 52.8494 78.0664 52.5134 78.0664Z" fill="currentColor"/>
        <path d="M57.5137 77.3775V79.8553H60.7729V77.3775H61.7585V83.3332H60.7729V80.6776H57.5137V83.3332H56.5281V77.3775H57.5137Z" fill="currentColor"/>
        <path d="M62.7185 77.3775H63.7714L65.0705 80.7665C65.1452 80.9665 65.2124 81.1591 65.2721 81.3443C65.3393 81.5295 65.3991 81.711 65.4513 81.8887C65.5036 82.0591 65.5447 82.2258 65.5745 82.3888H65.6193C65.6641 82.2036 65.7351 81.9628 65.8321 81.6665C65.9292 81.3628 66.03 81.0591 66.1346 80.7554L67.3554 77.3775H68.4193L65.8321 84.1555C65.6903 84.5259 65.5223 84.8481 65.3281 85.1222C65.1415 85.4037 64.91 85.6185 64.6338 85.7667C64.365 85.9222 64.0364 86 63.6482 86C63.469 86 63.3122 85.9889 63.1778 85.9667C63.0434 85.9519 62.9276 85.9333 62.8305 85.9111V85.1333C62.9127 85.1481 63.0098 85.1629 63.1218 85.1777C63.2412 85.1926 63.3644 85.2 63.4914 85.2C63.7228 85.2 63.9207 85.1555 64.085 85.0666C64.2567 84.9851 64.4023 84.8629 64.5218 84.7C64.6412 84.5444 64.742 84.3592 64.8242 84.1444L65.1377 83.3555L62.7185 77.3775Z" fill="currentColor"/>
        <path d="M30.4635 51.6211C28.2715 51.6211 26.1195 50.9544 24.2475 49.6925C21.1835 47.6289 19.3275 44.2161 19.4155 40.7715C19.4155 40.462 19.6155 40.1842 19.9035 40.0652C21.1275 39.5493 22.4475 39.2794 23.8235 39.2794C26.0155 39.2794 28.1675 39.9461 30.0395 41.2081C33.1035 43.2716 34.9595 46.6844 34.8715 50.129C34.8715 50.4386 34.6715 50.7163 34.3835 50.8354C33.1595 51.3592 31.8395 51.6211 30.4635 51.6211ZM21.0155 41.335C21.1275 44.0653 22.6795 46.7241 25.1435 48.3829C26.7515 49.4623 28.5915 50.0417 30.4635 50.0417C31.4395 50.0417 32.3835 49.883 33.2715 49.5734C33.1515 46.8432 31.6075 44.1844 29.1435 42.5256C27.5355 41.4462 25.6955 40.8747 23.8235 40.8747C22.8475 40.8747 21.9035 41.0334 21.0155 41.343V41.335Z" fill="currentColor"/>
        <path d="M36.6244 51.8356C35.7444 51.8356 34.8804 51.7245 34.0564 51.5023C33.7524 51.4229 33.5284 51.1689 33.4804 50.8673C32.9124 47.4624 34.2724 43.8194 37.0244 41.3511C39.0884 39.5018 41.6964 38.478 44.3604 38.478C45.2404 38.478 46.1044 38.5891 46.9284 38.8113C47.2324 38.8907 47.4564 39.1447 47.5044 39.4463C48.0724 42.8512 46.7124 46.4941 43.9604 48.9625C41.8964 50.8118 39.2884 51.8356 36.6244 51.8356ZM34.9844 50.0895C35.5204 50.1927 36.0644 50.2483 36.6244 50.2483C38.8884 50.2483 41.1124 49.3752 42.8884 47.7878C45.1044 45.8036 46.2644 42.9464 46.0004 40.2241C45.4644 40.1209 44.9204 40.0653 44.3604 40.0653C42.0964 40.0653 39.8724 40.9384 38.0964 42.5258C35.8804 44.51 34.7204 47.3672 34.9844 50.0895Z" fill="currentColor"/>
        <path d="M31.8563 42.5177C28.7043 42.5177 25.5203 41.105 23.3523 38.7398C20.7683 35.9302 19.7443 32.0491 20.6723 28.6125C20.7523 28.3109 21.0003 28.0886 21.3123 28.0331C21.8563 27.9378 22.4163 27.8982 22.9763 27.8982C26.0483 27.8982 29.0563 29.2554 31.2243 31.6285C33.4803 34.0889 34.4403 37.3668 34.1603 41.6526C34.1363 42.0177 33.8643 42.3193 33.4963 42.3828C32.9683 42.4701 32.4163 42.5177 31.8563 42.5177ZM22.0963 29.5331C21.5363 32.3269 22.4403 35.3984 24.5363 37.6763C26.5843 39.9065 29.7043 41.1526 32.6003 40.8986C32.7203 37.3826 31.8803 34.6921 30.0483 32.692C27.9683 30.4221 24.9763 29.2315 22.1043 29.5252L22.0963 29.5331Z" fill="currentColor"/>
        <path d="M36.1766 41.7555C35.2006 41.7555 34.2406 41.6206 33.3286 41.3507C33.0326 41.2634 32.8086 41.0094 32.7606 40.6999C32.2646 37.2236 33.7366 33.5409 36.6006 31.0964C38.6726 29.3264 41.2646 28.3423 43.8966 28.3423C44.8726 28.3423 45.8326 28.4772 46.7446 28.7471C47.0406 28.8344 47.2646 29.0883 47.3126 29.3979C47.8086 32.8742 46.3366 36.5569 43.4726 39.0014C41.4006 40.7713 38.8086 41.7555 36.1766 41.7555ZM34.2886 39.9618C34.8966 40.0967 35.5286 40.1681 36.1766 40.1681C38.4246 40.1681 40.6406 39.3268 42.4246 37.803C44.7366 35.8267 45.9926 32.9298 45.7846 30.1439C45.1766 30.009 44.5446 29.9376 43.8966 29.9376C41.6566 29.9376 39.4326 30.7789 37.6486 32.3027C35.3366 34.279 34.0806 37.1759 34.2886 39.9618Z" fill="currentColor"/>
        <path d="M33.7837 33.1917H33.7677C30.8397 33.1361 27.9997 31.4694 26.3517 28.8265C24.7117 26.1835 24.4797 22.9135 25.7437 20.2944C25.8797 20.0166 26.1277 19.8499 26.4797 19.842C29.4077 19.8976 32.2477 21.5643 33.8957 24.2072C35.5357 26.8502 35.7677 30.1202 34.5037 32.7393C34.3677 33.0171 34.0877 33.1917 33.7837 33.1917ZM26.9837 21.4611C26.1917 23.5088 26.4557 25.9692 27.7197 27.9931C28.9757 30.017 31.0717 31.3504 33.2717 31.5726C34.0637 29.5249 33.7997 27.0645 32.5357 25.0406C31.2797 23.0167 29.1837 21.6833 26.9837 21.4611Z" fill="currentColor"/>
        <path d="M37.1365 30.6755C36.2405 30.6755 35.4005 30.5486 34.6245 30.3025C34.3125 30.1993 34.0885 29.9216 34.0725 29.5882C33.9925 28.1993 35.1765 23.6753 37.7045 21.6197C39.2725 20.3498 41.2645 19.6513 43.3285 19.6513C44.2805 19.6513 45.2165 19.7942 46.1045 20.0799C46.4005 20.1752 46.6165 20.4371 46.6485 20.7466C46.9845 23.5959 45.7045 26.5722 43.3205 28.5167C41.6245 29.8898 39.3685 30.6835 37.1285 30.6835L37.1365 30.6755ZM35.7125 28.9453C36.1605 29.0406 36.6405 29.0882 37.1365 29.0882C39.0165 29.0882 40.8965 28.4294 42.3125 27.2865C44.1365 25.8024 45.1765 23.6118 45.1045 21.453C44.5285 21.3101 43.9365 21.2387 43.3285 21.2387C41.6405 21.2387 40.0005 21.8101 38.7205 22.8499C36.9285 24.3023 35.9205 27.485 35.7045 28.9453H35.7125Z" fill="currentColor"/>
        <path d="M35.2393 26.374C35.1353 26.374 35.0313 26.3502 34.9273 26.3105C32.4313 25.2708 30.5673 22.8738 30.0713 20.0563C29.5753 17.2387 30.4953 14.3497 32.4873 12.5322C32.7193 12.3179 33.0473 12.2623 33.3353 12.3814C35.8313 13.4211 37.6953 15.818 38.1913 18.6356C38.6873 21.4532 37.7673 24.3421 35.7753 26.1597C35.6233 26.2946 35.4313 26.366 35.2313 26.366L35.2393 26.374ZM33.1993 14.0719C31.8633 15.5323 31.2713 17.6752 31.6473 19.7785C32.0233 21.8817 33.3113 23.6913 35.0713 24.6199C36.4073 23.1596 36.9993 21.0166 36.6233 18.9134C36.2473 16.8101 34.9593 15.0005 33.1993 14.0719Z" fill="currentColor"/>
        <path d="M38.136 22.1912C37.952 22.1912 37.768 22.1833 37.592 22.1674C37.224 22.1357 36.928 21.85 36.872 21.4849C36.576 19.2864 36.872 16.1513 38.632 13.9449C40.312 11.8258 42.944 10.6511 45.488 10.8892C45.8 10.921 46.064 11.1273 46.168 11.421C47.008 13.8179 46.48 16.6275 44.8 18.7546C43.168 20.8182 40.488 22.1992 38.136 22.1992V22.1912ZM44.808 12.4448C42.96 12.4448 41.12 13.3734 39.896 14.9211C38.624 16.5244 38.296 18.8419 38.4 20.5959C40.2 20.4928 42.28 19.3578 43.544 17.7625C44.776 16.2069 45.24 14.2147 44.808 12.4369V12.4448Z" fill="currentColor"/>
        <path d="M41.3113 60.9304C39.6633 60.9304 38.1593 60.2241 36.8793 58.8272C30.9353 52.3428 31.2073 33.0167 35.7353 23.8497C35.9273 23.4529 36.4073 23.2941 36.8073 23.4846C37.2073 23.6751 37.3673 24.1513 37.1753 24.5481C32.5273 33.9453 33.0233 52.2555 38.0633 57.7557C39.4953 59.3193 41.1513 59.724 43.1353 58.978C43.5433 58.8192 44.0073 59.0256 44.1673 59.4383C44.3273 59.851 44.1113 60.3034 43.7033 60.4622C42.8793 60.7717 42.0793 60.9225 41.3193 60.9225L41.3113 60.9304Z" fill="currentColor"/>
        <path d="M36 71.4312C16.152 71.4312 0 55.4068 0 35.7156C0 16.0244 16.152 0 36 0C55.848 0 72 16.0244 72 35.7156C72 55.4068 55.848 71.4312 36 71.4312ZM36 1.58736C17.032 1.58736 1.6 16.8974 1.6 35.7156C1.6 54.5338 17.032 69.8438 36 69.8438C54.968 69.8438 70.4 54.5338 70.4 35.7156C70.4 16.8974 54.968 1.58736 36 1.58736ZM36 67.3676C28.12 67.3676 20.552 64.4944 14.688 59.2641C14.528 59.1212 14.432 58.9149 14.424 58.6926C14.424 58.4783 14.504 58.2641 14.656 58.1133L24.36 48.4859C24.672 48.1764 25.176 48.1764 25.488 48.4859C25.8 48.7955 25.8 49.2955 25.488 49.605L16.392 58.6292C21.864 63.2404 28.792 65.7723 36 65.7723C52.704 65.7723 66.304 52.2876 66.304 35.7077C66.304 28.5645 63.752 21.6913 59.104 16.2546L45.64 29.6122C45.328 29.9217 44.824 29.9217 44.512 29.6122C44.2 29.3027 44.2 28.8027 44.512 28.4931L58.584 14.5402C58.736 14.3894 58.952 14.3021 59.168 14.3101C59.384 14.3101 59.592 14.4132 59.744 14.572C65.008 20.3896 67.912 27.8979 67.912 35.7156C67.912 53.1686 53.6 67.3676 36.008 67.3676H36ZM12.952 57.2323H12.936C12.72 57.2323 12.512 57.1291 12.36 56.9704C7.032 51.1368 4.096 43.5968 4.096 35.7156C4.096 18.2626 18.408 4.06364 36 4.06364C43.936 4.06364 51.544 6.97645 57.416 12.2624C57.576 12.4052 57.672 12.6116 57.68 12.8338C57.68 13.0481 57.6 13.2624 57.448 13.4132L45.96 24.8104C45.648 25.12 45.144 25.12 44.832 24.8104C44.52 24.5009 44.52 24.0009 44.832 23.6914L55.712 12.8973C50.224 8.22253 43.256 5.66688 36 5.66688C19.296 5.651 5.696 19.1436 5.696 35.7156C5.696 42.9143 8.28 49.8272 12.984 55.2719L21.648 46.6763C21.96 46.3668 22.464 46.3668 22.776 46.6763C23.088 46.9859 23.088 47.4859 22.776 47.7954L13.512 56.9862C13.36 57.137 13.16 57.2164 12.944 57.2164L12.952 57.2323Z" fill="currentColor"/>
    </symbol>
    <symbol id='non_gmo' viewBox="0 0 72 82" fill="none" xmlns="http://www.w3.org/2000/svg">
        <path d="M13.8864 81.8894V73.9915H18.6352V74.8653H14.8944V77.3321H16.0816C16.8805 77.3321 17.5003 77.4316 17.9408 77.6307C18.3813 77.8224 18.6875 78.0879 18.8592 78.4271C19.0309 78.759 19.1168 79.1424 19.1168 79.5775C19.1168 80.0569 19.0197 80.4698 18.8256 80.8164C18.6389 81.163 18.3328 81.4285 17.9072 81.6128C17.4816 81.7972 16.9216 81.8894 16.2272 81.8894H13.8864ZM16.1264 81.0376C16.8432 81.0376 17.3472 80.9197 17.6384 80.6837C17.9296 80.4403 18.0752 80.0716 18.0752 79.5775C18.0752 79.2383 18.0043 78.9691 17.8624 78.77C17.728 78.5636 17.504 78.4161 17.1904 78.3276C16.8843 78.2391 16.4736 78.1948 15.9584 78.1948H14.8944V81.0376H16.1264Z" fill="currentColor"/>
        <path d="M22.961 75.8498C23.4762 75.8498 23.9168 75.9604 24.2826 76.1817C24.656 76.4029 24.9397 76.7163 25.1338 77.1219C25.3354 77.5201 25.4362 77.9884 25.4362 78.5267V79.113H21.3258C21.3408 79.784 21.5125 80.2965 21.841 80.6505C22.177 80.9971 22.6437 81.1704 23.241 81.1704C23.6218 81.1704 23.9578 81.1372 24.249 81.0708C24.5477 80.9971 24.8538 80.8938 25.1674 80.7611V81.6128C24.8613 81.7456 24.5589 81.8414 24.2602 81.9004C23.9616 81.9668 23.6069 82 23.1962 82C22.6288 82 22.1248 81.8857 21.6842 81.6571C21.2512 81.4285 20.9114 81.0893 20.665 80.6394C20.4261 80.1822 20.3066 79.6255 20.3066 78.9692C20.3066 78.3202 20.4149 77.7635 20.6314 77.2989C20.8554 76.8343 21.1653 76.4766 21.561 76.2259C21.9642 75.9752 22.4309 75.8498 22.961 75.8498ZM22.9498 76.6462C22.4794 76.6462 22.1061 76.7974 21.8298 77.0998C21.561 77.3947 21.4005 77.8077 21.3482 78.3386H24.4058C24.4058 77.9994 24.3536 77.7045 24.249 77.4537C24.1445 77.203 23.984 77.0076 23.7674 76.8675C23.5584 76.72 23.2858 76.6462 22.9498 76.6462Z" fill="currentColor"/>
        <path d="M28.5437 75.8498C28.9992 75.8498 29.3949 75.9125 29.7309 76.0379C30.0669 76.1559 30.3282 76.3328 30.5149 76.5688C30.7016 76.7974 30.7949 77.0776 30.7949 77.4095C30.7949 77.7708 30.6941 78.0584 30.4925 78.2723C30.2909 78.4788 30.0146 78.6299 29.6637 78.7258V78.77C29.9026 78.8364 30.1229 78.9286 30.3245 79.0466C30.5261 79.1646 30.6866 79.3194 30.8061 79.5112C30.933 79.7029 30.9965 79.9499 30.9965 80.2523C30.9965 80.5768 30.9032 80.8717 30.7165 81.1372C30.5373 81.4027 30.2573 81.6128 29.8765 81.7677C29.5032 81.9226 29.0216 82 28.4317 82C28.148 82 27.8754 81.9852 27.6141 81.9557C27.3602 81.9263 27.1288 81.882 26.9197 81.823C26.7181 81.764 26.5389 81.694 26.3821 81.6128V80.739C26.636 80.857 26.9346 80.9639 27.2781 81.0598C27.629 81.1556 28.0098 81.2036 28.4205 81.2036C28.7192 81.2036 28.988 81.1704 29.2269 81.104C29.4733 81.0376 29.6674 80.9344 29.8093 80.7943C29.9512 80.6468 30.0221 80.4477 30.0221 80.197C30.0221 79.9684 29.9586 79.784 29.8317 79.6439C29.7048 79.4964 29.5144 79.3858 29.2605 79.3121C29.0141 79.2383 28.6968 79.2014 28.3085 79.2014H27.5021V78.405H28.1517C28.6669 78.405 29.0776 78.3386 29.3837 78.2059C29.6973 78.0658 29.8541 77.8298 29.8541 77.498C29.8541 77.2178 29.7346 77.0076 29.4957 76.8675C29.2642 76.7274 28.9282 76.6573 28.4877 76.6573C28.1592 76.6573 27.868 76.6905 27.6141 76.7569C27.3677 76.8158 27.0952 76.908 26.7965 77.0334L26.4493 76.2591C26.7704 76.119 27.1064 76.0157 27.4573 75.9494C27.8082 75.883 28.1704 75.8498 28.5437 75.8498Z" fill="currentColor"/>
        <path d="M40.0891 73.9915V74.8764H36.5835V81.8894H35.5755V73.9915H40.0891Z" fill="currentColor"/>
        <path d="M44.9769 81.8894L42.3449 74.9649H42.3001C42.315 75.1124 42.3262 75.3004 42.3337 75.529C42.3486 75.7576 42.3598 76.0084 42.3673 76.2812C42.3748 76.5467 42.3785 76.8195 42.3785 77.0998V81.8894H41.4489V73.9915H42.9385L45.4025 80.4625H45.4473L47.9561 73.9915H49.4345V81.8894H48.4377V77.0334C48.4377 76.7753 48.4414 76.5209 48.4489 76.2701C48.4564 76.012 48.4676 75.7724 48.4825 75.5511C48.4974 75.3225 48.5086 75.1308 48.5161 74.976H48.4713L45.8057 81.8894H44.9769Z" fill="currentColor"/>
        <path d="M58.5874 77.9294C58.5874 78.5414 58.509 79.0982 58.3522 79.5997C58.1954 80.0937 57.9602 80.5214 57.6466 80.8828C57.3405 81.2441 56.956 81.5207 56.493 81.7124C56.0376 81.9041 55.5074 82 54.9026 82C54.2754 82 53.7304 81.9041 53.2674 81.7124C52.8045 81.5133 52.42 81.2367 52.1138 80.8828C51.8077 80.5214 51.58 80.09 51.4306 79.5886C51.2813 79.0871 51.2066 78.5304 51.2066 77.9183C51.2066 77.1071 51.341 76.3992 51.6098 75.7945C51.8786 75.1898 52.2856 74.7179 52.8306 74.3786C53.3832 74.0394 54.0776 73.8698 54.9138 73.8698C55.7128 73.8698 56.3848 74.0394 56.9298 74.3786C57.4749 74.7105 57.8856 75.1824 58.1618 75.7945C58.4456 76.3992 58.5874 77.1108 58.5874 77.9294ZM52.2706 77.9294C52.2706 78.5931 52.364 79.1646 52.5506 79.6439C52.7373 80.1232 53.0248 80.4919 53.413 80.75C53.8088 81.0081 54.3053 81.1372 54.9026 81.1372C55.5074 81.1372 56.0002 81.0081 56.381 80.75C56.7693 80.4919 57.0568 80.1232 57.2434 79.6439C57.4301 79.1646 57.5234 78.5931 57.5234 77.9294C57.5234 76.9338 57.3144 76.1558 56.8962 75.5954C56.4781 75.0276 55.8173 74.7437 54.9138 74.7437C54.309 74.7437 53.8088 74.8727 53.413 75.1308C53.0248 75.3815 52.7373 75.7466 52.5506 76.2259C52.364 76.6979 52.2706 77.2657 52.2706 77.9294Z" fill="currentColor"/>
        <path d="M36 71.1095C16.152 71.1095 0 55.1573 0 35.5548C0 15.9522 16.152 0 36 0C55.848 0 72 15.9522 72 35.5548C72 55.1573 55.848 71.1095 36 71.1095ZM36 1.58021C17.032 1.58021 1.6 16.8214 1.6 35.5548C1.6 54.2882 17.032 69.5293 36 69.5293C54.968 69.5293 70.4 54.2882 70.4 35.5548C70.4 16.8214 54.968 1.58021 36 1.58021ZM36 67.0642C28.12 67.0642 20.552 64.204 14.688 58.9972C14.528 58.855 14.432 58.6496 14.424 58.4283C14.424 58.215 14.504 58.0017 14.656 57.8516L21.52 51.0724C21.832 50.7643 22.336 50.7643 22.648 51.0724C22.96 51.3806 22.96 51.8784 22.648 52.1865L16.384 58.373C21.856 62.9635 28.784 65.484 35.992 65.484C52.696 65.484 66.288 52.0601 66.288 35.5548C66.288 28.2463 63.656 21.4909 58.848 16.4263L41.24 33.8165C40.928 34.1247 40.424 34.1247 40.112 33.8165C39.8 33.5084 39.8 33.0106 40.112 32.7025L58.296 14.7434C58.448 14.5933 58.648 14.5142 58.864 14.5142C59.072 14.5142 59.28 14.6012 59.432 14.7434C64.888 20.1556 67.896 27.551 67.896 35.5548C67.896 52.9292 53.584 67.0642 36 67.0642ZM12.952 56.9745H12.936C12.72 56.9745 12.512 56.8718 12.36 56.7138C7.032 50.9065 4.096 43.3926 4.096 35.5548C4.096 18.1803 18.408 4.04534 36 4.04534C43.936 4.04534 51.544 6.94503 57.424 12.2071C57.584 12.3494 57.68 12.5548 57.688 12.776C57.688 12.9893 57.608 13.2027 57.456 13.3528L39.448 31.1381C39.136 31.4462 38.632 31.4462 38.32 31.1381C38.008 30.8299 38.008 30.3322 38.32 30.024L55.728 12.8313C50.24 8.1776 43.272 5.63345 36.016 5.63345C19.296 5.62555 5.696 19.0574 5.696 35.5548C5.696 42.721 8.28 49.6028 12.984 55.023L20.336 47.7619C20.648 47.4538 21.152 47.4538 21.464 47.7619C21.776 48.07 21.776 48.5678 21.464 48.876L13.512 56.7296C13.36 56.8797 13.16 56.9587 12.944 56.9587L12.952 56.9745Z" fill="currentColor"/>
        <path d="M47.056 52.9134H24.616C22.2 52.9134 20.664 52.2813 20.056 51.0408C19.424 49.7372 19.944 48.0384 21.6 45.9921C24.44 42.484 31.272 31.2882 32.232 29.7001V18.4727H31.664C31.464 18.4727 31.288 18.4727 31.152 18.449C30.112 18.2831 29.416 17.5483 29.416 16.6159C29.416 15.6046 30.248 14.775 31.28 14.775H39.776C40.8 14.775 41.64 15.5967 41.64 16.6159C41.64 17.5324 40.944 18.2672 39.912 18.4411C39.784 18.4648 39.608 18.4727 39.408 18.4727H38.936V29.1786C39.936 30.7983 47.112 42.3497 50.072 45.9842C51.736 48.0226 52.256 49.7135 51.624 51.025C51.016 52.2734 49.48 52.9055 47.056 52.9055V52.9134ZM32.296 16.8925C33.312 16.8925 33.832 17.2243 33.832 17.8722V29.9213C33.832 30.0635 33.792 30.2057 33.72 30.3243C33.408 30.8457 25.968 43.1319 22.848 46.9797C21.664 48.4493 21.168 49.674 21.496 50.3534C21.8 50.9776 22.936 51.3332 24.608 51.3332H47.048C48.728 51.3332 49.864 50.9776 50.168 50.3534C50.496 49.674 50.008 48.4493 48.816 46.9876C45.576 43.0213 37.776 30.3638 37.44 29.8265C37.36 29.7001 37.32 29.5579 37.32 29.4156V17.8722C37.32 17.4297 37.576 16.8925 38.8 16.8925H39.392C39.48 16.8925 39.56 16.8925 39.624 16.8925C39.64 16.8925 40.024 16.8214 40.024 16.6238C40.024 16.4816 39.904 16.3631 39.76 16.3631H31.264C31.12 16.3631 31 16.4816 31 16.6238C31 16.8293 31.368 16.8925 31.384 16.8925C31.456 16.9004 31.544 16.9162 31.648 16.9004H32.28L32.296 16.8925Z" fill="currentColor"/>
        <path d="M29.128 47.3352C27.392 47.3352 25.448 47.0034 23.24 46.1264C22.832 45.9605 22.632 45.5022 22.792 45.0992C22.96 44.6963 23.424 44.4909 23.832 44.6568C29.32 46.8296 32.856 45.3363 36.264 43.8825C39.888 42.3418 43.632 40.7537 48.92 44.5541C49.28 44.8148 49.352 45.3047 49.096 45.6602C48.84 46.0158 48.336 46.0869 47.976 45.834C43.424 42.563 40.544 43.7877 36.896 45.3363C34.64 46.2923 32.184 47.3352 29.12 47.3352H29.128Z" fill="currentColor"/>
    </symbol>
    <symbol id='sugar_free' viewBox="0 0 71 85" fill="none" xmlns="http://www.w3.org/2000/svg">
        <path d="M10.538 82.3398V74.4257H15.2208V75.3013H11.532V77.7731H12.7027C13.4905 77.7731 14.1017 77.8729 14.5361 78.0724C14.9705 78.2645 15.2724 78.5305 15.4417 78.8704C15.6111 79.203 15.6957 79.5872 15.6957 80.0232C15.6957 80.5035 15.6 80.9173 15.4086 81.2646C15.2245 81.6119 14.9226 81.8779 14.5029 82.0627C14.0832 82.2474 13.531 82.3398 12.8463 82.3398H10.538ZM12.7469 81.4863C13.4537 81.4863 13.9507 81.3681 14.2379 81.1316C14.525 80.8878 14.6686 80.5183 14.6686 80.0232C14.6686 79.6833 14.5987 79.4136 14.4588 79.214C14.3262 79.0071 14.1053 78.8593 13.7961 78.7707C13.4942 78.682 13.0892 78.6377 12.5812 78.6377H11.532V81.4863H12.7469Z" fill="currentColor"/>
        <path d="M19.4866 76.2878C19.9946 76.2878 20.429 76.3987 20.7898 76.6203C21.158 76.842 21.4378 77.1561 21.6292 77.5625C21.828 77.9615 21.9274 78.4308 21.9274 78.9702V79.5577H17.8741C17.8888 80.2301 18.0582 80.7437 18.3821 81.0984C18.7135 81.4457 19.1736 81.6193 19.7627 81.6193C20.1382 81.6193 20.4695 81.5861 20.7567 81.5196C21.0512 81.4457 21.3531 81.3422 21.6623 81.2092V82.0627C21.3604 82.1957 21.0622 82.2918 20.7677 82.3509C20.4732 82.4174 20.1235 82.4506 19.7185 82.4506C19.1589 82.4506 18.6619 82.3361 18.2275 82.107C17.8004 81.8779 17.4654 81.538 17.2225 81.0873C16.9868 80.6291 16.869 80.0712 16.869 79.4136C16.869 78.7633 16.9758 78.2054 17.1893 77.7398C17.4102 77.2743 17.7158 76.9159 18.106 76.6647C18.5036 76.4134 18.9638 76.2878 19.4866 76.2878ZM19.4755 77.0859C19.0117 77.0859 18.6435 77.2374 18.3711 77.5403C18.106 77.8359 17.9477 78.2497 17.8962 78.7818H20.9113C20.9113 78.4418 20.8598 78.1463 20.7567 77.895C20.6536 77.6438 20.4953 77.448 20.2818 77.3076C20.0756 77.1598 19.8069 77.0859 19.4755 77.0859Z" fill="currentColor"/>
        <path d="M24.9917 76.2878C25.4408 76.2878 25.8311 76.3506 26.1624 76.4762C26.4937 76.5945 26.7514 76.7718 26.9355 77.0083C27.1196 77.2374 27.2116 77.5182 27.2116 77.8507C27.2116 78.2128 27.1122 78.501 26.9134 78.7153C26.7146 78.9222 26.4422 79.0736 26.0961 79.1697V79.214C26.3318 79.2805 26.549 79.3729 26.7478 79.4911C26.9466 79.6094 27.1049 79.7646 27.2227 79.9567C27.3479 80.1488 27.4104 80.3964 27.4104 80.6993C27.4104 81.0245 27.3184 81.32 27.1343 81.5861C26.9576 81.8521 26.6815 82.0627 26.306 82.2179C25.9378 82.373 25.4629 82.4506 24.8813 82.4506C24.6015 82.4506 24.3327 82.4359 24.075 82.4063C23.8247 82.3767 23.5964 82.3324 23.3903 82.2733C23.1915 82.2142 23.0147 82.144 22.8601 82.0627V81.187C23.1105 81.3053 23.405 81.4124 23.7437 81.5085C24.0897 81.6045 24.4653 81.6526 24.8702 81.6526C25.1647 81.6526 25.4298 81.6193 25.6654 81.5528C25.9084 81.4863 26.0998 81.3829 26.2397 81.2425C26.3796 81.0947 26.4496 80.8951 26.4496 80.6439C26.4496 80.4148 26.387 80.2301 26.2618 80.0897C26.1366 79.9419 25.9489 79.8311 25.6985 79.7572C25.4556 79.6833 25.1426 79.6463 24.7598 79.6463H23.9646V78.8483H24.6051C25.1132 78.8483 25.5182 78.7818 25.82 78.6488C26.1293 78.5083 26.2839 78.2719 26.2839 77.9394C26.2839 77.6586 26.1661 77.448 25.9305 77.3076C25.7022 77.1672 25.3709 77.097 24.9365 77.097C24.6125 77.097 24.3254 77.1302 24.075 77.1967C23.832 77.2558 23.5633 77.3482 23.2688 77.4738L22.9264 76.6979C23.243 76.5575 23.5743 76.4541 23.9204 76.3876C24.2665 76.3211 24.6236 76.2878 24.9917 76.2878Z" fill="currentColor"/>
        <path d="M37.6358 84.4014H36.686V82.3398H31.7933V76.3987H32.7652V81.5196H35.8245V76.3987H36.7964V81.5306H37.6358V84.4014Z" fill="currentColor"/>
        <path d="M37.8438 76.3987H38.882L40.1631 79.7793C40.2368 79.9789 40.303 80.171 40.3619 80.3557C40.4282 80.5405 40.4871 80.7215 40.5387 80.8988C40.5902 81.0688 40.6307 81.2351 40.6601 81.3976H40.7043C40.7485 81.2129 40.8185 80.9727 40.9142 80.6772C41.0099 80.3742 41.1093 80.0712 41.2124 79.7682L42.4162 76.3987H43.4654L40.9142 83.16C40.7743 83.5295 40.6086 83.8509 40.4172 84.1243C40.2331 84.4051 40.0048 84.6194 39.7324 84.7672C39.4673 84.9224 39.1434 85 38.7605 85C38.5838 85 38.4292 84.9889 38.2966 84.9667C38.1641 84.952 38.05 84.9335 37.9543 84.9113V84.1354C38.0352 84.1502 38.131 84.165 38.2414 84.1798C38.3592 84.1945 38.4807 84.2019 38.6059 84.2019C38.8341 84.2019 39.0293 84.1576 39.1912 84.0689C39.3606 83.9876 39.5042 83.8657 39.622 83.7031C39.7398 83.548 39.8392 83.3632 39.9202 83.1489L40.2294 82.362L37.8438 76.3987Z" fill="currentColor"/>
        <path d="M47.9027 76.3987H48.963L46.4338 79.2584L49.1728 82.3398H48.0463L45.3735 79.3249V82.3398H44.4016V76.3987H45.3735V79.2805L47.9027 76.3987Z" fill="currentColor"/>
        <path d="M53.0637 76.2878C53.7927 76.2878 54.378 76.5427 54.8198 77.0526C55.269 77.5625 55.4935 78.331 55.4935 79.3581C55.4935 80.0306 55.3904 80.5996 55.1843 81.0651C54.9855 81.5233 54.702 81.8706 54.3339 82.107C53.9731 82.3361 53.546 82.4506 53.0527 82.4506C52.7508 82.4506 52.4821 82.41 52.2465 82.3287C52.0108 82.2474 51.8084 82.144 51.639 82.0183C51.477 81.8853 51.3371 81.7412 51.2193 81.5861H51.1531C51.1678 81.7117 51.1825 81.8706 51.1972 82.0627C51.212 82.2548 51.2193 82.4211 51.2193 82.5615V85H50.2474V76.3987H51.0426L51.1751 77.2078H51.2193C51.3371 77.0378 51.477 76.8827 51.639 76.7423C51.8084 76.6019 52.0072 76.491 52.2354 76.4097C52.471 76.3285 52.7471 76.2878 53.0637 76.2878ZM52.887 77.108C52.4894 77.108 52.1691 77.1856 51.9262 77.3408C51.6832 77.4886 51.5065 77.714 51.396 78.017C51.2856 78.3199 51.2267 78.7042 51.2193 79.1697V79.3581C51.2193 79.8458 51.2709 80.2597 51.374 80.5996C51.477 80.9395 51.6501 81.1981 51.893 81.3755C52.1434 81.5528 52.4821 81.6415 52.9091 81.6415C53.2699 81.6415 53.5644 81.5417 53.7927 81.3422C54.0283 81.1427 54.2013 80.873 54.3118 80.5331C54.4296 80.1858 54.4885 79.7904 54.4885 79.3471C54.4885 78.6672 54.3559 78.1241 54.0909 77.7177C53.8332 77.3113 53.4319 77.108 52.887 77.108Z" fill="currentColor"/>
        <path d="M56.0067 76.3987H57.0449L58.3261 79.7793C58.3997 79.9789 58.466 80.171 58.5249 80.3557C58.5911 80.5405 58.6501 80.7215 58.7016 80.8988C58.7531 81.0688 58.7936 81.2351 58.8231 81.3976H58.8673C58.9114 81.2129 58.9814 80.9727 59.0771 80.6772C59.1728 80.3742 59.2722 80.0712 59.3753 79.7682L60.5791 76.3987H61.6284L59.0771 83.16C58.9372 83.5295 58.7715 83.8509 58.5801 84.1243C58.396 84.4051 58.1678 84.6194 57.8953 84.7672C57.6303 84.9224 57.3063 85 56.9234 85C56.7467 85 56.5921 84.9889 56.4596 84.9667C56.327 84.952 56.2129 84.9335 56.1172 84.9113V84.1354C56.1982 84.1502 56.2939 84.165 56.4043 84.1798C56.5222 84.1945 56.6436 84.2019 56.7688 84.2019C56.9971 84.2019 57.1922 84.1576 57.3542 84.0689C57.5235 83.9876 57.6671 83.8657 57.7849 83.7031C57.9027 83.548 58.0021 83.3632 58.0831 83.1489L58.3923 82.362L56.0067 76.3987Z" fill="currentColor"/>
        <path d="M26.4751 48.2955C26.341 48.2955 26.199 48.2638 26.0807 48.1925L14.8469 41.6845C14.6023 41.542 14.4524 41.2807 14.4524 40.9957V27.9797C14.4524 27.6947 14.6023 27.4334 14.8469 27.2909L26.0807 20.7829C26.3252 20.6404 26.625 20.6404 26.8696 20.7829L38.1033 27.2909C38.482 27.5126 38.6082 27.9955 38.3952 28.3756C38.1743 28.7556 37.6931 28.8823 37.3144 28.6685L26.4751 22.3901L16.0302 28.4389V40.5444L26.4751 46.5932L32.8572 42.8959C33.2359 42.6742 33.7171 42.8088 33.938 43.1888C34.1589 43.5688 34.0248 44.0518 33.6461 44.2735L26.8696 48.2004C26.7512 48.2717 26.6092 48.3034 26.4751 48.3034V48.2955Z" fill="currentColor"/>
        <path d="M26.4751 35.319C26.341 35.319 26.199 35.2873 26.0807 35.2161L14.8469 28.7081C14.4682 28.4864 14.342 28.0034 14.555 27.6234C14.7759 27.2434 15.2571 27.1167 15.6358 27.3305L26.4751 33.6168L33.4016 29.6977C33.7802 29.484 34.2614 29.6186 34.4744 29.9986C34.6874 30.3786 34.5533 30.8616 34.1747 31.0754L26.8538 35.2161C26.7354 35.2873 26.6013 35.319 26.4672 35.319H26.4751Z" fill="currentColor"/>
        <path d="M26.4751 48.2875C26.0412 48.2875 25.6862 47.9313 25.6862 47.4958V34.5273C25.6862 34.0918 26.0412 33.7356 26.4751 33.7356C26.909 33.7356 27.264 34.0918 27.264 34.5273V47.4958C27.264 47.9313 26.909 48.2875 26.4751 48.2875Z" fill="currentColor"/>
        <path d="M44.3908 51.0744C44.2567 51.0744 44.1147 51.0427 43.9963 50.9715L32.7626 44.4635C32.518 44.321 32.3681 44.0597 32.3681 43.7747V30.7587C32.3681 30.4736 32.518 30.2124 32.7626 30.0699L43.9963 23.5618C44.2409 23.4193 44.5407 23.4193 44.7852 23.5618L56.019 30.0699C56.2636 30.2124 56.4134 30.4736 56.4134 30.7587V43.7747C56.4134 44.0597 56.2636 44.321 56.019 44.4635L44.7852 50.9715C44.6669 51.0427 44.5249 51.0744 44.3908 51.0744ZM33.9459 43.3155L44.3908 49.3643L54.8357 43.3155V31.2099L44.3908 25.1611L33.9459 31.2099V43.3155Z" fill="currentColor"/>
        <path d="M44.3908 38.098C44.2567 38.098 44.1147 38.0663 43.9963 37.9951L32.7626 31.4871C32.3839 31.2654 32.2577 30.7824 32.4707 30.4024C32.6916 30.0224 33.1728 29.8957 33.5514 30.1094L44.3908 36.3879L55.2301 30.1094C55.6088 29.8878 56.09 30.0224 56.3109 30.4024C56.5318 30.7824 56.3977 31.2654 56.019 31.4871L44.7852 37.9951C44.6669 38.0663 44.5249 38.098 44.3908 38.098Z" fill="currentColor"/>
        <path d="M44.3908 51.0665C43.9569 51.0665 43.6019 50.7102 43.6019 50.2748V37.3063C43.6019 36.8708 43.9569 36.5145 44.3908 36.5145C44.8247 36.5145 45.1797 36.8708 45.1797 37.3063V50.2748C45.1797 50.7102 44.8247 51.0665 44.3908 51.0665Z" fill="currentColor"/>
        <path d="M35.5 71.2556C15.9277 71.2556 0 55.2706 0 35.6278C0 15.985 15.9277 0 35.5 0C55.0723 0 71 15.985 71 35.6278C71 55.2706 55.0723 71.2556 35.5 71.2556ZM35.5 1.58346C16.7954 1.58346 1.57778 16.8559 1.57778 35.6278C1.57778 54.3997 16.7954 69.6721 35.5 69.6721C54.2046 69.6721 69.4222 54.3997 69.4222 35.6278C69.4222 16.8559 54.2046 1.58346 35.5 1.58346ZM35.5 67.2019C27.7294 67.2019 20.2666 64.3359 14.484 59.1184C14.3262 58.9759 14.2316 58.77 14.2237 58.5483C14.2237 58.3346 14.3026 58.1208 14.4524 57.9704L25.6231 46.7595C25.9308 46.4507 26.4278 46.4507 26.7354 46.7595C27.0431 47.0683 27.0431 47.5671 26.7354 47.8758L16.1643 58.4929C21.5603 63.0929 28.3921 65.6185 35.5 65.6185C51.972 65.6185 65.3752 52.167 65.3752 35.6278C65.3752 28.5022 62.8587 21.6459 58.2752 16.2225L48.1143 26.42C47.8067 26.7288 47.3097 26.7288 47.002 26.42C46.6943 26.1112 46.6943 25.6124 47.002 25.3036L57.7624 14.5045C57.9123 14.354 58.1253 14.267 58.3383 14.2749C58.5513 14.2749 58.7564 14.3778 58.9063 14.5361C64.0972 20.3395 66.9609 27.8293 66.9609 35.6278C66.9609 53.0379 52.8477 67.2019 35.5079 67.2019H35.5ZM12.7721 57.0916H12.7563C12.5433 57.0916 12.3382 56.9886 12.1883 56.8303C6.93433 51.0111 4.03911 43.4897 4.03911 35.6278C4.03911 18.2177 18.1523 4.05365 35.5 4.05365C43.3258 4.05365 50.8281 6.9593 56.6186 12.2322C56.7763 12.3747 56.871 12.5806 56.8789 12.8023C56.8789 13.016 56.8 13.2298 56.6501 13.3802L45.5031 24.5673C45.1954 24.8761 44.6984 24.8761 44.3908 24.5673C44.0831 24.2586 44.0831 23.7598 44.3908 23.451L54.9382 12.8577C49.5264 8.19439 42.6552 5.64503 35.5 5.64503C19.028 5.63711 5.61689 19.0965 5.61689 35.6278C5.61689 42.8088 8.165 49.7047 12.8037 55.136L22.5859 45.3186C22.8936 45.0098 23.3906 45.0098 23.6982 45.3186C24.0059 45.6273 24.0059 46.1261 23.6982 46.4349L13.3164 56.854C13.1666 57.0045 12.9693 57.0836 12.7563 57.0836L12.7721 57.0916Z" fill="currentColor"/>
    </symbol>
    <symbol id=''>
    
    </symbol>
    <symbol id=''></symbol>
</svg>
