<svg>
    <symbol viewBox="0 0 32 32" fill="none" xmlns="http://www.w3.org/2000/svg" id='phone'>
      <path d="M26.6409 9.97987C25.0038 18.9395 17.9395 26.0038 8.97987 27.6409C6.80671 28.038 5 26.2091 5 24V20.75C5 20.1977 5.4483 19.7538 5.99916 19.7143C7.41069 19.6129 8.76322 19.2985 10.0248 18.8029L12.1138 20.892C15.5115 19.266 18.266 16.5115 19.892 13.1138L17.8029 11.0248C18.2985 9.76323 18.6129 8.41069 18.7143 6.99916C18.7538 6.4483 19.1977 6 19.75 6H23C25.2091 6 27.038 7.80671 26.6409 9.97987Z" stroke="currentColor" stroke-width="1.5" stroke-linecap="round" stroke-linejoin="round"/>
    </symbol>
    <symbol id='logo' viewBox="0 0 119 138" fill="none" xmlns="http://www.w3.org/2000/svg">
      <path d="M59.9332 91.1562H51.9633H51.6445L60.8896 117.743V137.367H68.8595V117.743L77.467 91.1562H69.4971L64.7152 108.565L59.9332 91.1562Z" fill="currentColor"/>
      <path d="M87.6687 90.8398H80.0176V103.184L87.6687 99.0692V90.8398Z" fill="currentColor"/>
      <path d="M113.81 0.324219H93.4072V47.8013L113.81 41.7875V34.1912L101.058 37.6728V26.5949H111.897V19.9481H101.058V6.65449H113.81V0.324219Z" fill="currentColor"/>
      <path d="M60.2528 0.324219H53.2393V58.4082L60.2528 56.3391V0.324219Z" fill="currentColor"/>
      <path d="M22.9536 13.9264H16.2589C16.2589 13.9264 16.224 11.8862 16.224 10.8898C16.224 9.94029 15.9052 7.40818 12.3985 7.09166C8.8917 6.77515 6.0574 11.3943 7.93531 16.2706C10.4857 19.4357 15.4589 20.7651 18.7744 22.2843C22.0899 23.8036 23.1313 26.9265 23.2375 28.2981V66.1512L0.284204 72.7979L0.284203 34.3118H6.97892V62.1651L15.9052 59.6329V28.9311C13.0998 27.4118 6.3761 24.6879 4.46275 23.1053C-2.55073 16.4585 -0.35325 5.50909 5.06558 2.02717C9.20993 -0.504741 13.6731 -0.821225 18.455 2.02717C22.564 4.47469 23.5912 9.49519 22.9536 13.9264Z" fill="currentColor"/>
      <path d="M113.456 103.937L106.762 103.938V101.405C106.762 100.456 106.443 97.9238 102.936 97.6073C99.4295 97.2908 95.9228 101.722 98.4731 106.786C101.023 109.951 105.997 111.281 109.312 112.8C112.628 114.319 113.669 117.442 113.775 118.814V129.138C113.81 131.037 109.602 137.684 102.971 137.684C96.3402 137.684 95.32 136.418 95.32 136.418C94.0448 135.679 90.7931 132.873 90.5381 130.088V124.074H97.5516C97.3391 126.289 97.9342 130.721 102.015 130.721C106.095 130.721 106.478 127.556 106.478 125.656C106.478 125.656 106.797 119.959 106.478 119.643C106.16 119.328 105.522 119.01 105.522 119.01C102.716 117.49 97.5167 115.332 95.6034 113.749C87.6341 106.153 90.1846 96.0247 95.6034 92.5428C99.7477 90.0109 104.211 89.6944 108.993 92.5428C113.102 94.9903 113.775 100.983 113.456 103.937Z" fill="currentColor"/>
      <path d="M35.386 0.324219H28.3725H28.0537L28.3725 65.518L49.0943 59.1877V34.5077H41.7619V53.182L35.386 54.7646V0.324219Z" fill="currentColor"/>
      <path d="M80.6553 13.6181H87.6688C87.9876 8.2371 86.3936 -0.298135 76.511 0.00801413C68.3498 0.260835 65.9907 6.02242 65.6719 9.65546V55.0734L87.35 48.7431L87.6688 34.508H80.3365V42.7374L72.6854 44.953V13.6181C72.6854 10.7701 73.0042 6.65544 76.8297 6.65544C80.6553 6.65544 80.7616 11.297 80.6553 13.6181Z" fill="currentColor"/>
      <path fill-rule="evenodd" clip-rule="evenodd" d="M93.1771 53.1814L99.8719 50.9658C100.297 53.1814 101.338 57.6759 102.103 57.9291C102.869 58.1823 104.671 55.7135 105.522 54.4475L105.61 51.5988V49.6998L111.667 48.1172C111.88 50.2273 112.05 54.764 111.03 56.03C110.01 57.2961 106.567 61.1998 104.973 62.9933L111.03 71.2227L115.174 67.4245L119 71.5392L113.58 76.9199L119 84.5163H111.349L109.436 81.6676C108.479 82.7227 105.546 84.8961 101.466 85.1493C97.3853 85.4025 93.8146 81.9842 92.2206 79.1355C90.9452 75.9704 90.3079 70.2732 93.4959 66.7915L97.3212 62.3603C96.0462 60.0392 93.4324 54.9539 93.1771 53.1814ZM100.629 67.108L106.686 75.9704C106.048 77.2365 104.199 79.7053 101.904 79.452C99.6086 79.1988 98.1893 77.553 97.8708 76.2869C97.8507 76.0712 97.8253 75.8526 97.7995 75.6295C97.5599 73.5604 97.2759 71.1079 100.629 67.108Z" fill="currentColor"/>
      <path fill-rule="evenodd" clip-rule="evenodd" d="M0 90.8464V138.001H13.2601C14.8772 138.001 21.3455 135.094 22.3157 128.957V100.213C21.9923 97.1982 19.3403 91.0402 11.3196 90.5234H0V90.8464ZM7.65111 98.1312C9.65105 98.028 13.7031 98.5648 13.9118 101.538C14.1205 104.511 13.9988 119.708 13.9118 126.934C13.7379 128.276 12.2423 130.837 7.65111 130.341V98.1312Z" fill="currentColor"/>
      <path fill-rule="evenodd" clip-rule="evenodd" d="M28.0537 91.1562H42.7183C45.2687 91.6911 50.3694 94.1086 50.3694 99.4999V108.164C50.3694 110.464 48.7755 114.711 44.9499 116.508L52.2822 137.367H44.3123L38.8928 118.434H35.0672L34.7484 137.367H28.0537V91.1562ZM34.4297 97.6318V111.413C40.6162 111.102 40.9697 111.037 42.3837 108.543C43.7978 106.049 43.4639 101.373 42.6783 100.126C42.6533 100.086 42.6281 100.045 42.6025 100.004C41.8246 98.7578 40.7044 96.9624 34.4297 97.6318Z" fill="currentColor"/>
    </symbol>
    <symbol id='facebook' viewBox="0 0 32 33" fill="none" xmlns="http://www.w3.org/2000/svg">
      <g clipPath="url(#clip0_2003_13)">
        <path
          d="M16 0.450684C7.16352 0.450684 0 7.6142 0 16.4507C0 23.954 5.16608 30.2504 12.135 31.9796V21.3403H8.83584V16.4507H12.135V14.3438C12.135 8.89804 14.5997 6.37388 19.9462 6.37388C20.96 6.37388 22.7091 6.57292 23.4246 6.77132V11.2033C23.047 11.1636 22.391 11.1438 21.5763 11.1438C18.953 11.1438 17.9392 12.1377 17.9392 14.7214V16.4507H23.1654L22.2675 21.3403H17.9392V32.3336C25.8618 31.3768 32.0006 24.6312 32.0006 16.4507C32 7.6142 24.8365 0.450684 16 0.450684Z"
          fill="currentColor"
        />
      </g>
      <defs>
        <clipPath id="clip0_2003_13">
          <rect
            width="32.0006"
            height="32"
            fill="currentColor"
            transform="translate(0 0.450684)"
          />
        </clipPath>
      </defs>
    </symbol>
    <symbol id='instagram' viewBox="0 0 32 33" fill="none" xmlns="http://www.w3.org/2000/svg">
      <path d="M16 18.8625C14.5 18.8625 13.2 17.6625 13.2 16.0625C13.2 14.5625 14.4 13.2625 16 13.2625C17.5 13.2625 18.8 14.4625 18.8 16.0625C18.8 17.5625 17.5 18.8625 16 18.8625Z" fill="currentColor"/>
      <path fill-rule="evenodd" clip-rule="evenodd" d="M19.4 9.2625H12.6C11.8 9.3625 11.4 9.4625 11.1 9.5625C10.7 9.6625 10.4 9.8625 10.1 10.1625C9.86261 10.3999 9.75045 10.6373 9.61489 10.9242C9.57916 10.9998 9.5417 11.0791 9.5 11.1625C9.48453 11.2089 9.46667 11.2577 9.44752 11.31C9.34291 11.5958 9.2 11.9863 9.2 12.6625V19.4625C9.3 20.2625 9.4 20.6625 9.5 20.9625C9.6 21.3625 9.8 21.6625 10.1 21.9625C10.3374 22.1999 10.5748 22.312 10.8617 22.4476C10.9374 22.4834 11.0165 22.5208 11.1 22.5625C11.1464 22.578 11.1952 22.5958 11.2475 22.615C11.5333 22.7196 11.9238 22.8625 12.6 22.8625H19.4C20.2 22.7625 20.6 22.6625 20.9 22.5625C21.3 22.4625 21.6 22.2625 21.9 21.9625C22.1374 21.7251 22.2495 21.4877 22.3851 21.2008C22.4209 21.1251 22.4583 21.046 22.5 20.9625C22.5155 20.9161 22.5333 20.8673 22.5525 20.815C22.6571 20.5292 22.8 20.1387 22.8 19.4625V12.6625C22.7 11.8625 22.6 11.4625 22.5 11.1625C22.4 10.7625 22.2 10.4625 21.9 10.1625C21.6626 9.92511 21.4252 9.81295 21.1383 9.67738C21.0627 9.64168 20.9833 9.60417 20.9 9.5625C20.8536 9.54703 20.8048 9.52916 20.7525 9.51002C20.4667 9.4054 20.0762 9.2625 19.4 9.2625ZM16 11.7625C13.6 11.7625 11.7 13.6625 11.7 16.0625C11.7 18.4625 13.6 20.3625 16 20.3625C18.4 20.3625 20.3 18.4625 20.3 16.0625C20.3 13.6625 18.4 11.7625 16 11.7625ZM21.4 11.6625C21.4 12.2148 20.9523 12.6625 20.4 12.6625C19.8477 12.6625 19.4 12.2148 19.4 11.6625C19.4 11.1102 19.8477 10.6625 20.4 10.6625C20.9523 10.6625 21.4 11.1102 21.4 11.6625Z" fill="currentColor"/>
      <path fill-rule="evenodd" clip-rule="evenodd" d="M0 16.0625C0 7.22594 7.16344 0.0625 16 0.0625C24.8366 0.0625 32 7.22594 32 16.0625C32 24.8991 24.8366 32.0625 16 32.0625C7.16344 32.0625 0 24.8991 0 16.0625ZM12.6 7.7625H19.4C20.3 7.8625 20.9 7.9625 21.4 8.1625C22 8.4625 22.4 8.6625 22.9 9.1625C23.4 9.6625 23.7 10.1625 23.9 10.6625C24.1 11.1625 24.3 11.7625 24.3 12.6625V19.4625C24.2 20.3625 24.1 20.9625 23.9 21.4625C23.6 22.0625 23.4 22.4625 22.9 22.9625C22.4 23.4625 21.9 23.7625 21.4 23.9625C20.9 24.1625 20.3 24.3625 19.4 24.3625H12.6C11.7 24.2625 11.1 24.1625 10.6 23.9625C10 23.6625 9.6 23.4625 9.1 22.9625C8.6 22.4625 8.3 21.9625 8.1 21.4625C7.9 20.9625 7.7 20.3625 7.7 19.4625V12.6625C7.8 11.7625 7.9 11.1625 8.1 10.6625C8.4 10.0625 8.6 9.6625 9.1 9.1625C9.6 8.6625 10.1 8.3625 10.6 8.1625C11.1 7.9625 11.7 7.7625 12.6 7.7625Z" fill="currentColor"/>
    </symbol>
    <symbol id='instagram-square' viewBox="0 0 24 25" fill="none" xmlns="http://www.w3.org/2000/svg">
      <path d="M12 2.66094C15.2063 2.66094 15.5859 2.675 16.8469 2.73125C18.0188 2.78281 18.6516 2.97969 19.0734 3.14375C19.6313 3.35938 20.0344 3.62187 20.4516 4.03906C20.8734 4.46094 21.1313 4.85938 21.3469 5.41719C21.5109 5.83906 21.7078 6.47656 21.7594 7.64375C21.8156 8.90937 21.8297 9.28906 21.8297 12.4906C21.8297 15.6969 21.8156 16.0766 21.7594 17.3375C21.7078 18.5094 21.5109 19.1422 21.3469 19.5641C21.1313 20.1219 20.8687 20.525 20.4516 20.9422C20.0297 21.3641 19.6313 21.6219 19.0734 21.8375C18.6516 22.0016 18.0141 22.1984 16.8469 22.25C15.5813 22.3062 15.2016 22.3203 12 22.3203C8.79375 22.3203 8.41406 22.3062 7.15313 22.25C5.98125 22.1984 5.34844 22.0016 4.92656 21.8375C4.36875 21.6219 3.96563 21.3594 3.54844 20.9422C3.12656 20.5203 2.86875 20.1219 2.65313 19.5641C2.48906 19.1422 2.29219 18.5047 2.24063 17.3375C2.18438 16.0719 2.17031 15.6922 2.17031 12.4906C2.17031 9.28437 2.18438 8.90469 2.24063 7.64375C2.29219 6.47187 2.48906 5.83906 2.65313 5.41719C2.86875 4.85938 3.13125 4.45625 3.54844 4.03906C3.97031 3.61719 4.36875 3.35938 4.92656 3.14375C5.34844 2.97969 5.98594 2.78281 7.15313 2.73125C8.41406 2.675 8.79375 2.66094 12 2.66094ZM12 0.5C8.74219 0.5 8.33438 0.514062 7.05469 0.570312C5.77969 0.626562 4.90313 0.832812 4.14375 1.12812C3.35156 1.4375 2.68125 1.84531 2.01563 2.51562C1.34531 3.18125 0.9375 3.85156 0.628125 4.63906C0.332812 5.40313 0.126563 6.275 0.0703125 7.55C0.0140625 8.83437 0 9.24219 0 12.5C0 15.7578 0.0140625 16.1656 0.0703125 17.4453C0.126563 18.7203 0.332812 19.5969 0.628125 20.3562C0.9375 21.1484 1.34531 21.8187 2.01563 22.4844C2.68125 23.15 3.35156 23.5625 4.13906 23.8672C4.90313 24.1625 5.775 24.3687 7.05 24.425C8.32969 24.4812 8.7375 24.4953 11.9953 24.4953C15.2531 24.4953 15.6609 24.4812 16.9406 24.425C18.2156 24.3687 19.0922 24.1625 19.8516 23.8672C20.6391 23.5625 21.3094 23.15 21.975 22.4844C22.6406 21.8187 23.0531 21.1484 23.3578 20.3609C23.6531 19.5969 23.8594 18.725 23.9156 17.45C23.9719 16.1703 23.9859 15.7625 23.9859 12.5047C23.9859 9.24687 23.9719 8.83906 23.9156 7.55937C23.8594 6.28437 23.6531 5.40781 23.3578 4.64844C23.0625 3.85156 22.6547 3.18125 21.9844 2.51562C21.3188 1.85 20.6484 1.4375 19.8609 1.13281C19.0969 0.8375 18.225 0.63125 16.95 0.575C15.6656 0.514063 15.2578 0.5 12 0.5Z" fill="currentColor"/>
      <path d="M12 6.33594C8.59688 6.33594 5.83594 9.09688 5.83594 12.5C5.83594 15.9031 8.59688 18.6641 12 18.6641C15.4031 18.6641 18.1641 15.9031 18.1641 12.5C18.1641 9.09688 15.4031 6.33594 12 6.33594ZM12 16.4984C9.79219 16.4984 8.00156 14.7078 8.00156 12.5C8.00156 10.2922 9.79219 8.50156 12 8.50156C14.2078 8.50156 15.9984 10.2922 15.9984 12.5C15.9984 14.7078 14.2078 16.4984 12 16.4984Z" fill="currentColor"/>
      <path d="M19.8469 6.09141C19.8469 6.88828 19.2 7.53047 18.4078 7.53047C17.6109 7.53047 16.9688 6.8836 16.9688 6.09141C16.9688 5.29453 17.6156 4.65234 18.4078 4.65234C19.2 4.65234 19.8469 5.29922 19.8469 6.09141Z" fill="currentColor"/>
    </symbol>

    <symbol id='bin' viewBox="0 0 32 32" fill="none" xmlns="http://www.w3.org/2000/svg">
      <g clip-path="url(#clip0_59_141)">
        <path d="M6 12H26L24.9127 24.1779C24.8206 25.2094 23.9563 26 22.9206 26H9.07939C8.04374 26 7.17941 25.2094 7.08731 24.1779L6 12Z" stroke="currentColor" stroke-width="1.5" stroke-linejoin="round"/>
        <path d="M11 15V11.1429C11 8.30254 13.2386 6 16 6C18.7614 6 21 8.30254 21 11.1429V15" stroke="currentColor" stroke-width="1.5" stroke-linecap="round"/>
      </g>
      <defs>
        <clipPath id="clip0_59_141">
          <rect width="32" height="32" fill="white"/>
        </clipPath>
      </defs>
    </symbol>
    <symbol id='close' viewBox="0 0 24 24" fill="none" xmlns="http://www.w3.org/2000/svg">
      <path d="M20 4L3 21" stroke="currentColor" stroke-width="1.5" stroke-linecap="round" stroke-linejoin="round"/>
      <path d="M3 4L20 21" stroke="currentColor" stroke-width="1.5" stroke-linecap="round" stroke-linejoin="round"/>
    </symbol>
    <symbol id="underline" viewBox="0 0 330 15" fill="none" xmlns="http://www.w3.org/2000/svg" preserveAspectRatio="none">
      <path d="M1 11.7873C20.0423 12.6522 39.3454 14.966 58.3936 13.5536C67.9104 12.848 77.2841 10.3655 86.7082 8.75929C111.273 4.57246 136.075 4.91384 160.82 5.19506C189.846 5.52494 218.837 6.84621 247.854 7.62378C261.603 7.99224 274.769 8.0003 288.35 5.47894C301.956 2.95316 315.256 1.41487 329 1" stroke="currentColor" stroke-linecap="round"/>
    </symbol>
    <symbol id='visa' viewBox="0 0 49 50" fill="none" xmlns="http://www.w3.org/2000/svg">
      <path d="M24.2616 17.7815L20.988 33.0863H17.0283L20.3023 17.7815H24.2616ZM40.9196 27.664L43.0035 21.9167L44.2028 27.664H40.9196ZM45.3388 33.0863H49L45.8014 17.7815H42.4242C41.6631 17.7815 41.0215 18.2228 40.7375 18.9033L34.7964 33.0863H38.9547L39.7802 30.8006H44.8593L45.3388 33.0863ZM35.0026 28.0898C35.0198 24.0506 29.4189 23.8268 29.4564 22.022C29.4684 21.4737 29.9917 20.8895 31.1352 20.7401C31.7021 20.6672 33.2667 20.6079 35.0401 21.4251L35.7337 18.1784C34.7813 17.8338 33.5555 17.502 32.0302 17.502C28.116 17.502 25.3625 19.5811 25.3404 22.5608C25.3153 24.7642 27.3074 25.9927 28.8051 26.7266C30.3493 27.4767 30.8667 27.9576 30.8591 28.6278C30.8484 29.6546 29.6278 30.1094 28.4912 30.1266C26.4995 30.1576 25.3449 29.5882 24.4248 29.1593L23.706 32.5145C24.6327 32.9386 26.3401 33.3076 28.108 33.3265C32.2694 33.3265 34.9902 31.2718 35.0026 28.0898ZM18.6039 17.7815L12.1885 33.0863H8.00368L4.8464 20.872C4.65501 20.1209 4.48806 19.8448 3.90597 19.5274C2.95383 19.0104 1.38208 18.5267 0 18.2259L0.0936314 17.7815H6.83089C7.68905 17.7815 8.46115 18.3526 8.65771 19.3412L10.3255 28.1982L14.4442 17.7815H18.6039Z" fill="white"/>
    </symbol>
    <symbol id='mastercard' viewBox="0 0 46 48" fill="none" xmlns="http://www.w3.org/2000/svg">
      <path d="M10.9123 38.5677V36.6108C10.9238 36.4462 10.9 36.281 10.8426 36.1263C10.7853 35.9716 10.6955 35.8309 10.5795 35.7136C10.4634 35.5964 10.3237 35.5052 10.1696 35.4462C10.0156 35.3871 9.85069 35.3616 9.68598 35.3714C9.47043 35.3573 9.25504 35.4014 9.06229 35.4989C8.86954 35.5964 8.70648 35.7438 8.5901 35.9258C8.48403 35.7493 8.33233 35.6046 8.15094 35.507C7.96956 35.4094 7.76522 35.3626 7.55944 35.3714C7.38007 35.3624 7.20145 35.4004 7.04127 35.4816C6.8811 35.5628 6.74491 35.6845 6.64621 35.8345V35.4497H5.96777V38.5677H6.6527V36.8391C6.63789 36.7324 6.64689 36.6238 6.67905 36.521C6.71121 36.4182 6.76573 36.3238 6.83869 36.2446C6.91166 36.1654 7.00126 36.1034 7.10106 36.0629C7.20087 36.0225 7.30839 36.0046 7.41592 36.0106C7.86601 36.0106 8.09435 36.3042 8.09435 36.8325V38.5677H8.77927V36.8391C8.76558 36.7326 8.77535 36.6244 8.80792 36.5221C8.84049 36.4198 8.89506 36.3259 8.9678 36.247C9.04053 36.168 9.12967 36.106 9.22896 36.0651C9.32824 36.0243 9.43525 36.0057 9.54248 36.0106C10.0056 36.0106 10.2274 36.3042 10.2274 36.8325V38.5677H10.9123ZM21.0492 35.4497H19.9403V34.5038H19.2554V35.4497H18.6226V36.0694H19.2554V37.4914C19.2554 38.2154 19.5359 38.646 20.3382 38.646C20.638 38.6469 20.9319 38.5632 21.1862 38.4046L20.9906 37.8241C20.8086 37.9326 20.6021 37.9932 20.3904 38.0002C20.0512 38.0002 19.9403 37.7914 19.9403 37.4784V36.0694H21.0492V35.4497ZM26.8353 35.3714C26.6699 35.3665 26.5062 35.4063 26.3616 35.4867C26.2169 35.5671 26.0966 35.685 26.0134 35.828V35.4497H25.3415V38.5677H26.0199V36.8195C26.0199 36.3042 26.2416 36.0172 26.6853 36.0172C26.8304 36.0152 26.9744 36.0418 27.1092 36.0954L27.318 35.4562C27.1631 35.4007 26.9998 35.3721 26.8353 35.3714ZM18.0878 35.6975C17.7038 35.4692 17.2622 35.356 16.8157 35.3714C16.0264 35.3714 15.5177 35.7497 15.5177 36.3694C15.5177 36.8782 15.896 37.1914 16.5939 37.2892L16.9136 37.3348C17.2854 37.3869 17.4615 37.4848 17.4615 37.661C17.4615 37.9023 17.2136 38.0393 16.7505 38.0393C16.378 38.0501 16.0127 37.9352 15.7133 37.7131L15.3937 38.2415C15.7889 38.5175 16.2622 38.6593 16.744 38.646C17.6442 38.646 18.166 38.222 18.166 37.6284C18.166 37.0804 17.7551 36.7934 17.0767 36.6955L16.7571 36.6499C16.4635 36.6108 16.2287 36.5521 16.2287 36.3434C16.2287 36.115 16.4504 35.978 16.8223 35.978C17.1637 35.9832 17.4982 36.0752 17.7942 36.2455L18.0878 35.6975ZM36.2612 35.3714C36.0958 35.3665 35.9321 35.4063 35.7875 35.4867C35.6428 35.5671 35.5225 35.685 35.4393 35.828V35.4497H34.7674V38.5677H35.4458V36.8195C35.4458 36.3042 35.6676 36.0172 36.1111 36.0172C36.2562 36.0152 36.4003 36.0418 36.5352 36.0954L36.7439 35.4562C36.589 35.4007 36.4257 35.3721 36.2612 35.3714ZM27.5202 37.0086C27.5112 37.2283 27.5482 37.4474 27.629 37.6519C27.7097 37.8564 27.8324 38.0417 27.9891 38.1959C28.1458 38.3501 28.333 38.4698 28.5387 38.5474C28.7444 38.6249 28.9641 38.6585 29.1836 38.646C29.5909 38.6665 29.9911 38.5338 30.3056 38.2741L29.9794 37.7262C29.7449 37.905 29.4589 38.0033 29.164 38.0067C28.9098 37.9913 28.671 37.8794 28.4965 37.6939C28.3219 37.5085 28.2247 37.2634 28.2247 37.0087C28.2247 36.754 28.3219 36.5089 28.4965 36.3234C28.671 36.1379 28.9098 36.0261 29.164 36.0106C29.4589 36.014 29.7449 36.1124 29.9794 36.2912L30.3056 35.7432C29.9911 35.4836 29.5909 35.3509 29.1836 35.3714C28.9641 35.3589 28.7445 35.3925 28.5388 35.47C28.333 35.5475 28.1458 35.6672 27.9891 35.8214C27.8324 35.9756 27.7098 36.1609 27.629 36.3654C27.5482 36.5699 27.5112 36.789 27.5202 37.0086ZM33.8737 37.0086V35.4497H33.1953V35.828C33.0795 35.6788 32.9297 35.5594 32.7583 35.48C32.5869 35.4006 32.399 35.3633 32.2103 35.3714C31.7899 35.392 31.3936 35.5735 31.1034 35.8783C30.8132 36.1831 30.6513 36.5878 30.6513 37.0087C30.6513 37.4296 30.8132 37.8343 31.1034 38.1391C31.3936 38.4439 31.7899 38.6254 32.2103 38.646C32.399 38.6541 32.5869 38.6168 32.7583 38.5374C32.9297 38.4579 33.0795 38.3386 33.1953 38.1893V38.5677H33.8737V37.0086ZM31.3492 37.0086C31.3598 36.8246 31.4239 36.6477 31.5338 36.4998C31.6436 36.3518 31.7944 36.2392 31.9675 36.1759C32.1405 36.1126 32.3284 36.1013 32.5078 36.1434C32.6872 36.1856 32.8503 36.2793 32.9771 36.4131C33.1039 36.5469 33.1888 36.7148 33.2212 36.8962C33.2537 37.0776 33.2324 37.2646 33.1599 37.434C33.0873 37.6034 32.9668 37.7479 32.8132 37.8497C32.6595 37.9515 32.4794 38.006 32.2952 38.0067C32.166 38.0084 32.0378 37.9834 31.9188 37.9332C31.7998 37.883 31.6925 37.8086 31.6036 37.7148C31.5147 37.6211 31.4462 37.5099 31.4025 37.3884C31.3587 37.2668 31.3406 37.1375 31.3492 37.0086ZM23.1628 35.3714C22.7397 35.3937 22.3417 35.5789 22.0523 35.8883C21.7628 36.1976 21.6045 36.6071 21.6104 37.0307C21.6163 37.4543 21.786 37.8591 22.084 38.1603C22.3819 38.4615 22.7849 38.6355 23.2084 38.646C23.6738 38.6623 24.129 38.5067 24.487 38.2089L24.1543 37.7067C23.8967 37.9131 23.5776 38.0279 23.2475 38.0328C23.0234 38.0516 22.8007 37.9825 22.6266 37.8401C22.4525 37.6976 22.3406 37.493 22.3147 37.2695H24.6305C24.637 37.1848 24.6435 37.1 24.6435 37.0086C24.637 36.0367 24.0369 35.3714 23.1628 35.3714ZM23.1497 35.978C23.3546 35.974 23.5527 36.0514 23.7007 36.1933C23.8486 36.3351 23.9343 36.5298 23.939 36.7347H22.3213C22.3332 36.5254 22.4265 36.329 22.5813 36.1876C22.7361 36.0462 22.9401 35.971 23.1497 35.978ZM40.1685 37.0086V34.1973H39.4901V35.828C39.3743 35.6788 39.2245 35.5594 39.0531 35.48C38.8817 35.4006 38.6939 35.3633 38.5051 35.3714C38.0848 35.392 37.6884 35.5735 37.3982 35.8783C37.108 36.1831 36.9461 36.5878 36.9461 37.0087C36.9461 37.4296 37.108 37.8343 37.3982 38.1391C37.6884 38.4439 38.0848 38.6254 38.5051 38.646C38.6939 38.6541 38.8818 38.6168 39.0531 38.5374C39.2245 38.4579 39.3743 38.3386 39.4901 38.1893V38.5677H40.1685V37.0086ZM41.2994 38.1158C41.3415 38.1156 41.3833 38.1238 41.4221 38.1402C41.4595 38.1558 41.4935 38.1783 41.5224 38.2066C41.5511 38.2349 41.574 38.2684 41.59 38.3054C41.6063 38.3433 41.6147 38.3842 41.6147 38.4256C41.6147 38.4669 41.6063 38.5078 41.59 38.5458C41.5739 38.5826 41.551 38.616 41.5224 38.6442C41.4934 38.6725 41.4594 38.6951 41.4221 38.711C41.3834 38.7276 41.3416 38.736 41.2994 38.7357C41.2373 38.7363 41.1765 38.7186 41.1244 38.6849C41.0723 38.6511 41.0314 38.6027 41.0066 38.5458C40.9903 38.5078 40.982 38.4669 40.982 38.4256C40.982 38.3843 40.9903 38.3434 41.0066 38.3054C41.0225 38.2685 41.0453 38.2349 41.0739 38.2066C41.1027 38.1781 41.1369 38.1555 41.1745 38.1402C41.2141 38.1238 41.2566 38.1155 41.2994 38.1158ZM41.2994 38.6673C41.3316 38.6676 41.3634 38.6611 41.3929 38.6483C41.4212 38.636 41.447 38.6185 41.4688 38.5967C41.5139 38.5512 41.5391 38.4897 41.5391 38.4257C41.5391 38.3617 41.5139 38.3003 41.4688 38.2548C41.447 38.233 41.4212 38.2156 41.3929 38.2036C41.3633 38.191 41.3315 38.1847 41.2994 38.185C41.2667 38.1847 41.2343 38.191 41.2041 38.2036C41.1753 38.2155 41.1491 38.2329 41.127 38.2548C41.082 38.3003 41.0567 38.3617 41.0567 38.4257C41.0567 38.4898 41.082 38.5512 41.127 38.5967C41.1492 38.6187 41.1753 38.6362 41.2041 38.6483C41.2342 38.6611 41.2667 38.6675 41.2994 38.6673ZM41.3176 38.2806C41.3482 38.2787 41.3784 38.2874 41.4031 38.3054C41.413 38.3135 41.4208 38.3238 41.426 38.3354C41.4312 38.3471 41.4337 38.3598 41.4331 38.3726C41.4335 38.3835 41.4315 38.3944 41.4274 38.4045C41.4233 38.4147 41.4171 38.4238 41.4092 38.4314C41.3903 38.4482 41.3664 38.4582 41.3412 38.4599L41.4354 38.5685H41.3617L41.2744 38.4607H41.2463V38.5685H41.1848V38.2806H41.3176ZM41.2463 38.3346V38.4113H41.3169C41.3305 38.412 41.344 38.4087 41.3557 38.4018C41.3604 38.3986 41.3643 38.3943 41.3668 38.3891C41.3693 38.384 41.3704 38.3783 41.3701 38.3726C41.3704 38.367 41.3692 38.3614 41.3667 38.3564C41.3642 38.3514 41.3604 38.3471 41.3557 38.3441C41.3439 38.3372 41.3305 38.3339 41.3169 38.3346H41.2463ZM37.6441 37.0086C37.6546 36.8246 37.7188 36.6478 37.8287 36.4998C37.9385 36.3518 38.0893 36.2393 38.2623 36.176C38.4354 36.1126 38.6232 36.1014 38.8026 36.1435C38.982 36.1857 39.1452 36.2794 39.2719 36.4132C39.3987 36.547 39.4835 36.7149 39.516 36.8963C39.5485 37.0777 39.5271 37.2647 39.4546 37.4341C39.3821 37.6035 39.2616 37.748 39.1079 37.8497C38.9543 37.9515 38.7742 38.0061 38.5899 38.0067C38.4608 38.0084 38.3326 37.9834 38.2136 37.9332C38.0946 37.8829 37.9873 37.8086 37.8984 37.7148C37.8095 37.621 37.7411 37.5099 37.6973 37.3883C37.6535 37.2668 37.6354 37.1375 37.6441 37.0086ZM14.7349 37.0086V35.4497H14.0564V35.828C13.9406 35.6788 13.7908 35.5594 13.6194 35.48C13.4481 35.4006 13.2602 35.3633 13.0714 35.3714C12.6511 35.392 12.2548 35.5735 11.9645 35.8783C11.6743 36.1831 11.5124 36.5878 11.5124 37.0087C11.5124 37.4296 11.6743 37.8343 11.9645 38.1391C12.2548 38.4439 12.6511 38.6254 13.0714 38.646C13.2602 38.6541 13.4481 38.6168 13.6194 38.5374C13.7908 38.4579 13.9406 38.3386 14.0564 38.1893V38.5677H14.7349V37.0086ZM12.2104 37.0086C12.221 36.8246 12.2851 36.6478 12.395 36.4998C12.5049 36.3518 12.6556 36.2393 12.8287 36.176C13.0018 36.1126 13.1896 36.1014 13.369 36.1435C13.5484 36.1857 13.7115 36.2794 13.8383 36.4132C13.965 36.547 14.0499 36.7149 14.0823 36.8963C14.1148 37.0777 14.0935 37.2647 14.0209 37.4341C13.9484 37.6035 13.8279 37.748 13.6743 37.8498C13.5206 37.9515 13.3405 38.0061 13.1563 38.0067C13.0271 38.0084 12.899 37.9834 12.7799 37.9332C12.6609 37.8829 12.5536 37.8086 12.4647 37.7148C12.3759 37.621 12.3074 37.5099 12.2636 37.3883C12.2199 37.2668 12.2018 37.1375 12.2104 37.0086Z" fill="white"/>
      <path d="M28.1386 11.6875H17.8633V30.1526H28.1386V11.6875Z" fill="#FF5F00"/>
      <path d="M18.515 20.9209C18.5134 19.1426 18.9164 17.3872 19.6934 15.7877C20.4705 14.1881 21.6013 12.7863 23.0002 11.6884C21.2679 10.3268 19.1873 9.47995 16.9965 9.2448C14.8056 9.00965 12.5927 9.39565 10.6108 10.3587C8.62897 11.3217 6.95801 12.8229 5.78898 14.6907C4.61995 16.5584 4 18.7175 4 20.9209C4 23.1244 4.61995 25.2834 5.78898 27.1512C6.95801 29.019 8.62897 30.5202 10.6108 31.4832C12.5927 32.4463 14.8056 32.8323 16.9965 32.5971C19.1873 32.362 21.2679 31.5152 23.0002 30.1535C21.6013 29.0555 20.4705 27.6537 19.6934 26.0542C18.9164 24.4546 18.5134 22.6992 18.515 20.9209Z" fill="#EB001B"/>
      <path d="M41.9997 20.921C41.9998 23.1244 41.3799 25.2834 40.2109 27.1512C39.042 29.019 37.3711 30.5202 35.3892 31.4832C33.4074 32.4463 31.1946 32.8323 29.0037 32.5971C26.8129 32.362 24.7324 31.5152 23 30.1535C24.3977 29.0545 25.5277 27.6524 26.3046 26.0531C27.0815 24.4538 27.4852 22.699 27.4852 20.921C27.4852 19.1429 27.0815 17.3881 26.3046 15.7888C25.5277 14.1895 24.3977 12.7875 23 11.6884C24.7324 10.3268 26.8129 9.47995 29.0037 9.2448C31.1946 9.00965 33.4074 9.39566 35.3892 10.3587C37.3711 11.3217 39.042 12.8229 40.2109 14.6907C41.3799 16.5585 41.9998 18.7175 41.9997 20.921Z" fill="#F79E1B"/>
    </symbol>
    <symbol id='telegram' viewBox="0 0 32 32" fill="none" xmlns="http://www.w3.org/2000/svg">
      <path fill-rule="evenodd" clip-rule="evenodd" d="M32 16C32 24.8366 24.8366 32 16 32C7.16344 32 0 24.8366 0 16C0 7.16344 7.16344 0 16 0C24.8366 0 32 7.16344 32 16ZM16.5734 11.8119C15.0171 12.4592 11.9068 13.7989 7.24252 15.8311C6.48511 16.1323 6.08834 16.427 6.05222 16.7151C5.99118 17.202 6.60095 17.3937 7.43129 17.6548C7.54424 17.6903 7.66127 17.7271 7.78125 17.7661C8.59818 18.0317 9.6971 18.3424 10.2684 18.3547C10.7866 18.3659 11.365 18.1523 12.0035 17.7138C16.3615 14.772 18.6112 13.2851 18.7524 13.253C18.8521 13.2304 18.9901 13.202 19.0837 13.2851C19.1772 13.3683 19.168 13.5258 19.1581 13.568C19.0977 13.8255 16.7042 16.0508 15.4655 17.2024C15.0793 17.5614 14.8054 17.816 14.7494 17.8742C14.624 18.0045 14.4962 18.1277 14.3733 18.2461C13.6144 18.9778 13.0452 19.5264 14.4048 20.4224C15.0582 20.8529 15.581 21.209 16.1026 21.5642C16.6722 21.9521 17.2404 22.339 17.9755 22.8209C18.1628 22.9437 18.3416 23.0712 18.5159 23.1954C19.1788 23.668 19.7743 24.0926 20.5101 24.0248C20.9377 23.9855 21.3793 23.5835 21.6036 22.3845C22.1336 19.5509 23.1755 13.4113 23.4163 10.8813C23.4374 10.6596 23.4108 10.376 23.3895 10.2514C23.3682 10.1269 23.3237 9.94948 23.1618 9.81813C22.9701 9.66258 22.6742 9.62978 22.5418 9.63211C21.94 9.64271 21.0167 9.96376 16.5734 11.8119Z" fill="currentColor"/>
    </symbol>
    <symbol id='mail' viewBox="0 0 32 32" fill="none" xmlns="http://www.w3.org/2000/svg">
      <path d="M4 6H27V23C27 24.1046 26.1046 25 25 25H6C4.89543 25 4 24.1046 4 23V6Z" stroke="currentColor" stroke-width="1.5" stroke-linecap="round" stroke-linejoin="round"/>
      <path d="M4 6L15.5 18L27 6" stroke="currentColor" stroke-width="1.5" stroke-linecap="round" stroke-linejoin="round"/>
    </symbol>
    <symbol id='home' viewBox="0 0 32 32" fill="none" xmlns="http://www.w3.org/2000/svg">
      <path d="M25.3333 13.3333V26C25.3333 27.1046 24.4379 28 23.3333 28H8.66667C7.5621 28 6.66667 27.1046 6.66667 26V13.3333M28 16L16 4L4 16" stroke="currentColor" stroke-width="1.5" stroke-linecap="round" stroke-linejoin="round"/>
    </symbol>
    <symbol id='time' viewBox="0 0 32 32" fill="none" xmlns="http://www.w3.org/2000/svg">
      <circle cx="15.5" cy="16.5" r="10.5" stroke="currentColor" stroke-width="1.5" stroke-linecap="round" stroke-linejoin="round"/>
      <path d="M14 13L14 18L19 18" stroke="currentColor" stroke-width="1.5" stroke-linecap="round" stroke-linejoin="round"/>
    </symbol>
    <symbol id='o-oval' viewBox="0 0 68 36" fill="none" xmlns="http://www.w3.org/2000/svg" preserveAspectRatio='none'>
      <path d="M36.4589 35.4526L34.9269 35.6872C34.8068 35.7185 34.6866 35.7185 34.5665 35.6872C34.5064 35.656 34.4163 35.6247 34.2961 35.5934C34.2961 35.5934 34.2661 35.5934 34.206 35.5934L32.7641 35.828C32.5839 35.8593 32.4337 35.8436 32.3135 35.7811L31.5025 35.9687C31.2621 36.0313 31.0819 36 30.9618 35.8749C30.9618 35.8749 30.9618 35.8593 30.9618 35.828C30.8416 35.828 30.7515 35.7811 30.6914 35.6872C30.6313 35.5621 30.7214 35.4839 30.9618 35.4526L32.7641 35.1242C32.3436 35.1242 31.9831 35.1242 31.6827 35.1242L30.4211 35.4526C30.4211 35.4526 30.391 35.4526 30.3309 35.4526L28.7989 35.7811C28.5586 35.8123 28.3784 35.7654 28.2582 35.6403C28.1381 35.5152 28.2282 35.4214 28.5286 35.3588L29.7001 35.1712L28.4385 35.3119L27.0867 35.5934C26.8464 35.6247 26.6662 35.5778 26.546 35.4526L24.9239 35.7811C24.6836 35.8436 24.5033 35.8123 24.3832 35.6872C24.3231 35.5621 24.4132 35.4683 24.6535 35.4057L26.1855 35.0773L27.0867 34.8427C26.9666 34.8427 26.8164 34.8271 26.6361 34.7958C26.4559 34.7958 26.2456 34.7958 26.0053 34.7958L24.4733 35.0773L23.2117 35.3588C22.9113 35.3901 22.731 35.3432 22.671 35.2181C22.5508 35.093 22.6109 34.9991 22.8512 34.9366L24.203 34.702L24.7437 34.5612C24.7437 34.5612 24.7136 34.5612 24.6535 34.5612L24.0227 34.702L22.4907 34.9835L21.0488 35.265C20.8085 35.2963 20.6283 35.2493 20.5081 35.1242C20.4481 35.0304 20.5081 34.9522 20.6884 34.8897L19.607 35.0773C19.3667 35.1086 19.1864 35.0617 19.0663 34.9366C19.0062 34.8115 19.0963 34.7176 19.3366 34.6551L20.7785 34.4205L22.1303 34.0452C22.1303 34.0452 22.1603 34.0452 22.2204 34.0452C22.1603 34.0139 22.1002 33.9983 22.0401 33.9983L20.6884 34.3267L19.2465 34.5612L17.8947 34.8897C17.6544 34.9522 17.4742 34.9209 17.354 34.7958C17.2339 34.6707 17.294 34.5769 17.5343 34.5143L18.886 34.1859C18.9461 34.1859 18.9761 34.1859 18.9761 34.1859L21.139 33.7637C20.9587 33.7011 20.7785 33.6542 20.5983 33.6229C20.4781 33.5604 20.3279 33.5135 20.1477 33.4822L18.6157 33.8106C18.6157 33.8106 18.5856 33.8106 18.5256 33.8106L16.9936 33.9983L15.4616 34.3736C15.2213 34.4361 15.041 34.4049 14.9209 34.2798C14.8007 34.1234 14.8608 34.0295 15.1011 33.9983L16.7232 33.6229L18.3453 33.3884L19.3366 33.2007C19.1564 33.1694 18.9161 33.1694 18.6157 33.2007L17.2639 33.4353L15.822 33.7637L14.5604 34.0921C14.3201 34.1234 14.1398 34.0765 14.0197 33.9513C13.8995 33.8262 13.9596 33.7324 14.1999 33.6699L15.4616 33.3884C15.5216 33.3884 15.5517 33.3884 15.5517 33.3884L16.9936 33.0599L18.1651 32.8254C17.9248 32.7628 17.7145 32.7003 17.5343 32.6377L16.8133 32.7785L15.3714 33.1069L13.9296 33.2945L12.3976 33.6699C12.1573 33.7324 11.977 33.7011 11.8569 33.576C11.7367 33.4509 11.7968 33.3571 12.0371 33.2945L13.6592 32.9192C13.7193 32.9192 13.7493 32.9192 13.7493 32.9192L15.1011 32.6846L16.7232 32.3562C16.4228 32.2624 16.1525 32.1529 15.9122 32.0278L14.0197 32.3562L12.5778 32.5908L11.2261 32.8723C10.9857 32.9348 10.8055 32.9036 10.6853 32.7785C10.6253 32.6221 10.7154 32.5282 10.9557 32.497L12.3075 32.2155L13.7493 31.934L15.1011 31.7463C14.8608 31.6525 14.6205 31.5586 14.3802 31.4648L13.6592 31.5586L12.1272 31.8871L10.8656 32.1216L9.24347 32.4031C9.00315 32.4344 8.85296 32.3875 8.79288 32.2624C8.67272 32.1373 8.76284 32.0434 9.06323 31.9809L10.5952 31.7463L11.8569 31.4648L13.3889 31.1833C13.3889 31.1833 13.3889 31.1677 13.3889 31.1364C13.3889 31.1364 13.479 31.1364 13.6592 31.1364C13.4189 31.0426 13.2086 30.9487 13.0284 30.8549L12.4877 30.9018L11.2261 31.2302L9.87429 31.5117L8.61265 31.6994C8.31225 31.7619 8.13202 31.715 8.07194 31.5586C8.01186 31.4335 8.10198 31.3553 8.34229 31.3241L10.8656 30.8549L12.2173 30.5265C12.2173 30.5265 12.2474 30.5265 12.3075 30.5265C12.2474 30.4639 12.1573 30.417 12.0371 30.3857C11.917 30.3232 11.7968 30.2606 11.6766 30.1981L11.1359 30.2919L9.69406 30.6203L8.25218 30.8549L6.8103 31.0426C6.56999 31.1051 6.38975 31.0582 6.26959 30.9018C6.20952 30.7767 6.32967 30.6985 6.63006 30.6672L8.07194 30.4327L9.4237 30.245L11.1359 29.8228C10.9557 29.6977 10.7755 29.5725 10.5952 29.4474L10.0545 29.5882C9.99445 29.5882 9.96441 29.5882 9.96441 29.5882L8.43241 29.8697L6.90042 30.245L5.36842 30.5265C5.12811 30.5891 4.94787 30.5578 4.82772 30.4327C4.76764 30.2763 4.85776 30.1825 5.09807 30.1512L6.53995 29.8228L8.16206 29.4944C8.16206 29.4944 8.16206 29.4787 8.16206 29.4474L10.1446 29.0721C9.96441 28.9157 9.78417 28.7593 9.60394 28.603L8.70276 28.7906L7.26089 29.0252L5.81901 29.2129L4.55736 29.5413C4.31705 29.6038 4.13682 29.5725 4.01666 29.4474C3.8965 29.3223 3.95658 29.2285 4.1969 29.1659L5.45854 28.8375C5.45854 28.8375 5.48858 28.8375 5.54866 28.8375L7.08065 28.603L8.43241 28.4153L9.24347 28.1807C9.12331 28.0243 9.00315 27.8679 8.883 27.7116L7.98182 27.9461L6.53995 28.1807L5.18819 28.556L3.74631 28.8844C3.506 28.9157 3.3558 28.8688 3.29572 28.7437C3.17556 28.6186 3.23564 28.5248 3.47596 28.4622L4.82772 28.1807L6.26959 27.8054L7.62136 27.5708L8.52253 27.3362C8.40237 27.1486 8.28222 26.9609 8.16206 26.7732L6.99053 27.0547L5.45854 27.3831L4.1969 27.7585C4.1969 27.7585 4.16686 27.7585 4.10678 27.7585L2.75502 27.993C2.45463 28.0243 2.27439 27.9774 2.21431 27.8523C2.15423 27.7272 2.24435 27.6334 2.48466 27.5708L3.83643 27.3831L5.09807 27.0078L6.72018 26.6794L7.89171 26.3979C7.77155 26.2103 7.65139 26.0226 7.53124 25.8349L6.63006 25.9757L5.2783 26.351L3.83643 26.5856L2.30443 26.914C2.06412 26.9765 1.88388 26.9453 1.76373 26.8202C1.64357 26.695 1.70365 26.6012 1.94396 26.5387L3.56607 26.1633C3.62615 26.1633 3.65619 26.1633 3.65619 26.1633L5.00795 25.9757L6.35971 25.6003L7.351 25.4127C7.23085 25.2876 7.11069 25.1156 6.99053 24.8966L6.08936 25.0374L4.64748 25.3189L3.29572 25.6473L2.03408 26.0226C1.79376 26.0851 1.61353 26.0539 1.49337 25.9288C1.37322 25.8036 1.4333 25.7098 1.67361 25.6473L2.93525 25.2719L4.28701 24.9435C4.28701 24.9123 4.28701 24.8966 4.28701 24.8966L5.81901 24.662L6.8103 24.4744C6.69014 24.2867 6.60002 24.1303 6.53995 24.0052L5.81901 24.146L4.37713 24.4744C4.31705 24.4744 4.28701 24.4744 4.28701 24.4744C4.28701 24.5056 4.28701 24.5213 4.28701 24.5213L2.75502 24.709L1.31314 24.9904C1.07283 25.0217 0.892591 24.9748 0.772435 24.8497C0.712357 24.7246 0.802474 24.6308 1.04279 24.5682L2.48466 24.3336L4.01666 24.099L5.45854 23.7706C5.45854 23.7706 5.45854 23.755 5.45854 23.7237C5.51862 23.7237 5.54866 23.7237 5.54866 23.7237L6.26959 23.583C6.20952 23.4266 6.14944 23.2546 6.08936 23.0669L5.2783 23.2546L3.74631 23.583L2.30443 23.8176C2.30443 23.8176 2.30443 23.8332 2.30443 23.8645L0.772435 24.0521C0.532122 24.0834 0.381926 24.0365 0.321848 23.9114C0.26177 23.7863 0.351887 23.7081 0.5922 23.6768L2.03408 23.4422L3.38584 23.1607L5.00795 22.8792L5.90913 22.6447C5.84905 22.4257 5.69885 22.285 5.45854 22.2224C5.39846 22.2537 5.36842 22.2693 5.36842 22.2693L4.01666 22.457L2.57478 22.7854C2.57478 22.7854 2.54474 22.7854 2.48466 22.7854L1.04279 22.9731C0.742396 23.0356 0.562161 22.9887 0.502083 22.8323C0.442004 22.7072 0.532122 22.629 0.772435 22.5977L2.30443 22.3632L3.74631 22.0817L5.09807 21.8471L5.72889 21.7063C5.66881 21.4874 5.63877 21.2528 5.63877 21.0026L5.09807 21.0495L3.83643 21.4248L2.48466 21.7533L0.862552 21.9878C0.622239 22.0504 0.472043 22.0035 0.411965 21.8471C0.291809 21.722 0.351887 21.6438 0.5922 21.6125L2.21431 21.331L3.47596 21.0495L4.7376 20.6742C4.7376 20.6742 4.76764 20.6742 4.82772 20.6742L5.54866 20.5804C5.54866 20.3301 5.4285 20.1738 5.18819 20.1112L3.74631 20.2989L2.30443 20.5804L0.862552 20.8149C0.622239 20.8775 0.442004 20.8462 0.321848 20.7211C0.26177 20.5647 0.351887 20.4709 0.5922 20.4396L2.03408 20.1581L4.91783 19.689L5.54866 19.5951C5.54866 19.47 5.51862 19.3606 5.45854 19.2667C5.45854 19.1729 5.36842 19.0947 5.18819 19.0321L3.65619 19.2198L2.1242 19.5482L0.502083 19.8297C0.26177 19.861 0.111574 19.8141 0.0514956 19.689C-0.0686609 19.5326 0.0214566 19.4387 0.321848 19.4075L1.85384 19.1729L3.29572 18.8445C3.29572 18.8445 3.32576 18.8445 3.38584 18.8445L4.91783 18.6099L5.45854 18.5161C5.45854 18.4222 5.4285 18.3284 5.36842 18.2346C5.30834 18.1407 5.18819 18.0626 5.00795 18L3.38584 18.2346L2.03408 18.5161L0.682317 18.7507C0.442004 18.7819 0.291809 18.735 0.23173 18.6099C0.111574 18.4848 0.201691 18.391 0.502083 18.3284L1.76373 18.1407L3.11549 17.8123C3.11549 17.8123 3.14553 17.8123 3.2056 17.8123L4.7376 17.5778L5.2783 17.5308C5.21823 17.3119 5.15815 17.1555 5.09807 17.0617L3.74631 17.3901L2.21431 17.6247L0.862552 17.9531C0.622239 18.0156 0.442004 17.9687 0.321848 17.8123C0.201691 17.6872 0.26177 17.609 0.502083 17.5778L1.94396 17.2493L3.38584 16.9679L5.09807 16.5925C5.09807 16.4049 5.06803 16.2485 5.00795 16.1234L3.92654 16.3579L2.48466 16.5925L1.22302 16.8271C0.92263 16.8584 0.742396 16.8115 0.682317 16.6864C0.622239 16.5613 0.712357 16.4831 0.95267 16.4518L2.21431 16.2172L3.65619 15.9357L4.91783 15.7011C4.91783 15.5135 4.88779 15.3258 4.82772 15.1381L3.92654 15.3727L1.40326 15.9357C1.10287 15.9983 0.92263 15.967 0.862552 15.8419C0.742396 15.7168 0.802474 15.6229 1.04279 15.5604L2.39455 15.232L3.65619 14.9974L4.82772 14.7159C4.76764 14.5282 4.7376 14.3562 4.7376 14.1998L4.01666 14.3875L2.48466 14.7628C2.48466 14.7628 2.45463 14.7628 2.39455 14.7628L0.95267 14.9505C0.652278 15.013 0.472043 14.9661 0.411965 14.8097C0.351887 14.6846 0.442004 14.6064 0.682317 14.5752L2.1242 14.3406L3.65619 14.0122L4.7376 13.7307C4.7376 13.5117 4.7376 13.2928 4.7376 13.0738L4.28701 13.1677L2.6649 13.4492L1.31314 13.7776C1.07283 13.8401 0.892591 13.8089 0.772435 13.6838C0.652278 13.5586 0.712357 13.4648 0.95267 13.4023L2.39455 13.0738C2.39455 13.0738 2.39455 13.0582 2.39455 13.0269L4.01666 12.7924L4.82772 12.6047C4.82772 12.6047 4.82772 12.5891 4.82772 12.5578C4.82772 12.4327 4.85776 12.2919 4.91783 12.1355L4.10678 12.2763L2.48466 12.6516L0.95267 13.0269C0.712357 13.0582 0.532122 13.0113 0.411965 12.8862C0.291809 12.7611 0.351887 12.6672 0.5922 12.6047L2.21431 12.2763L3.74631 11.901L5.00795 11.6195C5.06803 11.4318 5.12811 11.2441 5.18819 11.0565L4.37713 11.1972L3.02537 11.4787L1.58349 11.854C1.34318 11.9166 1.16294 11.8853 1.04279 11.7602C0.92263 11.6351 0.982709 11.5413 1.22302 11.4787L2.75502 11.1034L4.01666 10.775C4.01666 10.775 4.0467 10.775 4.10678 10.775L5.36842 10.5873C5.48858 10.4309 5.48858 10.3215 5.36842 10.2589L4.01666 10.6342L2.39455 11.0096C2.15423 11.0408 1.974 10.9939 1.85384 10.8688C1.79377 10.7437 1.88388 10.6499 2.1242 10.5873L3.65619 10.2589L5.00795 9.88358C5.00795 9.88358 5.03799 9.88358 5.09807 9.88358L5.81901 9.74283C5.93916 9.58645 5.93916 9.49262 5.81901 9.46134L4.46725 9.649L3.11549 9.97741C2.87517 10.04 2.69494 9.99305 2.57478 9.83666C2.45463 9.71155 2.54474 9.63336 2.84513 9.60208L4.1969 9.27368C4.25697 9.27368 4.28701 9.27368 4.28701 9.27368L5.54866 9.0391L6.44983 8.85143C6.44983 8.78888 6.47987 8.72632 6.53995 8.66377L5.18819 8.94526L3.83643 9.17984C3.59611 9.21112 3.41588 9.16421 3.29572 9.0391C3.23564 8.88271 3.32576 8.78888 3.56607 8.7576L4.91783 8.52302L6.35971 8.24153L6.99053 8.10078C7.11069 8.00695 7.20081 7.91312 7.26089 7.81929L6.17948 7.96004L4.82772 8.19461C4.52733 8.22589 4.34709 8.17897 4.28701 8.05387C4.22693 7.92876 4.31705 7.83493 4.55736 7.77237L5.99924 7.58471L7.89171 7.2563C7.95179 7.19374 8.0419 7.11555 8.16206 7.02172L7.17077 7.20938L5.90913 7.39705C5.60873 7.4596 5.4285 7.41268 5.36842 7.2563C5.30834 7.13119 5.39846 7.053 5.63877 7.02172L6.90042 6.78714L8.07194 6.59948L6.72018 6.83406C6.47987 6.86533 6.29963 6.81842 6.17948 6.69331C6.1194 6.53692 6.20952 6.44309 6.44983 6.41182L7.53124 6.22415C7.47116 6.22415 7.44112 6.22415 7.44112 6.22415C7.32096 6.09904 7.38104 6.00521 7.62136 5.94266L10.3249 5.28584L11.2261 5.09817C11.3462 5.03562 11.4664 4.97307 11.5865 4.91051L10.3249 5.23892L8.97312 5.52042C8.7328 5.58297 8.55257 5.55169 8.43241 5.42659C8.31226 5.30148 8.37233 5.20765 8.61265 5.14509L10.415 4.76977C10.4751 4.70721 10.5352 4.67594 10.5952 4.67594L11.947 4.39444L13.1185 4.15986C13.2387 4.09731 13.2988 4.05039 13.2988 4.01911L11.8569 4.39444C11.6166 4.45699 11.4363 4.42572 11.3162 4.30061C11.196 4.1755 11.2561 4.08167 11.4964 4.01911L12.758 3.6907C12.758 3.56559 12.8782 3.4874 13.1185 3.45613L14.6505 3.26846L15.822 2.89314C15.822 2.89314 15.8521 2.89314 15.9122 2.89314C15.9722 2.89314 16.0023 2.89314 16.0023 2.89314C16.3627 2.73675 16.7232 2.596 17.0837 2.47089C17.0837 2.47089 17.1137 2.47089 17.1738 2.47089C17.1738 2.43962 17.1738 2.42398 17.1738 2.42398C18.2552 2.11121 19.3667 1.84535 20.5081 1.62641C21.7097 1.37619 22.9113 1.15725 24.1128 0.96959C25.9152 0.53171 28.108 0.250216 30.6914 0.125107C33.2748 0 35.5577 -0.0312767 37.5403 0.0312767C37.9008 0.0312767 38.2613 0.0312767 38.6217 0.0312767C39.0423 0.0312767 39.4328 0.0312767 39.7933 0.0312767C41.5355 0.0625535 43.3078 0.10947 45.1102 0.172025C46.9726 0.234578 48.6548 0.453518 50.1568 0.828845C50.1568 0.828845 50.2168 0.860122 50.337 0.922675C50.4571 0.953952 50.5172 0.96959 50.5172 0.96959C53.2808 2.40834 56.0144 3.92528 58.7179 5.52042C61.4815 7.11555 64.0649 8.71069 66.468 10.3058C66.468 10.3058 66.498 10.3371 66.5581 10.3997C66.6182 10.4309 66.6482 10.4466 66.6482 10.4466C67.3692 11.2911 67.7597 12.2606 67.8198 13.3553C67.9399 14.45 68 15.5291 68 16.5925C67.9399 16.9366 67.9099 17.2806 67.9099 17.6247C67.9099 17.9374 67.9399 18.2502 68 18.563C68 19.1885 67.97 19.9861 67.9099 20.9557C67.8498 21.9253 67.6696 22.9418 67.3692 24.0052C67.1289 25.0686 66.7384 26.0382 66.1976 26.914C65.717 27.7897 65.0261 28.4622 64.1249 28.9314C62.2024 29.9322 60.0096 30.8549 57.5464 31.6994C55.1433 32.5439 52.8002 33.3414 50.5172 34.0921C50.5172 34.0921 50.4872 34.0921 50.4271 34.0921C50.4271 34.1234 50.4271 34.139 50.4271 34.139C49.3457 34.4205 48.0841 34.6394 46.6422 34.7958C45.2604 34.9522 43.7584 35.0773 42.1363 35.1712L40.6043 35.4526C40.364 35.4839 40.2138 35.437 40.1537 35.3119C40.0936 35.2493 40.0936 35.1868 40.1537 35.1242C39.9735 35.1555 39.7933 35.1712 39.613 35.1712L38.7118 35.265C38.5917 35.2963 38.4715 35.2963 38.3514 35.265C38.2913 35.265 38.1711 35.2493 37.9909 35.2181C37.9909 35.2493 37.9909 35.265 37.9909 35.265L36.4589 35.4526ZM26.9966 33.6699C27.0567 33.6699 27.0867 33.6855 27.0867 33.7168C28.2883 33.8106 29.4898 33.8888 30.6914 33.9513C31.953 33.9826 33.1546 34.0295 34.2961 34.0921H36.8194C38.6818 34.0608 40.8146 34.0139 43.2177 33.9513C45.6809 33.8575 47.7236 33.5917 49.3457 33.1538C51.5686 32.4031 53.8516 31.6212 56.1946 30.808C58.5978 29.9948 60.7305 29.1034 62.593 28.1338C63.3139 27.7585 63.8846 27.1642 64.3052 26.351C64.7858 25.5065 65.1162 24.5995 65.2965 23.6299C65.5368 22.629 65.687 21.6751 65.7471 20.768C65.8071 19.861 65.8372 19.1416 65.8372 18.6099C65.7771 18.2971 65.7471 17.9844 65.7471 17.6716C65.8071 17.3275 65.8372 16.9835 65.8372 16.6394C65.8372 15.6386 65.8071 14.6377 65.7471 13.6368C65.687 12.6047 65.3265 11.7133 64.6657 10.9626C62.3226 9.39878 59.7993 7.83493 57.0958 6.27107C54.4524 4.70721 51.7789 3.22155 49.0753 1.81407C47.7536 1.5013 46.2517 1.31364 44.5695 1.25109C42.9474 1.18853 41.3553 1.15725 39.7933 1.15725C39.3727 1.15725 38.9522 1.15725 38.5316 1.15725C38.1711 1.15725 37.8107 1.15725 37.4502 1.15725C35.6479 1.0947 33.5151 1.12598 31.0519 1.25109C28.5887 1.34492 26.546 1.59513 24.9239 2.00174C24.9239 2.00174 24.8939 2.00174 24.8338 2.00174C23.6923 2.1894 22.5808 2.3927 21.4994 2.61164C20.418 2.83058 19.3667 3.09644 18.3453 3.40921C15.2213 4.56646 12.5478 5.89574 10.3249 7.39705C9.78417 7.77237 9.30355 8.19461 8.883 8.66377C8.883 8.7576 8.82292 8.8358 8.70276 8.89835C8.52253 9.08601 8.37233 9.28931 8.25218 9.50825C8.25218 9.50825 8.25218 9.52389 8.25218 9.55517C8.31226 9.649 8.25218 9.72719 8.07194 9.78975C7.95179 9.97741 7.83163 10.1807 7.71147 10.3997C7.71147 10.3997 7.71147 10.4153 7.71147 10.4466C7.83163 10.5404 7.80159 10.6186 7.62136 10.6811C7.5012 10.9001 7.41108 11.1034 7.351 11.291C7.351 11.3223 7.351 11.338 7.351 11.338C7.47116 11.4631 7.44112 11.5413 7.26089 11.5725C7.14073 11.7915 7.08065 12.0104 7.08065 12.2294C7.08065 12.2294 7.08065 12.245 7.08065 12.2763C7.20081 12.3701 7.17077 12.4483 6.99053 12.5109C6.99053 12.5734 6.99053 12.6203 6.99053 12.6516C6.93046 12.9018 6.90042 13.1364 6.90042 13.3553C6.90042 13.3553 6.90042 13.371 6.90042 13.4023C7.02057 13.4648 7.02057 13.5274 6.90042 13.5899C6.90042 14.1216 6.93046 14.6377 6.99053 15.1381C7.11069 15.6386 7.20081 16.139 7.26089 16.6394C7.32096 16.7958 7.351 16.9366 7.351 17.0617C7.41108 17.1868 7.44112 17.3119 7.44112 17.437C7.5012 17.8123 7.53124 18.1877 7.53124 18.563C7.59132 18.9383 7.65139 19.3136 7.71147 19.689C7.71147 20.3145 7.74151 20.9401 7.80159 21.5656C7.92175 22.1911 8.13202 22.801 8.43241 23.3953C9.03319 24.3962 9.66402 25.4909 10.3249 26.6794C11.0458 27.8679 12.1272 28.8375 13.5691 29.5882C15.011 30.3076 16.6331 30.98 18.4354 31.6056C20.2979 32.2311 22.1303 32.7785 23.9326 33.2476C24.3531 33.3102 24.7737 33.3884 25.1942 33.4822C25.2543 33.4822 25.2844 33.4822 25.2844 33.4822C25.8251 33.576 26.3958 33.6386 26.9966 33.6699ZM23.482 34.3267C23.4219 34.3267 23.3919 34.3267 23.3919 34.3267L22.4907 34.4674L21.2291 34.7958L22.2204 34.6082L23.482 34.3267Z" fill="currentColor"/>
    </symbol>
    <symbol id='o' viewBox="0 0 57 57" fill="none" xmlns="http://www.w3.org/2000/svg">
      <path d="M30.2008 56.1334L28.9391 56.5048C28.8402 56.5543 28.7412 56.5543 28.6423 56.5048C28.5928 56.4553 28.5186 56.4057 28.4196 56.3562C28.4196 56.3562 28.3949 56.3562 28.3454 56.3562L27.158 56.7276C27.0096 56.7771 26.8859 56.7524 26.7869 56.6533L26.119 56.9505C25.9211 57.0495 25.7727 57 25.6737 56.8019C25.6737 56.8019 25.6737 56.7771 25.6737 56.7276C25.5747 56.7276 25.5005 56.6533 25.4511 56.5048C25.4016 56.3067 25.4758 56.1829 25.6737 56.1334L27.158 55.6134C26.8117 55.6134 26.5148 55.6134 26.2674 55.6134L25.2284 56.1334C25.2284 56.1334 25.2037 56.1334 25.1542 56.1334L23.8926 56.6533C23.6946 56.7029 23.5462 56.6286 23.4473 56.4305C23.3483 56.2324 23.4225 56.0838 23.6699 55.9848L24.6347 55.6877L23.5957 55.9105L22.4825 56.3562C22.2846 56.4057 22.1362 56.3315 22.0372 56.1334L20.7013 56.6533C20.5034 56.7524 20.355 56.7029 20.2561 56.5048C20.2066 56.3067 20.2808 56.1581 20.4787 56.0591L21.7403 55.5391L22.4825 55.1677C22.3835 55.1677 22.2598 55.1429 22.1114 55.0934C21.963 55.0934 21.7898 55.0934 21.5919 55.0934L20.3303 55.5391L19.2913 55.9848C19.0439 56.0343 18.8955 55.96 18.846 55.7619C18.747 55.5639 18.7965 55.4153 18.9944 55.3162L20.1076 54.9448L20.5529 54.722C20.5529 54.722 20.5282 54.722 20.4787 54.722L19.9592 54.9448L18.6976 55.3905L17.5101 55.8362C17.3122 55.8858 17.1638 55.8115 17.0648 55.6134C17.0154 55.4648 17.0648 55.341 17.2133 55.242L16.3227 55.5391C16.1248 55.5886 15.9764 55.5143 15.8774 55.3162C15.8279 55.1182 15.9021 54.9696 16.1001 54.8705L17.2875 54.4991L18.4007 53.9049C18.4007 53.9049 18.4254 53.9049 18.4749 53.9049C18.4254 53.8553 18.376 53.8306 18.3265 53.8306L17.2133 54.3506L16.0258 54.722L14.9126 55.242C14.7147 55.341 14.5663 55.2915 14.4673 55.0934C14.3684 54.8953 14.4179 54.7467 14.6158 54.6477L15.729 54.1277C15.7785 54.1277 15.8032 54.1277 15.8032 54.1277L17.5843 53.4592C17.4359 53.3601 17.2875 53.2858 17.1391 53.2363C17.0401 53.1373 16.9164 53.063 16.768 53.0135L15.5063 53.5335C15.5063 53.5335 15.4816 53.5335 15.4321 53.5335L14.1705 53.8306L12.9088 54.4249C12.7109 54.5239 12.5625 54.4744 12.4636 54.2763C12.3646 54.0287 12.4141 53.8801 12.612 53.8306L13.9478 53.2363L15.2837 52.8649L16.1001 52.5678C15.9516 52.5182 15.7537 52.5182 15.5063 52.5678L14.3931 52.9392L13.2057 53.4592L12.1667 53.9791C11.9688 54.0287 11.8204 53.9544 11.7214 53.7563C11.6225 53.5582 11.6719 53.4096 11.8698 53.3106L12.9088 52.8649C12.9583 52.8649 12.9831 52.8649 12.9831 52.8649L14.1705 52.3449L15.1353 51.9735C14.9374 51.8745 14.7642 51.7754 14.6158 51.6764L14.0221 51.8992L12.8346 52.4192L11.6472 52.7163L10.3856 53.3106C10.1876 53.4096 10.0392 53.3601 9.94026 53.162C9.84131 52.9639 9.89079 52.8154 10.0887 52.7163L11.4246 52.1221C11.474 52.1221 11.4988 52.1221 11.4988 52.1221L12.612 51.7507L13.9478 51.2307C13.7005 51.0821 13.4778 50.9088 13.2799 50.7107L11.7214 51.2307L10.534 51.6021L9.42076 52.0478C9.22286 52.1468 9.07443 52.0973 8.97548 51.8992C8.926 51.6516 9.00022 51.503 9.19812 51.4535L10.3113 51.0078L11.4988 50.5621L12.612 50.265C12.4141 50.1164 12.2162 49.9679 12.0183 49.8193L11.4246 49.9679L10.1629 50.4878L9.12391 50.8592L7.78805 51.305C7.59014 51.3545 7.46645 51.2802 7.41698 51.0821C7.31803 50.884 7.39224 50.7354 7.63962 50.6364L8.90126 50.265L9.94026 49.8193L11.2019 49.3736C11.2019 49.3736 11.2019 49.3488 11.2019 49.2993C11.2019 49.2993 11.2761 49.2993 11.4246 49.2993C11.2266 49.1507 11.0535 49.0022 10.9051 48.8536L10.4598 48.9279L9.42076 49.4479L8.30755 49.8936L7.26855 50.1907C7.02117 50.2897 6.87274 50.2155 6.82326 49.9679C6.77379 49.7698 6.848 49.646 7.04591 49.5964L9.12391 48.8536L10.2371 48.3336C10.2371 48.3336 10.2619 48.3336 10.3113 48.3336C10.2619 48.2346 10.1876 48.1603 10.0887 48.1108C9.98974 48.0117 9.89079 47.9127 9.79183 47.8136L9.34655 47.9622L8.15912 48.4822L6.97169 48.8536L5.78426 49.1507C5.58636 49.2498 5.43793 49.1755 5.33898 48.9279C5.2895 48.7298 5.38845 48.606 5.63583 48.5565L6.82326 48.1851L7.93648 47.8879L9.34655 47.2194C9.19812 47.0213 9.04969 46.8232 8.90126 46.6251L8.45598 46.848C8.4065 46.848 8.38176 46.848 8.38176 46.848L7.12012 47.2937L5.85848 47.8879L4.59683 48.3336C4.39893 48.4327 4.2505 48.3831 4.15155 48.1851C4.10207 47.9374 4.17629 47.7889 4.37419 47.7394L5.56162 47.2194L6.89748 46.6994C6.89748 46.6994 6.89748 46.6746 6.89748 46.6251L8.53019 46.0308C8.38176 45.7832 8.23333 45.5356 8.08491 45.288L7.34276 45.5851L6.15533 45.9566L4.96791 46.2537L3.92891 46.7737C3.731 46.8727 3.58257 46.8232 3.48362 46.6251C3.38467 46.427 3.43414 46.2785 3.63205 46.1794L4.67105 45.6594C4.67105 45.6594 4.69579 45.6594 4.74526 45.6594L6.00691 45.288L7.12012 44.9909L7.78805 44.6195C7.6891 44.3718 7.59014 44.1242 7.49119 43.8766L6.74905 44.248L5.56162 44.6195L4.4484 45.2137L3.26098 45.7337C3.06307 45.7832 2.93938 45.709 2.8899 45.5109C2.79095 45.3128 2.84043 45.1642 3.03833 45.0652L4.15155 44.6195L5.33898 44.0252L6.45219 43.6538L7.19433 43.2824C7.09538 42.9852 6.99643 42.6881 6.89748 42.391L5.93269 42.8367L4.67105 43.3566L3.63205 43.9509C3.63205 43.9509 3.60731 43.9509 3.55783 43.9509L2.44462 44.3223C2.19724 44.3719 2.04881 44.2976 1.99933 44.0995C1.94986 43.9014 2.02407 43.7528 2.22198 43.6538L3.33519 43.3566L4.37419 42.7624L5.71005 42.2424L6.67483 41.7967C6.57588 41.4996 6.47693 41.2024 6.37798 40.9053L5.63583 41.1281L4.52262 41.7224L3.33519 42.0938L2.07355 42.6138C1.87564 42.7129 1.72721 42.6633 1.62826 42.4652C1.52931 42.2672 1.57879 42.1186 1.77669 42.0195L3.11255 41.4253C3.16202 41.4253 3.18676 41.4253 3.18676 41.4253L4.29998 41.1281L5.41319 40.5339L6.22955 40.2367C6.1306 40.0387 6.03164 39.7663 5.93269 39.4196L5.19055 39.6425L4.00312 40.0882L2.8899 40.6082L1.8509 41.2024C1.653 41.3015 1.50457 41.252 1.40562 41.0539C1.30667 40.8558 1.35614 40.7072 1.55405 40.6082L2.59305 40.0139L3.70626 39.4939C3.70626 39.4444 3.70626 39.4196 3.70626 39.4196L4.96791 39.0482L5.78426 38.7511C5.68531 38.454 5.6111 38.2063 5.56162 38.0083L4.96791 38.2311L3.78048 38.7511C3.731 38.7511 3.70626 38.7511 3.70626 38.7511C3.70626 38.8006 3.70626 38.8254 3.70626 38.8254L2.44462 39.1225L1.25719 39.5682C1.05928 39.6177 0.910856 39.5434 0.811904 39.3454C0.762428 39.1473 0.836642 38.9987 1.03455 38.8997L2.22198 38.5282L3.48362 38.1568L4.67105 37.6368C4.67105 37.6368 4.67105 37.6121 4.67105 37.5626C4.72052 37.5626 4.74526 37.5626 4.74526 37.5626L5.33898 37.3397C5.2895 37.0921 5.24002 36.8197 5.19055 36.5226L4.52262 36.8197L3.26098 37.3397L2.07355 37.7111C2.07355 37.7111 2.07355 37.7359 2.07355 37.7854L0.811904 38.0825C0.613999 38.1321 0.490309 38.0578 0.440832 37.8597C0.391356 37.6616 0.46557 37.5378 0.663475 37.4883L1.8509 37.1169L2.96412 36.6712L4.29998 36.2255L5.04212 35.854C4.99264 35.5074 4.86895 35.2845 4.67105 35.1855C4.62157 35.235 4.59683 35.2598 4.59683 35.2598L3.48362 35.5569L2.29619 36.0769C2.29619 36.0769 2.27145 36.0769 2.22198 36.0769L1.03455 36.374C0.787166 36.4731 0.638737 36.3988 0.589261 36.1512C0.539785 35.9531 0.613999 35.8293 0.811904 35.7798L2.07355 35.4083L3.26098 34.9626L4.37419 34.5912L4.89369 34.3684C4.84421 34.0217 4.81948 33.6503 4.81948 33.2541L4.37419 33.3284L3.33519 33.9227L2.22198 34.4427L0.886118 34.8141C0.688213 34.9131 0.564523 34.8388 0.515047 34.5912C0.416094 34.3931 0.46557 34.2693 0.663475 34.2198L1.99933 33.7741L3.03833 33.3284L4.07733 32.7341C4.07733 32.7341 4.10207 32.7341 4.15155 32.7341L4.74526 32.5856C4.74526 32.1894 4.64631 31.9418 4.4484 31.8427L3.26098 32.1399L2.07355 32.5856L0.886118 32.957C0.688213 33.056 0.539785 33.0065 0.440832 32.8084C0.391356 32.5608 0.46557 32.4123 0.663475 32.3627L1.8509 31.917L4.22576 31.1742L4.74526 31.0256C4.74526 30.8275 4.72052 30.6542 4.67105 30.5056C4.67105 30.3571 4.59683 30.2333 4.4484 30.1342L3.18676 30.4314L1.92512 30.9513L0.589261 31.397C0.391356 31.4466 0.267666 31.3723 0.218189 31.1742C0.119237 30.9266 0.193451 30.778 0.440832 30.7285L1.70248 30.3571L2.8899 29.8371C2.8899 29.8371 2.91464 29.8371 2.96412 29.8371L4.22576 29.4657L4.67105 29.3171C4.67105 29.1685 4.64631 29.02 4.59683 28.8714C4.54736 28.7228 4.44841 28.599 4.29998 28.5L2.96412 28.8714L1.8509 29.3171L0.73769 29.6885C0.539785 29.7381 0.416094 29.6638 0.366618 29.4657C0.267666 29.2676 0.34188 29.119 0.589261 29.02L1.62826 28.7228L2.74148 28.2029C2.74148 28.2029 2.76621 28.2029 2.81569 28.2029L4.07733 27.8314L4.52262 27.7572C4.47314 27.4105 4.42367 27.1629 4.37419 27.0143L3.26098 27.5343L1.99933 27.9057L0.886118 28.4257C0.688213 28.5248 0.539785 28.4505 0.440832 28.2029C0.34188 28.0048 0.391356 27.881 0.589261 27.8314L1.77669 27.3115L2.96412 26.8658L4.37419 26.2715C4.37419 25.9744 4.34945 25.7268 4.29998 25.5287L3.4094 25.9001L2.22198 26.2715L1.18298 26.6429C0.935594 26.6924 0.787166 26.6182 0.73769 26.4201C0.688213 26.222 0.762428 26.0982 0.960333 26.0487L1.99933 25.6772L3.18676 25.2315L4.22576 24.8601C4.22576 24.563 4.20102 24.2659 4.15155 23.9687L3.4094 24.3401L1.3314 25.2315C1.08402 25.3306 0.935594 25.2811 0.886118 25.083C0.787166 24.8849 0.836642 24.7363 1.03455 24.6373L2.14776 24.1173L3.18676 23.7459L4.15155 23.3002C4.10207 23.003 4.07733 22.7307 4.07733 22.4831L3.48362 22.7802L2.22198 23.3745C2.22198 23.3745 2.19724 23.3745 2.14776 23.3745L0.960333 23.6716C0.712952 23.7706 0.564523 23.6964 0.515047 23.4487C0.465571 23.2507 0.539785 23.1268 0.73769 23.0773L1.92512 22.7059L3.18676 22.1859L4.07733 21.7402C4.07733 21.3936 4.07733 21.0469 4.07733 20.7003L3.70626 20.8488L2.3704 21.2945L1.25719 21.8145C1.05928 21.9136 0.910856 21.864 0.811904 21.6659C0.712952 21.4679 0.762428 21.3193 0.960333 21.2202L2.14776 20.7003C2.14776 20.7003 2.14776 20.6755 2.14776 20.626L3.48362 20.2546L4.15155 19.9574C4.15155 19.9574 4.15155 19.9327 4.15155 19.8831C4.15155 19.6851 4.17629 19.4622 4.22576 19.2146L3.55783 19.4374L2.22198 20.0317L0.960333 20.626C0.762428 20.6755 0.613999 20.6012 0.515047 20.4031C0.416094 20.205 0.46557 20.0565 0.663475 19.9574L1.99933 19.4374L3.26098 18.8432L4.29998 18.3975C4.34945 18.1003 4.39893 17.8032 4.4484 17.5061L3.78048 17.7289L2.66726 18.1746L1.47983 18.7689C1.28193 18.8679 1.1335 18.8184 1.03455 18.6203C0.935595 18.4222 0.985071 18.2737 1.18298 18.1746L2.44462 17.5804L3.48362 17.0604C3.48362 17.0604 3.50836 17.0604 3.55783 17.0604L4.59683 16.7633C4.69579 16.5156 4.69579 16.3423 4.59683 16.2433L3.48362 16.8375L2.14776 17.4318C1.94986 17.4813 1.80143 17.407 1.70248 17.2089C1.653 17.0109 1.72721 16.8623 1.92512 16.7633L3.18676 16.2433L4.29998 15.649C4.29998 15.649 4.32471 15.649 4.37419 15.649L4.96791 15.4262C5.06686 15.1785 5.06686 15.03 4.96791 14.9805L3.85469 15.2776L2.74148 15.7976C2.54357 15.8966 2.39514 15.8223 2.29619 15.5747C2.19724 15.3766 2.27145 15.2528 2.51883 15.2033L3.63205 14.6833C3.68152 14.6833 3.70626 14.6833 3.70626 14.6833L4.74526 14.3119L5.48741 14.0148C5.48741 13.9157 5.51214 13.8167 5.56162 13.7176L4.4484 14.1633L3.33519 14.5348C3.13729 14.5843 2.98886 14.51 2.8899 14.3119C2.84043 14.0643 2.91464 13.9157 3.11255 13.8662L4.22576 13.4948L5.41319 13.0491L5.93269 12.8262C6.03164 12.6777 6.10586 12.5291 6.15533 12.3805L5.26476 12.6034L4.15155 12.9748C3.90417 13.0243 3.75574 12.95 3.70626 12.752C3.65679 12.5539 3.731 12.4053 3.92891 12.3063L5.11633 12.0091L6.67483 11.4891C6.72431 11.3901 6.79852 11.2663 6.89748 11.1177L6.08112 11.4149L5.04212 11.712C4.79474 11.811 4.64631 11.7368 4.59683 11.4891C4.54736 11.2911 4.62157 11.1672 4.81948 11.1177L5.85848 10.7463L6.82326 10.4492L5.71005 10.8206C5.51214 10.8701 5.36372 10.7958 5.26476 10.5977C5.21529 10.3501 5.2895 10.2016 5.48741 10.152L6.37798 9.85491C6.3285 9.85491 6.30376 9.85491 6.30376 9.85491C6.20481 9.65682 6.25429 9.50825 6.45219 9.40921L8.67862 8.36924L9.42076 8.07211C9.51972 7.97307 9.61867 7.87402 9.71762 7.77498L8.67862 8.29496L7.56541 8.74066C7.3675 8.8397 7.21907 8.79018 7.12012 8.59209C7.02117 8.394 7.07064 8.24544 7.26855 8.1464L8.75284 7.55213C8.80231 7.45309 8.85179 7.40356 8.90126 7.40356L10.0145 6.95786L10.9793 6.58645C11.0782 6.4874 11.1277 6.41312 11.1277 6.36359L9.94026 6.95786C9.74236 7.05691 9.59393 7.00739 9.49498 6.8093C9.39603 6.61121 9.4455 6.46264 9.64341 6.36359L10.6824 5.84361C10.6824 5.64553 10.7814 5.52172 10.9793 5.4722L12.2409 5.17506L13.2057 4.5808C13.2057 4.5808 13.2304 4.5808 13.2799 4.5808C13.3294 4.5808 13.3541 4.5808 13.3541 4.5808C13.651 4.33319 13.9478 4.11034 14.2447 3.91225C14.2447 3.91225 14.2694 3.91225 14.3189 3.91225C14.3189 3.86273 14.3189 3.83797 14.3189 3.83797C15.2095 3.34275 16.1248 2.92181 17.0648 2.57515C18.0544 2.17897 19.0439 1.83232 20.0334 1.53518C21.5177 0.841875 23.3236 0.396175 25.4511 0.198086C27.5785 0 29.4586 -0.0495215 31.0913 0.0495215C31.3882 0.0495215 31.6851 0.0495215 31.9819 0.0495215C32.3282 0.0495215 32.6498 0.0495215 32.9467 0.0495215C34.3815 0.099043 35.8411 0.173327 37.3253 0.272373C38.8591 0.371416 40.2444 0.718071 41.4813 1.31234C41.4813 1.31234 41.5308 1.36186 41.6298 1.4609C41.7287 1.51042 41.7782 1.53518 41.7782 1.53518C44.0541 3.8132 46.3053 6.21503 48.5317 8.74066C50.8076 11.2663 52.9351 13.7919 54.9141 16.3176C54.9141 16.3176 54.9389 16.3671 54.9883 16.4661C55.0378 16.5156 55.0626 16.5404 55.0626 16.5404C55.6563 17.8775 55.9779 19.4127 56.0274 21.146C56.1263 22.8792 56.1758 24.5877 56.1758 26.2715C56.1263 26.8162 56.1016 27.361 56.1016 27.9057C56.1016 28.401 56.1263 28.8962 56.1758 29.3914C56.1758 30.3818 56.151 31.6447 56.1016 33.1798C56.0521 34.715 55.9037 36.3245 55.6563 38.0083C55.4584 39.692 55.1368 41.2272 54.6915 42.6138C54.2957 44.0004 53.7267 45.0652 52.9846 45.808C51.4013 47.3927 49.5954 48.8536 47.5669 50.1907C45.5879 51.5278 43.6583 52.7906 41.7782 53.9791C41.7782 53.9791 41.7535 53.9791 41.704 53.9791C41.704 54.0287 41.704 54.0534 41.704 54.0534C40.8134 54.4991 39.7744 54.8458 38.587 55.0934C37.449 55.341 36.2121 55.5391 34.8763 55.6877L33.6146 56.1334C33.4167 56.1829 33.293 56.1086 33.2436 55.9105C33.1941 55.8115 33.1941 55.7124 33.2436 55.6134C33.0951 55.6629 32.9467 55.6877 32.7983 55.6877L32.0561 55.8362C31.9572 55.8858 31.8582 55.8858 31.7593 55.8362C31.7098 55.8362 31.6108 55.8115 31.4624 55.7619C31.4624 55.8115 31.4624 55.8362 31.4624 55.8362L30.2008 56.1334ZM22.4083 53.3106C22.4577 53.3106 22.4825 53.3354 22.4825 53.3849C23.472 53.5335 24.4615 53.6573 25.4511 53.7563C26.4901 53.8058 27.4796 53.8801 28.4196 53.9791H30.4976C32.0314 53.9296 33.7878 53.8553 35.7668 53.7563C37.7954 53.6077 39.4776 53.1868 40.8134 52.4935C42.644 51.305 44.5241 50.0669 46.4537 48.7793C48.4328 47.4917 50.1892 46.0804 51.7229 44.5452C52.3166 43.9509 52.7867 43.01 53.133 41.7224C53.5288 40.3853 53.8009 38.9492 53.9493 37.414C54.1473 35.8293 54.2709 34.3189 54.3204 32.8827C54.3699 31.4466 54.3946 30.3076 54.3946 29.4657C54.3452 28.9705 54.3204 28.4752 54.3204 27.98C54.3699 27.4353 54.3946 26.8905 54.3946 26.3458C54.3946 24.7611 54.3699 23.1764 54.3204 21.5917C54.2709 19.9574 53.9741 18.546 53.4299 17.3575C51.5003 14.8814 49.4223 12.4053 47.1958 9.92919C45.0189 7.45308 42.8172 5.10078 40.5908 2.87228C39.5023 2.37706 38.2654 2.07993 36.8801 1.98089C35.5442 1.88184 34.2331 1.83232 32.9467 1.83232C32.6004 1.83232 32.254 1.83232 31.9077 1.83232C31.6108 1.83232 31.314 1.83232 31.0171 1.83232C29.5328 1.73328 27.7764 1.7828 25.7479 1.98089C23.7194 2.12945 22.0372 2.52563 20.7013 3.16942C20.7013 3.16942 20.6766 3.16942 20.6271 3.16942C19.6871 3.46655 18.7718 3.78844 17.8812 4.1351C16.9906 4.48175 16.1248 4.90269 15.2837 5.39792C12.7109 7.23024 10.5092 9.33493 8.67862 11.712C8.23334 12.3063 7.83753 12.9748 7.49119 13.7176C7.49119 13.8662 7.44172 13.99 7.34276 14.0891C7.19433 14.3862 7.07064 14.7081 6.97169 15.0547C6.97169 15.0547 6.97169 15.0795 6.97169 15.129C7.02117 15.2776 6.97169 15.4014 6.82326 15.5004C6.72431 15.7976 6.62536 16.1195 6.52641 16.4661C6.52641 16.4661 6.52641 16.4909 6.52641 16.5404C6.62536 16.689 6.60062 16.8128 6.45219 16.9118C6.35324 17.2585 6.27903 17.5804 6.22955 17.8775C6.22955 17.927 6.22955 17.9518 6.22955 17.9518C6.3285 18.1499 6.30376 18.2737 6.15533 18.3232C6.05638 18.6699 6.00691 19.0165 6.00691 19.3632C6.00691 19.3632 6.00691 19.3879 6.00691 19.4374C6.10586 19.586 6.08112 19.7098 5.93269 19.8089C5.93269 19.9079 5.93269 19.9822 5.93269 20.0317C5.88322 20.4279 5.85848 20.7993 5.85848 21.146C5.85848 21.146 5.85848 21.1707 5.85848 21.2202C5.95743 21.3193 5.95743 21.4183 5.85848 21.5174C5.85848 22.3593 5.88322 23.1764 5.93269 23.9687C6.03164 24.7611 6.10586 25.5534 6.15533 26.3458C6.20481 26.5934 6.22955 26.8162 6.22955 27.0143C6.27903 27.2124 6.30376 27.4105 6.30376 27.6086C6.35324 28.2029 6.37798 28.7971 6.37798 29.3914C6.42745 29.9857 6.47693 30.5799 6.52641 31.1742C6.52641 32.1646 6.55114 33.1551 6.60062 34.1455C6.69957 35.136 6.87274 36.1017 7.12012 37.0426C7.61488 38.6273 8.13438 40.3606 8.67862 42.2424C9.27234 44.1242 10.1629 45.6594 11.3503 46.848C12.5378 47.987 13.8736 49.0517 15.3579 50.0421C16.8917 51.0326 18.4007 51.8992 19.885 52.642C20.2313 52.7411 20.5777 52.8649 20.924 53.0135C20.9735 53.0135 20.9982 53.0135 20.9982 53.0135C21.4435 53.162 21.9135 53.2611 22.4083 53.3106ZM19.5139 54.3506C19.4644 54.3506 19.4397 54.3506 19.4397 54.3506L18.6976 54.5734L17.6586 55.0934L18.4749 54.7963L19.5139 54.3506Z" fill="currentColor"/>
    </symbol>
    <symbol id='sale' viewBox="0 0 24 24" fill="none" xmlns="http://www.w3.org/2000/svg" >
      <path d="M10.5099 3.66452C11.3048 2.77651 12.6952 2.77651 13.4901 3.66452L14.1909 4.44729C14.596 4.89986 15.1849 5.14377 15.7914 5.11024L16.8404 5.05225C18.0304 4.98646 19.0135 5.96956 18.9477 7.1596L18.8898 8.20861C18.8562 8.81511 19.1001 9.40398 19.5527 9.80913L20.3355 10.5099C21.2235 11.3048 21.2235 12.6952 20.3355 13.4901L19.5527 14.1909C19.1001 14.596 18.8562 15.1849 18.8898 15.7914L18.9477 16.8404C19.0135 18.0304 18.0304 19.0135 16.8404 18.9477L15.7914 18.8898C15.1849 18.8562 14.596 19.1001 14.1909 19.5527L13.4901 20.3355C12.6952 21.2235 11.3048 21.2235 10.5099 20.3355L9.80913 19.5527C9.40398 19.1001 8.81511 18.8562 8.20861 18.8898L7.1596 18.9477C5.96956 19.0135 4.98646 18.0304 5.05225 16.8404L5.11024 15.7914C5.14377 15.1849 4.89986 14.596 4.44729 14.1909L3.66452 13.4901C2.77651 12.6952 2.77651 11.3048 3.66452 10.5099L4.44729 9.80913C4.89986 9.40398 5.14377 8.81511 5.11024 8.20861L5.05225 7.1596C4.98646 5.96956 5.96956 4.98646 7.1596 5.05225L8.20861 5.11024C8.81511 5.14377 9.40398 4.89986 9.80913 4.44729L10.5099 3.66452Z" stroke="currentColor"/>
      <rect x="9.5" y="9.5" width="0.01" height="0.01" stroke="currentColor" stroke-width="1.5" stroke-linejoin="round"/>
      <rect x="14.5" y="14.5" width="0.01" height="0.01" stroke="currentColor" stroke-width="1.5" stroke-linejoin="round"/>
      <path d="M15 9L9 15" stroke="currentColor" stroke-linecap="round" stroke-linejoin="round"/>
    </symbol>
    <symbol id='new' viewBox="0 0 24 24" fill="none" xmlns="http://www.w3.org/2000/svg">
      <path d="M12.5858 4.58579C12.2107 4.21071 11.702 4 11.1716 4H4V11.1716C4 11.702 4.21071 12.2107 4.58579 12.5858L11.5858 19.5858C12.3668 20.3668 13.6332 20.3668 14.4142 19.5858L19.5858 14.4142C20.3668 13.6332 20.3668 12.3668 19.5858 11.5858L12.5858 4.58579Z" stroke="currentColor" stroke-linecap="round" stroke-linejoin="round"/>
      <rect x="9" y="9" width="0.01" height="0.01" stroke="currentColor" stroke-width="1.5" stroke-linejoin="round"/>
    </symbol>
    <symbol id='top' viewBox="0 0 24 24" fill="none" xmlns="http://www.w3.org/2000/svg">
      <path d="M17.3604 20H6C4.89543 20 4 19.1046 4 18V10H7.92963C8.59834 10 9.2228 9.6658 9.59373 9.1094L12.1094 5.3359C12.6658 4.5013 13.6025 4 14.6056 4H14.8195C15.4375 4 15.9075 4.55487 15.8059 5.1644L15 10H18.5604C19.8225 10 20.7691 11.1547 20.5216 12.3922L19.3216 18.3922C19.1346 19.3271 18.3138 20 17.3604 20Z" stroke="currentColor" stroke-linecap="round" stroke-linejoin="round"/>
      <path d="M8 10V20" stroke="currentColor"/>
    </symbol>
    <symbol id='underline-white' preserveAspectRatio="none" viewBox="0 0 247 14" fill="none"  xmlns="http://www.w3.org/2000/svg">
      <path d="M1 10.9575C15.2237 11.7558 29.6421 13.8917 43.8702 12.588C50.9788 11.9366 57.9805 9.64507 65.0198 8.16242C83.3689 4.29765 101.895 4.61277 120.378 4.87237C142.059 5.17687 163.714 6.3965 185.388 7.11426C195.658 7.45438 205.492 7.46182 215.637 5.1344C225.799 2.80292 235.734 1.38295 246 1" stroke="white" strokeLinecap="round" />
    </symbol>
    <symbol id=''></symbol>
</svg>