<svg>
    <symbol viewBox="0 0 32 32" fill="none" xmlns="http://www.w3.org/2000/svg" id='phone'>
            <path d="M26.6409 9.97987C25.0038 18.9395 17.9395 26.0038 8.97987 27.6409C6.80671 28.038 5 26.2091 5 24V20.75C5 20.1977 5.4483 19.7538 5.99916 19.7143C7.41069 19.6129 8.76322 19.2985 10.0248 18.8029L12.1138 20.892C15.5115 19.266 18.266 16.5115 19.892 13.1138L17.8029 11.0248C18.2985 9.76323 18.6129 8.41069 18.7143 6.99916C18.7538 6.4483 19.1977 6 19.75 6H23C25.2091 6 27.038 7.80671 26.6409 9.97987Z" stroke="currentColor" stroke-width="1.5" stroke-linecap="round" stroke-linejoin="round"/>
    </symbol>
    <symbol id='logo' viewBox="0 0 119 138" fill="none" xmlns="http://www.w3.org/2000/svg">
        <path d="M59.9332 91.1562H51.9633H51.6445L60.8896 117.743V137.367H68.8595V117.743L77.467 91.1562H69.4971L64.7152 108.565L59.9332 91.1562Z" fill="currentColor"/>
        <path d="M87.6687 90.8398H80.0176V103.184L87.6687 99.0692V90.8398Z" fill="currentColor"/>
        <path d="M113.81 0.324219H93.4072V47.8013L113.81 41.7875V34.1912L101.058 37.6728V26.5949H111.897V19.9481H101.058V6.65449H113.81V0.324219Z" fill="currentColor"/>
        <path d="M60.2528 0.324219H53.2393V58.4082L60.2528 56.3391V0.324219Z" fill="currentColor"/>
        <path d="M22.9536 13.9264H16.2589C16.2589 13.9264 16.224 11.8862 16.224 10.8898C16.224 9.94029 15.9052 7.40818 12.3985 7.09166C8.8917 6.77515 6.0574 11.3943 7.93531 16.2706C10.4857 19.4357 15.4589 20.7651 18.7744 22.2843C22.0899 23.8036 23.1313 26.9265 23.2375 28.2981V66.1512L0.284204 72.7979L0.284203 34.3118H6.97892V62.1651L15.9052 59.6329V28.9311C13.0998 27.4118 6.3761 24.6879 4.46275 23.1053C-2.55073 16.4585 -0.35325 5.50909 5.06558 2.02717C9.20993 -0.504741 13.6731 -0.821225 18.455 2.02717C22.564 4.47469 23.5912 9.49519 22.9536 13.9264Z" fill="currentColor"/>
        <path d="M113.456 103.937L106.762 103.938V101.405C106.762 100.456 106.443 97.9238 102.936 97.6073C99.4295 97.2908 95.9228 101.722 98.4731 106.786C101.023 109.951 105.997 111.281 109.312 112.8C112.628 114.319 113.669 117.442 113.775 118.814V129.138C113.81 131.037 109.602 137.684 102.971 137.684C96.3402 137.684 95.32 136.418 95.32 136.418C94.0448 135.679 90.7931 132.873 90.5381 130.088V124.074H97.5516C97.3391 126.289 97.9342 130.721 102.015 130.721C106.095 130.721 106.478 127.556 106.478 125.656C106.478 125.656 106.797 119.959 106.478 119.643C106.16 119.328 105.522 119.01 105.522 119.01C102.716 117.49 97.5167 115.332 95.6034 113.749C87.6341 106.153 90.1846 96.0247 95.6034 92.5428C99.7477 90.0109 104.211 89.6944 108.993 92.5428C113.102 94.9903 113.775 100.983 113.456 103.937Z" fill="currentColor"/>
        <path d="M35.386 0.324219H28.3725H28.0537L28.3725 65.518L49.0943 59.1877V34.5077H41.7619V53.182L35.386 54.7646V0.324219Z" fill="currentColor"/>
        <path d="M80.6553 13.6181H87.6688C87.9876 8.2371 86.3936 -0.298135 76.511 0.00801413C68.3498 0.260835 65.9907 6.02242 65.6719 9.65546V55.0734L87.35 48.7431L87.6688 34.508H80.3365V42.7374L72.6854 44.953V13.6181C72.6854 10.7701 73.0042 6.65544 76.8297 6.65544C80.6553 6.65544 80.7616 11.297 80.6553 13.6181Z" fill="currentColor"/>
        <path fill-rule="evenodd" clip-rule="evenodd" d="M93.1771 53.1814L99.8719 50.9658C100.297 53.1814 101.338 57.6759 102.103 57.9291C102.869 58.1823 104.671 55.7135 105.522 54.4475L105.61 51.5988V49.6998L111.667 48.1172C111.88 50.2273 112.05 54.764 111.03 56.03C110.01 57.2961 106.567 61.1998 104.973 62.9933L111.03 71.2227L115.174 67.4245L119 71.5392L113.58 76.9199L119 84.5163H111.349L109.436 81.6676C108.479 82.7227 105.546 84.8961 101.466 85.1493C97.3853 85.4025 93.8146 81.9842 92.2206 79.1355C90.9452 75.9704 90.3079 70.2732 93.4959 66.7915L97.3212 62.3603C96.0462 60.0392 93.4324 54.9539 93.1771 53.1814ZM100.629 67.108L106.686 75.9704C106.048 77.2365 104.199 79.7053 101.904 79.452C99.6086 79.1988 98.1893 77.553 97.8708 76.2869C97.8507 76.0712 97.8253 75.8526 97.7995 75.6295C97.5599 73.5604 97.2759 71.1079 100.629 67.108Z" fill="currentColor"/>
        <path fill-rule="evenodd" clip-rule="evenodd" d="M0 90.8464V138.001H13.2601C14.8772 138.001 21.3455 135.094 22.3157 128.957V100.213C21.9923 97.1982 19.3403 91.0402 11.3196 90.5234H0V90.8464ZM7.65111 98.1312C9.65105 98.028 13.7031 98.5648 13.9118 101.538C14.1205 104.511 13.9988 119.708 13.9118 126.934C13.7379 128.276 12.2423 130.837 7.65111 130.341V98.1312Z" fill="currentColor"/>
        <path fill-rule="evenodd" clip-rule="evenodd" d="M28.0537 91.1562H42.7183C45.2687 91.6911 50.3694 94.1086 50.3694 99.4999V108.164C50.3694 110.464 48.7755 114.711 44.9499 116.508L52.2822 137.367H44.3123L38.8928 118.434H35.0672L34.7484 137.367H28.0537V91.1562ZM34.4297 97.6318V111.413C40.6162 111.102 40.9697 111.037 42.3837 108.543C43.7978 106.049 43.4639 101.373 42.6783 100.126C42.6533 100.086 42.6281 100.045 42.6025 100.004C41.8246 98.7578 40.7044 96.9624 34.4297 97.6318Z" fill="currentColor"/>

    </symbol>
    <symbol id='facebook' viewBox="0 0 32 33" fill="none" xmlns="http://www.w3.org/2000/svg">
        <g clipPath="url(#clip0_2003_13)">
            <path
              d="M16 0.450684C7.16352 0.450684 0 7.6142 0 16.4507C0 23.954 5.16608 30.2504 12.135 31.9796V21.3403H8.83584V16.4507H12.135V14.3438C12.135 8.89804 14.5997 6.37388 19.9462 6.37388C20.96 6.37388 22.7091 6.57292 23.4246 6.77132V11.2033C23.047 11.1636 22.391 11.1438 21.5763 11.1438C18.953 11.1438 17.9392 12.1377 17.9392 14.7214V16.4507H23.1654L22.2675 21.3403H17.9392V32.3336C25.8618 31.3768 32.0006 24.6312 32.0006 16.4507C32 7.6142 24.8365 0.450684 16 0.450684Z"
              fill="currentColor"
            />
          </g>
          <defs>
            <clipPath id="clip0_2003_13">
              <rect
                width="32.0006"
                height="32"
                fill="currentColor"
                transform="translate(0 0.450684)"
              />
            </clipPath>
          </defs>
    </symbol>
    <symbol id='instagram' viewBox="0 0 32 33" fill="none" xmlns="http://www.w3.org/2000/svg">
        <path d="M16 18.8625C14.5 18.8625 13.2 17.6625 13.2 16.0625C13.2 14.5625 14.4 13.2625 16 13.2625C17.5 13.2625 18.8 14.4625 18.8 16.0625C18.8 17.5625 17.5 18.8625 16 18.8625Z" fill="currentColor"/>
        <path d="M16 18.8625C14.5 18.8625 13.2 17.6625 13.2 16.0625C13.2 14.5625 14.4 13.2625 16 13.2625C17.5 13.2625 18.8 14.4625 18.8 16.0625C18.8 17.5625 17.5 18.8625 16 18.8625Z" fill="none" fill-opacity="0.2"/>
        <path fill-rule="evenodd" clip-rule="evenodd" d="M19.4 9.2625H12.6C11.8 9.3625 11.4 9.4625 11.1 9.5625C10.7 9.6625 10.4 9.8625 10.1 10.1625C9.86261 10.3999 9.75045 10.6373 9.61489 10.9242C9.57916 10.9998 9.5417 11.0791 9.5 11.1625C9.48453 11.2089 9.46667 11.2577 9.44752 11.31C9.34291 11.5958 9.2 11.9863 9.2 12.6625V19.4625C9.3 20.2625 9.4 20.6625 9.5 20.9625C9.6 21.3625 9.8 21.6625 10.1 21.9625C10.3374 22.1999 10.5748 22.312 10.8617 22.4476C10.9374 22.4834 11.0165 22.5208 11.1 22.5625C11.1464 22.578 11.1952 22.5958 11.2475 22.615C11.5333 22.7196 11.9238 22.8625 12.6 22.8625H19.4C20.2 22.7625 20.6 22.6625 20.9 22.5625C21.3 22.4625 21.6 22.2625 21.9 21.9625C22.1374 21.7251 22.2495 21.4877 22.3851 21.2008C22.4209 21.1251 22.4583 21.046 22.5 20.9625C22.5155 20.9161 22.5333 20.8673 22.5525 20.815C22.6571 20.5292 22.8 20.1387 22.8 19.4625V12.6625C22.7 11.8625 22.6 11.4625 22.5 11.1625C22.4 10.7625 22.2 10.4625 21.9 10.1625C21.6626 9.92511 21.4252 9.81295 21.1383 9.67738C21.0627 9.64168 20.9833 9.60417 20.9 9.5625C20.8536 9.54703 20.8048 9.52916 20.7525 9.51002C20.4667 9.4054 20.0762 9.2625 19.4 9.2625ZM16 11.7625C13.6 11.7625 11.7 13.6625 11.7 16.0625C11.7 18.4625 13.6 20.3625 16 20.3625C18.4 20.3625 20.3 18.4625 20.3 16.0625C20.3 13.6625 18.4 11.7625 16 11.7625ZM21.4 11.6625C21.4 12.2148 20.9523 12.6625 20.4 12.6625C19.8477 12.6625 19.4 12.2148 19.4 11.6625C19.4 11.1102 19.8477 10.6625 20.4 10.6625C20.9523 10.6625 21.4 11.1102 21.4 11.6625Z" fill="currentColor"/>
        <path fill-rule="evenodd" clip-rule="evenodd" d="M19.4 9.2625H12.6C11.8 9.3625 11.4 9.4625 11.1 9.5625C10.7 9.6625 10.4 9.8625 10.1 10.1625C9.86261 10.3999 9.75045 10.6373 9.61489 10.9242C9.57916 10.9998 9.5417 11.0791 9.5 11.1625C9.48453 11.2089 9.46667 11.2577 9.44752 11.31C9.34291 11.5958 9.2 11.9863 9.2 12.6625V19.4625C9.3 20.2625 9.4 20.6625 9.5 20.9625C9.6 21.3625 9.8 21.6625 10.1 21.9625C10.3374 22.1999 10.5748 22.312 10.8617 22.4476C10.9374 22.4834 11.0165 22.5208 11.1 22.5625C11.1464 22.578 11.1952 22.5958 11.2475 22.615C11.5333 22.7196 11.9238 22.8625 12.6 22.8625H19.4C20.2 22.7625 20.6 22.6625 20.9 22.5625C21.3 22.4625 21.6 22.2625 21.9 21.9625C22.1374 21.7251 22.2495 21.4877 22.3851 21.2008C22.4209 21.1251 22.4583 21.046 22.5 20.9625C22.5155 20.9161 22.5333 20.8673 22.5525 20.815C22.6571 20.5292 22.8 20.1387 22.8 19.4625V12.6625C22.7 11.8625 22.6 11.4625 22.5 11.1625C22.4 10.7625 22.2 10.4625 21.9 10.1625C21.6626 9.92511 21.4252 9.81295 21.1383 9.67738C21.0627 9.64168 20.9833 9.60417 20.9 9.5625C20.8536 9.54703 20.8048 9.52916 20.7525 9.51002C20.4667 9.4054 20.0762 9.2625 19.4 9.2625ZM16 11.7625C13.6 11.7625 11.7 13.6625 11.7 16.0625C11.7 18.4625 13.6 20.3625 16 20.3625C18.4 20.3625 20.3 18.4625 20.3 16.0625C20.3 13.6625 18.4 11.7625 16 11.7625ZM21.4 11.6625C21.4 12.2148 20.9523 12.6625 20.4 12.6625C19.8477 12.6625 19.4 12.2148 19.4 11.6625C19.4 11.1102 19.8477 10.6625 20.4 10.6625C20.9523 10.6625 21.4 11.1102 21.4 11.6625Z" fill="none" fill-opacity="0.2"/>
        <path fill-rule="evenodd" clip-rule="evenodd" d="M0 16.0625C0 7.22594 7.16344 0.0625 16 0.0625C24.8366 0.0625 32 7.22594 32 16.0625C32 24.8991 24.8366 32.0625 16 32.0625C7.16344 32.0625 0 24.8991 0 16.0625ZM12.6 7.7625H19.4C20.3 7.8625 20.9 7.9625 21.4 8.1625C22 8.4625 22.4 8.6625 22.9 9.1625C23.4 9.6625 23.7 10.1625 23.9 10.6625C24.1 11.1625 24.3 11.7625 24.3 12.6625V19.4625C24.2 20.3625 24.1 20.9625 23.9 21.4625C23.6 22.0625 23.4 22.4625 22.9 22.9625C22.4 23.4625 21.9 23.7625 21.4 23.9625C20.9 24.1625 20.3 24.3625 19.4 24.3625H12.6C11.7 24.2625 11.1 24.1625 10.6 23.9625C10 23.6625 9.6 23.4625 9.1 22.9625C8.6 22.4625 8.3 21.9625 8.1 21.4625C7.9 20.9625 7.7 20.3625 7.7 19.4625V12.6625C7.8 11.7625 7.9 11.1625 8.1 10.6625C8.4 10.0625 8.6 9.6625 9.1 9.1625C9.6 8.6625 10.1 8.3625 10.6 8.1625C11.1 7.9625 11.7 7.7625 12.6 7.7625Z" fill="currentColor"/>
        <path fill-rule="evenodd" clip-rule="evenodd" d="M0 16.0625C0 7.22594 7.16344 0.0625 16 0.0625C24.8366 0.0625 32 7.22594 32 16.0625C32 24.8991 24.8366 32.0625 16 32.0625C7.16344 32.0625 0 24.8991 0 16.0625ZM12.6 7.7625H19.4C20.3 7.8625 20.9 7.9625 21.4 8.1625C22 8.4625 22.4 8.6625 22.9 9.1625C23.4 9.6625 23.7 10.1625 23.9 10.6625C24.1 11.1625 24.3 11.7625 24.3 12.6625V19.4625C24.2 20.3625 24.1 20.9625 23.9 21.4625C23.6 22.0625 23.4 22.4625 22.9 22.9625C22.4 23.4625 21.9 23.7625 21.4 23.9625C20.9 24.1625 20.3 24.3625 19.4 24.3625H12.6C11.7 24.2625 11.1 24.1625 10.6 23.9625C10 23.6625 9.6 23.4625 9.1 22.9625C8.6 22.4625 8.3 21.9625 8.1 21.4625C7.9 20.9625 7.7 20.3625 7.7 19.4625V12.6625C7.8 11.7625 7.9 11.1625 8.1 10.6625C8.4 10.0625 8.6 9.6625 9.1 9.1625C9.6 8.6625 10.1 8.3625 10.6 8.1625C11.1 7.9625 11.7 7.7625 12.6 7.7625Z" fill="none" fill-opacity="0.2"/>
    </symbol>
    <symbol id='bin' viewBox="0 0 32 32" fill="none" xmlns="http://www.w3.org/2000/svg">
        <g clip-path="url(#clip0_59_141)">
        <path d="M6 12H26L24.9127 24.1779C24.8206 25.2094 23.9563 26 22.9206 26H9.07939C8.04374 26 7.17941 25.2094 7.08731 24.1779L6 12Z" stroke="currentColor" stroke-width="1.5" stroke-linejoin="round"/>
        <path d="M11 15V11.1429C11 8.30254 13.2386 6 16 6C18.7614 6 21 8.30254 21 11.1429V15" stroke="currentColor" stroke-width="1.5" stroke-linecap="round"/>
        </g>
        <defs>
        <clipPath id="clip0_59_141">
        <rect width="32" height="32" fill="white"/>
        </clipPath>
        </defs>
    </symbol>
    <symbol id='close' viewBox="0 0 24 24" fill="none" xmlns="http://www.w3.org/2000/svg">
        <path d="M20 4L3 21" stroke="currentColor" stroke-width="1.5" stroke-linecap="round" stroke-linejoin="round"/>
        <path d="M3 4L20 21" stroke="currentColor" stroke-width="1.5" stroke-linecap="round" stroke-linejoin="round"/>
    </symbol>
    <symbol id="underline" viewBox="0 0 330 15" fill="none" xmlns="http://www.w3.org/2000/svg" preserveAspectRatio="none">
        <path d="M1 11.7873C20.0423 12.6522 39.3454 14.966 58.3936 13.5536C67.9104 12.848 77.2841 10.3655 86.7082 8.75929C111.273 4.57246 136.075 4.91384 160.82 5.19506C189.846 5.52494 218.837 6.84621 247.854 7.62378C261.603 7.99224 274.769 8.0003 288.35 5.47894C301.956 2.95316 315.256 1.41487 329 1" stroke="currentColor" stroke-linecap="round"/>
        <path d="M1 11.7873C20.0423 12.6522 39.3454 14.966 58.3936 13.5536C67.9104 12.848 77.2841 10.3655 86.7082 8.75929C111.273 4.57246 136.075 4.91384 160.82 5.19506C189.846 5.52494 218.837 6.84621 247.854 7.62378C261.603 7.99224 274.769 8.0003 288.35 5.47894C301.956 2.95316 315.256 1.41487 329 1" stroke="currentColor" stroke-opacity="0.2" stroke-linecap="round"/>
    </symbol>
    <symbol id='visa' viewBox="0 0 49 50" fill="none" xmlns="http://www.w3.org/2000/svg">
      <path d="M24.2616 17.7815L20.988 33.0863H17.0283L20.3023 17.7815H24.2616ZM40.9196 27.664L43.0035 21.9167L44.2028 27.664H40.9196ZM45.3388 33.0863H49L45.8014 17.7815H42.4242C41.6631 17.7815 41.0215 18.2228 40.7375 18.9033L34.7964 33.0863H38.9547L39.7802 30.8006H44.8593L45.3388 33.0863ZM35.0026 28.0898C35.0198 24.0506 29.4189 23.8268 29.4564 22.022C29.4684 21.4737 29.9917 20.8895 31.1352 20.7401C31.7021 20.6672 33.2667 20.6079 35.0401 21.4251L35.7337 18.1784C34.7813 17.8338 33.5555 17.502 32.0302 17.502C28.116 17.502 25.3625 19.5811 25.3404 22.5608C25.3153 24.7642 27.3074 25.9927 28.8051 26.7266C30.3493 27.4767 30.8667 27.9576 30.8591 28.6278C30.8484 29.6546 29.6278 30.1094 28.4912 30.1266C26.4995 30.1576 25.3449 29.5882 24.4248 29.1593L23.706 32.5145C24.6327 32.9386 26.3401 33.3076 28.108 33.3265C32.2694 33.3265 34.9902 31.2718 35.0026 28.0898ZM18.6039 17.7815L12.1885 33.0863H8.00368L4.8464 20.872C4.65501 20.1209 4.48806 19.8448 3.90597 19.5274C2.95383 19.0104 1.38208 18.5267 0 18.2259L0.0936314 17.7815H6.83089C7.68905 17.7815 8.46115 18.3526 8.65771 19.3412L10.3255 28.1982L14.4442 17.7815H18.6039Z" fill="white"/>
    </symbol>
    <symbol id='mastercard' viewBox="0 0 46 48" fill="none" xmlns="http://www.w3.org/2000/svg">
      <path d="M10.9123 38.5677V36.6108C10.9238 36.4462 10.9 36.281 10.8426 36.1263C10.7853 35.9716 10.6955 35.8309 10.5795 35.7136C10.4634 35.5964 10.3237 35.5052 10.1696 35.4462C10.0156 35.3871 9.85069 35.3616 9.68598 35.3714C9.47043 35.3573 9.25504 35.4014 9.06229 35.4989C8.86954 35.5964 8.70648 35.7438 8.5901 35.9258C8.48403 35.7493 8.33233 35.6046 8.15094 35.507C7.96956 35.4094 7.76522 35.3626 7.55944 35.3714C7.38007 35.3624 7.20145 35.4004 7.04127 35.4816C6.8811 35.5628 6.74491 35.6845 6.64621 35.8345V35.4497H5.96777V38.5677H6.6527V36.8391C6.63789 36.7324 6.64689 36.6238 6.67905 36.521C6.71121 36.4182 6.76573 36.3238 6.83869 36.2446C6.91166 36.1654 7.00126 36.1034 7.10106 36.0629C7.20087 36.0225 7.30839 36.0046 7.41592 36.0106C7.86601 36.0106 8.09435 36.3042 8.09435 36.8325V38.5677H8.77927V36.8391C8.76558 36.7326 8.77535 36.6244 8.80792 36.5221C8.84049 36.4198 8.89506 36.3259 8.9678 36.247C9.04053 36.168 9.12967 36.106 9.22896 36.0651C9.32824 36.0243 9.43525 36.0057 9.54248 36.0106C10.0056 36.0106 10.2274 36.3042 10.2274 36.8325V38.5677H10.9123ZM21.0492 35.4497H19.9403V34.5038H19.2554V35.4497H18.6226V36.0694H19.2554V37.4914C19.2554 38.2154 19.5359 38.646 20.3382 38.646C20.638 38.6469 20.9319 38.5632 21.1862 38.4046L20.9906 37.8241C20.8086 37.9326 20.6021 37.9932 20.3904 38.0002C20.0512 38.0002 19.9403 37.7914 19.9403 37.4784V36.0694H21.0492V35.4497ZM26.8353 35.3714C26.6699 35.3665 26.5062 35.4063 26.3616 35.4867C26.2169 35.5671 26.0966 35.685 26.0134 35.828V35.4497H25.3415V38.5677H26.0199V36.8195C26.0199 36.3042 26.2416 36.0172 26.6853 36.0172C26.8304 36.0152 26.9744 36.0418 27.1092 36.0954L27.318 35.4562C27.1631 35.4007 26.9998 35.3721 26.8353 35.3714ZM18.0878 35.6975C17.7038 35.4692 17.2622 35.356 16.8157 35.3714C16.0264 35.3714 15.5177 35.7497 15.5177 36.3694C15.5177 36.8782 15.896 37.1914 16.5939 37.2892L16.9136 37.3348C17.2854 37.3869 17.4615 37.4848 17.4615 37.661C17.4615 37.9023 17.2136 38.0393 16.7505 38.0393C16.378 38.0501 16.0127 37.9352 15.7133 37.7131L15.3937 38.2415C15.7889 38.5175 16.2622 38.6593 16.744 38.646C17.6442 38.646 18.166 38.222 18.166 37.6284C18.166 37.0804 17.7551 36.7934 17.0767 36.6955L16.7571 36.6499C16.4635 36.6108 16.2287 36.5521 16.2287 36.3434C16.2287 36.115 16.4504 35.978 16.8223 35.978C17.1637 35.9832 17.4982 36.0752 17.7942 36.2455L18.0878 35.6975ZM36.2612 35.3714C36.0958 35.3665 35.9321 35.4063 35.7875 35.4867C35.6428 35.5671 35.5225 35.685 35.4393 35.828V35.4497H34.7674V38.5677H35.4458V36.8195C35.4458 36.3042 35.6676 36.0172 36.1111 36.0172C36.2562 36.0152 36.4003 36.0418 36.5352 36.0954L36.7439 35.4562C36.589 35.4007 36.4257 35.3721 36.2612 35.3714ZM27.5202 37.0086C27.5112 37.2283 27.5482 37.4474 27.629 37.6519C27.7097 37.8564 27.8324 38.0417 27.9891 38.1959C28.1458 38.3501 28.333 38.4698 28.5387 38.5474C28.7444 38.6249 28.9641 38.6585 29.1836 38.646C29.5909 38.6665 29.9911 38.5338 30.3056 38.2741L29.9794 37.7262C29.7449 37.905 29.4589 38.0033 29.164 38.0067C28.9098 37.9913 28.671 37.8794 28.4965 37.6939C28.3219 37.5085 28.2247 37.2634 28.2247 37.0087C28.2247 36.754 28.3219 36.5089 28.4965 36.3234C28.671 36.1379 28.9098 36.0261 29.164 36.0106C29.4589 36.014 29.7449 36.1124 29.9794 36.2912L30.3056 35.7432C29.9911 35.4836 29.5909 35.3509 29.1836 35.3714C28.9641 35.3589 28.7445 35.3925 28.5388 35.47C28.333 35.5475 28.1458 35.6672 27.9891 35.8214C27.8324 35.9756 27.7098 36.1609 27.629 36.3654C27.5482 36.5699 27.5112 36.789 27.5202 37.0086ZM33.8737 37.0086V35.4497H33.1953V35.828C33.0795 35.6788 32.9297 35.5594 32.7583 35.48C32.5869 35.4006 32.399 35.3633 32.2103 35.3714C31.7899 35.392 31.3936 35.5735 31.1034 35.8783C30.8132 36.1831 30.6513 36.5878 30.6513 37.0087C30.6513 37.4296 30.8132 37.8343 31.1034 38.1391C31.3936 38.4439 31.7899 38.6254 32.2103 38.646C32.399 38.6541 32.5869 38.6168 32.7583 38.5374C32.9297 38.4579 33.0795 38.3386 33.1953 38.1893V38.5677H33.8737V37.0086ZM31.3492 37.0086C31.3598 36.8246 31.4239 36.6477 31.5338 36.4998C31.6436 36.3518 31.7944 36.2392 31.9675 36.1759C32.1405 36.1126 32.3284 36.1013 32.5078 36.1434C32.6872 36.1856 32.8503 36.2793 32.9771 36.4131C33.1039 36.5469 33.1888 36.7148 33.2212 36.8962C33.2537 37.0776 33.2324 37.2646 33.1599 37.434C33.0873 37.6034 32.9668 37.7479 32.8132 37.8497C32.6595 37.9515 32.4794 38.006 32.2952 38.0067C32.166 38.0084 32.0378 37.9834 31.9188 37.9332C31.7998 37.883 31.6925 37.8086 31.6036 37.7148C31.5147 37.6211 31.4462 37.5099 31.4025 37.3884C31.3587 37.2668 31.3406 37.1375 31.3492 37.0086ZM23.1628 35.3714C22.7397 35.3937 22.3417 35.5789 22.0523 35.8883C21.7628 36.1976 21.6045 36.6071 21.6104 37.0307C21.6163 37.4543 21.786 37.8591 22.084 38.1603C22.3819 38.4615 22.7849 38.6355 23.2084 38.646C23.6738 38.6623 24.129 38.5067 24.487 38.2089L24.1543 37.7067C23.8967 37.9131 23.5776 38.0279 23.2475 38.0328C23.0234 38.0516 22.8007 37.9825 22.6266 37.8401C22.4525 37.6976 22.3406 37.493 22.3147 37.2695H24.6305C24.637 37.1848 24.6435 37.1 24.6435 37.0086C24.637 36.0367 24.0369 35.3714 23.1628 35.3714ZM23.1497 35.978C23.3546 35.974 23.5527 36.0514 23.7007 36.1933C23.8486 36.3351 23.9343 36.5298 23.939 36.7347H22.3213C22.3332 36.5254 22.4265 36.329 22.5813 36.1876C22.7361 36.0462 22.9401 35.971 23.1497 35.978ZM40.1685 37.0086V34.1973H39.4901V35.828C39.3743 35.6788 39.2245 35.5594 39.0531 35.48C38.8817 35.4006 38.6939 35.3633 38.5051 35.3714C38.0848 35.392 37.6884 35.5735 37.3982 35.8783C37.108 36.1831 36.9461 36.5878 36.9461 37.0087C36.9461 37.4296 37.108 37.8343 37.3982 38.1391C37.6884 38.4439 38.0848 38.6254 38.5051 38.646C38.6939 38.6541 38.8818 38.6168 39.0531 38.5374C39.2245 38.4579 39.3743 38.3386 39.4901 38.1893V38.5677H40.1685V37.0086ZM41.2994 38.1158C41.3415 38.1156 41.3833 38.1238 41.4221 38.1402C41.4595 38.1558 41.4935 38.1783 41.5224 38.2066C41.5511 38.2349 41.574 38.2684 41.59 38.3054C41.6063 38.3433 41.6147 38.3842 41.6147 38.4256C41.6147 38.4669 41.6063 38.5078 41.59 38.5458C41.5739 38.5826 41.551 38.616 41.5224 38.6442C41.4934 38.6725 41.4594 38.6951 41.4221 38.711C41.3834 38.7276 41.3416 38.736 41.2994 38.7357C41.2373 38.7363 41.1765 38.7186 41.1244 38.6849C41.0723 38.6511 41.0314 38.6027 41.0066 38.5458C40.9903 38.5078 40.982 38.4669 40.982 38.4256C40.982 38.3843 40.9903 38.3434 41.0066 38.3054C41.0225 38.2685 41.0453 38.2349 41.0739 38.2066C41.1027 38.1781 41.1369 38.1555 41.1745 38.1402C41.2141 38.1238 41.2566 38.1155 41.2994 38.1158ZM41.2994 38.6673C41.3316 38.6676 41.3634 38.6611 41.3929 38.6483C41.4212 38.636 41.447 38.6185 41.4688 38.5967C41.5139 38.5512 41.5391 38.4897 41.5391 38.4257C41.5391 38.3617 41.5139 38.3003 41.4688 38.2548C41.447 38.233 41.4212 38.2156 41.3929 38.2036C41.3633 38.191 41.3315 38.1847 41.2994 38.185C41.2667 38.1847 41.2343 38.191 41.2041 38.2036C41.1753 38.2155 41.1491 38.2329 41.127 38.2548C41.082 38.3003 41.0567 38.3617 41.0567 38.4257C41.0567 38.4898 41.082 38.5512 41.127 38.5967C41.1492 38.6187 41.1753 38.6362 41.2041 38.6483C41.2342 38.6611 41.2667 38.6675 41.2994 38.6673ZM41.3176 38.2806C41.3482 38.2787 41.3784 38.2874 41.4031 38.3054C41.413 38.3135 41.4208 38.3238 41.426 38.3354C41.4312 38.3471 41.4337 38.3598 41.4331 38.3726C41.4335 38.3835 41.4315 38.3944 41.4274 38.4045C41.4233 38.4147 41.4171 38.4238 41.4092 38.4314C41.3903 38.4482 41.3664 38.4582 41.3412 38.4599L41.4354 38.5685H41.3617L41.2744 38.4607H41.2463V38.5685H41.1848V38.2806H41.3176ZM41.2463 38.3346V38.4113H41.3169C41.3305 38.412 41.344 38.4087 41.3557 38.4018C41.3604 38.3986 41.3643 38.3943 41.3668 38.3891C41.3693 38.384 41.3704 38.3783 41.3701 38.3726C41.3704 38.367 41.3692 38.3614 41.3667 38.3564C41.3642 38.3514 41.3604 38.3471 41.3557 38.3441C41.3439 38.3372 41.3305 38.3339 41.3169 38.3346H41.2463ZM37.6441 37.0086C37.6546 36.8246 37.7188 36.6478 37.8287 36.4998C37.9385 36.3518 38.0893 36.2393 38.2623 36.176C38.4354 36.1126 38.6232 36.1014 38.8026 36.1435C38.982 36.1857 39.1452 36.2794 39.2719 36.4132C39.3987 36.547 39.4835 36.7149 39.516 36.8963C39.5485 37.0777 39.5271 37.2647 39.4546 37.4341C39.3821 37.6035 39.2616 37.748 39.1079 37.8497C38.9543 37.9515 38.7742 38.0061 38.5899 38.0067C38.4608 38.0084 38.3326 37.9834 38.2136 37.9332C38.0946 37.8829 37.9873 37.8086 37.8984 37.7148C37.8095 37.621 37.7411 37.5099 37.6973 37.3883C37.6535 37.2668 37.6354 37.1375 37.6441 37.0086ZM14.7349 37.0086V35.4497H14.0564V35.828C13.9406 35.6788 13.7908 35.5594 13.6194 35.48C13.4481 35.4006 13.2602 35.3633 13.0714 35.3714C12.6511 35.392 12.2548 35.5735 11.9645 35.8783C11.6743 36.1831 11.5124 36.5878 11.5124 37.0087C11.5124 37.4296 11.6743 37.8343 11.9645 38.1391C12.2548 38.4439 12.6511 38.6254 13.0714 38.646C13.2602 38.6541 13.4481 38.6168 13.6194 38.5374C13.7908 38.4579 13.9406 38.3386 14.0564 38.1893V38.5677H14.7349V37.0086ZM12.2104 37.0086C12.221 36.8246 12.2851 36.6478 12.395 36.4998C12.5049 36.3518 12.6556 36.2393 12.8287 36.176C13.0018 36.1126 13.1896 36.1014 13.369 36.1435C13.5484 36.1857 13.7115 36.2794 13.8383 36.4132C13.965 36.547 14.0499 36.7149 14.0823 36.8963C14.1148 37.0777 14.0935 37.2647 14.0209 37.4341C13.9484 37.6035 13.8279 37.748 13.6743 37.8498C13.5206 37.9515 13.3405 38.0061 13.1563 38.0067C13.0271 38.0084 12.899 37.9834 12.7799 37.9332C12.6609 37.8829 12.5536 37.8086 12.4647 37.7148C12.3759 37.621 12.3074 37.5099 12.2636 37.3883C12.2199 37.2668 12.2018 37.1375 12.2104 37.0086Z" fill="white"/>
      <path d="M28.1386 11.6875H17.8633V30.1526H28.1386V11.6875Z" fill="#FF5F00"/>
      <path d="M18.515 20.9209C18.5134 19.1426 18.9164 17.3872 19.6934 15.7877C20.4705 14.1881 21.6013 12.7863 23.0002 11.6884C21.2679 10.3268 19.1873 9.47995 16.9965 9.2448C14.8056 9.00965 12.5927 9.39565 10.6108 10.3587C8.62897 11.3217 6.95801 12.8229 5.78898 14.6907C4.61995 16.5584 4 18.7175 4 20.9209C4 23.1244 4.61995 25.2834 5.78898 27.1512C6.95801 29.019 8.62897 30.5202 10.6108 31.4832C12.5927 32.4463 14.8056 32.8323 16.9965 32.5971C19.1873 32.362 21.2679 31.5152 23.0002 30.1535C21.6013 29.0555 20.4705 27.6537 19.6934 26.0542C18.9164 24.4546 18.5134 22.6992 18.515 20.9209Z" fill="#EB001B"/>
      <path d="M41.9997 20.921C41.9998 23.1244 41.3799 25.2834 40.2109 27.1512C39.042 29.019 37.3711 30.5202 35.3892 31.4832C33.4074 32.4463 31.1946 32.8323 29.0037 32.5971C26.8129 32.362 24.7324 31.5152 23 30.1535C24.3977 29.0545 25.5277 27.6524 26.3046 26.0531C27.0815 24.4538 27.4852 22.699 27.4852 20.921C27.4852 19.1429 27.0815 17.3881 26.3046 15.7888C25.5277 14.1895 24.3977 12.7875 23 11.6884C24.7324 10.3268 26.8129 9.47995 29.0037 9.2448C31.1946 9.00965 33.4074 9.39566 35.3892 10.3587C37.3711 11.3217 39.042 12.8229 40.2109 14.6907C41.3799 16.5585 41.9998 18.7175 41.9997 20.921Z" fill="#F79E1B"/>

    </symbol>
    <symbol></symbol>
    <symbol></symbol>
    <symbol></symbol>
    <symbol></symbol>
</svg>