<svg width="71" height="85" viewBox="0 0 71 85" fill="none" xmlns="http://www.w3.org/2000/svg">
<g id="Vector">
<path d="M10.538 82.3398V74.4257H15.2208V75.3013H11.532V77.7731H12.7027C13.4905 77.7731 14.1017 77.8729 14.5361 78.0724C14.9705 78.2645 15.2724 78.5305 15.4417 78.8704C15.6111 79.203 15.6957 79.5872 15.6957 80.0232C15.6957 80.5035 15.6 80.9173 15.4086 81.2646C15.2245 81.6119 14.9226 81.8779 14.5029 82.0627C14.0832 82.2474 13.531 82.3398 12.8463 82.3398H10.538ZM12.7469 81.4863C13.4537 81.4863 13.9507 81.3681 14.2379 81.1316C14.525 80.8878 14.6686 80.5183 14.6686 80.0232C14.6686 79.6833 14.5987 79.4136 14.4588 79.214C14.3262 79.0071 14.1053 78.8593 13.7961 78.7707C13.4942 78.682 13.0892 78.6377 12.5812 78.6377H11.532V81.4863H12.7469Z" fill="#0F0F0F"/>
<path d="M10.538 82.3398V74.4257H15.2208V75.3013H11.532V77.7731H12.7027C13.4905 77.7731 14.1017 77.8729 14.5361 78.0724C14.9705 78.2645 15.2724 78.5305 15.4417 78.8704C15.6111 79.203 15.6957 79.5872 15.6957 80.0232C15.6957 80.5035 15.6 80.9173 15.4086 81.2646C15.2245 81.6119 14.9226 81.8779 14.5029 82.0627C14.0832 82.2474 13.531 82.3398 12.8463 82.3398H10.538ZM12.7469 81.4863C13.4537 81.4863 13.9507 81.3681 14.2379 81.1316C14.525 80.8878 14.6686 80.5183 14.6686 80.0232C14.6686 79.6833 14.5987 79.4136 14.4588 79.214C14.3262 79.0071 14.1053 78.8593 13.7961 78.7707C13.4942 78.682 13.0892 78.6377 12.5812 78.6377H11.532V81.4863H12.7469Z" fill="black" fill-opacity="0.2"/>
<path d="M19.4866 76.2878C19.9946 76.2878 20.429 76.3987 20.7898 76.6203C21.158 76.842 21.4378 77.1561 21.6292 77.5625C21.828 77.9615 21.9274 78.4308 21.9274 78.9702V79.5577H17.8741C17.8888 80.2301 18.0582 80.7437 18.3821 81.0984C18.7135 81.4457 19.1736 81.6193 19.7627 81.6193C20.1382 81.6193 20.4695 81.5861 20.7567 81.5196C21.0512 81.4457 21.3531 81.3422 21.6623 81.2092V82.0627C21.3604 82.1957 21.0622 82.2918 20.7677 82.3509C20.4732 82.4174 20.1235 82.4506 19.7185 82.4506C19.1589 82.4506 18.6619 82.3361 18.2275 82.107C17.8004 81.8779 17.4654 81.538 17.2225 81.0873C16.9868 80.6291 16.869 80.0712 16.869 79.4136C16.869 78.7633 16.9758 78.2054 17.1893 77.7398C17.4102 77.2743 17.7158 76.9159 18.106 76.6647C18.5036 76.4134 18.9638 76.2878 19.4866 76.2878ZM19.4755 77.0859C19.0117 77.0859 18.6435 77.2374 18.3711 77.5403C18.106 77.8359 17.9477 78.2497 17.8962 78.7818H20.9113C20.9113 78.4418 20.8598 78.1463 20.7567 77.895C20.6536 77.6438 20.4953 77.448 20.2818 77.3076C20.0756 77.1598 19.8069 77.0859 19.4755 77.0859Z" fill="#0F0F0F"/>
<path d="M19.4866 76.2878C19.9946 76.2878 20.429 76.3987 20.7898 76.6203C21.158 76.842 21.4378 77.1561 21.6292 77.5625C21.828 77.9615 21.9274 78.4308 21.9274 78.9702V79.5577H17.8741C17.8888 80.2301 18.0582 80.7437 18.3821 81.0984C18.7135 81.4457 19.1736 81.6193 19.7627 81.6193C20.1382 81.6193 20.4695 81.5861 20.7567 81.5196C21.0512 81.4457 21.3531 81.3422 21.6623 81.2092V82.0627C21.3604 82.1957 21.0622 82.2918 20.7677 82.3509C20.4732 82.4174 20.1235 82.4506 19.7185 82.4506C19.1589 82.4506 18.6619 82.3361 18.2275 82.107C17.8004 81.8779 17.4654 81.538 17.2225 81.0873C16.9868 80.6291 16.869 80.0712 16.869 79.4136C16.869 78.7633 16.9758 78.2054 17.1893 77.7398C17.4102 77.2743 17.7158 76.9159 18.106 76.6647C18.5036 76.4134 18.9638 76.2878 19.4866 76.2878ZM19.4755 77.0859C19.0117 77.0859 18.6435 77.2374 18.3711 77.5403C18.106 77.8359 17.9477 78.2497 17.8962 78.7818H20.9113C20.9113 78.4418 20.8598 78.1463 20.7567 77.895C20.6536 77.6438 20.4953 77.448 20.2818 77.3076C20.0756 77.1598 19.8069 77.0859 19.4755 77.0859Z" fill="black" fill-opacity="0.2"/>
<path d="M24.9917 76.2878C25.4408 76.2878 25.8311 76.3506 26.1624 76.4762C26.4937 76.5945 26.7514 76.7718 26.9355 77.0083C27.1196 77.2374 27.2116 77.5182 27.2116 77.8507C27.2116 78.2128 27.1122 78.501 26.9134 78.7153C26.7146 78.9222 26.4422 79.0736 26.0961 79.1697V79.214C26.3318 79.2805 26.549 79.3729 26.7478 79.4911C26.9466 79.6094 27.1049 79.7646 27.2227 79.9567C27.3479 80.1488 27.4104 80.3964 27.4104 80.6993C27.4104 81.0245 27.3184 81.32 27.1343 81.5861C26.9576 81.8521 26.6815 82.0627 26.306 82.2179C25.9378 82.373 25.4629 82.4506 24.8813 82.4506C24.6015 82.4506 24.3327 82.4359 24.075 82.4063C23.8247 82.3767 23.5964 82.3324 23.3903 82.2733C23.1915 82.2142 23.0147 82.144 22.8601 82.0627V81.187C23.1105 81.3053 23.405 81.4124 23.7437 81.5085C24.0897 81.6045 24.4653 81.6526 24.8702 81.6526C25.1647 81.6526 25.4298 81.6193 25.6654 81.5528C25.9084 81.4863 26.0998 81.3829 26.2397 81.2425C26.3796 81.0947 26.4496 80.8951 26.4496 80.6439C26.4496 80.4148 26.387 80.2301 26.2618 80.0897C26.1366 79.9419 25.9489 79.8311 25.6985 79.7572C25.4556 79.6833 25.1426 79.6463 24.7598 79.6463H23.9646V78.8483H24.6051C25.1132 78.8483 25.5182 78.7818 25.82 78.6488C26.1293 78.5083 26.2839 78.2719 26.2839 77.9394C26.2839 77.6586 26.1661 77.448 25.9305 77.3076C25.7022 77.1672 25.3709 77.097 24.9365 77.097C24.6125 77.097 24.3254 77.1302 24.075 77.1967C23.832 77.2558 23.5633 77.3482 23.2688 77.4738L22.9264 76.6979C23.243 76.5575 23.5743 76.4541 23.9204 76.3876C24.2665 76.3211 24.6236 76.2878 24.9917 76.2878Z" fill="#0F0F0F"/>
<path d="M24.9917 76.2878C25.4408 76.2878 25.8311 76.3506 26.1624 76.4762C26.4937 76.5945 26.7514 76.7718 26.9355 77.0083C27.1196 77.2374 27.2116 77.5182 27.2116 77.8507C27.2116 78.2128 27.1122 78.501 26.9134 78.7153C26.7146 78.9222 26.4422 79.0736 26.0961 79.1697V79.214C26.3318 79.2805 26.549 79.3729 26.7478 79.4911C26.9466 79.6094 27.1049 79.7646 27.2227 79.9567C27.3479 80.1488 27.4104 80.3964 27.4104 80.6993C27.4104 81.0245 27.3184 81.32 27.1343 81.5861C26.9576 81.8521 26.6815 82.0627 26.306 82.2179C25.9378 82.373 25.4629 82.4506 24.8813 82.4506C24.6015 82.4506 24.3327 82.4359 24.075 82.4063C23.8247 82.3767 23.5964 82.3324 23.3903 82.2733C23.1915 82.2142 23.0147 82.144 22.8601 82.0627V81.187C23.1105 81.3053 23.405 81.4124 23.7437 81.5085C24.0897 81.6045 24.4653 81.6526 24.8702 81.6526C25.1647 81.6526 25.4298 81.6193 25.6654 81.5528C25.9084 81.4863 26.0998 81.3829 26.2397 81.2425C26.3796 81.0947 26.4496 80.8951 26.4496 80.6439C26.4496 80.4148 26.387 80.2301 26.2618 80.0897C26.1366 79.9419 25.9489 79.8311 25.6985 79.7572C25.4556 79.6833 25.1426 79.6463 24.7598 79.6463H23.9646V78.8483H24.6051C25.1132 78.8483 25.5182 78.7818 25.82 78.6488C26.1293 78.5083 26.2839 78.2719 26.2839 77.9394C26.2839 77.6586 26.1661 77.448 25.9305 77.3076C25.7022 77.1672 25.3709 77.097 24.9365 77.097C24.6125 77.097 24.3254 77.1302 24.075 77.1967C23.832 77.2558 23.5633 77.3482 23.2688 77.4738L22.9264 76.6979C23.243 76.5575 23.5743 76.4541 23.9204 76.3876C24.2665 76.3211 24.6236 76.2878 24.9917 76.2878Z" fill="black" fill-opacity="0.2"/>
<path d="M37.6358 84.4014H36.686V82.3398H31.7933V76.3987H32.7652V81.5196H35.8245V76.3987H36.7964V81.5306H37.6358V84.4014Z" fill="#0F0F0F"/>
<path d="M37.6358 84.4014H36.686V82.3398H31.7933V76.3987H32.7652V81.5196H35.8245V76.3987H36.7964V81.5306H37.6358V84.4014Z" fill="black" fill-opacity="0.2"/>
<path d="M37.8438 76.3987H38.882L40.1631 79.7793C40.2368 79.9789 40.303 80.171 40.3619 80.3557C40.4282 80.5405 40.4871 80.7215 40.5387 80.8988C40.5902 81.0688 40.6307 81.2351 40.6601 81.3976H40.7043C40.7485 81.2129 40.8185 80.9727 40.9142 80.6772C41.0099 80.3742 41.1093 80.0712 41.2124 79.7682L42.4162 76.3987H43.4654L40.9142 83.16C40.7743 83.5295 40.6086 83.8509 40.4172 84.1243C40.2331 84.4051 40.0048 84.6194 39.7324 84.7672C39.4673 84.9224 39.1434 85 38.7605 85C38.5838 85 38.4292 84.9889 38.2966 84.9667C38.1641 84.952 38.05 84.9335 37.9543 84.9113V84.1354C38.0352 84.1502 38.131 84.165 38.2414 84.1798C38.3592 84.1945 38.4807 84.2019 38.6059 84.2019C38.8341 84.2019 39.0293 84.1576 39.1912 84.0689C39.3606 83.9876 39.5042 83.8657 39.622 83.7031C39.7398 83.548 39.8392 83.3632 39.9202 83.1489L40.2294 82.362L37.8438 76.3987Z" fill="#0F0F0F"/>
<path d="M37.8438 76.3987H38.882L40.1631 79.7793C40.2368 79.9789 40.303 80.171 40.3619 80.3557C40.4282 80.5405 40.4871 80.7215 40.5387 80.8988C40.5902 81.0688 40.6307 81.2351 40.6601 81.3976H40.7043C40.7485 81.2129 40.8185 80.9727 40.9142 80.6772C41.0099 80.3742 41.1093 80.0712 41.2124 79.7682L42.4162 76.3987H43.4654L40.9142 83.16C40.7743 83.5295 40.6086 83.8509 40.4172 84.1243C40.2331 84.4051 40.0048 84.6194 39.7324 84.7672C39.4673 84.9224 39.1434 85 38.7605 85C38.5838 85 38.4292 84.9889 38.2966 84.9667C38.1641 84.952 38.05 84.9335 37.9543 84.9113V84.1354C38.0352 84.1502 38.131 84.165 38.2414 84.1798C38.3592 84.1945 38.4807 84.2019 38.6059 84.2019C38.8341 84.2019 39.0293 84.1576 39.1912 84.0689C39.3606 83.9876 39.5042 83.8657 39.622 83.7031C39.7398 83.548 39.8392 83.3632 39.9202 83.1489L40.2294 82.362L37.8438 76.3987Z" fill="black" fill-opacity="0.2"/>
<path d="M47.9027 76.3987H48.963L46.4338 79.2584L49.1728 82.3398H48.0463L45.3735 79.3249V82.3398H44.4016V76.3987H45.3735V79.2805L47.9027 76.3987Z" fill="#0F0F0F"/>
<path d="M47.9027 76.3987H48.963L46.4338 79.2584L49.1728 82.3398H48.0463L45.3735 79.3249V82.3398H44.4016V76.3987H45.3735V79.2805L47.9027 76.3987Z" fill="black" fill-opacity="0.2"/>
<path d="M53.0637 76.2878C53.7927 76.2878 54.378 76.5427 54.8198 77.0526C55.269 77.5625 55.4935 78.331 55.4935 79.3581C55.4935 80.0306 55.3904 80.5996 55.1843 81.0651C54.9855 81.5233 54.702 81.8706 54.3339 82.107C53.9731 82.3361 53.546 82.4506 53.0527 82.4506C52.7508 82.4506 52.4821 82.41 52.2465 82.3287C52.0108 82.2474 51.8084 82.144 51.639 82.0183C51.477 81.8853 51.3371 81.7412 51.2193 81.5861H51.1531C51.1678 81.7117 51.1825 81.8706 51.1972 82.0627C51.212 82.2548 51.2193 82.4211 51.2193 82.5615V85H50.2474V76.3987H51.0426L51.1751 77.2078H51.2193C51.3371 77.0378 51.477 76.8827 51.639 76.7423C51.8084 76.6019 52.0072 76.491 52.2354 76.4097C52.471 76.3285 52.7471 76.2878 53.0637 76.2878ZM52.887 77.108C52.4894 77.108 52.1691 77.1856 51.9262 77.3408C51.6832 77.4886 51.5065 77.714 51.396 78.017C51.2856 78.3199 51.2267 78.7042 51.2193 79.1697V79.3581C51.2193 79.8458 51.2709 80.2597 51.374 80.5996C51.477 80.9395 51.6501 81.1981 51.893 81.3755C52.1434 81.5528 52.4821 81.6415 52.9091 81.6415C53.2699 81.6415 53.5644 81.5417 53.7927 81.3422C54.0283 81.1427 54.2013 80.873 54.3118 80.5331C54.4296 80.1858 54.4885 79.7904 54.4885 79.3471C54.4885 78.6672 54.3559 78.1241 54.0909 77.7177C53.8332 77.3113 53.4319 77.108 52.887 77.108Z" fill="#0F0F0F"/>
<path d="M53.0637 76.2878C53.7927 76.2878 54.378 76.5427 54.8198 77.0526C55.269 77.5625 55.4935 78.331 55.4935 79.3581C55.4935 80.0306 55.3904 80.5996 55.1843 81.0651C54.9855 81.5233 54.702 81.8706 54.3339 82.107C53.9731 82.3361 53.546 82.4506 53.0527 82.4506C52.7508 82.4506 52.4821 82.41 52.2465 82.3287C52.0108 82.2474 51.8084 82.144 51.639 82.0183C51.477 81.8853 51.3371 81.7412 51.2193 81.5861H51.1531C51.1678 81.7117 51.1825 81.8706 51.1972 82.0627C51.212 82.2548 51.2193 82.4211 51.2193 82.5615V85H50.2474V76.3987H51.0426L51.1751 77.2078H51.2193C51.3371 77.0378 51.477 76.8827 51.639 76.7423C51.8084 76.6019 52.0072 76.491 52.2354 76.4097C52.471 76.3285 52.7471 76.2878 53.0637 76.2878ZM52.887 77.108C52.4894 77.108 52.1691 77.1856 51.9262 77.3408C51.6832 77.4886 51.5065 77.714 51.396 78.017C51.2856 78.3199 51.2267 78.7042 51.2193 79.1697V79.3581C51.2193 79.8458 51.2709 80.2597 51.374 80.5996C51.477 80.9395 51.6501 81.1981 51.893 81.3755C52.1434 81.5528 52.4821 81.6415 52.9091 81.6415C53.2699 81.6415 53.5644 81.5417 53.7927 81.3422C54.0283 81.1427 54.2013 80.873 54.3118 80.5331C54.4296 80.1858 54.4885 79.7904 54.4885 79.3471C54.4885 78.6672 54.3559 78.1241 54.0909 77.7177C53.8332 77.3113 53.4319 77.108 52.887 77.108Z" fill="black" fill-opacity="0.2"/>
<path d="M56.0067 76.3987H57.0449L58.3261 79.7793C58.3997 79.9789 58.466 80.171 58.5249 80.3557C58.5911 80.5405 58.6501 80.7215 58.7016 80.8988C58.7531 81.0688 58.7936 81.2351 58.8231 81.3976H58.8673C58.9114 81.2129 58.9814 80.9727 59.0771 80.6772C59.1728 80.3742 59.2722 80.0712 59.3753 79.7682L60.5791 76.3987H61.6284L59.0771 83.16C58.9372 83.5295 58.7715 83.8509 58.5801 84.1243C58.396 84.4051 58.1678 84.6194 57.8953 84.7672C57.6303 84.9224 57.3063 85 56.9234 85C56.7467 85 56.5921 84.9889 56.4596 84.9667C56.327 84.952 56.2129 84.9335 56.1172 84.9113V84.1354C56.1982 84.1502 56.2939 84.165 56.4043 84.1798C56.5222 84.1945 56.6436 84.2019 56.7688 84.2019C56.9971 84.2019 57.1922 84.1576 57.3542 84.0689C57.5235 83.9876 57.6671 83.8657 57.7849 83.7031C57.9027 83.548 58.0021 83.3632 58.0831 83.1489L58.3923 82.362L56.0067 76.3987Z" fill="#0F0F0F"/>
<path d="M56.0067 76.3987H57.0449L58.3261 79.7793C58.3997 79.9789 58.466 80.171 58.5249 80.3557C58.5911 80.5405 58.6501 80.7215 58.7016 80.8988C58.7531 81.0688 58.7936 81.2351 58.8231 81.3976H58.8673C58.9114 81.2129 58.9814 80.9727 59.0771 80.6772C59.1728 80.3742 59.2722 80.0712 59.3753 79.7682L60.5791 76.3987H61.6284L59.0771 83.16C58.9372 83.5295 58.7715 83.8509 58.5801 84.1243C58.396 84.4051 58.1678 84.6194 57.8953 84.7672C57.6303 84.9224 57.3063 85 56.9234 85C56.7467 85 56.5921 84.9889 56.4596 84.9667C56.327 84.952 56.2129 84.9335 56.1172 84.9113V84.1354C56.1982 84.1502 56.2939 84.165 56.4043 84.1798C56.5222 84.1945 56.6436 84.2019 56.7688 84.2019C56.9971 84.2019 57.1922 84.1576 57.3542 84.0689C57.5235 83.9876 57.6671 83.8657 57.7849 83.7031C57.9027 83.548 58.0021 83.3632 58.0831 83.1489L58.3923 82.362L56.0067 76.3987Z" fill="black" fill-opacity="0.2"/>
<path d="M26.4751 48.2955C26.341 48.2955 26.199 48.2638 26.0807 48.1925L14.8469 41.6845C14.6023 41.542 14.4524 41.2807 14.4524 40.9957V27.9797C14.4524 27.6947 14.6023 27.4334 14.8469 27.2909L26.0807 20.7829C26.3252 20.6404 26.625 20.6404 26.8696 20.7829L38.1033 27.2909C38.482 27.5126 38.6082 27.9955 38.3952 28.3756C38.1743 28.7556 37.6931 28.8823 37.3144 28.6685L26.4751 22.3901L16.0302 28.4389V40.5444L26.4751 46.5932L32.8572 42.8959C33.2359 42.6742 33.7171 42.8088 33.938 43.1888C34.1589 43.5688 34.0248 44.0518 33.6461 44.2735L26.8696 48.2004C26.7512 48.2717 26.6092 48.3034 26.4751 48.3034V48.2955Z" fill="black"/>
<path d="M26.4751 35.319C26.341 35.319 26.199 35.2873 26.0807 35.2161L14.8469 28.7081C14.4682 28.4864 14.342 28.0034 14.555 27.6234C14.7759 27.2434 15.2571 27.1167 15.6358 27.3305L26.4751 33.6168L33.4016 29.6977C33.7802 29.484 34.2614 29.6186 34.4744 29.9986C34.6874 30.3786 34.5533 30.8616 34.1747 31.0754L26.8538 35.2161C26.7354 35.2873 26.6013 35.319 26.4672 35.319H26.4751Z" fill="black"/>
<path d="M26.4751 48.2875C26.0412 48.2875 25.6862 47.9313 25.6862 47.4958V34.5273C25.6862 34.0918 26.0412 33.7356 26.4751 33.7356C26.909 33.7356 27.264 34.0918 27.264 34.5273V47.4958C27.264 47.9313 26.909 48.2875 26.4751 48.2875Z" fill="black"/>
<path d="M44.3908 51.0744C44.2567 51.0744 44.1147 51.0427 43.9963 50.9715L32.7626 44.4635C32.518 44.321 32.3681 44.0597 32.3681 43.7747V30.7587C32.3681 30.4736 32.518 30.2124 32.7626 30.0699L43.9963 23.5618C44.2409 23.4193 44.5407 23.4193 44.7852 23.5618L56.019 30.0699C56.2636 30.2124 56.4134 30.4736 56.4134 30.7587V43.7747C56.4134 44.0597 56.2636 44.321 56.019 44.4635L44.7852 50.9715C44.6669 51.0427 44.5249 51.0744 44.3908 51.0744ZM33.9459 43.3155L44.3908 49.3643L54.8357 43.3155V31.2099L44.3908 25.1611L33.9459 31.2099V43.3155Z" fill="black"/>
<path d="M44.3908 38.098C44.2567 38.098 44.1147 38.0663 43.9963 37.9951L32.7626 31.4871C32.3839 31.2654 32.2577 30.7824 32.4707 30.4024C32.6916 30.0224 33.1728 29.8957 33.5514 30.1094L44.3908 36.3879L55.2301 30.1094C55.6088 29.8878 56.09 30.0224 56.3109 30.4024C56.5318 30.7824 56.3977 31.2654 56.019 31.4871L44.7852 37.9951C44.6669 38.0663 44.5249 38.098 44.3908 38.098Z" fill="black"/>
<path d="M44.3908 51.0665C43.9569 51.0665 43.6019 50.7102 43.6019 50.2748V37.3063C43.6019 36.8708 43.9569 36.5145 44.3908 36.5145C44.8247 36.5145 45.1797 36.8708 45.1797 37.3063V50.2748C45.1797 50.7102 44.8247 51.0665 44.3908 51.0665Z" fill="black"/>
<path d="M35.5 71.2556C15.9277 71.2556 0 55.2706 0 35.6278C0 15.985 15.9277 0 35.5 0C55.0723 0 71 15.985 71 35.6278C71 55.2706 55.0723 71.2556 35.5 71.2556ZM35.5 1.58346C16.7954 1.58346 1.57778 16.8559 1.57778 35.6278C1.57778 54.3997 16.7954 69.6721 35.5 69.6721C54.2046 69.6721 69.4222 54.3997 69.4222 35.6278C69.4222 16.8559 54.2046 1.58346 35.5 1.58346ZM35.5 67.2019C27.7294 67.2019 20.2666 64.3359 14.484 59.1184C14.3262 58.9759 14.2316 58.77 14.2237 58.5483C14.2237 58.3346 14.3026 58.1208 14.4524 57.9704L25.6231 46.7595C25.9308 46.4507 26.4278 46.4507 26.7354 46.7595C27.0431 47.0683 27.0431 47.5671 26.7354 47.8758L16.1643 58.4929C21.5603 63.0929 28.3921 65.6185 35.5 65.6185C51.972 65.6185 65.3752 52.167 65.3752 35.6278C65.3752 28.5022 62.8587 21.6459 58.2752 16.2225L48.1143 26.42C47.8067 26.7288 47.3097 26.7288 47.002 26.42C46.6943 26.1112 46.6943 25.6124 47.002 25.3036L57.7624 14.5045C57.9123 14.354 58.1253 14.267 58.3383 14.2749C58.5513 14.2749 58.7564 14.3778 58.9063 14.5361C64.0972 20.3395 66.9609 27.8293 66.9609 35.6278C66.9609 53.0379 52.8477 67.2019 35.5079 67.2019H35.5ZM12.7721 57.0916H12.7563C12.5433 57.0916 12.3382 56.9886 12.1883 56.8303C6.93433 51.0111 4.03911 43.4897 4.03911 35.6278C4.03911 18.2177 18.1523 4.05365 35.5 4.05365C43.3258 4.05365 50.8281 6.9593 56.6186 12.2322C56.7763 12.3747 56.871 12.5806 56.8789 12.8023C56.8789 13.016 56.8 13.2298 56.6501 13.3802L45.5031 24.5673C45.1954 24.8761 44.6984 24.8761 44.3908 24.5673C44.0831 24.2586 44.0831 23.7598 44.3908 23.451L54.9382 12.8577C49.5264 8.19439 42.6552 5.64503 35.5 5.64503C19.028 5.63711 5.61689 19.0965 5.61689 35.6278C5.61689 42.8088 8.165 49.7047 12.8037 55.136L22.5859 45.3186C22.8936 45.0098 23.3906 45.0098 23.6982 45.3186C24.0059 45.6273 24.0059 46.1261 23.6982 46.4349L13.3164 56.854C13.1666 57.0045 12.9693 57.0836 12.7563 57.0836L12.7721 57.0916Z" fill="black"/>
</g>
</svg>
