<svg width="49" height="50" viewBox="0 0 49 50" fill="none" xmlns="http://www.w3.org/2000/svg">
<path d="M24.2616 17.7815L20.988 33.0863H17.0283L20.3023 17.7815H24.2616ZM40.9196 27.664L43.0035 21.9167L44.2028 27.664H40.9196ZM45.3388 33.0863H49L45.8014 17.7815H42.4242C41.6631 17.7815 41.0215 18.2228 40.7375 18.9033L34.7964 33.0863H38.9547L39.7802 30.8006H44.8593L45.3388 33.0863ZM35.0026 28.0898C35.0198 24.0506 29.4189 23.8268 29.4564 22.022C29.4684 21.4737 29.9917 20.8895 31.1352 20.7401C31.7021 20.6672 33.2667 20.6079 35.0401 21.4251L35.7337 18.1784C34.7813 17.8338 33.5555 17.502 32.0302 17.502C28.116 17.502 25.3625 19.5811 25.3404 22.5608C25.3153 24.7642 27.3074 25.9927 28.8051 26.7266C30.3493 27.4767 30.8667 27.9576 30.8591 28.6278C30.8484 29.6546 29.6278 30.1094 28.4912 30.1266C26.4995 30.1576 25.3449 29.5882 24.4248 29.1593L23.706 32.5145C24.6327 32.9386 26.3401 33.3076 28.108 33.3265C32.2694 33.3265 34.9902 31.2718 35.0026 28.0898ZM18.6039 17.7815L12.1885 33.0863H8.00368L4.8464 20.872C4.65501 20.1209 4.48806 19.8448 3.90597 19.5274C2.95383 19.0104 1.38208 18.5267 0 18.2259L0.0936314 17.7815H6.83089C7.68905 17.7815 8.46115 18.3526 8.65771 19.3412L10.3255 28.1982L14.4442 17.7815H18.6039Z" fill="white"/>
</svg>
